  0
SECTION
  2
HEADER
  9
$ACADVER
  1
AC1015
  9
$ACADMAINTVER
 70
     6
  9
$DWGCODEPAGE
  3
ANSI_1252
  9
$INSBASE
 10
0.0
 20
0.0
 30
0.0
  9
$EXTMIN
 10
0.0
 20
0.0
 30
0.0
  9
$EXTMAX
 10
16.0
 20
14.0
 30
0.0
  9
$LIMMIN
 10
0.0
 20
0.0
  9
$LIMMAX
 10
16.0
 20
14.0
  9
$ORTHOMODE
 70
     0
  9
$REGENMODE
 70
     1
  9
$FILLMODE
 70
     1
  9
$QTEXTMODE
 70
     0
  9
$MIRRTEXT
 70
     1
  9
$LTSCALE
 40
1.0
  9
$ATTMODE
 70
     1
  9
$TEXTSIZE
 40
0.1377952756
  9
$TRACEWID
 40
0.05
  9
$TEXTSTYLE
  7
Standard
  9
$CLAYER
  8
0
  9
$CELTYPE
  6
ByLayer
  9
$CECOLOR
 62
   256
  9
$CELTSCALE
 40
1.0
  9
$DISPSILH
 70
     0
  9
$DIMSCALE
 40
1.0
  9
$DIMASZ
 40
0.13
  9
$DIMEXO
 40
0.05
  9
$DIMDLI
 40
0.38
  9
$DIMRND
 40
0.0
  9
$DIMDLE
 40
0.0
  9
$DIMEXE
 40
0.125
  9
$DIMTP
 40
0.0
  9
$DIMTM
 40
0.0
  9
$DIMTXT
 40
0.1377952756
  9
$DIMCEN
 40
0.09
  9
$DIMTSZ
 40
0.0
  9
$DIMTOL
 70
     0
  9
$DIMLIM
 70
     0
  9
$DIMTIH
 70
     1
  9
$DIMTOH
 70
     1
  9
$DIMSE1
 70
     0
  9
$DIMSE2
 70
     0
  9
$DIMTAD
 70
     1
  9
$DIMZIN
 70
     1
  9
$DIMBLK
  1

  9
$DIMASO
 70
     1
  9
$DIMSHO
 70
     1
  9
$DIMPOST
  1

  9
$DIMAPOST
  1

  9
$DIMALT
 70
     0
  9
$DIMALTD
 70
     2
  9
$DIMALTF
 40
25.4
  9
$DIMLFAC
 40
1.0
  9
$DIMTOFL
 70
     0
  9
$DIMTVP
 40
0.0
  9
$DIMTIX
 70
     0
  9
$DIMSOXD
 70
     0
  9
$DIMSAH
 70
     0
  9
$DIMBLK1
  1

  9
$DIMBLK2
  1

  9
$DIMSTYLE
  2
Standard
  9
$DIMCLRD
 70
     0
  9
$DIMCLRE
 70
     0
  9
$DIMCLRT
 70
     0
  9
$DIMTFAC
 40
1.0
  9
$DIMGAP
 40
0.06
  9
$DIMJUST
 70
     0
  9
$DIMSD1
 70
     0
  9
$DIMSD2
 70
     0
  9
$DIMTOLJ
 70
     1
  9
$DIMTZIN
 70
     1
  9
$DIMALTZ
 70
     0
  9
$DIMALTTZ
 70
     0
  9
$DIMUPT
 70
     0
  9
$DIMDEC
 70
     2
  9
$DIMTDEC
 70
     2
  9
$DIMALTU
 70
     2
  9
$DIMALTTD
 70
     2
  9
$DIMTXSTY
  7
Standard
  9
$DIMAUNIT
 70
     0
  9
$DIMADEC
 70
     2
  9
$DIMALTRND
 40
0.0
  9
$DIMAZIN
 70
     0
  9
$DIMDSEP
 70
    46
  9
$DIMATFIT
 70
     3
  9
$DIMFRAC
 70
     0
  9
$DIMLDRBLK
  1

  9
$DIMLUNIT
 70
     2
  9
$DIMLWD
 70
    -2
  9
$DIMLWE
 70
    -2
  9
$DIMTMOVE
 70
     0
  9
$LUNITS
 70
     2
  9
$LUPREC
 70
     8
  9
$SKETCHINC
 40
0.1
  9
$FILLETRAD
 40
0.5
  9
$AUNITS
 70
     0
  9
$AUPREC
 70
     2
  9
$MENU
  1
.
  9
$ELEVATION
 40
0.0
  9
$PELEVATION
 40
0.0
  9
$THICKNESS
 40
0.0
  9
$LIMCHECK
 70
     0
  9
$CHAMFERA
 40
0.0
  9
$CHAMFERB
 40
0.0
  9
$CHAMFERC
 40
0.0
  9
$CHAMFERD
 40
0.0
  9
$SKPOLY
 70
     0
  9
$TDCREATE
 40
2458631.018198078
  9
$TDUCREATE
 40
2458631.309864745
  9
$TDUPDATE
 40
2458631.018198553
  9
$TDUUPDATE
 40
2458631.30986522
  9
$TDINDWG
 40
0.0000000116
  9
$TDUSRTIMER
 40
0.0000000116
  9
$USRTIMER
 70
     1
  9
$ANGBASE
 50
0.0
  9
$ANGDIR
 70
     0
  9
$PDMODE
 70
     0
  9
$PDSIZE
 40
-1.0
  9
$PLINEWID
 40
0.0
  9
$SPLFRAME
 70
     0
  9
$SPLINETYPE
 70
     6
  9
$SPLINESEGS
 70
     8
  9
$HANDSEED
  5
339
  9
$SURFTAB1
 70
     6
  9
$SURFTAB2
 70
     6
  9
$SURFTYPE
 70
     6
  9
$SURFU
 70
     6
  9
$SURFV
 70
     6
  9
$UCSBASE
  2

  9
$UCSNAME
  2

  9
$UCSORG
 10
0.0
 20
0.0
 30
0.0
  9
$UCSXDIR
 10
1.0
 20
0.0
 30
0.0
  9
$UCSYDIR
 10
0.0
 20
1.0
 30
0.0
  9
$UCSORTHOREF
  2

  9
$UCSORTHOVIEW
 70
     0
  9
$UCSORGTOP
 10
0.0
 20
0.0
 30
0.0
  9
$UCSORGBOTTOM
 10
0.0
 20
0.0
 30
0.0
  9
$UCSORGLEFT
 10
0.0
 20
0.0
 30
0.0
  9
$UCSORGRIGHT
 10
0.0
 20
0.0
 30
0.0
  9
$UCSORGFRONT
 10
0.0
 20
0.0
 30
0.0
  9
$UCSORGBACK
 10
0.0
 20
0.0
 30
0.0
  9
$PUCSBASE
  2

  9
$PUCSNAME
  2

  9
$PUCSORG
 10
0.0
 20
0.0
 30
0.0
  9
$PUCSXDIR
 10
1.0
 20
0.0
 30
0.0
  9
$PUCSYDIR
 10
0.0
 20
1.0
 30
0.0
  9
$PUCSORTHOREF
  2

  9
$PUCSORTHOVIEW
 70
     0
  9
$PUCSORGTOP
 10
0.0
 20
0.0
 30
0.0
  9
$PUCSORGBOTTOM
 10
0.0
 20
0.0
 30
0.0
  9
$PUCSORGLEFT
 10
0.0
 20
0.0
 30
0.0
  9
$PUCSORGRIGHT
 10
0.0
 20
0.0
 30
0.0
  9
$PUCSORGFRONT
 10
0.0
 20
0.0
 30
0.0
  9
$PUCSORGBACK
 10
0.0
 20
0.0
 30
0.0
  9
$USERI1
 70
     0
  9
$USERI2
 70
     0
  9
$USERI3
 70
     0
  9
$USERI4
 70
     0
  9
$USERI5
 70
     0
  9
$USERR1
 40
0.0
  9
$USERR2
 40
0.0
  9
$USERR3
 40
0.0
  9
$USERR4
 40
0.0
  9
$USERR5
 40
0.0
  9
$WORLDVIEW
 70
     1
  9
$SHADEDGE
 70
     3
  9
$SHADEDIF
 70
    70
  9
$TILEMODE
 70
     1
  9
$MAXACTVP
 70
    64
  9
$PINSBASE
 10
0.0
 20
0.0
 30
0.0
  9
$PLIMCHECK
 70
     0
  9
$PEXTMIN
 10
1.0000000000E+20
 20
1.0000000000E+20
 30
1.0000000000E+20
  9
$PEXTMAX
 10
-1.0000000000E+20
 20
-1.0000000000E+20
 30
-1.0000000000E+20
  9
$PLIMMIN
 10
0.0
 20
0.0
  9
$PLIMMAX
 10
12.0
 20
9.0
  9
$UNITMODE
 70
     0
  9
$VISRETAIN
 70
     1
  9
$PLINEGEN
 70
     0
  9
$PSLTSCALE
 70
     1
  9
$TREEDEPTH
 70
  3020
  9
$CMLSTYLE
  2
Standard
  9
$CMLJUST
 70
     0
  9
$CMLSCALE
 40
1.0
  9
$PROXYGRAPHICS
 70
     1
  9
$MEASUREMENT
 70
     0
  9
$CELWEIGHT
370
    -1
  9
$ENDCAPS
280
     0
  9
$JOINSTYLE
280
     0
  9
$LWDISPLAY
290
     1
  9
$INSUNITS
 70
     1
  9
$HYPERLINKBASE
  1

  9
$STYLESHEET
  1

  9
$XEDIT
290
     1
  9
$CEPSNTYPE
380
     0
  9
$PSTYLEMODE
290
     1
  9
$FINGERPRINTGUID
  2
{22911BA1-1B8A-456D-AD28-4594BED0B183}
  9
$VERSIONGUID
  2
{FAEB1C32-E019-11D5-929B-00C0DF256EC4}
  9
$EXTNAMES
290
     1
  9
$PSVPSCALE
 40
0.0
  9
$OLESTARTUP
290
     0
  0
ENDSEC
  0
SECTION
  2
CLASSES
  0
CLASS
  1
ACDBDICTIONARYWDFLT
  2
AcDbDictionaryWithDefault
  3
ObjectDBX Classes
 90
        0
280
     0
281
     0
  0
CLASS
  1
VISUALSTYLE
  2
AcDbVisualStyle
  3
ObjectDBX Classes
 90
     4095
280
     0
281
     0
  0
CLASS
  1
MATERIAL
  2
AcDbMaterial
  3
ObjectDBX Classes
 90
     1153
280
     0
281
     0
  0
CLASS
  1
SCALE
  2
AcDbScale
  3
ObjectDBX Classes
 90
     1153
280
     0
281
     0
  0
CLASS
  1
TABLESTYLE
  2
AcDbTableStyle
  3
ObjectDBX Classes
 90
     4095
280
     0
281
     0
  0
CLASS
  1
MLEADERSTYLE
  2
AcDbMLeaderStyle
  3
ACDB_MLEADERSTYLE_CLASS
 90
     4095
280
     0
281
     0
  0
CLASS
  1
SUN
  2
AcDbSun
  3
SCENEOE
 90
     1153
280
     0
281
     0
  0
CLASS
  1
ACDBPLACEHOLDER
  2
AcDbPlaceHolder
  3
ObjectDBX Classes
 90
        0
280
     0
281
     0
  0
CLASS
  1
LAYOUT
  2
AcDbLayout
  3
ObjectDBX Classes
 90
        0
280
     0
281
     0
  0
ENDSEC
  0
SECTION
  2
TABLES
  0
TABLE
  2
VPORT
  5
8
330
0
100
AcDbSymbolTable
 70
     1
  0
VPORT
  5
29
330
8
100
AcDbSymbolTableRecord
100
AcDbViewportTableRecord
  2
*Active
 70
     0
 10
0.0
 20
0.0
 11
1.0
 21
1.0
 12
8.0
 22
7.0
 13
0.0
 23
0.0
 14
0.5
 24
0.5
 15
0.5
 25
0.5
 16
0.0
 26
0.0
 36
1.0
 17
0.0
 27
0.0
 37
0.0
 40
14.0
 41
1.1428571429
 42
50.0
 43
0.0
 44
0.0
 50
0.0
 51
0.0
 71
     0
 72
  2000
 73
     1
 74
     3
 75
     0
 76
     0
 77
     0
 78
     0
281
     0
 65
     1
110
0.0
120
0.0
130
0.0
111
1.0
121
0.0
131
0.0
112
0.0
122
1.0
132
0.0
 79
     0
146
0.0
  0
ENDTAB
  0
TABLE
  2
LTYPE
  5
5
330
0
100
AcDbSymbolTable
 70
     6
  0
LTYPE
  5
14
330
5
100
AcDbSymbolTableRecord
100
AcDbLinetypeTableRecord
  2
ByBlock
 70
     0
  3

 72
    65
 73
     0
 40
0.0
  0
LTYPE
  5
15
330
5
100
AcDbSymbolTableRecord
100
AcDbLinetypeTableRecord
  2
ByLayer
 70
     0
  3

 72
    65
 73
     0
 40
0.0
  0
LTYPE
  5
16
330
5
100
AcDbSymbolTableRecord
100
AcDbLinetypeTableRecord
  2
Continuous
 70
     0
  3
Solid line
 72
    65
 73
     0
 40
0.0
  0
LTYPE
  5
6E
330
5
100
AcDbSymbolTableRecord
100
AcDbLinetypeTableRecord
  2
HIDDEN
 70
     0
  3
Hidden __ __ __ __ __ __ __ __ __ __ __ __ __ __
 72
    65
 73
     2
 40
0.075
 49
0.05
 74
     0
 49
-0.025
 74
     0
  0
LTYPE
  5
6F
330
5
100
AcDbSymbolTableRecord
100
AcDbLinetypeTableRecord
  2
PHANTOM
 70
     0
  3
Phantom ______  __  __  ______  __  __  ______
 72
    65
 73
     6
 40
0.5
 49
0.25
 74
     0
 49
-0.05
 74
     0
 49
0.05
 74
     0
 49
-0.05
 74
     0
 49
0.05
 74
     0
 49
-0.05
 74
     0
  0
LTYPE
  5
70
330
5
100
AcDbSymbolTableRecord
100
AcDbLinetypeTableRecord
  2
CENTER
 70
     0
  3
Center ____ _ ____ _ ____ _ ____ _ ____ _ ____
 72
    65
 73
     4
 40
0.4
 49
0.25
 74
     0
 49
-0.05
 74
     0
 49
0.05
 74
     0
 49
-0.05
 74
     0
  0
LTYPE
  5
71
330
5
100
AcDbSymbolTableRecord
100
AcDbLinetypeTableRecord
  2
CENTERX2
 70
     0
  3
Center (2x) ________  __  ________  __  _____
 72
    65
 73
     4
 40
0.8
 49
0.5
 74
     0
 49
-0.1
 74
     0
 49
0.1
 74
     0
 49
-0.1
 74
     0
  0
LTYPE
  5
72
330
5
100
AcDbSymbolTableRecord
100
AcDbLinetypeTableRecord
  2
DOT2
 70
     0
  3
Dot (.5x) ........................................
 72
    65
 73
     2
 40
0.025
 49
0.0
 74
     0
 49
-0.025
 74
     0
  0
ENDTAB
  0
TABLE
  2
LAYER
  5
2
330
0
100
AcDbSymbolTable
 70
     1
  0
LAYER
  5
10
330
2
100
AcDbSymbolTableRecord
100
AcDbLayerTableRecord
  2
0
 70
     0
 62
     7
  6
Continuous
370
    -3
390
F
  0
ENDTAB
  0
TABLE
  2
STYLE
  5
3
330
0
100
AcDbSymbolTable
 70
     2
  0
STYLE
  5
11
330
3
100
AcDbSymbolTableRecord
100
AcDbTextStyleTableRecord
  2
Standard
 70
     0
 40
0.0
 41
1.0
 50
0.0
 71
     0
 42
0.1377952756
  3
txt
  4

  0
STYLE
  5
336
330
3
100
AcDbSymbolTableRecord
100
AcDbTextStyleTableRecord
  2
SLDTEXTSTYLE0
 70
     0
 40
0.0
 41
0.7
 50
0.0
 71
     0
 42
0.1377952756
  3
TXT
  4

  0
ENDTAB
  0
TABLE
  2
VIEW
  5
6
330
0
100
AcDbSymbolTable
 70
     0
  0
ENDTAB
  0
TABLE
  2
UCS
  5
7
330
0
100
AcDbSymbolTable
 70
     0
  0
ENDTAB
  0
TABLE
  2
APPID
  5
9
330
0
100
AcDbSymbolTable
 70
     1
  0
APPID
  5
12
330
9
100
AcDbSymbolTableRecord
100
AcDbRegAppTableRecord
  2
ACAD
 70
     0
  0
ENDTAB
  0
TABLE
  2
DIMSTYLE
  5
A
330
0
100
AcDbSymbolTable
 70
     1
100
AcDbDimStyleTable
  0
DIMSTYLE
105
27
330
A
100
AcDbSymbolTableRecord
100
AcDbDimStyleTableRecord
  2
Standard
 70
     0
178
     0
340
11
  0
ENDTAB
  0
TABLE
  2
BLOCK_RECORD
  5
1
330
0
100
AcDbSymbolTable
 70
     1
  0
BLOCK_RECORD
  5
1F
330
1
100
AcDbSymbolTableRecord
100
AcDbBlockTableRecord
  2
*Model_Space
340
22
  0
BLOCK_RECORD
  5
1B
330
1
100
AcDbSymbolTableRecord
100
AcDbBlockTableRecord
  2
*Paper_Space
340
1E
  0
BLOCK_RECORD
  5
23
330
1
100
AcDbSymbolTableRecord
100
AcDbBlockTableRecord
  2
*Paper_Space0
340
26
  0
ENDTAB
  0
ENDSEC
  0
SECTION
  2
BLOCKS
  0
BLOCK
  5
20
330
1F
100
AcDbEntity
  8
0
100
AcDbBlockBegin
  2
*Model_Space
 70
     0
 10
0.0
 20
0.0
 30
0.0
  3
*Model_Space
  1

  0
ENDBLK
  5
21
330
1F
100
AcDbEntity
  8
0
100
AcDbBlockEnd
  0
BLOCK
  5
1C
330
1B
100
AcDbEntity
 67
     1
  8
0
100
AcDbBlockBegin
  2
*Paper_Space
 70
     0
 10
0.0
 20
0.0
 30
0.0
  3
*Paper_Space
  1

  0
ENDBLK
  5
1D
330
1B
100
AcDbEntity
 67
     1
  8
0
100
AcDbBlockEnd
  0
BLOCK
  5
24
330
23
100
AcDbEntity
  8
0
100
AcDbBlockBegin
  2
*Paper_Space0
 70
     0
 10
0.0
 20
0.0
 30
0.0
  3
*Paper_Space0
  1

  0
ENDBLK
  5
25
330
23
100
AcDbEntity
  8
0
100
AcDbBlockEnd
  0
ENDSEC
  0
SECTION
  2
ENTITIES
  0
LINE
  5
73
330
1F
100
AcDbEntity
  8
0
  6
Continuous
 62
     7
370
    18
100
AcDbLine
 10
0.5444188762
 20
12.2320926082
 30
0.0
 11
0.5316036319
 21
12.2297613054
 31
0.0
  0
CIRCLE
  5
74
330
1F
100
AcDbEntity
  8
0
  6
Continuous
 62
     7
370
    18
100
AcDbCircle
 10
1.6436896042
 20
12.3437345591
 30
0.0
 40
0.09375
  0
LINE
  5
75
330
1F
100
AcDbEntity
  8
0
  6
Continuous
 62
     7
370
    18
100
AcDbLine
 10
0.5663902726
 20
12.2327596208
 30
0.0
 11
0.5444188762
 21
12.2320926082
 31
0.0
  0
LINE
  5
76
330
1F
100
AcDbEntity
  8
0
  6
Continuous
 62
     7
370
    18
100
AcDbLine
 10
0.620975555
 20
12.2460195221
 30
0.0
 11
0.5663902726
 21
12.2327596208
 31
0.0
  0
LINE
  5
77
330
1F
100
AcDbEntity
  8
0
  6
Continuous
 62
     7
370
    18
100
AcDbLine
 10
0.6469620965
 20
12.269216224
 30
0.0
 11
0.620975555
 21
12.2460195221
 31
0.0
  0
LINE
  5
78
330
1F
100
AcDbEntity
  8
0
  6
Continuous
 62
     7
370
    18
100
AcDbLine
 10
0.6469620965
 20
12.4182528943
 30
0.0
 11
0.6469620965
 21
12.269216224
 31
0.0
  0
LINE
  5
79
330
1F
100
AcDbEntity
  8
0
  6
Continuous
 62
     7
370
    18
100
AcDbLine
 10
0.620975555
 20
12.4414495962
 30
0.0
 11
0.6469620965
 21
12.4182528943
 31
0.0
  0
LINE
  5
7A
330
1F
100
AcDbEntity
  8
0
  6
Continuous
 62
     7
370
    18
100
AcDbLine
 10
0.5663902726
 20
12.4547094975
 30
0.0
 11
0.620975555
 21
12.4414495962
 31
0.0
  0
LINE
  5
7B
330
1F
100
AcDbEntity
  8
0
  6
Continuous
 62
     7
370
    18
100
AcDbLine
 10
0.5444188762
 20
12.4553765101
 30
0.0
 11
0.5663902726
 21
12.4547094975
 31
0.0
  0
LINE
  5
7C
330
1F
100
AcDbEntity
  8
0
  6
Continuous
 62
     7
370
    18
100
AcDbLine
 10
0.5316036319
 20
12.4577078129
 30
0.0
 11
0.5444188762
 21
12.4553765101
 31
0.0
  0
LINE
  5
7D
330
1F
100
AcDbEntity
  8
0
  6
Continuous
 62
     7
370
    18
100
AcDbLine
 10
0.4958596578
 20
12.4699329721
 30
0.0
 11
0.5316036319
 21
12.4577078129
 31
0.0
  0
LINE
  5
7E
330
1F
100
AcDbEntity
  8
0
  6
Continuous
 62
     7
370
    18
100
AcDbLine
 10
0.4403730371
 20
12.4987598371
 30
0.0
 11
0.4958596578
 21
12.4699329721
 31
0.0
  0
LINE
  5
7F
330
1F
100
AcDbEntity
  8
0
  6
Continuous
 62
     7
370
    18
100
AcDbLine
 10
0.3697846585
 20
12.5500915752
 30
0.0
 11
0.4403730371
 21
12.4987598371
 31
0.0
  0
LINE
  5
80
330
1F
100
AcDbEntity
  8
0
  6
Continuous
 62
     7
370
    18
100
AcDbLine
 10
0.3352951804
 20
12.5840980795
 30
0.0
 11
0.3697846585
 21
12.5500915752
 31
0.0
  0
LINE
  5
81
330
1F
100
AcDbEntity
  8
0
  6
Continuous
 62
     7
370
    18
100
AcDbLine
 10
0.3437857213
 20
12.6404291377
 30
0.0
 11
0.3352951804
 21
12.5840980795
 31
0.0
  0
LINE
  5
82
330
1F
100
AcDbEntity
  8
0
  6
Continuous
 62
     7
370
    18
100
AcDbLine
 10
0.3605771384
 20
12.6948655751
 30
0.0
 11
0.3437857213
 21
12.6404291377
 31
0.0
  0
LINE
  5
83
330
1F
100
AcDbEntity
  8
0
  6
Continuous
 62
     7
370
    18
100
AcDbLine
 10
0.4064059537
 20
12.7105399531
 30
0.0
 11
0.3605771384
 21
12.6948655751
 31
0.0
  0
LINE
  5
84
330
1F
100
AcDbEntity
  8
0
  6
Continuous
 62
     7
370
    18
100
AcDbLine
 10
0.4922758918
 20
12.7261611014
 30
0.0
 11
0.4064059537
 21
12.7105399531
 31
0.0
  0
LINE
  5
85
330
1F
100
AcDbEntity
  8
0
  6
Continuous
 62
     7
370
    18
100
AcDbLine
 10
0.5547751176
 20
12.7280584669
 30
0.0
 11
0.4922758918
 21
12.7261611014
 31
0.0
  0
LINE
  5
86
330
1F
100
AcDbEntity
  8
0
  6
Continuous
 62
     7
370
    18
100
AcDbLine
 10
0.5922836232
 20
12.7235642256
 30
0.0
 11
0.5547751176
 21
12.7280584669
 31
0.0
  0
LINE
  5
87
330
1F
100
AcDbEntity
  8
0
  6
Continuous
 62
     7
370
    18
100
AcDbLine
 10
0.6048412738
 20
12.7201043307
 30
0.0
 11
0.5922836232
 21
12.7235642256
 31
0.0
  0
LINE
  5
88
330
1F
100
AcDbEntity
  8
0
  6
Continuous
 62
     7
370
    18
100
AcDbLine
 10
0.6249262238
 20
12.7111722567
 30
0.0
 11
0.6048412738
 21
12.7201043307
 31
0.0
  0
LINE
  5
89
330
1F
100
AcDbEntity
  8
0
  6
Continuous
 62
     7
370
    18
100
AcDbLine
 10
0.6798591195
 20
12.6994353485
 30
0.0
 11
0.6249262238
 21
12.7111722567
 31
0.0
  0
LINE
  5
8A
330
1F
100
AcDbEntity
  8
0
  6
Continuous
 62
     7
370
    18
100
AcDbLine
 10
0.7133368561
 20
12.7090597169
 30
0.0
 11
0.6798591195
 21
12.6994353485
 31
0.0
  0
LINE
  5
8B
330
1F
100
AcDbEntity
  8
0
  6
Continuous
 62
     7
370
    18
100
AcDbLine
 10
0.7780014439
 20
12.8433371171
 30
0.0
 11
0.7133368561
 21
12.7090597169
 31
0.0
  0
LINE
  5
8C
330
1F
100
AcDbEntity
  8
0
  6
Continuous
 62
     7
370
    18
100
AcDbLine
 10
0.7646530508
 20
12.8755117612
 30
0.0
 11
0.7780014439
 21
12.8433371171
 31
0.0
  0
LINE
  5
8D
330
1F
100
AcDbEntity
  8
0
  6
Continuous
 62
     7
370
    18
100
AcDbLine
 10
0.7212266662
 20
12.9111421858
 30
0.0
 11
0.7646530508
 21
12.8755117612
 31
0.0
  0
LINE
  5
8E
330
1F
100
AcDbEntity
  8
0
  6
Continuous
 62
     7
370
    18
100
AcDbLine
 10
0.701720528
 20
12.921276175
 30
0.0
 11
0.7212266662
 21
12.9111421858
 31
0.0
  0
LINE
  5
8F
330
1F
100
AcDbEntity
  8
0
  6
Continuous
 62
     7
370
    18
100
AcDbLine
 10
0.6911859063
 20
12.9289369324
 30
0.0
 11
0.701720528
 21
12.921276175
 31
0.0
  0
LINE
  5
90
330
1F
100
AcDbEntity
  8
0
  6
Continuous
 62
     7
370
    18
100
AcDbLine
 10
0.6642859961
 20
12.9554601493
 30
0.0
 11
0.6911859063
 21
12.9289369324
 31
0.0
  0
LINE
  5
91
330
1F
100
AcDbEntity
  8
0
  6
Continuous
 62
     7
370
    18
100
AcDbLine
 10
0.6268017863
 20
13.0055069998
 30
0.0
 11
0.6642859961
 21
12.9554601493
 31
0.0
  0
LINE
  5
92
330
1F
100
AcDbEntity
  8
0
  6
Continuous
 62
     7
370
    18
100
AcDbLine
 10
0.5854758612
 20
13.0823824474
 30
0.0
 11
0.6268017863
 21
13.0055069998
 31
0.0
  0
LINE
  5
93
330
1F
100
AcDbEntity
  8
0
  6
Continuous
 62
     7
370
    18
100
AcDbLine
 10
0.5691567844
 20
13.1279856728
 30
0.0
 11
0.5854758612
 21
13.0823824474
 31
0.0
  0
LINE
  5
94
330
1F
100
AcDbEntity
  8
0
  6
Continuous
 62
     7
370
    18
100
AcDbLine
 10
0.6012476276
 20
13.1750542949
 30
0.0
 11
0.5691567844
 21
13.1279856728
 31
0.0
  0
LINE
  5
95
330
1F
100
AcDbEntity
  8
0
  6
Continuous
 62
     7
370
    18
100
AcDbLine
 10
0.6399952566
 20
13.2168143074
 30
0.0
 11
0.6012476276
 21
13.1750542949
 31
0.0
  0
LINE
  5
96
330
1F
100
AcDbEntity
  8
0
  6
Continuous
 62
     7
370
    18
100
AcDbLine
 10
0.6880864502
 20
13.2110520563
 30
0.0
 11
0.6399952566
 21
13.2168143074
 31
0.0
  0
LINE
  5
97
330
1F
100
AcDbEntity
  8
0
  6
Continuous
 62
     7
370
    18
100
AcDbLine
 10
0.7722303533
 20
13.1878686547
 30
0.0
 11
0.6880864502
 21
13.2110520563
 31
0.0
  0
LINE
  5
98
330
1F
100
AcDbEntity
  8
0
  6
Continuous
 62
     7
370
    18
100
AcDbLine
 10
0.8293634461
 20
13.1624607242
 30
0.0
 11
0.7722303533
 21
13.1878686547
 31
0.0
  0
LINE
  5
99
330
1F
100
AcDbEntity
  8
0
  6
Continuous
 62
     7
370
    18
100
AcDbLine
 10
0.8612074637
 20
13.142137222
 30
0.0
 11
0.8293634461
 21
13.1624607242
 31
0.0
  0
LINE
  5
9A
330
1F
100
AcDbEntity
  8
0
  6
Continuous
 62
     7
370
    18
100
AcDbLine
 10
0.8710203238
 20
13.1335714041
 30
0.0
 11
0.8612074637
 21
13.142137222
 31
0.0
  0
LINE
  5
9B
330
1F
100
AcDbEntity
  8
0
  6
Continuous
 62
     7
370
    18
100
AcDbLine
 10
0.8852407568
 20
13.1168093503
 30
0.0
 11
0.8710203238
 21
13.1335714041
 31
0.0
  0
LINE
  5
9C
330
1F
100
AcDbEntity
  8
0
  6
Continuous
 62
     7
370
    18
100
AcDbLine
 10
0.929641132
 20
13.0824002712
 30
0.0
 11
0.8852407568
 21
13.1168093503
 31
0.0
  0
LINE
  5
9D
330
1F
100
AcDbEntity
  8
0
  6
Continuous
 62
     7
370
    18
100
AcDbLine
 10
0.9639793874
 20
13.076546082
 30
0.0
 11
0.929641132
 21
13.0824002712
 31
0.0
  0
LINE
  5
9E
330
1F
100
AcDbEntity
  8
0
  6
Continuous
 62
     7
370
    18
100
AcDbLine
 10
1.0805009484
 20
13.1694689261
 30
0.0
 11
0.9639793874
 21
13.076546082
 31
0.0
  0
LINE
  5
9F
330
1F
100
AcDbEntity
  8
0
  6
Continuous
 62
     7
370
    18
100
AcDbLine
 10
1.0824345166
 20
13.2042489294
 30
0.0
 11
1.0805009484
 21
13.1694689261
 31
0.0
  0
LINE
  5
A0
330
1F
100
AcDbEntity
  8
0
  6
Continuous
 62
     7
370
    18
100
AcDbLine
 10
1.0587681579
 20
13.2551928349
 30
0.0
 11
1.0824345166
 21
13.2042489294
 31
0.0
  0
LINE
  5
A1
330
1F
100
AcDbEntity
  8
0
  6
Continuous
 62
     7
370
    18
100
AcDbLine
 10
1.0455907078
 20
13.2727866399
 30
0.0
 11
1.0587681579
 21
13.2551928349
 31
0.0
  0
LINE
  5
A2
330
1F
100
AcDbEntity
  8
0
  6
Continuous
 62
     7
370
    18
100
AcDbLine
 10
1.0394232196
 20
13.2842595448
 30
0.0
 11
1.0455907078
 21
13.2727866399
 31
0.0
  0
LINE
  5
A3
330
1F
100
AcDbEntity
  8
0
  6
Continuous
 62
     7
370
    18
100
AcDbLine
 10
1.0266952306
 20
13.3198275712
 30
0.0
 11
1.0394232196
 21
13.2842595448
 31
0.0
  0
LINE
  5
A4
330
1F
100
AcDbEntity
  8
0
  6
Continuous
 62
     7
370
    18
100
AcDbLine
 10
1.0146376391
 20
13.3811820145
 30
0.0
 11
1.0266952306
 21
13.3198275712
 31
0.0
  0
LINE
  5
A5
330
1F
100
AcDbEntity
  8
0
  6
Continuous
 62
     7
370
    18
100
AcDbLine
 10
1.0107592738
 20
13.4683750464
 30
0.0
 11
1.0146376391
 21
13.3811820145
 31
0.0
  0
LINE
  5
A6
330
1F
100
AcDbEntity
  8
0
  6
Continuous
 62
     7
370
    18
100
AcDbLine
 10
1.0158427916
 20
13.5165427148
 30
0.0
 11
1.0107592738
 21
13.4683750464
 31
0.0
  0
LINE
  5
A7
330
1F
100
AcDbEntity
  8
0
  6
Continuous
 62
     7
370
    18
100
AcDbLine
 10
1.065177952
 20
13.545026383
 30
0.0
 11
1.0158427916
 21
13.5165427148
 31
0.0
  0
LINE
  5
A8
330
1F
100
AcDbEntity
  8
0
  6
Continuous
 62
     7
370
    18
100
AcDbLine
 10
1.1182073499
 20
13.565838888
 30
0.0
 11
1.065177952
 21
13.545026383
 31
0.0
  0
LINE
  5
A9
330
1F
100
AcDbEntity
  8
0
  6
Continuous
 62
     7
370
    18
100
AcDbLine
 10
1.159035871
 20
13.5397812922
 30
0.0
 11
1.1182073499
 21
13.565838888
 31
0.0
  0
LINE
  5
AA
330
1F
100
AcDbEntity
  8
0
  6
Continuous
 62
     7
370
    18
100
AcDbLine
 10
1.2247880072
 20
13.4823850979
 30
0.0
 11
1.159035871
 21
13.5397812922
 31
0.0
  0
LINE
  5
AB
330
1F
100
AcDbEntity
  8
0
  6
Continuous
 62
     7
370
    18
100
AcDbLine
 10
1.2652390572
 20
13.4347042235
 30
0.0
 11
1.2247880072
 21
13.4823850979
 31
0.0
  0
LINE
  5
AC
330
1F
100
AcDbEntity
  8
0
  6
Continuous
 62
     7
370
    18
100
AcDbLine
 10
1.2851114886
 20
13.4025767793
 30
0.0
 11
1.2652390572
 21
13.4347042235
 31
0.0
  0
LINE
  5
AD
330
1F
100
AcDbEntity
  8
0
  6
Continuous
 62
     7
370
    18
100
AcDbLine
 10
1.290236001
 20
13.3906016037
 30
0.0
 11
1.2851114886
 21
13.4025767793
 31
0.0
  0
LINE
  5
AE
330
1F
100
AcDbEntity
  8
0
  6
Continuous
 62
     7
370
    18
100
AcDbLine
 10
1.2957753858
 20
13.3693295003
 30
0.0
 11
1.290236001
 21
13.3906016037
 31
0.0
  0
LINE
  5
AF
330
1F
100
AcDbEntity
  8
0
  6
Continuous
 62
     7
370
    18
100
AcDbLine
 10
1.3208492017
 20
13.3190633905
 30
0.0
 11
1.2957753858
 21
13.3693295003
 31
0.0
  0
LINE
  5
B0
330
1F
100
AcDbEntity
  8
0
  6
Continuous
 62
     7
370
    18
100
AcDbLine
 10
1.3492468633
 20
13.2988901376
 30
0.0
 11
1.3208492017
 21
13.3190633905
 31
0.0
  0
LINE
  5
B1
330
1F
100
AcDbEntity
  8
0
  6
Continuous
 62
     7
370
    18
100
AcDbLine
 10
1.4945468732
 20
13.3320539167
 30
0.0
 11
1.3492468633
 21
13.2988901376
 31
0.0
  0
LINE
  5
B2
330
1F
100
AcDbEntity
  8
0
  6
Continuous
 62
     7
370
    18
100
AcDbLine
 10
1.5113794359
 20
13.3625506731
 30
0.0
 11
1.4945468732
 21
13.3320539167
 31
0.0
  0
LINE
  5
B3
330
1F
100
AcDbEntity
  8
0
  6
Continuous
 62
     7
370
    18
100
AcDbLine
 10
1.5121605157
 20
13.4187179942
 30
0.0
 11
1.5113794359
 21
13.3625506731
 31
0.0
  0
LINE
  5
B4
330
1F
100
AcDbEntity
  8
0
  6
Continuous
 62
     7
370
    18
100
AcDbLine
 10
1.5079217092
 20
13.4402869461
 30
0.0
 11
1.5121605157
 21
13.4187179942
 31
0.0
  0
LINE
  5
B5
330
1F
100
AcDbEntity
  8
0
  6
Continuous
 62
     7
370
    18
100
AcDbLine
 10
1.5073429013
 20
13.4532996491
 30
0.0
 11
1.5079217092
 21
13.4402869461
 31
0.0
  0
LINE
  5
B6
330
1F
100
AcDbEntity
  8
0
  6
Continuous
 62
     7
370
    18
100
AcDbLine
 10
1.5113077677
 20
13.490867801
 30
0.0
 11
1.5073429013
 21
13.4532996491
 31
0.0
  0
LINE
  5
B7
330
1F
100
AcDbEntity
  8
0
  6
Continuous
 62
     7
370
    18
100
AcDbLine
 10
1.5270649484
 20
13.5513778372
 30
0.0
 11
1.5113077677
 21
13.490867801
 31
0.0
  0
LINE
  5
B8
330
1F
100
AcDbEntity
  8
0
  6
Continuous
 62
     7
370
    18
100
AcDbLine
 10
1.5614023007
 20
13.6316188041
 30
0.0
 11
1.5270649484
 21
13.5513778372
 31
0.0
  0
LINE
  5
B9
330
1F
100
AcDbEntity
  8
0
  6
Continuous
 62
     7
370
    18
100
AcDbLine
 10
1.5868815601
 20
13.6728107181
 30
0.0
 11
1.5614023007
 21
13.6316188041
 31
0.0
  0
LINE
  5
BA
330
1F
100
AcDbEntity
  8
0
  6
Continuous
 62
     7
370
    18
100
AcDbLine
 10
1.6436896042
 20
13.6770678924
 30
0.0
 11
1.5868815601
 21
13.6728107181
 31
0.0
  0
LINE
  5
BB
330
1F
100
AcDbEntity
  8
0
  6
Continuous
 62
     7
370
    18
100
AcDbLine
 10
1.7004976482
 20
13.6728107181
 30
0.0
 11
1.6436896042
 21
13.6770678924
 31
0.0
  0
LINE
  5
BC
330
1F
100
AcDbEntity
  8
0
  6
Continuous
 62
     7
370
    18
100
AcDbLine
 10
1.7259769076
 20
13.6316188041
 30
0.0
 11
1.7004976482
 21
13.6728107181
 31
0.0
  0
LINE
  5
BD
330
1F
100
AcDbEntity
  8
0
  6
Continuous
 62
     7
370
    18
100
AcDbLine
 10
1.7603142599
 20
13.5513778372
 30
0.0
 11
1.7259769076
 21
13.6316188041
 31
0.0
  0
LINE
  5
BE
330
1F
100
AcDbEntity
  8
0
  6
Continuous
 62
     7
370
    18
100
AcDbLine
 10
1.7760714406
 20
13.490867801
 30
0.0
 11
1.7603142599
 21
13.5513778372
 31
0.0
  0
LINE
  5
BF
330
1F
100
AcDbEntity
  8
0
  6
Continuous
 62
     7
370
    18
100
AcDbLine
 10
1.780036307
 20
13.4532996491
 30
0.0
 11
1.7760714406
 21
13.490867801
 31
0.0
  0
LINE
  5
C0
330
1F
100
AcDbEntity
  8
0
  6
Continuous
 62
     7
370
    18
100
AcDbLine
 10
1.7794574991
 20
13.4402869461
 30
0.0
 11
1.780036307
 21
13.4532996491
 31
0.0
  0
LINE
  5
C1
330
1F
100
AcDbEntity
  8
0
  6
Continuous
 62
     7
370
    18
100
AcDbLine
 10
1.7752186926
 20
13.4187179942
 30
0.0
 11
1.7794574991
 21
13.4402869461
 31
0.0
  0
LINE
  5
C2
330
1F
100
AcDbEntity
  8
0
  6
Continuous
 62
     7
370
    18
100
AcDbLine
 10
1.7759997725
 20
13.3625506731
 30
0.0
 11
1.7752186926
 21
13.4187179942
 31
0.0
  0
LINE
  5
C3
330
1F
100
AcDbEntity
  8
0
  6
Continuous
 62
     7
370
    18
100
AcDbLine
 10
1.7928323351
 20
13.3320539167
 30
0.0
 11
1.7759997725
 21
13.3625506731
 31
0.0
  0
LINE
  5
C4
330
1F
100
AcDbEntity
  8
0
  6
Continuous
 62
     7
370
    18
100
AcDbLine
 10
1.938132345
 20
13.2988901376
 30
0.0
 11
1.7928323351
 21
13.3320539167
 31
0.0
  0
LINE
  5
C5
330
1F
100
AcDbEntity
  8
0
  6
Continuous
 62
     7
370
    18
100
AcDbLine
 10
1.9665300066
 20
13.3190633905
 30
0.0
 11
1.938132345
 21
13.2988901376
 31
0.0
  0
LINE
  5
C6
330
1F
100
AcDbEntity
  8
0
  6
Continuous
 62
     7
370
    18
100
AcDbLine
 10
1.9916038225
 20
13.3693295003
 30
0.0
 11
1.9665300066
 21
13.3190633905
 31
0.0
  0
LINE
  5
C7
330
1F
100
AcDbEntity
  8
0
  6
Continuous
 62
     7
370
    18
100
AcDbLine
 10
1.9971432073
 20
13.3906016037
 30
0.0
 11
1.9916038225
 21
13.3693295003
 31
0.0
  0
LINE
  5
C8
330
1F
100
AcDbEntity
  8
0
  6
Continuous
 62
     7
370
    18
100
AcDbLine
 10
2.0022677197
 20
13.4025767793
 30
0.0
 11
1.9971432073
 21
13.3906016037
 31
0.0
  0
LINE
  5
C9
330
1F
100
AcDbEntity
  8
0
  6
Continuous
 62
     7
370
    18
100
AcDbLine
 10
2.0221401511
 20
13.4347042235
 30
0.0
 11
2.0022677197
 21
13.4025767793
 31
0.0
  0
LINE
  5
CA
330
1F
100
AcDbEntity
  8
0
  6
Continuous
 62
     7
370
    18
100
AcDbLine
 10
2.0625912011
 20
13.4823850979
 30
0.0
 11
2.0221401511
 21
13.4347042235
 31
0.0
  0
LINE
  5
CB
330
1F
100
AcDbEntity
  8
0
  6
Continuous
 62
     7
370
    18
100
AcDbLine
 10
2.1283433373
 20
13.5397812922
 30
0.0
 11
2.0625912011
 21
13.4823850979
 31
0.0
  0
LINE
  5
CC
330
1F
100
AcDbEntity
  8
0
  6
Continuous
 62
     7
370
    18
100
AcDbLine
 10
2.1691718584
 20
13.565838888
 30
0.0
 11
2.1283433373
 21
13.5397812922
 31
0.0
  0
LINE
  5
CD
330
1F
100
AcDbEntity
  8
0
  6
Continuous
 62
     7
370
    18
100
AcDbLine
 10
2.2222012563
 20
13.545026383
 30
0.0
 11
2.1691718584
 21
13.565838888
 31
0.0
  0
LINE
  5
CE
330
1F
100
AcDbEntity
  8
0
  6
Continuous
 62
     7
370
    18
100
AcDbLine
 10
2.2715364167
 20
13.5165427148
 30
0.0
 11
2.2222012563
 21
13.545026383
 31
0.0
  0
LINE
  5
CF
330
1F
100
AcDbEntity
  8
0
  6
Continuous
 62
     7
370
    18
100
AcDbLine
 10
2.2766199345
 20
13.4683750464
 30
0.0
 11
2.2715364167
 21
13.5165427148
 31
0.0
  0
LINE
  5
D0
330
1F
100
AcDbEntity
  8
0
  6
Continuous
 62
     7
370
    18
100
AcDbLine
 10
2.2727415692
 20
13.3811820145
 30
0.0
 11
2.2766199345
 21
13.4683750464
 31
0.0
  0
LINE
  5
D1
330
1F
100
AcDbEntity
  8
0
  6
Continuous
 62
     7
370
    18
100
AcDbLine
 10
2.2606839777
 20
13.3198275712
 30
0.0
 11
2.2727415692
 21
13.3811820145
 31
0.0
  0
LINE
  5
D2
330
1F
100
AcDbEntity
  8
0
  6
Continuous
 62
     7
370
    18
100
AcDbLine
 10
2.2479559887
 20
13.2842595448
 30
0.0
 11
2.2606839777
 21
13.3198275712
 31
0.0
  0
LINE
  5
D3
330
1F
100
AcDbEntity
  8
0
  6
Continuous
 62
     7
370
    18
100
AcDbLine
 10
2.2417885005
 20
13.2727866399
 30
0.0
 11
2.2479559887
 21
13.2842595448
 31
0.0
  0
LINE
  5
D4
330
1F
100
AcDbEntity
  8
0
  6
Continuous
 62
     7
370
    18
100
AcDbLine
 10
2.2286110504
 20
13.2551928349
 30
0.0
 11
2.2417885005
 21
13.2727866399
 31
0.0
  0
LINE
  5
D5
330
1F
100
AcDbEntity
  8
0
  6
Continuous
 62
     7
370
    18
100
AcDbLine
 10
2.2049446917
 20
13.2042489294
 30
0.0
 11
2.2286110504
 21
13.2551928349
 31
0.0
  0
LINE
  5
D6
330
1F
100
AcDbEntity
  8
0
  6
Continuous
 62
     7
370
    18
100
AcDbLine
 10
2.2068782599
 20
13.1694689261
 30
0.0
 11
2.2049446917
 21
13.2042489294
 31
0.0
  0
LINE
  5
D7
330
1F
100
AcDbEntity
  8
0
  6
Continuous
 62
     7
370
    18
100
AcDbLine
 10
2.3233998209
 20
13.076546082
 30
0.0
 11
2.2068782599
 21
13.1694689261
 31
0.0
  0
LINE
  5
D8
330
1F
100
AcDbEntity
  8
0
  6
Continuous
 62
     7
370
    18
100
AcDbLine
 10
2.3577380763
 20
13.0824002712
 30
0.0
 11
2.3233998209
 21
13.076546082
 31
0.0
  0
LINE
  5
D9
330
1F
100
AcDbEntity
  8
0
  6
Continuous
 62
     7
370
    18
100
AcDbLine
 10
2.4021384515
 20
13.1168093503
 30
0.0
 11
2.3577380763
 21
13.0824002712
 31
0.0
  0
LINE
  5
DA
330
1F
100
AcDbEntity
  8
0
  6
Continuous
 62
     7
370
    18
100
AcDbLine
 10
2.4163588845
 20
13.1335714041
 30
0.0
 11
2.4021384515
 21
13.1168093503
 31
0.0
  0
LINE
  5
DB
330
1F
100
AcDbEntity
  8
0
  6
Continuous
 62
     7
370
    18
100
AcDbLine
 10
2.4261717446
 20
13.142137222
 30
0.0
 11
2.4163588845
 21
13.1335714041
 31
0.0
  0
LINE
  5
DC
330
1F
100
AcDbEntity
  8
0
  6
Continuous
 62
     7
370
    18
100
AcDbLine
 10
2.4580157622
 20
13.1624607242
 30
0.0
 11
2.4261717446
 21
13.142137222
 31
0.0
  0
LINE
  5
DD
330
1F
100
AcDbEntity
  8
0
  6
Continuous
 62
     7
370
    18
100
AcDbLine
 10
2.515148855
 20
13.1878686547
 30
0.0
 11
2.4580157622
 21
13.1624607242
 31
0.0
  0
LINE
  5
DE
330
1F
100
AcDbEntity
  8
0
  6
Continuous
 62
     7
370
    18
100
AcDbLine
 10
2.5992927581
 20
13.2110520563
 30
0.0
 11
2.515148855
 21
13.1878686547
 31
0.0
  0
LINE
  5
DF
330
1F
100
AcDbEntity
  8
0
  6
Continuous
 62
     7
370
    18
100
AcDbLine
 10
2.6473839517
 20
13.2168143074
 30
0.0
 11
2.5992927581
 21
13.2110520563
 31
0.0
  0
LINE
  5
E0
330
1F
100
AcDbEntity
  8
0
  6
Continuous
 62
     7
370
    18
100
AcDbLine
 10
2.6861315808
 20
13.1750542949
 30
0.0
 11
2.6473839517
 21
13.2168143074
 31
0.0
  0
LINE
  5
E1
330
1F
100
AcDbEntity
  8
0
  6
Continuous
 62
     7
370
    18
100
AcDbLine
 10
2.7182224239
 20
13.1279856728
 30
0.0
 11
2.6861315808
 21
13.1750542949
 31
0.0
  0
LINE
  5
E2
330
1F
100
AcDbEntity
  8
0
  6
Continuous
 62
     7
370
    18
100
AcDbLine
 10
2.7019033472
 20
13.0823824474
 30
0.0
 11
2.7182224239
 21
13.1279856728
 31
0.0
  0
LINE
  5
E3
330
1F
100
AcDbEntity
  8
0
  6
Continuous
 62
     7
370
    18
100
AcDbLine
 10
2.660577422
 20
13.0055069998
 30
0.0
 11
2.7019033472
 21
13.0823824474
 31
0.0
  0
LINE
  5
E4
330
1F
100
AcDbEntity
  8
0
  6
Continuous
 62
     7
370
    18
100
AcDbLine
 10
2.6230932122
 20
12.9554601493
 30
0.0
 11
2.660577422
 21
13.0055069998
 31
0.0
  0
LINE
  5
E5
330
1F
100
AcDbEntity
  8
0
  6
Continuous
 62
     7
370
    18
100
AcDbLine
 10
2.596193302
 20
12.9289369324
 30
0.0
 11
2.6230932122
 21
12.9554601493
 31
0.0
  0
LINE
  5
E6
330
1F
100
AcDbEntity
  8
0
  6
Continuous
 62
     7
370
    18
100
AcDbLine
 10
2.5856586803
 20
12.921276175
 30
0.0
 11
2.596193302
 21
12.9289369324
 31
0.0
  0
LINE
  5
E7
330
1F
100
AcDbEntity
  8
0
  6
Continuous
 62
     7
370
    18
100
AcDbLine
 10
2.5661525421
 20
12.9111421858
 30
0.0
 11
2.5856586803
 21
12.921276175
 31
0.0
  0
LINE
  5
E8
330
1F
100
AcDbEntity
  8
0
  6
Continuous
 62
     7
370
    18
100
AcDbLine
 10
2.5227261575
 20
12.8755117612
 30
0.0
 11
2.5661525421
 21
12.9111421858
 31
0.0
  0
LINE
  5
E9
330
1F
100
AcDbEntity
  8
0
  6
Continuous
 62
     7
370
    18
100
AcDbLine
 10
2.5093777644
 20
12.8433371171
 30
0.0
 11
2.5227261575
 21
12.8755117612
 31
0.0
  0
LINE
  5
EA
330
1F
100
AcDbEntity
  8
0
  6
Continuous
 62
     7
370
    18
100
AcDbLine
 10
2.5740423522
 20
12.7090597169
 30
0.0
 11
2.5093777644
 21
12.8433371171
 31
0.0
  0
LINE
  5
EB
330
1F
100
AcDbEntity
  8
0
  6
Continuous
 62
     7
370
    18
100
AcDbLine
 10
2.6075200888
 20
12.6994353485
 30
0.0
 11
2.5740423522
 21
12.7090597169
 31
0.0
  0
LINE
  5
EC
330
1F
100
AcDbEntity
  8
0
  6
Continuous
 62
     7
370
    18
100
AcDbLine
 10
2.6624529845
 20
12.7111722567
 30
0.0
 11
2.6075200888
 21
12.6994353485
 31
0.0
  0
LINE
  5
ED
330
1F
100
AcDbEntity
  8
0
  6
Continuous
 62
     7
370
    18
100
AcDbLine
 10
2.6825379346
 20
12.7201043307
 30
0.0
 11
2.6624529845
 21
12.7111722567
 31
0.0
  0
LINE
  5
EE
330
1F
100
AcDbEntity
  8
0
  6
Continuous
 62
     7
370
    18
100
AcDbLine
 10
2.6950955851
 20
12.7235642256
 30
0.0
 11
2.6825379346
 21
12.7201043307
 31
0.0
  0
LINE
  5
EF
330
1F
100
AcDbEntity
  8
0
  6
Continuous
 62
     7
370
    18
100
AcDbLine
 10
2.7326040907
 20
12.7280584669
 30
0.0
 11
2.6950955851
 21
12.7235642256
 31
0.0
  0
LINE
  5
F0
330
1F
100
AcDbEntity
  8
0
  6
Continuous
 62
     7
370
    18
100
AcDbLine
 10
2.7951033165
 20
12.7261611014
 30
0.0
 11
2.7326040907
 21
12.7280584669
 31
0.0
  0
LINE
  5
F1
330
1F
100
AcDbEntity
  8
0
  6
Continuous
 62
     7
370
    18
100
AcDbLine
 10
2.8809732546
 20
12.7105399531
 30
0.0
 11
2.7951033165
 21
12.7261611014
 31
0.0
  0
LINE
  5
F2
330
1F
100
AcDbEntity
  8
0
  6
Continuous
 62
     7
370
    18
100
AcDbLine
 10
2.9268020699
 20
12.6948655751
 30
0.0
 11
2.8809732546
 21
12.7105399531
 31
0.0
  0
LINE
  5
F3
330
1F
100
AcDbEntity
  8
0
  6
Continuous
 62
     7
370
    18
100
AcDbLine
 10
2.943593487
 20
12.6404291377
 30
0.0
 11
2.9268020699
 21
12.6948655751
 31
0.0
  0
LINE
  5
F4
330
1F
100
AcDbEntity
  8
0
  6
Continuous
 62
     7
370
    18
100
AcDbLine
 10
2.9520840279
 20
12.5840980795
 30
0.0
 11
2.943593487
 21
12.6404291377
 31
0.0
  0
LINE
  5
F5
330
1F
100
AcDbEntity
  8
0
  6
Continuous
 62
     7
370
    18
100
AcDbLine
 10
2.9175945498
 20
12.5500915752
 30
0.0
 11
2.9520840279
 21
12.5840980795
 31
0.0
  0
LINE
  5
F6
330
1F
100
AcDbEntity
  8
0
  6
Continuous
 62
     7
370
    18
100
AcDbLine
 10
2.8470061712
 20
12.4987598371
 30
0.0
 11
2.9175945498
 21
12.5500915752
 31
0.0
  0
LINE
  5
F7
330
1F
100
AcDbEntity
  8
0
  6
Continuous
 62
     7
370
    18
100
AcDbLine
 10
2.7915195505
 20
12.4699329721
 30
0.0
 11
2.8470061712
 21
12.4987598371
 31
0.0
  0
LINE
  5
F8
330
1F
100
AcDbEntity
  8
0
  6
Continuous
 62
     7
370
    18
100
AcDbLine
 10
2.7557755764
 20
12.4577078129
 30
0.0
 11
2.7915195505
 21
12.4699329721
 31
0.0
  0
LINE
  5
F9
330
1F
100
AcDbEntity
  8
0
  6
Continuous
 62
     7
370
    18
100
AcDbLine
 10
2.7429603321
 20
12.4553765101
 30
0.0
 11
2.7557755764
 21
12.4577078129
 31
0.0
  0
LINE
  5
FA
330
1F
100
AcDbEntity
  8
0
  6
Continuous
 62
     7
370
    18
100
AcDbLine
 10
2.7209889357
 20
12.4547094975
 30
0.0
 11
2.7429603321
 21
12.4553765101
 31
0.0
  0
LINE
  5
FB
330
1F
100
AcDbEntity
  8
0
  6
Continuous
 62
     7
370
    18
100
AcDbLine
 10
2.6664036533
 20
12.4414495962
 30
0.0
 11
2.7209889357
 21
12.4547094975
 31
0.0
  0
LINE
  5
FC
330
1F
100
AcDbEntity
  8
0
  6
Continuous
 62
     7
370
    18
100
AcDbLine
 10
2.6404171118
 20
12.4182528943
 30
0.0
 11
2.6664036533
 21
12.4414495962
 31
0.0
  0
LINE
  5
FD
330
1F
100
AcDbEntity
  8
0
  6
Continuous
 62
     7
370
    18
100
AcDbLine
 10
2.6404171118
 20
12.269216224
 30
0.0
 11
2.6404171118
 21
12.4182528943
 31
0.0
  0
LINE
  5
FE
330
1F
100
AcDbEntity
  8
0
  6
Continuous
 62
     7
370
    18
100
AcDbLine
 10
2.6664036533
 20
12.2460195221
 30
0.0
 11
2.6404171118
 21
12.269216224
 31
0.0
  0
LINE
  5
FF
330
1F
100
AcDbEntity
  8
0
  6
Continuous
 62
     7
370
    18
100
AcDbLine
 10
2.7209889357
 20
12.2327596208
 30
0.0
 11
2.6664036533
 21
12.2460195221
 31
0.0
  0
LINE
  5
100
330
1F
100
AcDbEntity
  8
0
  6
Continuous
 62
     7
370
    18
100
AcDbLine
 10
2.7429603321
 20
12.2320926082
 30
0.0
 11
2.7209889357
 21
12.2327596208
 31
0.0
  0
LINE
  5
101
330
1F
100
AcDbEntity
  8
0
  6
Continuous
 62
     7
370
    18
100
AcDbLine
 10
2.7557755764
 20
12.2297613054
 30
0.0
 11
2.7429603321
 21
12.2320926082
 31
0.0
  0
LINE
  5
102
330
1F
100
AcDbEntity
  8
0
  6
Continuous
 62
     7
370
    18
100
AcDbLine
 10
2.7915195505
 20
12.2175361462
 30
0.0
 11
2.7557755764
 21
12.2297613054
 31
0.0
  0
LINE
  5
103
330
1F
100
AcDbEntity
  8
0
  6
Continuous
 62
     7
370
    18
100
AcDbLine
 10
2.8470061712
 20
12.1887092811
 30
0.0
 11
2.7915195505
 21
12.2175361462
 31
0.0
  0
LINE
  5
104
330
1F
100
AcDbEntity
  8
0
  6
Continuous
 62
     7
370
    18
100
AcDbLine
 10
2.9175945498
 20
12.1373775431
 30
0.0
 11
2.8470061712
 21
12.1887092811
 31
0.0
  0
LINE
  5
105
330
1F
100
AcDbEntity
  8
0
  6
Continuous
 62
     7
370
    18
100
AcDbLine
 10
2.9520840279
 20
12.1033710388
 30
0.0
 11
2.9175945498
 21
12.1373775431
 31
0.0
  0
LINE
  5
106
330
1F
100
AcDbEntity
  8
0
  6
Continuous
 62
     7
370
    18
100
AcDbLine
 10
2.943593487
 20
12.0470399805
 30
0.0
 11
2.9520840279
 21
12.1033710388
 31
0.0
  0
LINE
  5
107
330
1F
100
AcDbEntity
  8
0
  6
Continuous
 62
     7
370
    18
100
AcDbLine
 10
2.9268020699
 20
11.9926035432
 30
0.0
 11
2.943593487
 21
12.0470399805
 31
0.0
  0
LINE
  5
108
330
1F
100
AcDbEntity
  8
0
  6
Continuous
 62
     7
370
    18
100
AcDbLine
 10
2.8809732546
 20
11.9769291652
 30
0.0
 11
2.9268020699
 21
11.9926035432
 31
0.0
  0
LINE
  5
109
330
1F
100
AcDbEntity
  8
0
  6
Continuous
 62
     7
370
    18
100
AcDbLine
 10
2.7951033165
 20
11.9613080169
 30
0.0
 11
2.8809732546
 21
11.9769291652
 31
0.0
  0
LINE
  5
10A
330
1F
100
AcDbEntity
  8
0
  6
Continuous
 62
     7
370
    18
100
AcDbLine
 10
2.7326040907
 20
11.9594106514
 30
0.0
 11
2.7951033165
 21
11.9613080169
 31
0.0
  0
LINE
  5
10B
330
1F
100
AcDbEntity
  8
0
  6
Continuous
 62
     7
370
    18
100
AcDbLine
 10
2.6950955851
 20
11.9639048927
 30
0.0
 11
2.7326040907
 21
11.9594106514
 31
0.0
  0
LINE
  5
10C
330
1F
100
AcDbEntity
  8
0
  6
Continuous
 62
     7
370
    18
100
AcDbLine
 10
2.6825379346
 20
11.9673647875
 30
0.0
 11
2.6950955851
 21
11.9639048927
 31
0.0
  0
LINE
  5
10D
330
1F
100
AcDbEntity
  8
0
  6
Continuous
 62
     7
370
    18
100
AcDbLine
 10
2.6624529845
 20
11.9762968616
 30
0.0
 11
2.6825379346
 21
11.9673647875
 31
0.0
  0
LINE
  5
10E
330
1F
100
AcDbEntity
  8
0
  6
Continuous
 62
     7
370
    18
100
AcDbLine
 10
2.6075200888
 20
11.9880337698
 30
0.0
 11
2.6624529845
 21
11.9762968616
 31
0.0
  0
LINE
  5
10F
330
1F
100
AcDbEntity
  8
0
  6
Continuous
 62
     7
370
    18
100
AcDbLine
 10
2.5740423522
 20
11.9784094013
 30
0.0
 11
2.6075200888
 21
11.9880337698
 31
0.0
  0
LINE
  5
110
330
1F
100
AcDbEntity
  8
0
  6
Continuous
 62
     7
370
    18
100
AcDbLine
 10
2.5093777644
 20
11.8441320012
 30
0.0
 11
2.5740423522
 21
11.9784094013
 31
0.0
  0
LINE
  5
111
330
1F
100
AcDbEntity
  8
0
  6
Continuous
 62
     7
370
    18
100
AcDbLine
 10
2.5227261575
 20
11.8119573571
 30
0.0
 11
2.5093777644
 21
11.8441320012
 31
0.0
  0
LINE
  5
112
330
1F
100
AcDbEntity
  8
0
  6
Continuous
 62
     7
370
    18
100
AcDbLine
 10
2.5661525421
 20
11.7763269324
 30
0.0
 11
2.5227261575
 21
11.8119573571
 31
0.0
  0
LINE
  5
113
330
1F
100
AcDbEntity
  8
0
  6
Continuous
 62
     7
370
    18
100
AcDbLine
 10
2.5856586803
 20
11.7661929433
 30
0.0
 11
2.5661525421
 21
11.7763269324
 31
0.0
  0
LINE
  5
114
330
1F
100
AcDbEntity
  8
0
  6
Continuous
 62
     7
370
    18
100
AcDbLine
 10
2.596193302
 20
11.7585321859
 30
0.0
 11
2.5856586803
 21
11.7661929433
 31
0.0
  0
LINE
  5
115
330
1F
100
AcDbEntity
  8
0
  6
Continuous
 62
     7
370
    18
100
AcDbLine
 10
2.6230932122
 20
11.7320089689
 30
0.0
 11
2.596193302
 21
11.7585321859
 31
0.0
  0
LINE
  5
116
330
1F
100
AcDbEntity
  8
0
  6
Continuous
 62
     7
370
    18
100
AcDbLine
 10
2.660577422
 20
11.6819621185
 30
0.0
 11
2.6230932122
 21
11.7320089689
 31
0.0
  0
LINE
  5
117
330
1F
100
AcDbEntity
  8
0
  6
Continuous
 62
     7
370
    18
100
AcDbLine
 10
2.7019033472
 20
11.6050866709
 30
0.0
 11
2.660577422
 21
11.6819621185
 31
0.0
  0
LINE
  5
118
330
1F
100
AcDbEntity
  8
0
  6
Continuous
 62
     7
370
    18
100
AcDbLine
 10
2.7182224239
 20
11.5594834455
 30
0.0
 11
2.7019033472
 21
11.6050866709
 31
0.0
  0
LINE
  5
119
330
1F
100
AcDbEntity
  8
0
  6
Continuous
 62
     7
370
    18
100
AcDbLine
 10
2.6861315808
 20
11.5124148234
 30
0.0
 11
2.7182224239
 21
11.5594834455
 31
0.0
  0
LINE
  5
11A
330
1F
100
AcDbEntity
  8
0
  6
Continuous
 62
     7
370
    18
100
AcDbLine
 10
2.6473839517
 20
11.4706548108
 30
0.0
 11
2.6861315808
 21
11.5124148234
 31
0.0
  0
LINE
  5
11B
330
1F
100
AcDbEntity
  8
0
  6
Continuous
 62
     7
370
    18
100
AcDbLine
 10
2.5992927581
 20
11.476417062
 30
0.0
 11
2.6473839517
 21
11.4706548108
 31
0.0
  0
LINE
  5
11C
330
1F
100
AcDbEntity
  8
0
  6
Continuous
 62
     7
370
    18
100
AcDbLine
 10
2.515148855
 20
11.4996004635
 30
0.0
 11
2.5992927581
 21
11.476417062
 31
0.0
  0
LINE
  5
11D
330
1F
100
AcDbEntity
  8
0
  6
Continuous
 62
     7
370
    18
100
AcDbLine
 10
2.4580157622
 20
11.5250083941
 30
0.0
 11
2.515148855
 21
11.4996004635
 31
0.0
  0
LINE
  5
11E
330
1F
100
AcDbEntity
  8
0
  6
Continuous
 62
     7
370
    18
100
AcDbLine
 10
2.4261717446
 20
11.5453318963
 30
0.0
 11
2.4580157622
 21
11.5250083941
 31
0.0
  0
LINE
  5
11F
330
1F
100
AcDbEntity
  8
0
  6
Continuous
 62
     7
370
    18
100
AcDbLine
 10
2.4163588845
 20
11.5538977141
 30
0.0
 11
2.4261717446
 21
11.5453318963
 31
0.0
  0
LINE
  5
120
330
1F
100
AcDbEntity
  8
0
  6
Continuous
 62
     7
370
    18
100
AcDbLine
 10
2.4021384515
 20
11.570659768
 30
0.0
 11
2.4163588845
 21
11.5538977141
 31
0.0
  0
LINE
  5
121
330
1F
100
AcDbEntity
  8
0
  6
Continuous
 62
     7
370
    18
100
AcDbLine
 10
2.3577380763
 20
11.6050688471
 30
0.0
 11
2.4021384515
 21
11.570659768
 31
0.0
  0
LINE
  5
122
330
1F
100
AcDbEntity
  8
0
  6
Continuous
 62
     7
370
    18
100
AcDbLine
 10
2.3233998209
 20
11.6109230363
 30
0.0
 11
2.3577380763
 21
11.6050688471
 31
0.0
  0
LINE
  5
123
330
1F
100
AcDbEntity
  8
0
  6
Continuous
 62
     7
370
    18
100
AcDbLine
 10
2.2068782599
 20
11.5180001922
 30
0.0
 11
2.3233998209
 21
11.6109230363
 31
0.0
  0
LINE
  5
124
330
1F
100
AcDbEntity
  8
0
  6
Continuous
 62
     7
370
    18
100
AcDbLine
 10
2.2049446917
 20
11.4832201889
 30
0.0
 11
2.2068782599
 21
11.5180001922
 31
0.0
  0
LINE
  5
125
330
1F
100
AcDbEntity
  8
0
  6
Continuous
 62
     7
370
    18
100
AcDbLine
 10
2.2286110504
 20
11.4322762834
 30
0.0
 11
2.2049446917
 21
11.4832201889
 31
0.0
  0
LINE
  5
126
330
1F
100
AcDbEntity
  8
0
  6
Continuous
 62
     7
370
    18
100
AcDbLine
 10
2.2417885005
 20
11.4146824784
 30
0.0
 11
2.2286110504
 21
11.4322762834
 31
0.0
  0
LINE
  5
127
330
1F
100
AcDbEntity
  8
0
  6
Continuous
 62
     7
370
    18
100
AcDbLine
 10
2.2479559887
 20
11.4032095734
 30
0.0
 11
2.2417885005
 21
11.4146824784
 31
0.0
  0
LINE
  5
128
330
1F
100
AcDbEntity
  8
0
  6
Continuous
 62
     7
370
    18
100
AcDbLine
 10
2.2606839777
 20
11.3676415471
 30
0.0
 11
2.2479559887
 21
11.4032095734
 31
0.0
  0
LINE
  5
129
330
1F
100
AcDbEntity
  8
0
  6
Continuous
 62
     7
370
    18
100
AcDbLine
 10
2.2727415692
 20
11.3062871038
 30
0.0
 11
2.2606839777
 21
11.3676415471
 31
0.0
  0
LINE
  5
12A
330
1F
100
AcDbEntity
  8
0
  6
Continuous
 62
     7
370
    18
100
AcDbLine
 10
2.2766199345
 20
11.2190940719
 30
0.0
 11
2.2727415692
 21
11.3062871038
 31
0.0
  0
LINE
  5
12B
330
1F
100
AcDbEntity
  8
0
  6
Continuous
 62
     7
370
    18
100
AcDbLine
 10
2.2715364167
 20
11.1709264034
 30
0.0
 11
2.2766199345
 21
11.2190940719
 31
0.0
  0
LINE
  5
12C
330
1F
100
AcDbEntity
  8
0
  6
Continuous
 62
     7
370
    18
100
AcDbLine
 10
2.2222012563
 20
11.1424427353
 30
0.0
 11
2.2715364167
 21
11.1709264034
 31
0.0
  0
LINE
  5
12D
330
1F
100
AcDbEntity
  8
0
  6
Continuous
 62
     7
370
    18
100
AcDbLine
 10
2.1691718584
 20
11.1216302303
 30
0.0
 11
2.2222012563
 21
11.1424427353
 31
0.0
  0
LINE
  5
12E
330
1F
100
AcDbEntity
  8
0
  6
Continuous
 62
     7
370
    18
100
AcDbLine
 10
2.1283433373
 20
11.1476878261
 30
0.0
 11
2.1691718584
 21
11.1216302303
 31
0.0
  0
LINE
  5
12F
330
1F
100
AcDbEntity
  8
0
  6
Continuous
 62
     7
370
    18
100
AcDbLine
 10
2.0625912011
 20
11.2050840204
 30
0.0
 11
2.1283433373
 21
11.1476878261
 31
0.0
  0
LINE
  5
130
330
1F
100
AcDbEntity
  8
0
  6
Continuous
 62
     7
370
    18
100
AcDbLine
 10
2.0221401511
 20
11.2527648947
 30
0.0
 11
2.0625912011
 21
11.2050840204
 31
0.0
  0
LINE
  5
131
330
1F
100
AcDbEntity
  8
0
  6
Continuous
 62
     7
370
    18
100
AcDbLine
 10
2.0022677197
 20
11.284892339
 30
0.0
 11
2.0221401511
 21
11.2527648947
 31
0.0
  0
LINE
  5
132
330
1F
100
AcDbEntity
  8
0
  6
Continuous
 62
     7
370
    18
100
AcDbLine
 10
1.9971432073
 20
11.2968675146
 30
0.0
 11
2.0022677197
 21
11.284892339
 31
0.0
  0
LINE
  5
133
330
1F
100
AcDbEntity
  8
0
  6
Continuous
 62
     7
370
    18
100
AcDbLine
 10
1.9916038225
 20
11.3181396179
 30
0.0
 11
1.9971432073
 21
11.2968675146
 31
0.0
  0
LINE
  5
134
330
1F
100
AcDbEntity
  8
0
  6
Continuous
 62
     7
370
    18
100
AcDbLine
 10
1.9665300066
 20
11.3684057278
 30
0.0
 11
1.9916038225
 21
11.3181396179
 31
0.0
  0
LINE
  5
135
330
1F
100
AcDbEntity
  8
0
  6
Continuous
 62
     7
370
    18
100
AcDbLine
 10
1.938132345
 20
11.3885789807
 30
0.0
 11
1.9665300066
 21
11.3684057278
 31
0.0
  0
LINE
  5
136
330
1F
100
AcDbEntity
  8
0
  6
Continuous
 62
     7
370
    18
100
AcDbLine
 10
1.7928323351
 20
11.3554152016
 30
0.0
 11
1.938132345
 21
11.3885789807
 31
0.0
  0
LINE
  5
137
330
1F
100
AcDbEntity
  8
0
  6
Continuous
 62
     7
370
    18
100
AcDbLine
 10
1.7759997725
 20
11.3249184452
 30
0.0
 11
1.7928323351
 21
11.3554152016
 31
0.0
  0
LINE
  5
138
330
1F
100
AcDbEntity
  8
0
  6
Continuous
 62
     7
370
    18
100
AcDbLine
 10
1.7752186926
 20
11.2687511241
 30
0.0
 11
1.7759997725
 21
11.3249184452
 31
0.0
  0
LINE
  5
139
330
1F
100
AcDbEntity
  8
0
  6
Continuous
 62
     7
370
    18
100
AcDbLine
 10
1.7794574991
 20
11.2471821722
 30
0.0
 11
1.7752186926
 21
11.2687511241
 31
0.0
  0
LINE
  5
13A
330
1F
100
AcDbEntity
  8
0
  6
Continuous
 62
     7
370
    18
100
AcDbLine
 10
1.780036307
 20
11.2341694692
 30
0.0
 11
1.7794574991
 21
11.2471821722
 31
0.0
  0
LINE
  5
13B
330
1F
100
AcDbEntity
  8
0
  6
Continuous
 62
     7
370
    18
100
AcDbLine
 10
1.7760714406
 20
11.1966013173
 30
0.0
 11
1.780036307
 21
11.2341694692
 31
0.0
  0
LINE
  5
13C
330
1F
100
AcDbEntity
  8
0
  6
Continuous
 62
     7
370
    18
100
AcDbLine
 10
1.7603142599
 20
11.1360912811
 30
0.0
 11
1.7760714406
 21
11.1966013173
 31
0.0
  0
LINE
  5
13D
330
1F
100
AcDbEntity
  8
0
  6
Continuous
 62
     7
370
    18
100
AcDbLine
 10
1.7259769076
 20
11.0558503142
 30
0.0
 11
1.7603142599
 21
11.1360912811
 31
0.0
  0
LINE
  5
13E
330
1F
100
AcDbEntity
  8
0
  6
Continuous
 62
     7
370
    18
100
AcDbLine
 10
1.7004976482
 20
11.0146584002
 30
0.0
 11
1.7259769076
 21
11.0558503142
 31
0.0
  0
LINE
  5
13F
330
1F
100
AcDbEntity
  8
0
  6
Continuous
 62
     7
370
    18
100
AcDbLine
 10
1.6436896042
 20
11.0104012258
 30
0.0
 11
1.7004976482
 21
11.0146584002
 31
0.0
  0
LINE
  5
140
330
1F
100
AcDbEntity
  8
0
  6
Continuous
 62
     7
370
    18
100
AcDbLine
 10
1.5868815601
 20
11.0146584002
 30
0.0
 11
1.6436896042
 21
11.0104012258
 31
0.0
  0
LINE
  5
141
330
1F
100
AcDbEntity
  8
0
  6
Continuous
 62
     7
370
    18
100
AcDbLine
 10
1.5614023007
 20
11.0558503142
 30
0.0
 11
1.5868815601
 21
11.0146584002
 31
0.0
  0
LINE
  5
142
330
1F
100
AcDbEntity
  8
0
  6
Continuous
 62
     7
370
    18
100
AcDbLine
 10
1.5270649484
 20
11.1360912811
 30
0.0
 11
1.5614023007
 21
11.0558503142
 31
0.0
  0
LINE
  5
143
330
1F
100
AcDbEntity
  8
0
  6
Continuous
 62
     7
370
    18
100
AcDbLine
 10
1.5113077677
 20
11.1966013173
 30
0.0
 11
1.5270649484
 21
11.1360912811
 31
0.0
  0
LINE
  5
144
330
1F
100
AcDbEntity
  8
0
  6
Continuous
 62
     7
370
    18
100
AcDbLine
 10
1.5073429013
 20
11.2341694692
 30
0.0
 11
1.5113077677
 21
11.1966013173
 31
0.0
  0
LINE
  5
145
330
1F
100
AcDbEntity
  8
0
  6
Continuous
 62
     7
370
    18
100
AcDbLine
 10
1.5079217092
 20
11.2471821722
 30
0.0
 11
1.5073429013
 21
11.2341694692
 31
0.0
  0
LINE
  5
146
330
1F
100
AcDbEntity
  8
0
  6
Continuous
 62
     7
370
    18
100
AcDbLine
 10
1.5121605157
 20
11.2687511241
 30
0.0
 11
1.5079217092
 21
11.2471821722
 31
0.0
  0
LINE
  5
147
330
1F
100
AcDbEntity
  8
0
  6
Continuous
 62
     7
370
    18
100
AcDbLine
 10
1.5113794359
 20
11.3249184452
 30
0.0
 11
1.5121605157
 21
11.2687511241
 31
0.0
  0
LINE
  5
148
330
1F
100
AcDbEntity
  8
0
  6
Continuous
 62
     7
370
    18
100
AcDbLine
 10
1.4945468732
 20
11.3554152016
 30
0.0
 11
1.5113794359
 21
11.3249184452
 31
0.0
  0
LINE
  5
149
330
1F
100
AcDbEntity
  8
0
  6
Continuous
 62
     7
370
    18
100
AcDbLine
 10
1.3492468633
 20
11.3885789807
 30
0.0
 11
1.4945468732
 21
11.3554152016
 31
0.0
  0
LINE
  5
14A
330
1F
100
AcDbEntity
  8
0
  6
Continuous
 62
     7
370
    18
100
AcDbLine
 10
1.3208492017
 20
11.3684057278
 30
0.0
 11
1.3492468633
 21
11.3885789807
 31
0.0
  0
LINE
  5
14B
330
1F
100
AcDbEntity
  8
0
  6
Continuous
 62
     7
370
    18
100
AcDbLine
 10
1.2957753858
 20
11.3181396179
 30
0.0
 11
1.3208492017
 21
11.3684057278
 31
0.0
  0
LINE
  5
14C
330
1F
100
AcDbEntity
  8
0
  6
Continuous
 62
     7
370
    18
100
AcDbLine
 10
1.290236001
 20
11.2968675146
 30
0.0
 11
1.2957753858
 21
11.3181396179
 31
0.0
  0
LINE
  5
14D
330
1F
100
AcDbEntity
  8
0
  6
Continuous
 62
     7
370
    18
100
AcDbLine
 10
1.2851114886
 20
11.284892339
 30
0.0
 11
1.290236001
 21
11.2968675146
 31
0.0
  0
LINE
  5
14E
330
1F
100
AcDbEntity
  8
0
  6
Continuous
 62
     7
370
    18
100
AcDbLine
 10
1.2652390572
 20
11.2527648947
 30
0.0
 11
1.2851114886
 21
11.284892339
 31
0.0
  0
LINE
  5
14F
330
1F
100
AcDbEntity
  8
0
  6
Continuous
 62
     7
370
    18
100
AcDbLine
 10
1.2247880072
 20
11.2050840204
 30
0.0
 11
1.2652390572
 21
11.2527648947
 31
0.0
  0
LINE
  5
150
330
1F
100
AcDbEntity
  8
0
  6
Continuous
 62
     7
370
    18
100
AcDbLine
 10
1.159035871
 20
11.1476878261
 30
0.0
 11
1.2247880072
 21
11.2050840204
 31
0.0
  0
LINE
  5
151
330
1F
100
AcDbEntity
  8
0
  6
Continuous
 62
     7
370
    18
100
AcDbLine
 10
1.1182073499
 20
11.1216302303
 30
0.0
 11
1.159035871
 21
11.1476878261
 31
0.0
  0
LINE
  5
152
330
1F
100
AcDbEntity
  8
0
  6
Continuous
 62
     7
370
    18
100
AcDbLine
 10
1.065177952
 20
11.1424427353
 30
0.0
 11
1.1182073499
 21
11.1216302303
 31
0.0
  0
LINE
  5
153
330
1F
100
AcDbEntity
  8
0
  6
Continuous
 62
     7
370
    18
100
AcDbLine
 10
1.0158427916
 20
11.1709264034
 30
0.0
 11
1.065177952
 21
11.1424427353
 31
0.0
  0
LINE
  5
154
330
1F
100
AcDbEntity
  8
0
  6
Continuous
 62
     7
370
    18
100
AcDbLine
 10
1.0107592738
 20
11.2190940719
 30
0.0
 11
1.0158427916
 21
11.1709264034
 31
0.0
  0
LINE
  5
155
330
1F
100
AcDbEntity
  8
0
  6
Continuous
 62
     7
370
    18
100
AcDbLine
 10
1.0146376391
 20
11.3062871038
 30
0.0
 11
1.0107592738
 21
11.2190940719
 31
0.0
  0
LINE
  5
156
330
1F
100
AcDbEntity
  8
0
  6
Continuous
 62
     7
370
    18
100
AcDbLine
 10
1.0266952306
 20
11.3676415471
 30
0.0
 11
1.0146376391
 21
11.3062871038
 31
0.0
  0
LINE
  5
157
330
1F
100
AcDbEntity
  8
0
  6
Continuous
 62
     7
370
    18
100
AcDbLine
 10
1.0394232196
 20
11.4032095734
 30
0.0
 11
1.0266952306
 21
11.3676415471
 31
0.0
  0
LINE
  5
158
330
1F
100
AcDbEntity
  8
0
  6
Continuous
 62
     7
370
    18
100
AcDbLine
 10
1.0455907078
 20
11.4146824784
 30
0.0
 11
1.0394232196
 21
11.4032095734
 31
0.0
  0
LINE
  5
159
330
1F
100
AcDbEntity
  8
0
  6
Continuous
 62
     7
370
    18
100
AcDbLine
 10
1.0587681579
 20
11.4322762834
 30
0.0
 11
1.0455907078
 21
11.4146824784
 31
0.0
  0
LINE
  5
15A
330
1F
100
AcDbEntity
  8
0
  6
Continuous
 62
     7
370
    18
100
AcDbLine
 10
1.0824345166
 20
11.4832201889
 30
0.0
 11
1.0587681579
 21
11.4322762834
 31
0.0
  0
LINE
  5
15B
330
1F
100
AcDbEntity
  8
0
  6
Continuous
 62
     7
370
    18
100
AcDbLine
 10
1.0805009484
 20
11.5180001922
 30
0.0
 11
1.0824345166
 21
11.4832201889
 31
0.0
  0
LINE
  5
15C
330
1F
100
AcDbEntity
  8
0
  6
Continuous
 62
     7
370
    18
100
AcDbLine
 10
0.9639793874
 20
11.6109230363
 30
0.0
 11
1.0805009484
 21
11.5180001922
 31
0.0
  0
LINE
  5
15D
330
1F
100
AcDbEntity
  8
0
  6
Continuous
 62
     7
370
    18
100
AcDbLine
 10
0.929641132
 20
11.6050688471
 30
0.0
 11
0.9639793874
 21
11.6109230363
 31
0.0
  0
LINE
  5
15E
330
1F
100
AcDbEntity
  8
0
  6
Continuous
 62
     7
370
    18
100
AcDbLine
 10
0.8852407568
 20
11.570659768
 30
0.0
 11
0.929641132
 21
11.6050688471
 31
0.0
  0
LINE
  5
15F
330
1F
100
AcDbEntity
  8
0
  6
Continuous
 62
     7
370
    18
100
AcDbLine
 10
0.8710203238
 20
11.5538977141
 30
0.0
 11
0.8852407568
 21
11.570659768
 31
0.0
  0
LINE
  5
160
330
1F
100
AcDbEntity
  8
0
  6
Continuous
 62
     7
370
    18
100
AcDbLine
 10
0.8612074637
 20
11.5453318963
 30
0.0
 11
0.8710203238
 21
11.5538977141
 31
0.0
  0
LINE
  5
161
330
1F
100
AcDbEntity
  8
0
  6
Continuous
 62
     7
370
    18
100
AcDbLine
 10
0.8293634461
 20
11.5250083941
 30
0.0
 11
0.8612074637
 21
11.5453318963
 31
0.0
  0
LINE
  5
162
330
1F
100
AcDbEntity
  8
0
  6
Continuous
 62
     7
370
    18
100
AcDbLine
 10
0.7722303533
 20
11.4996004635
 30
0.0
 11
0.8293634461
 21
11.5250083941
 31
0.0
  0
LINE
  5
163
330
1F
100
AcDbEntity
  8
0
  6
Continuous
 62
     7
370
    18
100
AcDbLine
 10
0.6880864502
 20
11.476417062
 30
0.0
 11
0.7722303533
 21
11.4996004635
 31
0.0
  0
LINE
  5
164
330
1F
100
AcDbEntity
  8
0
  6
Continuous
 62
     7
370
    18
100
AcDbLine
 10
0.6399952566
 20
11.4706548108
 30
0.0
 11
0.6880864502
 21
11.476417062
 31
0.0
  0
LINE
  5
165
330
1F
100
AcDbEntity
  8
0
  6
Continuous
 62
     7
370
    18
100
AcDbLine
 10
0.6012476276
 20
11.5124148234
 30
0.0
 11
0.6399952566
 21
11.4706548108
 31
0.0
  0
LINE
  5
166
330
1F
100
AcDbEntity
  8
0
  6
Continuous
 62
     7
370
    18
100
AcDbLine
 10
0.5691567844
 20
11.5594834455
 30
0.0
 11
0.6012476276
 21
11.5124148234
 31
0.0
  0
LINE
  5
167
330
1F
100
AcDbEntity
  8
0
  6
Continuous
 62
     7
370
    18
100
AcDbLine
 10
0.5854758612
 20
11.6050866709
 30
0.0
 11
0.5691567844
 21
11.5594834455
 31
0.0
  0
LINE
  5
168
330
1F
100
AcDbEntity
  8
0
  6
Continuous
 62
     7
370
    18
100
AcDbLine
 10
0.6268017863
 20
11.6819621185
 30
0.0
 11
0.5854758612
 21
11.6050866709
 31
0.0
  0
LINE
  5
169
330
1F
100
AcDbEntity
  8
0
  6
Continuous
 62
     7
370
    18
100
AcDbLine
 10
0.6642859961
 20
11.7320089689
 30
0.0
 11
0.6268017863
 21
11.6819621185
 31
0.0
  0
LINE
  5
16A
330
1F
100
AcDbEntity
  8
0
  6
Continuous
 62
     7
370
    18
100
AcDbLine
 10
0.6911859063
 20
11.7585321859
 30
0.0
 11
0.6642859961
 21
11.7320089689
 31
0.0
  0
LINE
  5
16B
330
1F
100
AcDbEntity
  8
0
  6
Continuous
 62
     7
370
    18
100
AcDbLine
 10
0.701720528
 20
11.7661929433
 30
0.0
 11
0.6911859063
 21
11.7585321859
 31
0.0
  0
LINE
  5
16C
330
1F
100
AcDbEntity
  8
0
  6
Continuous
 62
     7
370
    18
100
AcDbLine
 10
0.7212266662
 20
11.7763269324
 30
0.0
 11
0.701720528
 21
11.7661929433
 31
0.0
  0
LINE
  5
16D
330
1F
100
AcDbEntity
  8
0
  6
Continuous
 62
     7
370
    18
100
AcDbLine
 10
0.7646530508
 20
11.8119573571
 30
0.0
 11
0.7212266662
 21
11.7763269324
 31
0.0
  0
LINE
  5
16E
330
1F
100
AcDbEntity
  8
0
  6
Continuous
 62
     7
370
    18
100
AcDbLine
 10
0.7780014439
 20
11.8441320012
 30
0.0
 11
0.7646530508
 21
11.8119573571
 31
0.0
  0
LINE
  5
16F
330
1F
100
AcDbEntity
  8
0
  6
Continuous
 62
     7
370
    18
100
AcDbLine
 10
0.7133368561
 20
11.9784094013
 30
0.0
 11
0.7780014439
 21
11.8441320012
 31
0.0
  0
LINE
  5
170
330
1F
100
AcDbEntity
  8
0
  6
Continuous
 62
     7
370
    18
100
AcDbLine
 10
0.6798591195
 20
11.9880337698
 30
0.0
 11
0.7133368561
 21
11.9784094013
 31
0.0
  0
LINE
  5
171
330
1F
100
AcDbEntity
  8
0
  6
Continuous
 62
     7
370
    18
100
AcDbLine
 10
0.6249262238
 20
11.9762968616
 30
0.0
 11
0.6798591195
 21
11.9880337698
 31
0.0
  0
LINE
  5
172
330
1F
100
AcDbEntity
  8
0
  6
Continuous
 62
     7
370
    18
100
AcDbLine
 10
0.6048412738
 20
11.9673647875
 30
0.0
 11
0.6249262238
 21
11.9762968616
 31
0.0
  0
LINE
  5
173
330
1F
100
AcDbEntity
  8
0
  6
Continuous
 62
     7
370
    18
100
AcDbLine
 10
0.5922836232
 20
11.9639048927
 30
0.0
 11
0.6048412738
 21
11.9673647875
 31
0.0
  0
LINE
  5
174
330
1F
100
AcDbEntity
  8
0
  6
Continuous
 62
     7
370
    18
100
AcDbLine
 10
0.5547751176
 20
11.9594106514
 30
0.0
 11
0.5922836232
 21
11.9639048927
 31
0.0
  0
LINE
  5
175
330
1F
100
AcDbEntity
  8
0
  6
Continuous
 62
     7
370
    18
100
AcDbLine
 10
0.4922758918
 20
11.9613080169
 30
0.0
 11
0.5547751176
 21
11.9594106514
 31
0.0
  0
LINE
  5
176
330
1F
100
AcDbEntity
  8
0
  6
Continuous
 62
     7
370
    18
100
AcDbLine
 10
0.4064059537
 20
11.9769291652
 30
0.0
 11
0.4922758918
 21
11.9613080169
 31
0.0
  0
LINE
  5
177
330
1F
100
AcDbEntity
  8
0
  6
Continuous
 62
     7
370
    18
100
AcDbLine
 10
0.3605771384
 20
11.9926035432
 30
0.0
 11
0.4064059537
 21
11.9769291652
 31
0.0
  0
LINE
  5
178
330
1F
100
AcDbEntity
  8
0
  6
Continuous
 62
     7
370
    18
100
AcDbLine
 10
0.3437857213
 20
12.0470399805
 30
0.0
 11
0.3605771384
 21
11.9926035432
 31
0.0
  0
LINE
  5
179
330
1F
100
AcDbEntity
  8
0
  6
Continuous
 62
     7
370
    18
100
AcDbLine
 10
0.3352951804
 20
12.1033710388
 30
0.0
 11
0.3437857213
 21
12.0470399805
 31
0.0
  0
LINE
  5
17A
330
1F
100
AcDbEntity
  8
0
  6
Continuous
 62
     7
370
    18
100
AcDbLine
 10
0.3697846585
 20
12.1373775431
 30
0.0
 11
0.3352951804
 21
12.1033710388
 31
0.0
  0
LINE
  5
17B
330
1F
100
AcDbEntity
  8
0
  6
Continuous
 62
     7
370
    18
100
AcDbLine
 10
0.4403730371
 20
12.1887092811
 30
0.0
 11
0.3697846585
 21
12.1373775431
 31
0.0
  0
LINE
  5
17C
330
1F
100
AcDbEntity
  8
0
  6
Continuous
 62
     7
370
    18
100
AcDbLine
 10
0.4958596578
 20
12.2175361462
 30
0.0
 11
0.4403730371
 21
12.1887092811
 31
0.0
  0
LINE
  5
17D
330
1F
100
AcDbEntity
  8
0
  6
Continuous
 62
     7
370
    18
100
AcDbLine
 10
0.5316036319
 20
12.2297613054
 30
0.0
 11
0.4958596578
 21
12.2175361462
 31
0.0
  0
LINE
  5
17E
330
1F
100
AcDbEntity
  8
0
  6
Continuous
 62
     7
370
    18
100
AcDbLine
 10
11.0965430321
 20
13.4253999418
 30
0.0
 11
11.0965430321
 21
12.459204613
 31
0.0
  0
LINE
  5
17F
330
1F
100
AcDbEntity
  8
0
  6
Continuous
 62
     7
370
    18
100
AcDbLine
 10
11.0965430321
 20
12.459204613
 30
0.0
 11
11.9332927318
 21
11.9761069486
 31
0.0
  0
ARC
  5
180
330
1F
100
AcDbEntity
  8
0
  6
Continuous
 62
     7
370
    18
100
AcDbCircle
 10
10.8965430321
 20
12.3437345591
 30
0.0
 40
1.100000000000001
100
AcDbArc
 50
340.4756816964
 51
79.5243183036
  0
CIRCLE
  5
181
330
1F
100
AcDbEntity
  8
0
  6
Continuous
 62
     7
370
    18
100
AcDbCircle
 10
10.8965430321
 20
12.3437345591
 30
0.0
 40
0.09375
  0
CIRCLE
  5
182
330
1F
100
AcDbEntity
  8
0
  6
Continuous
 62
     7
370
    18
100
AcDbCircle
 10
10.8965430321
 20
12.3437345591
 30
0.0
 40
1.5
  0
LINE
  5
183
330
1F
100
AcDbEntity
  8
0
  6
Continuous
 62
     7
370
    18
100
AcDbLine
 10
10.8965430321
 20
12.1127944515
 30
0.0
 11
11.7332927318
 21
11.6296967871
 31
0.0
  0
LINE
  5
184
330
1F
100
AcDbEntity
  8
0
  6
Continuous
 62
     7
370
    18
100
AcDbLine
 10
10.8965430321
 20
12.1127944515
 30
0.0
 11
10.0597933323
 21
11.6296967871
 31
0.0
  0
ARC
  5
185
330
1F
100
AcDbEntity
  8
0
  6
Continuous
 62
     7
370
    18
100
AcDbCircle
 10
10.8965430321
 20
12.3437345591
 30
0.0
 40
1.1
100
AcDbArc
 50
220.4756816964
 51
319.5243183036
  0
ARC
  5
186
330
1F
100
AcDbEntity
  8
0
  6
Continuous
 62
     7
370
    18
100
AcDbCircle
 10
10.8965430321
 20
12.3437345591
 30
0.0
 40
1.100000000000001
100
AcDbArc
 50
100.4756816964
 51
199.5243183036
  0
LINE
  5
187
330
1F
100
AcDbEntity
  8
0
  6
Continuous
 62
     7
370
    18
100
AcDbLine
 10
10.6965430321
 20
12.459204613
 30
0.0
 11
9.8597933323
 21
11.9761069486
 31
0.0
  0
LINE
  5
188
330
1F
100
AcDbEntity
  8
0
  6
Continuous
 62
     7
370
    18
100
AcDbLine
 10
10.6965430321
 20
13.4253999418
 30
0.0
 11
10.6965430321
 21
12.459204613
 31
0.0
  0
LINE
  5
189
330
1F
100
AcDbEntity
  8
0
  6
Continuous
 62
     7
370
    18
100
AcDbLine
 10
7.5325398824
 20
13.4981937742
 30
0.0
 11
7.5325398824
 21
12.5319984454
 31
0.0
  0
ARC
  5
18A
330
1F
100
AcDbEntity
  8
0
  6
Continuous
 62
     7
370
    18
100
AcDbCircle
 10
7.7325398824
 20
12.4165283916
 30
0.0
 40
1.100000000000001
100
AcDbArc
 50
100.4756816964
 51
199.5243183036
  0
LINE
  5
18B
330
1F
100
AcDbEntity
  8
0
  6
Continuous
 62
     7
370
    18
100
AcDbLine
 10
7.5325398824
 20
12.5319984454
 30
0.0
 11
6.6957901827
 21
12.048900781
 31
0.0
  0
CIRCLE
  5
18C
330
1F
100
AcDbEntity
  8
0
  6
Continuous
 62
     7
370
    18
100
AcDbCircle
 10
7.7325398824
 20
12.4165283916
 30
0.0
 40
1.5
  0
LINE
  5
18D
330
1F
100
AcDbEntity
  8
0
  6
Continuous
 62
     7
370
    18
100
AcDbLine
 10
7.7325398824
 20
12.1855882839
 30
0.0
 11
6.8957901827
 21
11.7024906195
 31
0.0
  0
ARC
  5
18E
330
1F
100
AcDbEntity
  8
0
  6
Continuous
 62
     7
370
    18
100
AcDbCircle
 10
7.7325398824
 20
12.4165283916
 30
0.0
 40
1.100000000000001
100
AcDbArc
 50
220.4756816964
 51
319.5243183036
  0
LINE
  5
18F
330
1F
100
AcDbEntity
  8
0
  6
Continuous
 62
     7
370
    18
100
AcDbLine
 10
7.7325398824
 20
12.1855882839
 30
0.0
 11
8.5692895822
 21
11.7024906195
 31
0.0
  0
ARC
  5
190
330
1F
100
AcDbEntity
  8
0
  6
Continuous
 62
     7
370
    18
100
AcDbCircle
 10
7.7325398824
 20
12.4165283916
 30
0.0
 40
1.100000000000001
100
AcDbArc
 50
340.4756816964
 51
79.5243183036
  0
LINE
  5
191
330
1F
100
AcDbEntity
  8
0
  6
Continuous
 62
     7
370
    18
100
AcDbLine
 10
7.9325398824
 20
13.4981937742
 30
0.0
 11
7.9325398824
 21
12.5319984454
 31
0.0
  0
LINE
  5
192
330
1F
100
AcDbEntity
  8
0
  6
Continuous
 62
     7
370
    18
100
AcDbLine
 10
7.9325398824
 20
12.5319984454
 30
0.0
 11
8.7692895822
 21
12.048900781
 31
0.0
  0
CIRCLE
  5
193
330
1F
100
AcDbEntity
  8
0
  6
Continuous
 62
     7
370
    18
100
AcDbCircle
 10
7.7325398824
 20
12.4165283916
 30
0.0
 40
0.09375
  0
LINE
  5
194
330
1F
100
AcDbEntity
  8
0
  6
Continuous
 62
     7
370
    18
100
AcDbLine
 10
14.1697223498
 20
13.4472586381
 30
0.0
 11
14.1697223498
 21
12.4810633093
 31
0.0
  0
ARC
  5
195
330
1F
100
AcDbEntity
  8
0
  6
Continuous
 62
     7
370
    18
100
AcDbCircle
 10
14.3697223498
 20
12.3655932554
 30
0.0
 40
1.100000000000001
100
AcDbArc
 50
100.4756816964
 51
199.5243183036
  0
LINE
  5
196
330
1F
100
AcDbEntity
  8
0
  6
Continuous
 62
     7
370
    18
100
AcDbLine
 10
14.1697223498
 20
12.4810633093
 30
0.0
 11
13.33297265
 21
11.9979656449
 31
0.0
  0
CIRCLE
  5
197
330
1F
100
AcDbEntity
  8
0
  6
Continuous
 62
     7
370
    18
100
AcDbCircle
 10
14.3697223498
 20
12.3655932554
 30
0.0
 40
1.500000000000002
  0
LINE
  5
198
330
1F
100
AcDbEntity
  8
0
  6
Continuous
 62
     7
370
    18
100
AcDbLine
 10
14.3697223498
 20
12.1346531477
 30
0.0
 11
13.53297265
 21
11.6515554833
 31
0.0
  0
ARC
  5
199
330
1F
100
AcDbEntity
  8
0
  6
Continuous
 62
     7
370
    18
100
AcDbCircle
 10
14.3697223498
 20
12.3655932554
 30
0.0
 40
1.099999999999999
100
AcDbArc
 50
220.4756816964
 51
319.5243183036
  0
LINE
  5
19A
330
1F
100
AcDbEntity
  8
0
  6
Continuous
 62
     7
370
    18
100
AcDbLine
 10
14.3697223498
 20
12.1346531477
 30
0.0
 11
15.2064720495
 21
11.6515554833
 31
0.0
  0
ARC
  5
19B
330
1F
100
AcDbEntity
  8
0
  6
Continuous
 62
     7
370
    18
100
AcDbCircle
 10
14.3697223498
 20
12.3655932554
 30
0.0
 40
1.100000000000001
100
AcDbArc
 50
340.4756816964
 51
79.5243183036
  0
LINE
  5
19C
330
1F
100
AcDbEntity
  8
0
  6
Continuous
 62
     7
370
    18
100
AcDbLine
 10
14.5697223498
 20
13.4472586381
 30
0.0
 11
14.5697223498
 21
12.4810633093
 31
0.0
  0
LINE
  5
19D
330
1F
100
AcDbEntity
  8
0
  6
Continuous
 62
     7
370
    18
100
AcDbLine
 10
14.5697223498
 20
12.4810633093
 30
0.0
 11
15.4064720495
 21
11.9979656449
 31
0.0
  0
CIRCLE
  5
19E
330
1F
100
AcDbEntity
  8
0
  6
Continuous
 62
     7
370
    18
100
AcDbCircle
 10
14.3697223498
 20
12.3655932554
 30
0.0
 40
0.09375
  0
ARC
  5
19F
330
1F
100
AcDbEntity
  8
0
  6
Continuous
 62
     7
370
    18
100
AcDbCircle
 10
0.5698271596
 20
1.65509071
 30
0.0
 40
0.1000000000000001
100
AcDbArc
 50
90.0
 51
180.0
  0
ARC
  5
1A0
330
1F
100
AcDbEntity
  8
0
  6
Continuous
 62
     7
370
    18
100
AcDbCircle
 10
2.3698271596
 20
1.85509071
 30
0.0
 40
0.1000000000000001
100
AcDbArc
 50
270.0
 51
0.0
  0
ARC
  5
1A1
330
1F
100
AcDbEntity
  8
0
  6
Continuous
 62
     7
370
    18
100
AcDbCircle
 10
2.3698271596
 20
2.65509071
 30
0.0
 40
0.1000000000000001
100
AcDbArc
 50
0.0
 51
90.0
  0
ARC
  5
1A2
330
1F
100
AcDbEntity
  8
0
  6
Continuous
 62
     7
370
    18
100
AcDbCircle
 10
0.5698271596
 20
2.85509071
 30
0.0
 40
0.1000000000000001
100
AcDbArc
 50
180.0
 51
270.0
  0
LINE
  5
1A3
330
1F
100
AcDbEntity
  8
0
  6
Continuous
 62
     7
370
    25
100
AcDbLine
 10
0.4698271596
 20
5.59384071
 30
0.0
 11
0.9698271596
 21
5.59384071
 31
0.0
  0
LINE
  5
1A4
330
1F
100
AcDbEntity
  8
0
  6
Continuous
 62
     7
370
    25
100
AcDbLine
 10
0.9698271596
 20
5.59384071
 30
0.0
 11
0.9698271596
 21
5.79134071
 31
0.0
  0
LINE
  5
1A5
330
1F
100
AcDbEntity
  8
0
  6
Continuous
 62
     7
370
    25
100
AcDbLine
 10
0.9698271596
 20
5.79134071
 30
0.0
 11
0.4698271596
 21
5.79134071
 31
0.0
  0
ARC
  5
1A6
330
1F
100
AcDbEntity
  8
0
  6
Continuous
 62
     7
370
    18
100
AcDbCircle
 10
0.5698271596
 20
8.53009071
 30
0.0
 40
0.1
100
AcDbArc
 50
90.0
 51
180.0
  0
ARC
  5
1A7
330
1F
100
AcDbEntity
  8
0
  6
Continuous
 62
     7
370
    18
100
AcDbCircle
 10
2.3698271596
 20
8.73009071
 30
0.0
 40
0.1000000000000001
100
AcDbArc
 50
270.0
 51
0.0
  0
ARC
  5
1A8
330
1F
100
AcDbEntity
  8
0
  6
Continuous
 62
     7
370
    18
100
AcDbCircle
 10
2.3698271596
 20
9.53009071
 30
0.0
 40
0.1000000000000001
100
AcDbArc
 50
0.0
 51
90.0
  0
ARC
  5
1A9
330
1F
100
AcDbEntity
  8
0
  6
Continuous
 62
     7
370
    18
100
AcDbCircle
 10
0.5698271596
 20
9.73009071
 30
0.0
 40
0.1
100
AcDbArc
 50
180.0
 51
270.0
  0
LINE
  5
1AA
330
1F
100
AcDbEntity
  8
0
  6
Continuous
 62
     7
370
    25
100
AcDbLine
 10
6.0333220352
 20
8.3024679563
 30
0.0
 11
6.0333220352
 21
7.6770395289
 31
0.0
  0
LINE
  5
1AB
330
1F
100
AcDbEntity
  8
0
  6
Continuous
 62
     7
370
    25
100
AcDbLine
 10
6.0333220352
 20
7.6770395289
 30
0.0
 11
6.2308220352
 21
7.6770395289
 31
0.0
  0
LINE
  5
1AC
330
1F
100
AcDbEntity
  8
0
  6
Continuous
 62
     7
370
    25
100
AcDbLine
 10
6.2308220352
 20
7.6770395289
 30
0.0
 11
6.2308220352
 21
8.1770395289
 31
0.0
  0
ARC
  5
1AD
330
1F
100
AcDbEntity
  8
0
  6
Continuous
 62
     7
370
    18
100
AcDbCircle
 10
8.3698271596
 20
6.29259071
 30
0.0
 40
0.0999999999999996
100
AcDbArc
 50
270.0
 51
0.0
  0
ARC
  5
1AE
330
1F
100
AcDbEntity
  8
0
  6
Continuous
 62
     7
370
    18
100
AcDbCircle
 10
7.0698271596
 20
6.09259071
 30
0.0
 40
0.1000000000000005
100
AcDbArc
 50
90.0
 51
180.0
  0
ARC
  5
1AF
330
1F
100
AcDbEntity
  8
0
  6
Continuous
 62
     7
370
    18
100
AcDbCircle
 10
7.0698271596
 20
5.29259071
 30
0.0
 40
0.1000000000000005
100
AcDbArc
 50
180.0
 51
270.0
  0
ARC
  5
1B0
330
1F
100
AcDbEntity
  8
0
  6
Continuous
 62
     7
370
    18
100
AcDbCircle
 10
8.3698271596
 20
5.09259071
 30
0.0
 40
0.1000000000000014
100
AcDbArc
 50
0.0
 51
90.0
  0
ARC
  5
1B1
330
1F
100
AcDbEntity
  8
0
  6
Continuous
 62
     7
370
    18
100
AcDbCircle
 10
7.8698271596
 20
4.91259071
 30
0.0
 40
0.1000000000000005
100
AcDbArc
 50
270.0
 51
0.0
  0
LINE
  5
1B2
330
1F
100
AcDbEntity
  8
0
  6
Continuous
 62
     7
370
    18
100
AcDbLine
 10
7.8698271596
 20
4.81259071
 30
0.0
 11
7.3198271596
 21
4.81259071
 31
0.0
  0
ARC
  5
1B3
330
1F
100
AcDbEntity
  8
0
  6
Continuous
 62
     7
370
    18
100
AcDbCircle
 10
7.3198271596
 20
4.71259071
 30
0.0
 40
0.1000000000000005
100
AcDbArc
 50
90.0
 51
180.0
  0
LINE
  5
1B4
330
1F
100
AcDbEntity
  8
0
  6
Continuous
 62
     7
370
    18
100
AcDbLine
 10
7.2198271596
 20
4.71259071
 30
0.0
 11
7.2198271596
 21
4.53759071
 31
0.0
  0
ARC
  5
1B5
330
1F
100
AcDbEntity
  8
0
  6
Continuous
 62
     7
370
    18
100
AcDbCircle
 10
7.3198271596
 20
4.53759071
 30
0.0
 40
0.1000000000000005
100
AcDbArc
 50
180.0
 51
270.0
  0
LINE
  5
1B6
330
1F
100
AcDbEntity
  8
0
  6
Continuous
 62
     7
370
    18
100
AcDbLine
 10
7.3198271596
 20
4.43759071
 30
0.0
 11
7.8227248982
 21
4.43759071
 31
0.0
  0
ARC
  5
1B7
330
1F
100
AcDbEntity
  8
0
  6
Continuous
 62
     7
370
    18
100
AcDbCircle
 10
7.8227248982
 20
4.33759071
 30
0.0
 40
0.0999999999999996
100
AcDbArc
 50
302.4188400725
 51
90.0
  0
LINE
  5
1B8
330
1F
100
AcDbEntity
  8
0
  6
Continuous
 62
     7
370
    25
100
AcDbLine
 10
6.2308220352
 20
3.2081418911
 30
0.0
 11
6.2308220352
 21
3.7081418911
 31
0.0
  0
LINE
  5
1B9
330
1F
100
AcDbEntity
  8
0
  6
Continuous
 62
     7
370
    25
100
AcDbLine
 10
6.2308220352
 20
3.7081418911
 30
0.0
 11
6.0333220352
 21
3.7081418911
 31
0.0
  0
LINE
  5
1BA
330
1F
100
AcDbEntity
  8
0
  6
Continuous
 62
     7
370
    25
100
AcDbLine
 10
6.0333220352
 20
3.7081418911
 30
0.0
 11
6.0333220352
 21
3.0827134637
 31
0.0
  0
LINE
  5
1BB
330
1F
100
AcDbEntity
  8
0
  6
Continuous
 62
     7
370
    18
100
AcDbLine
 10
5.9698271596
 20
5.77009071
 30
0.0
 11
4.4698271596
 21
5.77009071
 31
0.0
  0
LINE
  5
1BC
330
1F
100
AcDbEntity
  8
0
  6
Continuous
 62
     7
370
    18
100
AcDbLine
 10
4.4698271596
 20
5.77009071
 30
0.0
 11
4.4698271596
 21
5.57259071
 31
0.0
  0
LINE
  5
1BD
330
1F
100
AcDbEntity
  8
0
  6
Continuous
 62
     7
370
    18
100
AcDbLine
 10
4.4698271596
 20
5.57259071
 30
0.0
 11
5.9698271596
 21
5.57259071
 31
0.0
  0
LINE
  5
1BE
330
1F
100
AcDbEntity
  8
0
  6
Continuous
 62
     7
370
    18
100
AcDbLine
 10
5.9698271596
 20
5.57259071
 30
0.0
 11
5.9698271596
 21
5.77009071
 31
0.0
  0
LINE
  5
1BF
330
1F
100
AcDbEntity
  8
0
  6
Continuous
 62
     7
370
    18
100
AcDbLine
 10
5.9698271596
 20
6.62509071
 30
0.0
 11
5.9698271596
 21
6.82259071
 31
0.0
  0
LINE
  5
1C0
330
1F
100
AcDbEntity
  8
0
  6
Continuous
 62
     7
370
    18
100
AcDbLine
 10
5.9698271596
 20
6.82259071
 30
0.0
 11
4.4698271596
 21
6.82259071
 31
0.0
  0
LINE
  5
1C1
330
1F
100
AcDbEntity
  8
0
  6
Continuous
 62
     7
370
    18
100
AcDbLine
 10
4.4698271596
 20
6.82259071
 30
0.0
 11
4.4698271596
 21
6.62509071
 31
0.0
  0
LINE
  5
1C2
330
1F
100
AcDbEntity
  8
0
  6
Continuous
 62
     7
370
    18
100
AcDbLine
 10
4.4698271596
 20
6.62509071
 30
0.0
 11
5.9698271596
 21
6.62509071
 31
0.0
  0
CIRCLE
  5
1C3
330
1F
100
AcDbEntity
  8
0
  6
Continuous
 62
     7
370
    18
100
AcDbCircle
 10
1.7198271596
 20
3.75509071
 30
0.0
 40
0.125
  0
CIRCLE
  5
1C4
330
1F
100
AcDbEntity
  8
0
  6
Continuous
 62
     7
370
    18
100
AcDbCircle
 10
2.2198271596
 20
3.75509071
 30
0.0
 40
0.125
  0
CIRCLE
  5
1C5
330
1F
100
AcDbEntity
  8
0
  6
Continuous
 62
     7
370
    18
100
AcDbCircle
 10
4.2198271596
 20
6.75509071
 30
0.0
 40
0.125
  0
CIRCLE
  5
1C6
330
1F
100
AcDbEntity
  8
0
  6
Continuous
 62
     7
370
    18
100
AcDbCircle
 10
3.7198271596
 20
6.75509071
 30
0.0
 40
0.1249999999999996
  0
CIRCLE
  5
1C7
330
1F
100
AcDbEntity
  8
0
  6
Continuous
 62
     7
370
    18
100
AcDbCircle
 10
3.2198271596
 20
6.75509071
 30
0.0
 40
0.1250000000000004
  0
CIRCLE
  5
1C8
330
1F
100
AcDbEntity
  8
0
  6
Continuous
 62
     7
370
    18
100
AcDbCircle
 10
2.7198271596
 20
6.75509071
 30
0.0
 40
0.125
  0
CIRCLE
  5
1C9
330
1F
100
AcDbEntity
  8
0
  6
Continuous
 62
     7
370
    18
100
AcDbCircle
 10
2.2198271596
 20
6.75509071
 30
0.0
 40
0.1249999999999996
  0
CIRCLE
  5
1CA
330
1F
100
AcDbEntity
  8
0
  6
Continuous
 62
     7
370
    18
100
AcDbCircle
 10
1.7198271596
 20
6.75509071
 30
0.0
 40
0.1249999999999998
  0
CIRCLE
  5
1CB
330
1F
100
AcDbEntity
  8
0
  6
Continuous
 62
     7
370
    18
100
AcDbCircle
 10
4.2198271596
 20
6.25509071
 30
0.0
 40
0.125
  0
CIRCLE
  5
1CC
330
1F
100
AcDbEntity
  8
0
  6
Continuous
 62
     7
370
    18
100
AcDbCircle
 10
3.7198271596
 20
6.25509071
 30
0.0
 40
0.1249999999999996
  0
CIRCLE
  5
1CD
330
1F
100
AcDbEntity
  8
0
  6
Continuous
 62
     7
370
    18
100
AcDbCircle
 10
2.2198271596
 20
7.75509071
 30
0.0
 40
0.1249999999999996
  0
CIRCLE
  5
1CE
330
1F
100
AcDbEntity
  8
0
  6
Continuous
 62
     7
370
    18
100
AcDbCircle
 10
1.7198271596
 20
7.75509071
 30
0.0
 40
0.1249999999999998
  0
CIRCLE
  5
1CF
330
1F
100
AcDbEntity
  8
0
  6
Continuous
 62
     7
370
    18
100
AcDbCircle
 10
4.2198271596
 20
7.25509071
 30
0.0
 40
0.125
  0
CIRCLE
  5
1D0
330
1F
100
AcDbEntity
  8
0
  6
Continuous
 62
     7
370
    18
100
AcDbCircle
 10
3.7198271596
 20
7.25509071
 30
0.0
 40
0.125
  0
CIRCLE
  5
1D1
330
1F
100
AcDbEntity
  8
0
  6
Continuous
 62
     7
370
    18
100
AcDbCircle
 10
3.2198271596
 20
7.25509071
 30
0.0
 40
0.125
  0
CIRCLE
  5
1D2
330
1F
100
AcDbEntity
  8
0
  6
Continuous
 62
     7
370
    18
100
AcDbCircle
 10
2.7198271596
 20
7.25509071
 30
0.0
 40
0.125
  0
CIRCLE
  5
1D3
330
1F
100
AcDbEntity
  8
0
  6
Continuous
 62
     7
370
    18
100
AcDbCircle
 10
2.2198271596
 20
7.25509071
 30
0.0
 40
0.1249999999999996
  0
CIRCLE
  5
1D4
330
1F
100
AcDbEntity
  8
0
  6
Continuous
 62
     7
370
    18
100
AcDbCircle
 10
1.7198271596
 20
7.25509071
 30
0.0
 40
0.1249999999999998
  0
CIRCLE
  5
1D5
330
1F
100
AcDbEntity
  8
0
  6
Continuous
 62
     7
370
    18
100
AcDbCircle
 10
2.7198271596
 20
7.75509071
 30
0.0
 40
0.125
  0
CIRCLE
  5
1D6
330
1F
100
AcDbEntity
  8
0
  6
Continuous
 62
     7
370
    18
100
AcDbCircle
 10
3.2198271596
 20
7.75509071
 30
0.0
 40
0.125
  0
CIRCLE
  5
1D7
330
1F
100
AcDbEntity
  8
0
  6
Continuous
 62
     7
370
    18
100
AcDbCircle
 10
3.7198271596
 20
7.75509071
 30
0.0
 40
0.125
  0
CIRCLE
  5
1D8
330
1F
100
AcDbEntity
  8
0
  6
Continuous
 62
     7
370
    18
100
AcDbCircle
 10
4.2198271596
 20
7.75509071
 30
0.0
 40
0.125
  0
CIRCLE
  5
1D9
330
1F
100
AcDbEntity
  8
0
  6
Continuous
 62
     7
370
    18
100
AcDbCircle
 10
2.2198271596
 20
5.75509071
 30
0.0
 40
0.125
  0
CIRCLE
  5
1DA
330
1F
100
AcDbEntity
  8
0
  6
Continuous
 62
     7
370
    18
100
AcDbCircle
 10
1.7198271596
 20
5.75509071
 30
0.0
 40
0.125
  0
CIRCLE
  5
1DB
330
1F
100
AcDbEntity
  8
0
  6
Continuous
 62
     7
370
    18
100
AcDbCircle
 10
4.2198271596
 20
5.25509071
 30
0.0
 40
0.125
  0
CIRCLE
  5
1DC
330
1F
100
AcDbEntity
  8
0
  6
Continuous
 62
     7
370
    18
100
AcDbCircle
 10
3.7198271596
 20
5.25509071
 30
0.0
 40
0.1249999999999996
  0
CIRCLE
  5
1DD
330
1F
100
AcDbEntity
  8
0
  6
Continuous
 62
     7
370
    18
100
AcDbCircle
 10
3.2198271596
 20
5.25509071
 30
0.0
 40
0.1250000000000004
  0
CIRCLE
  5
1DE
330
1F
100
AcDbEntity
  8
0
  6
Continuous
 62
     7
370
    18
100
AcDbCircle
 10
2.7198271596
 20
5.25509071
 30
0.0
 40
0.125
  0
CIRCLE
  5
1DF
330
1F
100
AcDbEntity
  8
0
  6
Continuous
 62
     7
370
    18
100
AcDbCircle
 10
2.2198271596
 20
5.25509071
 30
0.0
 40
0.125
  0
CIRCLE
  5
1E0
330
1F
100
AcDbEntity
  8
0
  6
Continuous
 62
     7
370
    18
100
AcDbCircle
 10
1.7198271596
 20
5.25509071
 30
0.0
 40
0.125
  0
CIRCLE
  5
1E1
330
1F
100
AcDbEntity
  8
0
  6
Continuous
 62
     7
370
    18
100
AcDbCircle
 10
2.7198271596
 20
5.75509071
 30
0.0
 40
0.125
  0
CIRCLE
  5
1E2
330
1F
100
AcDbEntity
  8
0
  6
Continuous
 62
     7
370
    18
100
AcDbCircle
 10
3.2198271596
 20
5.75509071
 30
0.0
 40
0.1250000000000004
  0
CIRCLE
  5
1E3
330
1F
100
AcDbEntity
  8
0
  6
Continuous
 62
     7
370
    18
100
AcDbCircle
 10
3.7198271596
 20
5.75509071
 30
0.0
 40
0.1249999999999996
  0
CIRCLE
  5
1E4
330
1F
100
AcDbEntity
  8
0
  6
Continuous
 62
     7
370
    18
100
AcDbCircle
 10
4.2198271596
 20
5.75509071
 30
0.0
 40
0.125
  0
CIRCLE
  5
1E5
330
1F
100
AcDbEntity
  8
0
  6
Continuous
 62
     7
370
    18
100
AcDbCircle
 10
1.7198271596
 20
6.25509071
 30
0.0
 40
0.1249999999999998
  0
CIRCLE
  5
1E6
330
1F
100
AcDbEntity
  8
0
  6
Continuous
 62
     7
370
    18
100
AcDbCircle
 10
2.2198271596
 20
6.25509071
 30
0.0
 40
0.1249999999999996
  0
CIRCLE
  5
1E7
330
1F
100
AcDbEntity
  8
0
  6
Continuous
 62
     7
370
    18
100
AcDbCircle
 10
2.7198271596
 20
6.25509071
 30
0.0
 40
0.125
  0
CIRCLE
  5
1E8
330
1F
100
AcDbEntity
  8
0
  6
Continuous
 62
     7
370
    18
100
AcDbCircle
 10
3.2198271596
 20
6.25509071
 30
0.0
 40
0.1250000000000004
  0
CIRCLE
  5
1E9
330
1F
100
AcDbEntity
  8
0
  6
Continuous
 62
     7
370
    18
100
AcDbCircle
 10
2.7198271596
 20
3.75509071
 30
0.0
 40
0.1250000000000004
  0
CIRCLE
  5
1EA
330
1F
100
AcDbEntity
  8
0
  6
Continuous
 62
     7
370
    18
100
AcDbCircle
 10
3.2198271596
 20
3.75509071
 30
0.0
 40
0.125
  0
CIRCLE
  5
1EB
330
1F
100
AcDbEntity
  8
0
  6
Continuous
 62
     7
370
    18
100
AcDbCircle
 10
3.7198271596
 20
3.75509071
 30
0.0
 40
0.125
  0
CIRCLE
  5
1EC
330
1F
100
AcDbEntity
  8
0
  6
Continuous
 62
     7
370
    18
100
AcDbCircle
 10
4.2198271596
 20
3.75509071
 30
0.0
 40
0.125
  0
CIRCLE
  5
1ED
330
1F
100
AcDbEntity
  8
0
  6
Continuous
 62
     7
370
    18
100
AcDbCircle
 10
1.7198271596
 20
4.25509071
 30
0.0
 40
0.125
  0
CIRCLE
  5
1EE
330
1F
100
AcDbEntity
  8
0
  6
Continuous
 62
     7
370
    18
100
AcDbCircle
 10
2.2198271596
 20
4.25509071
 30
0.0
 40
0.125
  0
CIRCLE
  5
1EF
330
1F
100
AcDbEntity
  8
0
  6
Continuous
 62
     7
370
    18
100
AcDbCircle
 10
2.7198271596
 20
4.25509071
 30
0.0
 40
0.1250000000000004
  0
CIRCLE
  5
1F0
330
1F
100
AcDbEntity
  8
0
  6
Continuous
 62
     7
370
    18
100
AcDbCircle
 10
3.2198271596
 20
4.25509071
 30
0.0
 40
0.125
  0
CIRCLE
  5
1F1
330
1F
100
AcDbEntity
  8
0
  6
Continuous
 62
     7
370
    18
100
AcDbCircle
 10
4.2198271596
 20
4.75509071
 30
0.0
 40
0.125
  0
CIRCLE
  5
1F2
330
1F
100
AcDbEntity
  8
0
  6
Continuous
 62
     7
370
    18
100
AcDbCircle
 10
3.7198271596
 20
4.75509071
 30
0.0
 40
0.125
  0
CIRCLE
  5
1F3
330
1F
100
AcDbEntity
  8
0
  6
Continuous
 62
     7
370
    18
100
AcDbCircle
 10
3.2198271596
 20
4.75509071
 30
0.0
 40
0.125
  0
CIRCLE
  5
1F4
330
1F
100
AcDbEntity
  8
0
  6
Continuous
 62
     7
370
    18
100
AcDbCircle
 10
2.7198271596
 20
4.75509071
 30
0.0
 40
0.125
  0
CIRCLE
  5
1F5
330
1F
100
AcDbEntity
  8
0
  6
Continuous
 62
     7
370
    18
100
AcDbCircle
 10
2.2198271596
 20
4.75509071
 30
0.0
 40
0.125
  0
CIRCLE
  5
1F6
330
1F
100
AcDbEntity
  8
0
  6
Continuous
 62
     7
370
    18
100
AcDbCircle
 10
1.7198271596
 20
4.75509071
 30
0.0
 40
0.125
  0
CIRCLE
  5
1F7
330
1F
100
AcDbEntity
  8
0
  6
Continuous
 62
     7
370
    18
100
AcDbCircle
 10
4.2198271596
 20
4.25509071
 30
0.0
 40
0.125
  0
CIRCLE
  5
1F8
330
1F
100
AcDbEntity
  8
0
  6
Continuous
 62
     7
370
    18
100
AcDbCircle
 10
3.7198271596
 20
4.25509071
 30
0.0
 40
0.125
  0
LINE
  5
1F9
330
1F
100
AcDbEntity
  8
0
  6
Continuous
 62
     7
370
    18
100
AcDbLine
 10
0.5698271596
 20
9.63009071
 30
0.0
 11
2.3698271596
 21
9.63009071
 31
0.0
  0
LINE
  5
1FA
330
1F
100
AcDbEntity
  8
0
  6
Continuous
 62
     7
370
    18
100
AcDbLine
 10
0.4698271596
 20
10.06259071
 30
0.0
 11
0.4698271596
 21
9.73009071
 31
0.0
  0
LINE
  5
1FB
330
1F
100
AcDbEntity
  8
0
  6
Continuous
 62
     7
370
    18
100
AcDbLine
 10
0.4698271596
 20
10.06259071
 30
0.0
 11
0.9698271596
 21
10.06259071
 31
0.0
  0
LINE
  5
1FC
330
1F
100
AcDbEntity
  8
0
  6
Continuous
 62
     7
370
    18
100
AcDbLine
 10
0.9698271596
 20
10.26009071
 30
0.0
 11
0.9698271596
 21
10.06259071
 31
0.0
  0
LINE
  5
1FD
330
1F
100
AcDbEntity
  8
0
  6
Continuous
 62
     7
370
    18
100
AcDbLine
 10
0.4698271596
 20
10.26009071
 30
0.0
 11
0.9698271596
 21
10.26009071
 31
0.0
  0
LINE
  5
1FE
330
1F
100
AcDbEntity
  8
0
  6
Continuous
 62
     7
370
    18
100
AcDbLine
 10
0.4698271596
 20
10.69259071
 30
0.0
 11
0.4698271596
 21
10.26009071
 31
0.0
  0
LINE
  5
1FF
330
1F
100
AcDbEntity
  8
0
  6
Continuous
 62
     7
370
    18
100
AcDbLine
 10
2.2698271596
 20
10.69259071
 30
0.0
 11
0.4698271596
 21
10.69259071
 31
0.0
  0
LINE
  5
200
330
1F
100
AcDbEntity
  8
0
  6
Continuous
 62
     7
370
    25
100
AcDbLine
 10
6.0333220352
 20
8.3024679563
 30
0.0
 11
2.2698271596
 21
10.69259071
 31
0.0
  0
LINE
  5
201
330
1F
100
AcDbEntity
  8
0
  6
Continuous
 62
     7
370
    18
100
AcDbLine
 10
8.4698271596
 20
6.57259071
 30
0.0
 11
8.4698271596
 21
6.75509071
 31
0.0
  0
LINE
  5
202
330
1F
100
AcDbEntity
  8
0
  6
Continuous
 62
     7
370
    18
100
AcDbLine
 10
8.4698271596
 20
6.57259071
 30
0.0
 11
7.9698271596
 21
6.57259071
 31
0.0
  0
LINE
  5
203
330
1F
100
AcDbEntity
  8
0
  6
Continuous
 62
     7
370
    18
100
AcDbLine
 10
7.9698271596
 20
6.57259071
 30
0.0
 11
7.9698271596
 21
6.37509071
 31
0.0
  0
LINE
  5
204
330
1F
100
AcDbEntity
  8
0
  6
Continuous
 62
     7
370
    18
100
AcDbLine
 10
8.4698271596
 20
6.37509071
 30
0.0
 11
7.9698271596
 21
6.37509071
 31
0.0
  0
LINE
  5
205
330
1F
100
AcDbEntity
  8
0
  6
Continuous
 62
     7
370
    18
100
AcDbLine
 10
8.4698271596
 20
6.29259071
 30
0.0
 11
8.4698271596
 21
6.37509071
 31
0.0
  0
LINE
  5
206
330
1F
100
AcDbEntity
  8
0
  6
Continuous
 62
     7
370
    18
100
AcDbLine
 10
7.0698271596
 20
6.19259071
 30
0.0
 11
8.3698271596
 21
6.19259071
 31
0.0
  0
LINE
  5
207
330
1F
100
AcDbEntity
  8
0
  6
Continuous
 62
     7
370
    18
100
AcDbLine
 10
6.9698271596
 20
6.09259071
 30
0.0
 11
6.9698271596
 21
5.29259071
 31
0.0
  0
LINE
  5
208
330
1F
100
AcDbEntity
  8
0
  6
Continuous
 62
     7
370
    18
100
AcDbLine
 10
7.0698271596
 20
5.19259071
 30
0.0
 11
8.3698271596
 21
5.19259071
 31
0.0
  0
LINE
  5
209
330
1F
100
AcDbEntity
  8
0
  6
Continuous
 62
     7
370
    18
100
AcDbLine
 10
8.4698271596
 20
5.09259071
 30
0.0
 11
8.4698271596
 21
5.01009071
 31
0.0
  0
LINE
  5
20A
330
1F
100
AcDbEntity
  8
0
  6
Continuous
 62
     7
370
    18
100
AcDbLine
 10
8.4698271596
 20
5.01009071
 30
0.0
 11
7.9698271596
 21
5.01009071
 31
0.0
  0
LINE
  5
20B
330
1F
100
AcDbEntity
  8
0
  6
Continuous
 62
     7
370
    18
100
AcDbLine
 10
7.9698271596
 20
4.91259071
 30
0.0
 11
7.9698271596
 21
5.01009071
 31
0.0
  0
LINE
  5
20C
330
1F
100
AcDbEntity
  8
0
  6
Continuous
 62
     7
370
    25
100
AcDbLine
 10
6.0333220352
 20
3.0827134637
 30
0.0
 11
2.2698271596
 21
0.69259071
 31
0.0
  0
LINE
  5
20D
330
1F
100
AcDbEntity
  8
0
  6
Continuous
 62
     7
370
    18
100
AcDbLine
 10
2.2698271596
 20
0.69259071
 30
0.0
 11
0.4698271596
 21
0.69259071
 31
0.0
  0
LINE
  5
20E
330
1F
100
AcDbEntity
  8
0
  6
Continuous
 62
     7
370
    18
100
AcDbLine
 10
0.4698271596
 20
0.69259071
 30
0.0
 11
0.4698271596
 21
1.12509071
 31
0.0
  0
LINE
  5
20F
330
1F
100
AcDbEntity
  8
0
  6
Continuous
 62
     7
370
    18
100
AcDbLine
 10
0.4698271596
 20
1.12509071
 30
0.0
 11
0.9698271596
 21
1.12509071
 31
0.0
  0
LINE
  5
210
330
1F
100
AcDbEntity
  8
0
  6
Continuous
 62
     7
370
    18
100
AcDbLine
 10
0.9698271596
 20
1.12509071
 30
0.0
 11
0.9698271596
 21
1.32259071
 31
0.0
  0
LINE
  5
211
330
1F
100
AcDbEntity
  8
0
  6
Continuous
 62
     7
370
    18
100
AcDbLine
 10
0.4698271596
 20
1.32259071
 30
0.0
 11
0.9698271596
 21
1.32259071
 31
0.0
  0
LINE
  5
212
330
1F
100
AcDbEntity
  8
0
  6
Continuous
 62
     7
370
    18
100
AcDbLine
 10
0.4698271596
 20
1.32259071
 30
0.0
 11
0.4698271596
 21
1.65509071
 31
0.0
  0
LINE
  5
213
330
1F
100
AcDbEntity
  8
0
  6
Continuous
 62
     7
370
    18
100
AcDbLine
 10
0.5698271596
 20
1.75509071
 30
0.0
 11
2.3698271596
 21
1.75509071
 31
0.0
  0
LINE
  5
214
330
1F
100
AcDbEntity
  8
0
  6
Continuous
 62
     7
370
    18
100
AcDbLine
 10
2.4698271596
 20
1.85509071
 30
0.0
 11
2.4698271596
 21
2.65509071
 31
0.0
  0
LINE
  5
215
330
1F
100
AcDbEntity
  8
0
  6
Continuous
 62
     7
370
    18
100
AcDbLine
 10
2.3698271596
 20
2.75509071
 30
0.0
 11
0.5698271596
 21
2.75509071
 31
0.0
  0
LINE
  5
216
330
1F
100
AcDbEntity
  8
0
  6
Continuous
 62
     7
370
    18
100
AcDbLine
 10
0.4698271596
 20
2.85509071
 30
0.0
 11
0.4698271596
 21
3.18759071
 31
0.0
  0
LINE
  5
217
330
1F
100
AcDbEntity
  8
0
  6
Continuous
 62
     7
370
    18
100
AcDbLine
 10
0.4698271596
 20
3.18759071
 30
0.0
 11
0.9698271596
 21
3.18759071
 31
0.0
  0
LINE
  5
218
330
1F
100
AcDbEntity
  8
0
  6
Continuous
 62
     7
370
    18
100
AcDbLine
 10
0.9698271596
 20
3.38509071
 30
0.0
 11
0.9698271596
 21
3.18759071
 31
0.0
  0
LINE
  5
219
330
1F
100
AcDbEntity
  8
0
  6
Continuous
 62
     7
370
    18
100
AcDbLine
 10
0.4698271596
 20
3.38509071
 30
0.0
 11
0.9698271596
 21
3.38509071
 31
0.0
  0
LINE
  5
21A
330
1F
100
AcDbEntity
  8
0
  6
Continuous
 62
     7
370
    25
100
AcDbLine
 10
0.4698271596
 20
5.79134071
 30
0.0
 11
0.4698271596
 21
8.00009071
 31
0.0
  0
LINE
  5
21B
330
1F
100
AcDbEntity
  8
0
  6
Continuous
 62
     7
370
    18
100
AcDbLine
 10
0.4698271596
 20
8.00009071
 30
0.0
 11
0.9698271596
 21
8.00009071
 31
0.0
  0
LINE
  5
21C
330
1F
100
AcDbEntity
  8
0
  6
Continuous
 62
     7
370
    18
100
AcDbLine
 10
0.9698271596
 20
8.00009071
 30
0.0
 11
0.9698271596
 21
8.19759071
 31
0.0
  0
LINE
  5
21D
330
1F
100
AcDbEntity
  8
0
  6
Continuous
 62
     7
370
    18
100
AcDbLine
 10
0.4698271596
 20
8.19759071
 30
0.0
 11
0.9698271596
 21
8.19759071
 31
0.0
  0
LINE
  5
21E
330
1F
100
AcDbEntity
  8
0
  6
Continuous
 62
     7
370
    18
100
AcDbLine
 10
0.4698271596
 20
8.19759071
 30
0.0
 11
0.4698271596
 21
8.53009071
 31
0.0
  0
LINE
  5
21F
330
1F
100
AcDbEntity
  8
0
  6
Continuous
 62
     7
370
    18
100
AcDbLine
 10
2.3698271596
 20
8.63009071
 30
0.0
 11
0.5698271596
 21
8.63009071
 31
0.0
  0
LINE
  5
220
330
1F
100
AcDbEntity
  8
0
  6
Continuous
 62
     7
370
    18
100
AcDbLine
 10
2.4698271596
 20
9.53009071
 30
0.0
 11
2.4698271596
 21
8.73009071
 31
0.0
  0
LINE
  5
221
330
1F
100
AcDbEntity
  8
0
  6
Continuous
 62
     7
370
    18
100
AcDbLine
 10
8.4698271596
 20
6.75509071
 30
0.0
 11
6.2308220352
 21
8.1770395289
 31
0.0
  0
LINE
  5
222
330
1F
100
AcDbEntity
  8
0
  6
Continuous
 62
     7
370
    18
100
AcDbLine
 10
7.8763353381
 20
4.2531755412
 30
0.0
 11
6.2308220352
 21
3.2081418911
 31
0.0
  0
LINE
  5
223
330
1F
100
AcDbEntity
  8
0
  6
Continuous
 62
     7
370
    18
100
AcDbLine
 10
0.4698271596
 20
3.38509071
 30
0.0
 11
0.4698271596
 21
5.59384071
 31
0.0
  0
LINE
  5
224
330
1F
100
AcDbEntity
  8
0
  6
Continuous
 62
     7
370
    18
100
AcDbLine
 10
4.8508909855
 20
12.540452776
 30
0.0
 11
4.917198644
 21
12.5525152252
 31
0.0
  0
CIRCLE
  5
225
330
1F
100
AcDbEntity
  8
0
  6
Continuous
 62
     7
370
    18
100
AcDbCircle
 10
4.2926631007
 20
12.6710641902
 30
0.0
 40
0.09375
  0
LINE
  5
226
330
1F
100
AcDbEntity
  8
0
  6
Continuous
 62
     7
370
    18
100
AcDbLine
 10
4.8319528878
 20
12.5427219249
 30
0.0
 11
4.8508909855
 21
12.540452776
 31
0.0
  0
LINE
  5
227
330
1F
100
AcDbEntity
  8
0
  6
Continuous
 62
     7
370
    18
100
AcDbLine
 10
4.7651003516
 20
12.5724522355
 30
0.0
 11
4.8319528878
 21
12.5427219249
 31
0.0
  0
LINE
  5
228
330
1F
100
AcDbEntity
  8
0
  6
Continuous
 62
     7
370
    18
100
AcDbLine
 10
4.6974506759
 20
12.5588378802
 30
0.0
 11
4.7651003516
 21
12.5724522355
 31
0.0
  0
LINE
  5
229
330
1F
100
AcDbEntity
  8
0
  6
Continuous
 62
     7
370
    18
100
AcDbLine
 10
4.6327860881
 20
12.42456048
 30
0.0
 11
4.6974506759
 21
12.5588378802
 31
0.0
  0
LINE
  5
22A
330
1F
100
AcDbEntity
  8
0
  6
Continuous
 62
     7
370
    18
100
AcDbLine
 10
4.6643208394
 20
12.363181422
 30
0.0
 11
4.6327860881
 21
12.42456048
 31
0.0
  0
LINE
  5
22B
330
1F
100
AcDbEntity
  8
0
  6
Continuous
 62
     7
370
    18
100
AcDbLine
 10
4.7292468068
 20
12.32945055
 30
0.0
 11
4.6643208394
 21
12.363181422
 31
0.0
  0
LINE
  5
22C
330
1F
100
AcDbEntity
  8
0
  6
Continuous
 62
     7
370
    18
100
AcDbLine
 10
4.7428286096
 20
12.3160589402
 30
0.0
 11
4.7292468068
 21
12.32945055
 31
0.0
  0
LINE
  5
22D
330
1F
100
AcDbEntity
  8
0
  6
Continuous
 62
     7
370
    18
100
AcDbLine
 10
4.7754310981
 20
12.2554110324
 30
0.0
 11
4.7428286096
 21
12.3160589402
 31
0.0
  0
LINE
  5
22E
330
1F
100
AcDbEntity
  8
0
  6
Continuous
 62
     7
370
    18
100
AcDbLine
 10
4.798308582
 20
12.1390001145
 30
0.0
 11
4.7754310981
 21
12.2554110324
 31
0.0
  0
LINE
  5
22F
330
1F
100
AcDbEntity
  8
0
  6
Continuous
 62
     7
370
    18
100
AcDbLine
 10
4.7962014599
 20
12.1190345783
 30
0.0
 11
4.798308582
 21
12.1390001145
 31
0.0
  0
LINE
  5
230
330
1F
100
AcDbEntity
  8
0
  6
Continuous
 62
     7
370
    18
100
AcDbLine
 10
4.7602804521
 20
12.0846905783
 30
0.0
 11
4.7962014599
 21
12.1190345783
 31
0.0
  0
LINE
  5
231
330
1F
100
AcDbEntity
  8
0
  6
Continuous
 62
     7
370
    18
100
AcDbLine
 10
4.7188043517
 20
12.0573124441
 30
0.0
 11
4.7602804521
 21
12.0846905783
 31
0.0
  0
LINE
  5
232
330
1F
100
AcDbEntity
  8
0
  6
Continuous
 62
     7
370
    18
100
AcDbLine
 10
4.6988705145
 20
12.0597009017
 30
0.0
 11
4.7188043517
 21
12.0573124441
 31
0.0
  0
LINE
  5
233
330
1F
100
AcDbEntity
  8
0
  6
Continuous
 62
     7
370
    18
100
AcDbLine
 10
4.5904689804
 20
12.1079086656
 30
0.0
 11
4.6988705145
 21
12.0597009017
 31
0.0
  0
LINE
  5
234
330
1F
100
AcDbEntity
  8
0
  6
Continuous
 62
     7
370
    18
100
AcDbLine
 10
4.5385963785
 20
12.1531891707
 30
0.0
 11
4.5904689804
 21
12.1079086656
 31
0.0
  0
LINE
  5
235
330
1F
100
AcDbEntity
  8
0
  6
Continuous
 62
     7
370
    18
100
AcDbLine
 10
4.5285627597
 20
12.1694103629
 30
0.0
 11
4.5385963785
 21
12.1531891707
 31
0.0
  0
LINE
  5
236
330
1F
100
AcDbEntity
  8
0
  6
Continuous
 62
     7
370
    18
100
AcDbLine
 10
4.510124978
 20
12.2402143258
 30
0.0
 11
4.5285627597
 21
12.1694103629
 31
0.0
  0
LINE
  5
237
330
1F
100
AcDbEntity
  8
0
  6
Continuous
 62
     7
370
    18
100
AcDbLine
 10
4.4573019634
 20
12.2846165604
 30
0.0
 11
4.510124978
 21
12.2402143258
 31
0.0
  0
LINE
  5
238
330
1F
100
AcDbEntity
  8
0
  6
Continuous
 62
     7
370
    18
100
AcDbLine
 10
4.3120019536
 20
12.2514527814
 30
0.0
 11
4.4573019634
 21
12.2846165604
 31
0.0
  0
LINE
  5
239
330
1F
100
AcDbEntity
  8
0
  6
Continuous
 62
     7
370
    18
100
AcDbLine
 10
4.2836754696
 20
12.1885287032
 30
0.0
 11
4.3120019536
 21
12.2514527814
 31
0.0
  0
LINE
  5
23A
330
1F
100
AcDbEntity
  8
0
  6
Continuous
 62
     7
370
    18
100
AcDbLine
 10
4.2977842904
 20
12.1167366832
 30
0.0
 11
4.2836754696
 21
12.1885287032
 31
0.0
  0
LINE
  5
23B
330
1F
100
AcDbEntity
  8
0
  6
Continuous
 62
     7
370
    18
100
AcDbLine
 10
4.2957824238
 20
12.0977684701
 30
0.0
 11
4.2977842904
 21
12.1167366832
 31
0.0
  0
LINE
  5
23C
330
1F
100
AcDbEntity
  8
0
  6
Continuous
 62
     7
370
    18
100
AcDbLine
 10
4.2686932992
 20
12.0344654662
 30
0.0
 11
4.2957824238
 21
12.0977684701
 31
0.0
  0
LINE
  5
23D
330
1F
100
AcDbEntity
  8
0
  6
Continuous
 62
     7
370
    18
100
AcDbLine
 10
4.1919434566
 20
11.9439981088
 30
0.0
 11
4.2686932992
 21
12.0344654662
 31
0.0
  0
LINE
  5
23E
330
1F
100
AcDbEntity
  8
0
  6
Continuous
 62
     7
370
    18
100
AcDbLine
 10
4.1750200028
 20
11.933197215
 30
0.0
 11
4.1919434566
 21
11.9439981088
 31
0.0
  0
LINE
  5
23F
330
1F
100
AcDbEntity
  8
0
  6
Continuous
 62
     7
370
    18
100
AcDbLine
 10
4.1257724003
 20
11.939868256
 30
0.0
 11
4.1750200028
 21
11.933197215
 31
0.0
  0
LINE
  5
240
330
1F
100
AcDbEntity
  8
0
  6
Continuous
 62
     7
370
    18
100
AcDbLine
 10
4.0785073874
 20
11.9552255897
 30
0.0
 11
4.1257724003
 21
11.939868256
 31
0.0
  0
LINE
  5
241
330
1F
100
AcDbEntity
  8
0
  6
Continuous
 62
     7
370
    18
100
AcDbLine
 10
4.0679462145
 20
11.9722996702
 30
0.0
 11
4.0785073874
 21
11.9552255897
 31
0.0
  0
LINE
  5
242
330
1F
100
AcDbEntity
  8
0
  6
Continuous
 62
     7
370
    18
100
AcDbLine
 10
4.038049311
 20
12.0871084514
 30
0.0
 11
4.0679462145
 21
11.9722996702
 31
0.0
  0
LINE
  5
243
330
1F
100
AcDbEntity
  8
0
  6
Continuous
 62
     7
370
    18
100
AcDbLine
 10
4.0411089972
 20
12.1558960178
 30
0.0
 11
4.038049311
 21
12.0871084514
 31
0.0
  0
LINE
  5
244
330
1F
100
AcDbEntity
  8
0
  6
Continuous
 62
     7
370
    18
100
AcDbLine
 10
4.0475353769
 20
12.1738543647
 30
0.0
 11
4.0411089972
 21
12.1558960178
 31
0.0
  0
LINE
  5
245
330
1F
100
AcDbEntity
  8
0
  6
Continuous
 62
     7
370
    18
100
AcDbLine
 10
4.0913963753
 20
12.2324151518
 30
0.0
 11
4.0475353769
 21
12.1738543647
 31
0.0
  0
LINE
  5
246
330
1F
100
AcDbEntity
  8
0
  6
Continuous
 62
     7
370
    18
100
AcDbLine
 10
4.0931768294
 20
12.301398188
 30
0.0
 11
4.0913963753
 21
12.2324151518
 31
0.0
  0
LINE
  5
247
330
1F
100
AcDbEntity
  8
0
  6
Continuous
 62
     7
370
    18
100
AcDbLine
 10
3.9766552684
 20
12.3943210321
 30
0.0
 11
4.0931768294
 21
12.301398188
 31
0.0
  0
LINE
  5
248
330
1F
100
AcDbEntity
  8
0
  6
Continuous
 62
     7
370
    18
100
AcDbLine
 10
3.9097979693
 20
12.377235048
 30
0.0
 11
3.9766552684
 21
12.3943210321
 31
0.0
  0
LINE
  5
249
330
1F
100
AcDbEntity
  8
0
  6
Continuous
 62
     7
370
    18
100
AcDbLine
 10
3.8624654138
 20
12.3214427354
 30
0.0
 11
3.9097979693
 21
12.377235048
 31
0.0
  0
LINE
  5
24A
330
1F
100
AcDbEntity
  8
0
  6
Continuous
 62
     7
370
    18
100
AcDbLine
 10
3.8463873241
 20
12.3111813703
 30
0.0
 11
3.8624654138
 21
12.3214427354
 31
0.0
  0
LINE
  5
24B
330
1F
100
AcDbEntity
  8
0
  6
Continuous
 62
     7
370
    18
100
AcDbLine
 10
3.7800052498
 20
12.2928917233
 30
0.0
 11
3.8463873241
 21
12.3111813703
 31
0.0
  0
LINE
  5
24C
330
1F
100
AcDbEntity
  8
0
  6
Continuous
 62
     7
370
    18
100
AcDbLine
 10
3.6614222775
 20
12.2964916918
 30
0.0
 11
3.7800052498
 21
12.2928917233
 31
0.0
  0
LINE
  5
24D
330
1F
100
AcDbEntity
  8
0
  6
Continuous
 62
     7
370
    18
100
AcDbLine
 10
3.6424261978
 20
12.3029887337
 30
0.0
 11
3.6614222775
 21
12.2964916918
 31
0.0
  0
LINE
  5
24E
330
1F
100
AcDbEntity
  8
0
  6
Continuous
 62
     7
370
    18
100
AcDbLine
 10
3.6169364498
 20
12.3456513858
 30
0.0
 11
3.6424261978
 21
12.3029887337
 31
0.0
  0
LINE
  5
24F
330
1F
100
AcDbEntity
  8
0
  6
Continuous
 62
     7
370
    18
100
AcDbLine
 10
3.5994740432
 20
12.3921798018
 30
0.0
 11
3.6169364498
 21
12.3456513858
 31
0.0
  0
LINE
  5
250
330
1F
100
AcDbEntity
  8
0
  6
Continuous
 62
     7
370
    18
100
AcDbLine
 10
3.6062383133
 20
12.4110823743
 30
0.0
 11
3.5994740432
 21
12.3921798018
 31
0.0
  0
LINE
  5
251
330
1F
100
AcDbEntity
  8
0
  6
Continuous
 62
     7
370
    18
100
AcDbLine
 10
3.6773590185
 20
12.506038819
 30
0.0
 11
3.6062383133
 21
12.4110823743
 31
0.0
  0
LINE
  5
252
330
1F
100
AcDbEntity
  8
0
  6
Continuous
 62
     7
370
    18
100
AcDbLine
 10
3.7330469866
 20
12.5465350062
 30
0.0
 11
3.6773590185
 21
12.506038819
 31
0.0
  0
LINE
  5
253
330
1F
100
AcDbEntity
  8
0
  6
Continuous
 62
     7
370
    18
100
AcDbLine
 10
3.7510941698
 20
12.5527075064
 30
0.0
 11
3.7330469866
 21
12.5465350062
 31
0.0
  0
LINE
  5
254
330
1F
100
AcDbEntity
  8
0
  6
Continuous
 62
     7
370
    18
100
AcDbLine
 10
3.824225722
 20
12.5549276505
 30
0.0
 11
3.7510941698
 21
12.5527075064
 31
0.0
  0
LINE
  5
255
330
1F
100
AcDbEntity
  8
0
  6
Continuous
 62
     7
370
    18
100
AcDbLine
 10
3.8792689264
 20
12.596545855
 30
0.0
 11
3.824225722
 21
12.5549276505
 31
0.0
  0
LINE
  5
256
330
1F
100
AcDbEntity
  8
0
  6
Continuous
 62
     7
370
    18
100
AcDbLine
 10
3.8792689264
 20
12.7455825254
 30
0.0
 11
3.8792689264
 21
12.596545855
 31
0.0
  0
LINE
  5
257
330
1F
100
AcDbEntity
  8
0
  6
Continuous
 62
     7
370
    18
100
AcDbLine
 10
3.824225722
 20
12.7872007299
 30
0.0
 11
3.8792689264
 21
12.7455825254
 31
0.0
  0
LINE
  5
258
330
1F
100
AcDbEntity
  8
0
  6
Continuous
 62
     7
370
    18
100
AcDbLine
 10
3.7510941698
 20
12.789420874
 30
0.0
 11
3.824225722
 21
12.7872007299
 31
0.0
  0
LINE
  5
259
330
1F
100
AcDbEntity
  8
0
  6
Continuous
 62
     7
370
    18
100
AcDbLine
 10
3.7330469866
 20
12.7955933742
 30
0.0
 11
3.7510941698
 21
12.789420874
 31
0.0
  0
LINE
  5
25A
330
1F
100
AcDbEntity
  8
0
  6
Continuous
 62
     7
370
    18
100
AcDbLine
 10
3.6773590185
 20
12.8360895613
 30
0.0
 11
3.7330469866
 21
12.7955933742
 31
0.0
  0
LINE
  5
25B
330
1F
100
AcDbEntity
  8
0
  6
Continuous
 62
     7
370
    18
100
AcDbLine
 10
3.6062383133
 20
12.931046006
 30
0.0
 11
3.6773590185
 21
12.8360895613
 31
0.0
  0
LINE
  5
25C
330
1F
100
AcDbEntity
  8
0
  6
Continuous
 62
     7
370
    18
100
AcDbLine
 10
3.5994740432
 20
12.9499485785
 30
0.0
 11
3.6062383133
 21
12.931046006
 31
0.0
  0
LINE
  5
25D
330
1F
100
AcDbEntity
  8
0
  6
Continuous
 62
     7
370
    18
100
AcDbLine
 10
3.6169364498
 20
12.9964769945
 30
0.0
 11
3.5994740432
 21
12.9499485785
 31
0.0
  0
LINE
  5
25E
330
1F
100
AcDbEntity
  8
0
  6
Continuous
 62
     7
370
    18
100
AcDbLine
 10
3.6424261978
 20
13.0391396466
 30
0.0
 11
3.6169364498
 21
12.9964769945
 31
0.0
  0
LINE
  5
25F
330
1F
100
AcDbEntity
  8
0
  6
Continuous
 62
     7
370
    18
100
AcDbLine
 10
3.6614222775
 20
13.0456366885
 30
0.0
 11
3.6424261978
 21
13.0391396466
 31
0.0
  0
LINE
  5
260
330
1F
100
AcDbEntity
  8
0
  6
Continuous
 62
     7
370
    18
100
AcDbLine
 10
3.7800052498
 20
13.049236657
 30
0.0
 11
3.6614222775
 21
13.0456366885
 31
0.0
  0
LINE
  5
261
330
1F
100
AcDbEntity
  8
0
  6
Continuous
 62
     7
370
    18
100
AcDbLine
 10
3.8463873241
 20
13.03094701
 30
0.0
 11
3.7800052498
 21
13.049236657
 31
0.0
  0
LINE
  5
262
330
1F
100
AcDbEntity
  8
0
  6
Continuous
 62
     7
370
    18
100
AcDbLine
 10
3.8624654138
 20
13.0206856449
 30
0.0
 11
3.8463873241
 21
13.03094701
 31
0.0
  0
LINE
  5
263
330
1F
100
AcDbEntity
  8
0
  6
Continuous
 62
     7
370
    18
100
AcDbLine
 10
3.9097979693
 20
12.9648933323
 30
0.0
 11
3.8624654138
 21
13.0206856449
 31
0.0
  0
LINE
  5
264
330
1F
100
AcDbEntity
  8
0
  6
Continuous
 62
     7
370
    18
100
AcDbLine
 10
3.9766552684
 20
12.9478073483
 30
0.0
 11
3.9097979693
 21
12.9648933323
 31
0.0
  0
LINE
  5
265
330
1F
100
AcDbEntity
  8
0
  6
Continuous
 62
     7
370
    18
100
AcDbLine
 10
4.0931768294
 20
13.0407301924
 30
0.0
 11
3.9766552684
 21
12.9478073483
 31
0.0
  0
LINE
  5
266
330
1F
100
AcDbEntity
  8
0
  6
Continuous
 62
     7
370
    18
100
AcDbLine
 10
4.0913963753
 20
13.1097132286
 30
0.0
 11
4.0931768294
 21
13.0407301924
 31
0.0
  0
LINE
  5
267
330
1F
100
AcDbEntity
  8
0
  6
Continuous
 62
     7
370
    18
100
AcDbLine
 10
4.0475353769
 20
13.1682740156
 30
0.0
 11
4.0913963753
 21
13.1097132286
 31
0.0
  0
LINE
  5
268
330
1F
100
AcDbEntity
  8
0
  6
Continuous
 62
     7
370
    18
100
AcDbLine
 10
4.0411089972
 20
13.1862323625
 30
0.0
 11
4.0475353769
 21
13.1682740156
 31
0.0
  0
LINE
  5
269
330
1F
100
AcDbEntity
  8
0
  6
Continuous
 62
     7
370
    18
100
AcDbLine
 10
4.038049311
 20
13.255019929
 30
0.0
 11
4.0411089972
 21
13.1862323625
 31
0.0
  0
LINE
  5
26A
330
1F
100
AcDbEntity
  8
0
  6
Continuous
 62
     7
370
    18
100
AcDbLine
 10
4.0679462145
 20
13.3698287102
 30
0.0
 11
4.038049311
 21
13.255019929
 31
0.0
  0
LINE
  5
26B
330
1F
100
AcDbEntity
  8
0
  6
Continuous
 62
     7
370
    18
100
AcDbLine
 10
4.0785073874
 20
13.3869027907
 30
0.0
 11
4.0679462145
 21
13.3698287102
 31
0.0
  0
LINE
  5
26C
330
1F
100
AcDbEntity
  8
0
  6
Continuous
 62
     7
370
    18
100
AcDbLine
 10
4.1257724003
 20
13.4022601243
 30
0.0
 11
4.0785073874
 21
13.3869027907
 31
0.0
  0
LINE
  5
26D
330
1F
100
AcDbEntity
  8
0
  6
Continuous
 62
     7
370
    18
100
AcDbLine
 10
4.1750200028
 20
13.4089311653
 30
0.0
 11
4.1257724003
 21
13.4022601243
 31
0.0
  0
LINE
  5
26E
330
1F
100
AcDbEntity
  8
0
  6
Continuous
 62
     7
370
    18
100
AcDbLine
 10
4.1919434566
 20
13.3981302715
 30
0.0
 11
4.1750200028
 21
13.4089311653
 31
0.0
  0
LINE
  5
26F
330
1F
100
AcDbEntity
  8
0
  6
Continuous
 62
     7
370
    18
100
AcDbLine
 10
4.2686932992
 20
13.3076629142
 30
0.0
 11
4.1919434566
 21
13.3981302715
 31
0.0
  0
LINE
  5
270
330
1F
100
AcDbEntity
  8
0
  6
Continuous
 62
     7
370
    18
100
AcDbLine
 10
4.2957824238
 20
13.2443599103
 30
0.0
 11
4.2686932992
 21
13.3076629142
 31
0.0
  0
LINE
  5
271
330
1F
100
AcDbEntity
  8
0
  6
Continuous
 62
     7
370
    18
100
AcDbLine
 10
4.2977842904
 20
13.2253916971
 30
0.0
 11
4.2957824238
 21
13.2443599103
 31
0.0
  0
LINE
  5
272
330
1F
100
AcDbEntity
  8
0
  6
Continuous
 62
     7
370
    18
100
AcDbLine
 10
4.2836754696
 20
13.1535996771
 30
0.0
 11
4.2977842904
 21
13.2253916971
 31
0.0
  0
LINE
  5
273
330
1F
100
AcDbEntity
  8
0
  6
Continuous
 62
     7
370
    18
100
AcDbLine
 10
4.3120019536
 20
13.090675599
 30
0.0
 11
4.2836754696
 21
13.1535996771
 31
0.0
  0
LINE
  5
274
330
1F
100
AcDbEntity
  8
0
  6
Continuous
 62
     7
370
    18
100
AcDbLine
 10
4.4573019634
 20
13.0575118199
 30
0.0
 11
4.3120019536
 21
13.090675599
 31
0.0
  0
LINE
  5
275
330
1F
100
AcDbEntity
  8
0
  6
Continuous
 62
     7
370
    18
100
AcDbLine
 10
4.510124978
 20
13.1019140545
 30
0.0
 11
4.4573019634
 21
13.0575118199
 31
0.0
  0
LINE
  5
276
330
1F
100
AcDbEntity
  8
0
  6
Continuous
 62
     7
370
    18
100
AcDbLine
 10
4.5285627597
 20
13.1727180175
 30
0.0
 11
4.510124978
 21
13.1019140545
 31
0.0
  0
LINE
  5
277
330
1F
100
AcDbEntity
  8
0
  6
Continuous
 62
     7
370
    18
100
AcDbLine
 10
4.5385963785
 20
13.1889392096
 30
0.0
 11
4.5285627597
 21
13.1727180175
 31
0.0
  0
LINE
  5
278
330
1F
100
AcDbEntity
  8
0
  6
Continuous
 62
     7
370
    18
100
AcDbLine
 10
4.5904689804
 20
13.2342197147
 30
0.0
 11
4.5385963785
 21
13.1889392096
 31
0.0
  0
LINE
  5
279
330
1F
100
AcDbEntity
  8
0
  6
Continuous
 62
     7
370
    18
100
AcDbLine
 10
4.6988705145
 20
13.2824274786
 30
0.0
 11
4.5904689804
 21
13.2342197147
 31
0.0
  0
LINE
  5
27A
330
1F
100
AcDbEntity
  8
0
  6
Continuous
 62
     7
370
    18
100
AcDbLine
 10
4.7188043517
 20
13.2848159362
 30
0.0
 11
4.6988705145
 21
13.2824274786
 31
0.0
  0
LINE
  5
27B
330
1F
100
AcDbEntity
  8
0
  6
Continuous
 62
     7
370
    18
100
AcDbLine
 10
4.7602804521
 20
13.257437802
 30
0.0
 11
4.7188043517
 21
13.2848159362
 31
0.0
  0
LINE
  5
27C
330
1F
100
AcDbEntity
  8
0
  6
Continuous
 62
     7
370
    18
100
AcDbLine
 10
4.7962014599
 20
13.223093802
 30
0.0
 11
4.7602804521
 21
13.257437802
 31
0.0
  0
LINE
  5
27D
330
1F
100
AcDbEntity
  8
0
  6
Continuous
 62
     7
370
    18
100
AcDbLine
 10
4.798308582
 20
13.2031282659
 30
0.0
 11
4.7962014599
 21
13.223093802
 31
0.0
  0
LINE
  5
27E
330
1F
100
AcDbEntity
  8
0
  6
Continuous
 62
     7
370
    18
100
AcDbLine
 10
4.7754310981
 20
13.0867173479
 30
0.0
 11
4.798308582
 21
13.2031282659
 31
0.0
  0
LINE
  5
27F
330
1F
100
AcDbEntity
  8
0
  6
Continuous
 62
     7
370
    18
100
AcDbLine
 10
4.7428286096
 20
13.0260694402
 30
0.0
 11
4.7754310981
 21
13.0867173479
 31
0.0
  0
LINE
  5
280
330
1F
100
AcDbEntity
  8
0
  6
Continuous
 62
     7
370
    18
100
AcDbLine
 10
4.7292468068
 20
13.0126778303
 30
0.0
 11
4.7428286096
 21
13.0260694402
 31
0.0
  0
LINE
  5
281
330
1F
100
AcDbEntity
  8
0
  6
Continuous
 62
     7
370
    18
100
AcDbLine
 10
4.6643208394
 20
12.9789469583
 30
0.0
 11
4.7292468068
 21
13.0126778303
 31
0.0
  0
LINE
  5
282
330
1F
100
AcDbEntity
  8
0
  6
Continuous
 62
     7
370
    18
100
AcDbLine
 10
4.6327860881
 20
12.9175679003
 30
0.0
 11
4.6643208394
 21
12.9789469583
 31
0.0
  0
LINE
  5
283
330
1F
100
AcDbEntity
  8
0
  6
Continuous
 62
     7
370
    18
100
AcDbLine
 10
4.6974506759
 20
12.7832905002
 30
0.0
 11
4.6327860881
 21
12.9175679003
 31
0.0
  0
LINE
  5
284
330
1F
100
AcDbEntity
  8
0
  6
Continuous
 62
     7
370
    18
100
AcDbLine
 10
4.7651003516
 20
12.7696761449
 30
0.0
 11
4.6974506759
 21
12.7832905002
 31
0.0
  0
LINE
  5
285
330
1F
100
AcDbEntity
  8
0
  6
Continuous
 62
     7
370
    18
100
AcDbLine
 10
4.8319528878
 20
12.7994064555
 30
0.0
 11
4.7651003516
 21
12.7696761449
 31
0.0
  0
LINE
  5
286
330
1F
100
AcDbEntity
  8
0
  6
Continuous
 62
     7
370
    18
100
AcDbLine
 10
4.8508909855
 20
12.8016756043
 30
0.0
 11
4.8319528878
 21
12.7994064555
 31
0.0
  0
LINE
  5
287
330
1F
100
AcDbEntity
  8
0
  6
Continuous
 62
     7
370
    18
100
AcDbLine
 10
4.917198644
 20
12.7896131551
 30
0.0
 11
4.8508909855
 21
12.8016756043
 31
0.0
  0
LINE
  5
288
330
1F
100
AcDbEntity
  8
0
  6
Continuous
 62
     7
370
    18
100
AcDbLine
 10
4.917198644
 20
12.7896131551
 30
0.0
 11
4.9199300454
 21
12.7886789608
 31
0.0
  0
LINE
  5
289
330
1F
100
AcDbEntity
  8
0
  6
Continuous
 62
     7
370
    18
100
AcDbLine
 10
5.0239123468
 20
12.7346572213
 30
0.0
 11
4.9199300454
 21
12.7886789608
 31
0.0
  0
LINE
  5
28A
330
1F
100
AcDbEntity
  8
0
  6
Continuous
 62
     7
370
    18
100
AcDbLine
 10
5.0382082623
 20
12.7205614987
 30
0.0
 11
5.0239123468
 21
12.7346572213
 31
0.0
  0
LINE
  5
28B
330
1F
100
AcDbEntity
  8
0
  6
Continuous
 62
     7
370
    18
100
AcDbLine
 10
5.0426631007
 20
12.6710641902
 30
0.0
 11
5.0382082623
 21
12.7205614987
 31
0.0
  0
LINE
  5
28C
330
1F
100
AcDbEntity
  8
0
  6
Continuous
 62
     7
370
    18
100
AcDbLine
 10
5.0382082623
 20
12.6215668816
 30
0.0
 11
5.0426631007
 21
12.6710641902
 31
0.0
  0
LINE
  5
28D
330
1F
100
AcDbEntity
  8
0
  6
Continuous
 62
     7
370
    18
100
AcDbLine
 10
5.0239123468
 20
12.6074711591
 30
0.0
 11
5.0382082623
 21
12.6215668816
 31
0.0
  0
LINE
  5
28E
330
1F
100
AcDbEntity
  8
0
  6
Continuous
 62
     7
370
    18
100
AcDbLine
 10
4.9199300454
 20
12.5534494195
 30
0.0
 11
5.0239123468
 21
12.6074711591
 31
0.0
  0
LINE
  5
28F
330
1F
100
AcDbEntity
  8
0
  6
Continuous
 62
     7
370
    18
100
AcDbLine
 10
4.9199300454
 20
12.5534494195
 30
0.0
 11
4.917198644
 21
12.5525152252
 31
0.0
  0
CIRCLE
  5
290
330
1F
100
AcDbEntity
  8
0
  6
Continuous
 62
     7
370
    18
100
AcDbCircle
 10
10.5593916223
 20
9.4902251305
 30
0.0
 40
0.09375
  0
CIRCLE
  5
291
330
1F
100
AcDbEntity
  8
0
  6
Continuous
 62
     7
370
    18
100
AcDbCircle
 10
9.1232509606
 20
10.4902251305
 30
0.0
 40
0.09375
  0
ARC
  5
292
330
1F
100
AcDbEntity
  8
0
  6
Continuous
 62
     7
370
    18
100
AcDbCircle
 10
10.7031416223
 20
9.2902251305
 30
0.0
 40
0.0500000000000025
100
AcDbArc
 50
270.0
 51
0.0
  0
ARC
  5
293
330
1F
100
AcDbEntity
  8
0
  6
Continuous
 62
     7
370
    18
100
AcDbCircle
 10
8.8031416223
 20
9.2902251305
 30
0.0
 40
0.0500000000000025
100
AcDbArc
 50
180.0
 51
270.0
  0
ARC
  5
294
330
1F
100
AcDbEntity
  8
0
  6
Continuous
 62
     7
370
    18
100
AcDbCircle
 10
8.8031416223
 20
9.6389751305
 30
0.0
 40
0.0500000000000007
100
AcDbArc
 50
180.0
 51
270.0
  0
ARC
  5
295
330
1F
100
AcDbEntity
  8
0
  6
Continuous
 62
     7
370
    18
100
AcDbCircle
 10
8.8031416223
 20
10.6902251305
 30
0.0
 40
0.0499999999999989
100
AcDbArc
 50
90.0
 51
180.0
  0
ARC
  5
296
330
1F
100
AcDbEntity
  8
0
  6
Continuous
 62
     7
370
    18
100
AcDbCircle
 10
9.4856025693
 20
10.6902251305
 30
0.0
 40
0.0499999999999989
100
AcDbArc
 50
51.3401917459
 51
90.0
  0
LINE
  5
297
330
1F
100
AcDbEntity
  8
0
  6
Continuous
 62
     7
370
    18
100
AcDbLine
 10
9.5168373217
 20
10.729268571
 30
0.0
 11
10.7343763746
 21
9.7552373286
 31
0.0
  0
ARC
  5
298
330
1F
100
AcDbEntity
  8
0
  6
Continuous
 62
     7
370
    18
100
AcDbCircle
 10
10.7031416223
 20
9.7161938881
 30
0.0
 40
0.0499999999999989
100
AcDbArc
 50
0.0
 51
51.3401917459
  0
LINE
  5
299
330
1F
100
AcDbEntity
  8
0
  6
Continuous
 62
     7
370
    18
100
AcDbLine
 10
8.8031416223
 20
10.7402251305
 30
0.0
 11
9.4856025693
 21
10.7402251305
 31
0.0
  0
LINE
  5
29A
330
1F
100
AcDbEntity
  8
0
  6
Continuous
 62
     7
370
    18
100
AcDbLine
 10
10.7531416223
 20
9.2902251305
 30
0.0
 11
10.7531416223
 21
9.7161938881
 31
0.0
  0
LINE
  5
29B
330
1F
100
AcDbEntity
  8
0
  6
Continuous
 62
     7
370
    18
100
AcDbLine
 10
8.8031416223
 20
9.2402251305
 30
0.0
 11
10.7031416223
 21
9.2402251305
 31
0.0
  0
LINE
  5
29C
330
1F
100
AcDbEntity
  8
0
  6
Continuous
 62
     7
370
    18
100
AcDbLine
 10
8.7531416223
 20
9.3914751305
 30
0.0
 11
8.7531416223
 21
9.2902251305
 31
0.0
  0
LINE
  5
29D
330
1F
100
AcDbEntity
  8
0
  6
Continuous
 62
     7
370
    18
100
AcDbLine
 10
8.7531416223
 20
9.3914751305
 30
0.0
 11
9.7531416223
 21
9.3914751305
 31
0.0
  0
LINE
  5
29E
330
1F
100
AcDbEntity
  8
0
  6
Continuous
 62
     7
370
    18
100
AcDbLine
 10
9.7531416223
 20
9.3914751305
 30
0.0
 11
9.7531416223
 21
9.5889751305
 31
0.0
  0
LINE
  5
29F
330
1F
100
AcDbEntity
  8
0
  6
Continuous
 62
     7
370
    18
100
AcDbLine
 10
8.8031416223
 20
9.5889751305
 30
0.0
 11
9.7531416223
 21
9.5889751305
 31
0.0
  0
LINE
  5
2A0
330
1F
100
AcDbEntity
  8
0
  6
Continuous
 62
     7
370
    18
100
AcDbLine
 10
8.7531416223
 20
9.6389751305
 30
0.0
 11
8.7531416223
 21
10.6902251305
 31
0.0
  0
ARC
  5
2A1
330
1F
100
AcDbEntity
  8
0
  6
Continuous
 62
     7
370
    18
100
AcDbCircle
 10
3.5473430381
 20
11.6334809858
 30
0.0
 40
0.0500000000000025
100
AcDbArc
 50
90.0
 51
180.0
  0
ARC
  5
2A2
330
1F
100
AcDbEntity
  8
0
  6
Continuous
 62
     7
370
    18
100
AcDbCircle
 10
4.9473430381
 20
11.6334809858
 30
0.0
 40
0.0500000000000025
100
AcDbArc
 50
0.0
 51
90.0
  0
ARC
  5
2A3
330
1F
100
AcDbEntity
  8
0
  6
Continuous
 62
     7
370
    18
100
AcDbCircle
 10
4.9473430381
 20
11.2334809858
 30
0.0
 40
0.0500000000000025
100
AcDbArc
 50
270.0
 51
0.0
  0
ARC
  5
2A4
330
1F
100
AcDbEntity
  8
0
  6
Continuous
 62
     7
370
    18
100
AcDbCircle
 10
3.5473430381
 20
11.2334809858
 30
0.0
 40
0.0500000000000025
100
AcDbArc
 50
180.0
 51
270.0
  0
CIRCLE
  5
2A5
330
1F
100
AcDbEntity
  8
0
  6
Continuous
 62
     7
370
    18
100
AcDbCircle
 10
4.8035930381
 20
11.4334809858
 30
0.0
 40
0.09375
  0
LINE
  5
2A6
330
1F
100
AcDbEntity
  8
0
  6
Continuous
 62
     7
370
    18
100
AcDbLine
 10
3.4973430381
 20
11.5322309858
 30
0.0
 11
3.9973430381
 21
11.5322309858
 31
0.0
  0
LINE
  5
2A7
330
1F
100
AcDbEntity
  8
0
  6
Continuous
 62
     7
370
    18
100
AcDbLine
 10
3.4973430381
 20
11.6334809858
 30
0.0
 11
3.4973430381
 21
11.5322309858
 31
0.0
  0
LINE
  5
2A8
330
1F
100
AcDbEntity
  8
0
  6
Continuous
 62
     7
370
    18
100
AcDbLine
 10
4.9473430381
 20
11.6834809858
 30
0.0
 11
3.5473430381
 21
11.6834809858
 31
0.0
  0
LINE
  5
2A9
330
1F
100
AcDbEntity
  8
0
  6
Continuous
 62
     7
370
    18
100
AcDbLine
 10
4.9973430381
 20
11.2334809858
 30
0.0
 11
4.9973430381
 21
11.6334809858
 31
0.0
  0
LINE
  5
2AA
330
1F
100
AcDbEntity
  8
0
  6
Continuous
 62
     7
370
    18
100
AcDbLine
 10
3.5473430381
 20
11.1834809858
 30
0.0
 11
4.9473430381
 21
11.1834809858
 31
0.0
  0
LINE
  5
2AB
330
1F
100
AcDbEntity
  8
0
  6
Continuous
 62
     7
370
    18
100
AcDbLine
 10
3.4973430381
 20
11.3347309858
 30
0.0
 11
3.4973430381
 21
11.2334809858
 31
0.0
  0
LINE
  5
2AC
330
1F
100
AcDbEntity
  8
0
  6
Continuous
 62
     7
370
    18
100
AcDbLine
 10
3.9973430381
 20
11.3347309858
 30
0.0
 11
3.4973430381
 21
11.3347309858
 31
0.0
  0
LINE
  5
2AD
330
1F
100
AcDbEntity
  8
0
  6
Continuous
 62
     7
370
    18
100
AcDbLine
 10
3.9973430381
 20
11.5322309858
 30
0.0
 11
3.9973430381
 21
11.3347309858
 31
0.0
  0
ARC
  5
2AE
330
1F
100
AcDbEntity
  8
0
  6
Continuous
 62
     7
370
    18
100
AcDbCircle
 10
3.5493613755
 20
10.8598894488
 30
0.0
 40
0.0500000000000007
100
AcDbArc
 50
90.0
 51
180.0
  0
ARC
  5
2AF
330
1F
100
AcDbEntity
  8
0
  6
Continuous
 62
     7
370
    18
100
AcDbCircle
 10
4.9493613755
 20
10.8598894488
 30
0.0
 40
0.0500000000000007
100
AcDbArc
 50
0.0
 51
90.0
  0
ARC
  5
2B0
330
1F
100
AcDbEntity
  8
0
  6
Continuous
 62
     7
370
    18
100
AcDbCircle
 10
4.9493613755
 20
10.4598894488
 30
0.0
 40
0.0500000000000025
100
AcDbArc
 50
270.0
 51
0.0
  0
ARC
  5
2B1
330
1F
100
AcDbEntity
  8
0
  6
Continuous
 62
     7
370
    18
100
AcDbCircle
 10
3.5493613755
 20
10.4598894488
 30
0.0
 40
0.0500000000000025
100
AcDbArc
 50
180.0
 51
270.0
  0
CIRCLE
  5
2B2
330
1F
100
AcDbEntity
  8
0
  6
Continuous
 62
     7
370
    18
100
AcDbCircle
 10
4.8056113755
 20
10.6598894488
 30
0.0
 40
0.09375
  0
LINE
  5
2B3
330
1F
100
AcDbEntity
  8
0
  6
Continuous
 62
     7
370
    18
100
AcDbLine
 10
3.4993613755
 20
10.7586394488
 30
0.0
 11
3.9993613755
 21
10.7586394488
 31
0.0
  0
LINE
  5
2B4
330
1F
100
AcDbEntity
  8
0
  6
Continuous
 62
     7
370
    18
100
AcDbLine
 10
3.4993613755
 20
10.8598894488
 30
0.0
 11
3.4993613755
 21
10.7586394488
 31
0.0
  0
LINE
  5
2B5
330
1F
100
AcDbEntity
  8
0
  6
Continuous
 62
     7
370
    18
100
AcDbLine
 10
4.9493613755
 20
10.9098894488
 30
0.0
 11
3.5493613755
 21
10.9098894488
 31
0.0
  0
LINE
  5
2B6
330
1F
100
AcDbEntity
  8
0
  6
Continuous
 62
     7
370
    18
100
AcDbLine
 10
4.9993613755
 20
10.4598894488
 30
0.0
 11
4.9993613755
 21
10.8598894488
 31
0.0
  0
LINE
  5
2B7
330
1F
100
AcDbEntity
  8
0
  6
Continuous
 62
     7
370
    18
100
AcDbLine
 10
3.5493613755
 20
10.4098894488
 30
0.0
 11
4.9493613755
 21
10.4098894488
 31
0.0
  0
LINE
  5
2B8
330
1F
100
AcDbEntity
  8
0
  6
Continuous
 62
     7
370
    18
100
AcDbLine
 10
3.4993613755
 20
10.5611394488
 30
0.0
 11
3.4993613755
 21
10.4598894488
 31
0.0
  0
LINE
  5
2B9
330
1F
100
AcDbEntity
  8
0
  6
Continuous
 62
     7
370
    18
100
AcDbLine
 10
3.9993613755
 20
10.5611394488
 30
0.0
 11
3.4993613755
 21
10.5611394488
 31
0.0
  0
LINE
  5
2BA
330
1F
100
AcDbEntity
  8
0
  6
Continuous
 62
     7
370
    18
100
AcDbLine
 10
3.9993613755
 20
10.7586394488
 30
0.0
 11
3.9993613755
 21
10.5611394488
 31
0.0
  0
ARC
  5
2BB
330
1F
100
AcDbEntity
  8
0
  6
Continuous
 62
     7
370
    18
100
AcDbCircle
 10
5.0439071965
 20
9.8856198557
 30
0.0
 40
0.0500000000000007
100
AcDbArc
 50
90.0
 51
180.0
  0
ARC
  5
2BC
330
1F
100
AcDbEntity
  8
0
  6
Continuous
 62
     7
370
    18
100
AcDbCircle
 10
6.4439071965
 20
9.8856198557
 30
0.0
 40
0.0500000000000007
100
AcDbArc
 50
0.0
 51
90.0
  0
ARC
  5
2BD
330
1F
100
AcDbEntity
  8
0
  6
Continuous
 62
     7
370
    18
100
AcDbCircle
 10
6.4439071965
 20
9.4856198557
 30
0.0
 40
0.0499999999999998
100
AcDbArc
 50
270.0
 51
0.0
  0
ARC
  5
2BE
330
1F
100
AcDbEntity
  8
0
  6
Continuous
 62
     7
370
    18
100
AcDbCircle
 10
5.0439071965
 20
9.4856198557
 30
0.0
 40
0.0500000000000007
100
AcDbArc
 50
180.0
 51
270.0
  0
CIRCLE
  5
2BF
330
1F
100
AcDbEntity
  8
0
  6
Continuous
 62
     7
370
    18
100
AcDbCircle
 10
6.3001571965
 20
9.6856198557
 30
0.0
 40
0.09375
  0
LINE
  5
2C0
330
1F
100
AcDbEntity
  8
0
  6
Continuous
 62
     7
370
    18
100
AcDbLine
 10
4.9939071965
 20
9.7843698557
 30
0.0
 11
5.4939071965
 21
9.7843698557
 31
0.0
  0
LINE
  5
2C1
330
1F
100
AcDbEntity
  8
0
  6
Continuous
 62
     7
370
    18
100
AcDbLine
 10
4.9939071965
 20
9.8856198557
 30
0.0
 11
4.9939071965
 21
9.7843698557
 31
0.0
  0
LINE
  5
2C2
330
1F
100
AcDbEntity
  8
0
  6
Continuous
 62
     7
370
    18
100
AcDbLine
 10
6.4439071965
 20
9.9356198557
 30
0.0
 11
5.0439071965
 21
9.9356198557
 31
0.0
  0
LINE
  5
2C3
330
1F
100
AcDbEntity
  8
0
  6
Continuous
 62
     7
370
    18
100
AcDbLine
 10
6.4939071965
 20
9.4856198557
 30
0.0
 11
6.4939071965
 21
9.8856198557
 31
0.0
  0
LINE
  5
2C4
330
1F
100
AcDbEntity
  8
0
  6
Continuous
 62
     7
370
    18
100
AcDbLine
 10
5.0439071965
 20
9.4356198557
 30
0.0
 11
6.4439071965
 21
9.4356198557
 31
0.0
  0
LINE
  5
2C5
330
1F
100
AcDbEntity
  8
0
  6
Continuous
 62
     7
370
    18
100
AcDbLine
 10
4.9939071965
 20
9.5868698557
 30
0.0
 11
4.9939071965
 21
9.4856198557
 31
0.0
  0
LINE
  5
2C6
330
1F
100
AcDbEntity
  8
0
  6
Continuous
 62
     7
370
    18
100
AcDbLine
 10
5.4939071965
 20
9.5868698557
 30
0.0
 11
4.9939071965
 21
9.5868698557
 31
0.0
  0
LINE
  5
2C7
330
1F
100
AcDbEntity
  8
0
  6
Continuous
 62
     7
370
    18
100
AcDbLine
 10
5.4939071965
 20
9.7843698557
 30
0.0
 11
5.4939071965
 21
9.5868698557
 31
0.0
  0
ARC
  5
2C8
330
1F
100
AcDbEntity
  8
0
  6
Continuous
 62
     7
370
    18
100
AcDbCircle
 10
5.4152309015
 20
10.7664905751
 30
0.0
 40
0.0500000000000025
100
AcDbArc
 50
90.0
 51
180.0
  0
ARC
  5
2C9
330
1F
100
AcDbEntity
  8
0
  6
Continuous
 62
     7
370
    18
100
AcDbCircle
 10
6.8152309015
 20
10.7664905751
 30
0.0
 40
0.0500000000000025
100
AcDbArc
 50
0.0
 51
90.0
  0
ARC
  5
2CA
330
1F
100
AcDbEntity
  8
0
  6
Continuous
 62
     7
370
    18
100
AcDbCircle
 10
6.8152309015
 20
10.3664905751
 30
0.0
 40
0.0500000000000025
100
AcDbArc
 50
270.0
 51
0.0
  0
ARC
  5
2CB
330
1F
100
AcDbEntity
  8
0
  6
Continuous
 62
     7
370
    18
100
AcDbCircle
 10
5.4152309015
 20
10.3664905751
 30
0.0
 40
0.0500000000000025
100
AcDbArc
 50
180.0
 51
270.0
  0
CIRCLE
  5
2CC
330
1F
100
AcDbEntity
  8
0
  6
Continuous
 62
     7
370
    18
100
AcDbCircle
 10
6.6714809015
 20
10.5664905751
 30
0.0
 40
0.09375
  0
LINE
  5
2CD
330
1F
100
AcDbEntity
  8
0
  6
Continuous
 62
     7
370
    18
100
AcDbLine
 10
5.3652309015
 20
10.6652405751
 30
0.0
 11
5.8652309015
 21
10.6652405751
 31
0.0
  0
LINE
  5
2CE
330
1F
100
AcDbEntity
  8
0
  6
Continuous
 62
     7
370
    18
100
AcDbLine
 10
5.3652309015
 20
10.7664905751
 30
0.0
 11
5.3652309015
 21
10.6652405751
 31
0.0
  0
LINE
  5
2CF
330
1F
100
AcDbEntity
  8
0
  6
Continuous
 62
     7
370
    18
100
AcDbLine
 10
6.8152309015
 20
10.8164905751
 30
0.0
 11
5.4152309015
 21
10.8164905751
 31
0.0
  0
LINE
  5
2D0
330
1F
100
AcDbEntity
  8
0
  6
Continuous
 62
     7
370
    18
100
AcDbLine
 10
6.8652309015
 20
10.3664905751
 30
0.0
 11
6.8652309015
 21
10.7664905751
 31
0.0
  0
LINE
  5
2D1
330
1F
100
AcDbEntity
  8
0
  6
Continuous
 62
     7
370
    18
100
AcDbLine
 10
5.4152309015
 20
10.3164905751
 30
0.0
 11
6.8152309015
 21
10.3164905751
 31
0.0
  0
LINE
  5
2D2
330
1F
100
AcDbEntity
  8
0
  6
Continuous
 62
     7
370
    18
100
AcDbLine
 10
5.3652309015
 20
10.4677405751
 30
0.0
 11
5.3652309015
 21
10.3664905751
 31
0.0
  0
LINE
  5
2D3
330
1F
100
AcDbEntity
  8
0
  6
Continuous
 62
     7
370
    18
100
AcDbLine
 10
5.8652309015
 20
10.4677405751
 30
0.0
 11
5.3652309015
 21
10.4677405751
 31
0.0
  0
LINE
  5
2D4
330
1F
100
AcDbEntity
  8
0
  6
Continuous
 62
     7
370
    18
100
AcDbLine
 10
5.8652309015
 20
10.6652405751
 30
0.0
 11
5.8652309015
 21
10.4677405751
 31
0.0
  0
ARC
  5
2D5
330
1F
100
AcDbEntity
  8
0
  6
Continuous
 62
     7
370
    18
100
AcDbCircle
 10
6.8413712448
 20
9.918313048
 30
0.0
 40
0.0500000000000016
100
AcDbArc
 50
90.0
 51
180.0
  0
ARC
  5
2D6
330
1F
100
AcDbEntity
  8
0
  6
Continuous
 62
     7
370
    18
100
AcDbCircle
 10
8.2413712448
 20
9.918313048
 30
0.0
 40
0.0500000000000007
100
AcDbArc
 50
0.0
 51
90.0
  0
ARC
  5
2D7
330
1F
100
AcDbEntity
  8
0
  6
Continuous
 62
     7
370
    18
100
AcDbCircle
 10
8.2413712448
 20
9.518313048
 30
0.0
 40
0.0500000000000007
100
AcDbArc
 50
270.0
 51
0.0
  0
ARC
  5
2D8
330
1F
100
AcDbEntity
  8
0
  6
Continuous
 62
     7
370
    18
100
AcDbCircle
 10
6.8413712448
 20
9.518313048
 30
0.0
 40
0.0500000000000016
100
AcDbArc
 50
180.0
 51
270.0
  0
CIRCLE
  5
2D9
330
1F
100
AcDbEntity
  8
0
  6
Continuous
 62
     7
370
    18
100
AcDbCircle
 10
8.0976212448
 20
9.718313048
 30
0.0
 40
0.09375
  0
LINE
  5
2DA
330
1F
100
AcDbEntity
  8
0
  6
Continuous
 62
     7
370
    18
100
AcDbLine
 10
6.7913712448
 20
9.817063048
 30
0.0
 11
7.2913712448
 21
9.817063048
 31
0.0
  0
LINE
  5
2DB
330
1F
100
AcDbEntity
  8
0
  6
Continuous
 62
     7
370
    18
100
AcDbLine
 10
6.7913712448
 20
9.918313048
 30
0.0
 11
6.7913712448
 21
9.817063048
 31
0.0
  0
LINE
  5
2DC
330
1F
100
AcDbEntity
  8
0
  6
Continuous
 62
     7
370
    18
100
AcDbLine
 10
8.2413712448
 20
9.968313048
 30
0.0
 11
6.8413712448
 21
9.968313048
 31
0.0
  0
LINE
  5
2DD
330
1F
100
AcDbEntity
  8
0
  6
Continuous
 62
     7
370
    18
100
AcDbLine
 10
8.2913712448
 20
9.518313048
 30
0.0
 11
8.2913712448
 21
9.918313048
 31
0.0
  0
LINE
  5
2DE
330
1F
100
AcDbEntity
  8
0
  6
Continuous
 62
     7
370
    18
100
AcDbLine
 10
6.8413712448
 20
9.468313048
 30
0.0
 11
8.2413712448
 21
9.468313048
 31
0.0
  0
LINE
  5
2DF
330
1F
100
AcDbEntity
  8
0
  6
Continuous
 62
     7
370
    18
100
AcDbLine
 10
6.7913712448
 20
9.619563048
 30
0.0
 11
6.7913712448
 21
9.518313048
 31
0.0
  0
LINE
  5
2E0
330
1F
100
AcDbEntity
  8
0
  6
Continuous
 62
     7
370
    18
100
AcDbLine
 10
7.2913712448
 20
9.619563048
 30
0.0
 11
6.7913712448
 21
9.619563048
 31
0.0
  0
LINE
  5
2E1
330
1F
100
AcDbEntity
  8
0
  6
Continuous
 62
     7
370
    18
100
AcDbLine
 10
7.2913712448
 20
9.817063048
 30
0.0
 11
7.2913712448
 21
9.619563048
 31
0.0
  0
ARC
  5
2E2
330
1F
100
AcDbEntity
  8
0
  6
Continuous
 62
     7
370
    18
100
AcDbCircle
 10
11.3781278974
 20
7.7303043223
 30
0.0
 40
0.1000000000000005
100
AcDbArc
 50
90.0
 51
180.0
  0
ARC
  5
2E3
330
1F
100
AcDbEntity
  8
0
  6
Continuous
 62
     7
370
    18
100
AcDbCircle
 10
12.6781278974
 20
7.7303043223
 30
0.0
 40
0.1000000000000014
100
AcDbArc
 50
0.0
 51
90.0
  0
ARC
  5
2E4
330
1F
100
AcDbEntity
  8
0
  6
Continuous
 62
     7
370
    18
100
AcDbCircle
 10
12.6781278974
 20
6.1803043223
 30
0.0
 40
0.0999999999999996
100
AcDbArc
 50
270.0
 51
0.0
  0
LINE
  5
2E5
330
1F
100
AcDbEntity
  8
0
  6
Continuous
 62
     7
370
    18
100
AcDbLine
 10
11.3781278974
 20
7.8303043223
 30
0.0
 11
12.6781278974
 21
7.8303043223
 31
0.0
  0
CIRCLE
  5
2E6
330
1F
100
AcDbEntity
  8
0
  6
Continuous
 62
     7
370
    18
100
AcDbCircle
 10
12.0281278974
 20
7.2053043223
 30
0.0
 40
0.4999999999999982
  0
LINE
  5
2E7
330
1F
100
AcDbEntity
  8
0
  6
Continuous
 62
     7
370
    18
100
AcDbLine
 10
12.7781278974
 20
6.1803043223
 30
0.0
 11
12.7781278974
 21
7.7303043223
 31
0.0
  0
LINE
  5
2E8
330
1F
100
AcDbEntity
  8
0
  6
Continuous
 62
     7
370
    18
100
AcDbLine
 10
11.2781278974
 20
6.0803043223
 30
0.0
 11
12.6781278974
 21
6.0803043223
 31
0.0
  0
LINE
  5
2E9
330
1F
100
AcDbEntity
  8
0
  6
Continuous
 62
     7
370
    18
100
AcDbLine
 10
11.2781278974
 20
6.2365543223
 30
0.0
 11
11.2781278974
 21
6.0803043223
 31
0.0
  0
LINE
  5
2EA
330
1F
100
AcDbEntity
  8
0
  6
Continuous
 62
     7
370
    18
100
AcDbLine
 10
11.2781278974
 20
6.2365543223
 30
0.0
 11
12.0281278974
 21
6.2365543223
 31
0.0
  0
LINE
  5
2EB
330
1F
100
AcDbEntity
  8
0
  6
Continuous
 62
     7
370
    18
100
AcDbLine
 10
12.0281278974
 20
6.2365543223
 30
0.0
 11
12.0281278974
 21
6.4240543223
 31
0.0
  0
LINE
  5
2EC
330
1F
100
AcDbEntity
  8
0
  6
Continuous
 62
     7
370
    18
100
AcDbLine
 10
11.2781278974
 20
6.4240543223
 30
0.0
 11
12.0281278974
 21
6.4240543223
 31
0.0
  0
LINE
  5
2ED
330
1F
100
AcDbEntity
  8
0
  6
Continuous
 62
     7
370
    18
100
AcDbLine
 10
11.2781278974
 20
6.4240543223
 30
0.0
 11
11.2781278974
 21
7.7303043223
 31
0.0
  0
ARC
  5
2EE
330
1F
100
AcDbEntity
  8
0
  6
Continuous
 62
     7
370
    18
100
AcDbCircle
 10
13.643440521
 20
7.7341654274
 30
0.0
 40
0.1000000000000005
100
AcDbArc
 50
90.0
 51
180.0
  0
ARC
  5
2EF
330
1F
100
AcDbEntity
  8
0
  6
Continuous
 62
     7
370
    18
100
AcDbCircle
 10
14.943440521
 20
7.7341654274
 30
0.0
 40
0.0999999999999996
100
AcDbArc
 50
0.0
 51
90.0
  0
ARC
  5
2F0
330
1F
100
AcDbEntity
  8
0
  6
Continuous
 62
     7
370
    18
100
AcDbCircle
 10
14.943440521
 20
6.1841654274
 30
0.0
 40
0.0999999999999996
100
AcDbArc
 50
270.0
 51
0.0
  0
LINE
  5
2F1
330
1F
100
AcDbEntity
  8
0
  6
Continuous
 62
     7
370
    18
100
AcDbLine
 10
13.643440521
 20
7.8341654274
 30
0.0
 11
14.943440521
 21
7.8341654274
 31
0.0
  0
CIRCLE
  5
2F2
330
1F
100
AcDbEntity
  8
0
  6
Continuous
 62
     7
370
    18
100
AcDbCircle
 10
14.293440521
 20
7.2091654274
 30
0.0
 40
0.5
  0
LINE
  5
2F3
330
1F
100
AcDbEntity
  8
0
  6
Continuous
 62
     7
370
    18
100
AcDbLine
 10
15.043440521
 20
6.1841654274
 30
0.0
 11
15.043440521
 21
7.7341654274
 31
0.0
  0
LINE
  5
2F4
330
1F
100
AcDbEntity
  8
0
  6
Continuous
 62
     7
370
    18
100
AcDbLine
 10
13.543440521
 20
6.0841654274
 30
0.0
 11
14.943440521
 21
6.0841654274
 31
0.0
  0
LINE
  5
2F5
330
1F
100
AcDbEntity
  8
0
  6
Continuous
 62
     7
370
    18
100
AcDbLine
 10
13.543440521
 20
6.2404154274
 30
0.0
 11
13.543440521
 21
6.0841654274
 31
0.0
  0
LINE
  5
2F6
330
1F
100
AcDbEntity
  8
0
  6
Continuous
 62
     7
370
    18
100
AcDbLine
 10
13.543440521
 20
6.2404154274
 30
0.0
 11
14.293440521
 21
6.2404154274
 31
0.0
  0
LINE
  5
2F7
330
1F
100
AcDbEntity
  8
0
  6
Continuous
 62
     7
370
    18
100
AcDbLine
 10
14.293440521
 20
6.2404154274
 30
0.0
 11
14.293440521
 21
6.4279154274
 31
0.0
  0
LINE
  5
2F8
330
1F
100
AcDbEntity
  8
0
  6
Continuous
 62
     7
370
    18
100
AcDbLine
 10
13.543440521
 20
6.4279154274
 30
0.0
 11
14.293440521
 21
6.4279154274
 31
0.0
  0
LINE
  5
2F9
330
1F
100
AcDbEntity
  8
0
  6
Continuous
 62
     7
370
    18
100
AcDbLine
 10
13.543440521
 20
6.4279154274
 30
0.0
 11
13.543440521
 21
7.7341654274
 31
0.0
  0
CIRCLE
  5
2FA
330
1F
100
AcDbEntity
  8
0
  6
Continuous
 62
     7
370
    18
100
AcDbCircle
 10
11.8683645561
 20
10.2109124247
 30
0.0
 40
0.09375
  0
CIRCLE
  5
2FB
330
1F
100
AcDbEntity
  8
0
  6
Continuous
 62
     7
370
    18
100
AcDbCircle
 10
11.8683645561
 20
10.2109124247
 30
0.0
 40
0.375
  0
CIRCLE
  5
2FC
330
1F
100
AcDbEntity
  8
0
  6
Continuous
 62
     7
370
    18
100
AcDbCircle
 10
12.6344788584
 20
10.1971960711
 30
0.0
 40
0.09375
  0
CIRCLE
  5
2FD
330
1F
100
AcDbEntity
  8
0
  6
Continuous
 62
     7
370
    18
100
AcDbCircle
 10
12.6344788584
 20
10.1971960711
 30
0.0
 40
0.25
  0
CIRCLE
  5
2FE
330
1F
100
AcDbEntity
  8
0
  6
Continuous
 62
     7
370
    18
100
AcDbCircle
 10
13.4048785101
 20
10.1885707091
 30
0.0
 40
0.09375
  0
CIRCLE
  5
2FF
330
1F
100
AcDbEntity
  8
0
  6
Continuous
 62
     7
370
    18
100
AcDbCircle
 10
13.4048785101
 20
10.1885707091
 30
0.0
 40
0.375
  0
CIRCLE
  5
300
330
1F
100
AcDbEntity
  8
0
  6
Continuous
 62
     7
370
    18
100
AcDbCircle
 10
11.9423811281
 20
8.8446284723
 30
0.0
 40
0.09375
  0
CIRCLE
  5
301
330
1F
100
AcDbEntity
  8
0
  6
Continuous
 62
     7
370
    18
100
AcDbCircle
 10
11.9423811281
 20
8.8446284723
 30
0.0
 40
0.625
  0
CIRCLE
  5
302
330
1F
100
AcDbEntity
  8
0
  6
Continuous
 62
     7
370
    18
100
AcDbCircle
 10
13.2776982663
 20
8.8654928025
 30
0.0
 40
0.09375
  0
CIRCLE
  5
303
330
1F
100
AcDbEntity
  8
0
  6
Continuous
 62
     7
370
    18
100
AcDbCircle
 10
13.2776982663
 20
8.8654928025
 30
0.0
 40
0.4999999999999982
  0
CIRCLE
  5
304
330
1F
100
AcDbEntity
  8
0
  6
Continuous
 62
     7
370
    18
100
AcDbCircle
 10
14.6276155432
 20
8.8455288469
 30
0.0
 40
0.0937500000000018
  0
CIRCLE
  5
305
330
1F
100
AcDbEntity
  8
0
  6
Continuous
 62
     7
370
    18
100
AcDbCircle
 10
14.6276155432
 20
8.8455288469
 30
0.0
 40
0.6250000000000018
  0
LINE
  5
306
330
1F
100
AcDbEntity
  8
0
  6
Continuous
 62
     7
370
    25
100
AcDbLine
 10
9.0254320422
 20
8.5274042367
 30
0.0
 11
9.0254320422
 21
7.5174042367
 31
0.0
  0
LINE
  5
307
330
1F
100
AcDbEntity
  8
0
  6
Continuous
 62
     7
370
    25
100
AcDbLine
 10
7.4506288926
 20
8.5274042367
 30
0.0
 11
9.0254320422
 21
8.5274042367
 31
0.0
  0
LINE
  5
308
330
1F
100
AcDbEntity
  8
0
  6
Continuous
 62
     7
370
    25
100
AcDbLine
 10
7.4506288926
 20
8.0274042367
 30
0.0
 11
7.4506288926
 21
8.5274042367
 31
0.0
  0
LINE
  5
309
330
1F
100
AcDbEntity
  8
0
  6
Continuous
 62
     7
370
    25
100
AcDbLine
 10
7.2006288926
 20
8.0274042367
 30
0.0
 11
7.4506288926
 21
8.0274042367
 31
0.0
  0
LINE
  5
30A
330
1F
100
AcDbEntity
  8
0
  6
Continuous
 62
     7
370
    25
100
AcDbLine
 10
7.2006288926
 20
8.5374042367
 30
0.0
 11
7.2006288926
 21
8.0274042367
 31
0.0
  0
LINE
  5
30B
330
1F
100
AcDbEntity
  8
0
  6
Continuous
 62
     7
370
    25
100
AcDbLine
 10
7.0431485776
 20
8.5374042367
 30
0.0
 11
7.2006288926
 21
8.5374042367
 31
0.0
  0
LINE
  5
30C
330
1F
100
AcDbEntity
  8
0
  6
Continuous
 62
     7
370
    25
100
AcDbLine
 10
7.0431485776
 20
8.0274042367
 30
0.0
 11
7.0431485776
 21
8.5374042367
 31
0.0
  0
LINE
  5
30D
330
1F
100
AcDbEntity
  8
0
  6
Continuous
 62
     7
370
    25
100
AcDbLine
 10
6.7931485776
 20
8.0274042367
 30
0.0
 11
7.0431485776
 21
8.0274042367
 31
0.0
  0
LINE
  5
30E
330
1F
100
AcDbEntity
  8
0
  6
Continuous
 62
     7
370
    25
100
AcDbLine
 10
6.7931485776
 20
9.0174042367
 30
0.0
 11
6.7931485776
 21
8.0274042367
 31
0.0
  0
LINE
  5
30F
330
1F
100
AcDbEntity
  8
0
  6
Continuous
 62
     7
370
    25
100
AcDbLine
 10
9.7229320422
 20
9.0174042367
 30
0.0
 11
6.7931485776
 21
9.0174042367
 31
0.0
  0
LINE
  5
310
330
1F
100
AcDbEntity
  8
0
  6
Continuous
 62
     7
370
    25
100
AcDbLine
 10
9.7229320422
 20
7.5174042367
 30
0.0
 11
9.7229320422
 21
9.0174042367
 31
0.0
  0
LINE
  5
311
330
1F
100
AcDbEntity
  8
0
  6
Continuous
 62
     7
370
    25
100
AcDbLine
 10
9.4729320422
 20
7.5174042367
 30
0.0
 11
9.7229320422
 21
7.5174042367
 31
0.0
  0
LINE
  5
312
330
1F
100
AcDbEntity
  8
0
  6
Continuous
 62
     7
370
    25
100
AcDbLine
 10
9.4729320422
 20
8.0174042367
 30
0.0
 11
9.4729320422
 21
7.5174042367
 31
0.0
  0
LINE
  5
313
330
1F
100
AcDbEntity
  8
0
  6
Continuous
 62
     7
370
    25
100
AcDbLine
 10
9.2754320422
 20
8.0174042367
 30
0.0
 11
9.4729320422
 21
8.0174042367
 31
0.0
  0
LINE
  5
314
330
1F
100
AcDbEntity
  8
0
  6
Continuous
 62
     7
370
    25
100
AcDbLine
 10
9.2754320422
 20
7.5174042367
 30
0.0
 11
9.2754320422
 21
8.0174042367
 31
0.0
  0
LINE
  5
315
330
1F
100
AcDbEntity
  8
0
  6
Continuous
 62
     7
370
    25
100
AcDbLine
 10
9.0254320422
 20
7.5174042367
 30
0.0
 11
9.2754320422
 21
7.5174042367
 31
0.0
  0
LINE
  5
316
330
1F
100
AcDbEntity
  8
0
  6
Continuous
 62
     7
370
    25
100
AcDbLine
 10
9.7028240207
 20
4.8777136032
 30
0.0
 11
8.6928240207
 21
4.8777136032
 31
0.0
  0
LINE
  5
317
330
1F
100
AcDbEntity
  8
0
  6
Continuous
 62
     7
370
    25
100
AcDbLine
 10
9.7028240207
 20
6.4525167528
 30
0.0
 11
9.7028240207
 21
4.8777136032
 31
0.0
  0
LINE
  5
318
330
1F
100
AcDbEntity
  8
0
  6
Continuous
 62
     7
370
    25
100
AcDbLine
 10
9.2028240207
 20
6.4525167528
 30
0.0
 11
9.7028240207
 21
6.4525167528
 31
0.0
  0
LINE
  5
319
330
1F
100
AcDbEntity
  8
0
  6
Continuous
 62
     7
370
    25
100
AcDbLine
 10
9.2028240207
 20
6.7025167528
 30
0.0
 11
9.2028240207
 21
6.4525167528
 31
0.0
  0
LINE
  5
31A
330
1F
100
AcDbEntity
  8
0
  6
Continuous
 62
     7
370
    25
100
AcDbLine
 10
9.7128240207
 20
6.7025167528
 30
0.0
 11
9.2028240207
 21
6.7025167528
 31
0.0
  0
LINE
  5
31B
330
1F
100
AcDbEntity
  8
0
  6
Continuous
 62
     7
370
    25
100
AcDbLine
 10
9.7128240207
 20
6.8599970678
 30
0.0
 11
9.7128240207
 21
6.7025167528
 31
0.0
  0
LINE
  5
31C
330
1F
100
AcDbEntity
  8
0
  6
Continuous
 62
     7
370
    25
100
AcDbLine
 10
9.2028240207
 20
6.8599970678
 30
0.0
 11
9.7128240207
 21
6.8599970678
 31
0.0
  0
LINE
  5
31D
330
1F
100
AcDbEntity
  8
0
  6
Continuous
 62
     7
370
    25
100
AcDbLine
 10
9.2028240207
 20
7.1099970678
 30
0.0
 11
9.2028240207
 21
6.8599970678
 31
0.0
  0
LINE
  5
31E
330
1F
100
AcDbEntity
  8
0
  6
Continuous
 62
     7
370
    25
100
AcDbLine
 10
10.1928240207
 20
7.1099970678
 30
0.0
 11
9.2028240207
 21
7.1099970678
 31
0.0
  0
LINE
  5
31F
330
1F
100
AcDbEntity
  8
0
  6
Continuous
 62
     7
370
    25
100
AcDbLine
 10
10.1928240207
 20
4.1802136032
 30
0.0
 11
10.1928240207
 21
7.1099970678
 31
0.0
  0
LINE
  5
320
330
1F
100
AcDbEntity
  8
0
  6
Continuous
 62
     7
370
    25
100
AcDbLine
 10
8.6928240207
 20
4.1802136032
 30
0.0
 11
10.1928240207
 21
4.1802136032
 31
0.0
  0
LINE
  5
321
330
1F
100
AcDbEntity
  8
0
  6
Continuous
 62
     7
370
    25
100
AcDbLine
 10
8.6928240207
 20
4.4302136032
 30
0.0
 11
8.6928240207
 21
4.1802136032
 31
0.0
  0
LINE
  5
322
330
1F
100
AcDbEntity
  8
0
  6
Continuous
 62
     7
370
    25
100
AcDbLine
 10
9.1928240207
 20
4.4302136032
 30
0.0
 11
8.6928240207
 21
4.4302136032
 31
0.0
  0
LINE
  5
323
330
1F
100
AcDbEntity
  8
0
  6
Continuous
 62
     7
370
    25
100
AcDbLine
 10
9.1928240207
 20
4.6277136032
 30
0.0
 11
9.1928240207
 21
4.4302136032
 31
0.0
  0
LINE
  5
324
330
1F
100
AcDbEntity
  8
0
  6
Continuous
 62
     7
370
    25
100
AcDbLine
 10
8.6928240207
 20
4.6277136032
 30
0.0
 11
9.1928240207
 21
4.6277136032
 31
0.0
  0
LINE
  5
325
330
1F
100
AcDbEntity
  8
0
  6
Continuous
 62
     7
370
    25
100
AcDbLine
 10
8.6928240207
 20
4.8777136032
 30
0.0
 11
8.6928240207
 21
4.6277136032
 31
0.0
  0
LINE
  5
326
330
1F
100
AcDbEntity
  8
0
  6
Continuous
 62
     7
370
    25
100
AcDbLine
 10
13.8256005903
 20
5.2177048835
 30
0.0
 11
13.8256005903
 21
4.2077048835
 31
0.0
  0
LINE
  5
327
330
1F
100
AcDbEntity
  8
0
  6
Continuous
 62
     7
370
    25
100
AcDbLine
 10
12.2507974407
 20
5.2177048835
 30
0.0
 11
13.8256005903
 21
5.2177048835
 31
0.0
  0
LINE
  5
328
330
1F
100
AcDbEntity
  8
0
  6
Continuous
 62
     7
370
    25
100
AcDbLine
 10
12.2507974407
 20
4.7177048835
 30
0.0
 11
12.2507974407
 21
5.2177048835
 31
0.0
  0
LINE
  5
329
330
1F
100
AcDbEntity
  8
0
  6
Continuous
 62
     7
370
    25
100
AcDbLine
 10
12.0007974407
 20
4.7177048835
 30
0.0
 11
12.2507974407
 21
4.7177048835
 31
0.0
  0
LINE
  5
32A
330
1F
100
AcDbEntity
  8
0
  6
Continuous
 62
     7
370
    25
100
AcDbLine
 10
12.0007974407
 20
5.2277048835
 30
0.0
 11
12.0007974407
 21
4.7177048835
 31
0.0
  0
LINE
  5
32B
330
1F
100
AcDbEntity
  8
0
  6
Continuous
 62
     7
370
    25
100
AcDbLine
 10
11.8433171258
 20
5.2277048835
 30
0.0
 11
12.0007974407
 21
5.2277048835
 31
0.0
  0
LINE
  5
32C
330
1F
100
AcDbEntity
  8
0
  6
Continuous
 62
     7
370
    25
100
AcDbLine
 10
11.8433171258
 20
4.7177048835
 30
0.0
 11
11.8433171258
 21
5.2277048835
 31
0.0
  0
LINE
  5
32D
330
1F
100
AcDbEntity
  8
0
  6
Continuous
 62
     7
370
    25
100
AcDbLine
 10
11.5933171258
 20
4.7177048835
 30
0.0
 11
11.8433171258
 21
4.7177048835
 31
0.0
  0
LINE
  5
32E
330
1F
100
AcDbEntity
  8
0
  6
Continuous
 62
     7
370
    25
100
AcDbLine
 10
11.5933171258
 20
5.7077048835
 30
0.0
 11
11.5933171258
 21
4.7177048835
 31
0.0
  0
LINE
  5
32F
330
1F
100
AcDbEntity
  8
0
  6
Continuous
 62
     7
370
    25
100
AcDbLine
 10
14.5231005903
 20
5.7077048835
 30
0.0
 11
11.5933171258
 21
5.7077048835
 31
0.0
  0
LINE
  5
330
330
1F
100
AcDbEntity
  8
0
  6
Continuous
 62
     7
370
    25
100
AcDbLine
 10
14.5231005903
 20
4.2077048835
 30
0.0
 11
14.5231005903
 21
5.7077048835
 31
0.0
  0
LINE
  5
331
330
1F
100
AcDbEntity
  8
0
  6
Continuous
 62
     7
370
    25
100
AcDbLine
 10
14.2731005903
 20
4.2077048835
 30
0.0
 11
14.5231005903
 21
4.2077048835
 31
0.0
  0
LINE
  5
332
330
1F
100
AcDbEntity
  8
0
  6
Continuous
 62
     7
370
    25
100
AcDbLine
 10
14.2731005903
 20
4.7077048835
 30
0.0
 11
14.2731005903
 21
4.2077048835
 31
0.0
  0
LINE
  5
333
330
1F
100
AcDbEntity
  8
0
  6
Continuous
 62
     7
370
    25
100
AcDbLine
 10
14.0756005903
 20
4.7077048835
 30
0.0
 11
14.2731005903
 21
4.7077048835
 31
0.0
  0
LINE
  5
334
330
1F
100
AcDbEntity
  8
0
  6
Continuous
 62
     7
370
    25
100
AcDbLine
 10
14.0756005903
 20
4.2077048835
 30
0.0
 11
14.0756005903
 21
4.7077048835
 31
0.0
  0
LINE
  5
335
330
1F
100
AcDbEntity
  8
0
  6
Continuous
 62
     7
370
    25
100
AcDbLine
 10
13.8256005903
 20
4.2077048835
 30
0.0
 11
14.0756005903
 21
4.2077048835
 31
0.0
  0
MTEXT
  5
337
330
1F
100
AcDbEntity
  8
0
  6
Continuous
 62
     7
100
AcDbMText
 10
0.0
 20
0.6755122066
 30
0.0
 40
0.2422
 41
0.0
 71
     1
 72
     1
  1
SOLIDWORKS Educational Product.
  7
SLDTEXTSTYLE0
 73
     1
 44
1.0
  0
MTEXT
  5
338
330
1F
100
AcDbEntity
  8
0
  6
Continuous
 62
     7
100
AcDbMText
 10
0.0
 20
0.3122122066
 30
0.0
 40
0.2422
 41
0.0
 71
     1
 72
     1
  1
For Instructional Use Only.
  7
SLDTEXTSTYLE0
 73
     1
 44
1.0
  0
ENDSEC
  0
SECTION
  2
OBJECTS
  0
DICTIONARY
  5
C
330
0
100
AcDbDictionary
281
     1
  3
ACAD_GROUP
350
D
  3
ACAD_LAYOUT
350
1A
  3
ACAD_MLINESTYLE
350
17
  3
ACAD_PLOTSETTINGS
350
19
  3
ACAD_PLOTSTYLENAME
350
E
  3
ACAD_SCALELIST
350
47
  0
DICTIONARY
  5
D
102
{ACAD_REACTORS
330
C
102
}
330
C
100
AcDbDictionary
281
     1
  0
DICTIONARY
  5
1A
102
{ACAD_REACTORS
330
C
102
}
330
C
100
AcDbDictionary
281
     1
  3
Layout1
350
1E
  3
Layout2
350
26
  3
Model
350
22
  0
DICTIONARY
  5
17
102
{ACAD_REACTORS
330
C
102
}
330
C
100
AcDbDictionary
281
     1
  3
Standard
350
18
  0
DICTIONARY
  5
19
102
{ACAD_REACTORS
330
C
102
}
330
C
100
AcDbDictionary
281
     1
  0
ACDBDICTIONARYWDFLT
  5
E
102
{ACAD_REACTORS
330
C
102
}
330
C
100
AcDbDictionary
281
     1
  3
Normal
350
F
100
AcDbDictionaryWithDefault
340
F
  0
DICTIONARY
  5
47
102
{ACAD_REACTORS
330
C
102
}
330
C
100
AcDbDictionary
281
     1
  3
A0
350
48
  3
A1
350
49
  3
A2
350
4A
  3
A3
350
4B
  3
A4
350
4C
  3
A5
350
4D
  3
A6
350
4E
  3
A7
350
4F
  3
A8
350
50
  3
A9
350
51
  3
B0
350
52
  3
B1
350
53
  3
B2
350
54
  3
B3
350
55
  3
B4
350
56
  3
B5
350
57
  3
B6
350
58
  3
B7
350
59
  3
B8
350
5A
  3
B9
350
5B
  3
C0
350
5C
  3
C1
350
5D
  3
C2
350
5E
  3
C3
350
5F
  3
C4
350
60
  3
C5
350
61
  3
C6
350
62
  3
C7
350
63
  3
C8
350
64
  3
C9
350
65
  3
D0
350
66
  3
D1
350
67
  3
D2
350
68
  0
LAYOUT
  5
1E
102
{ACAD_REACTORS
330
1A
102
}
330
1A
100
AcDbPlotSettings
  1

  2
none_device
  4

  6

 40
0.0
 41
0.0
 42
0.0
 43
0.0
 44
0.0
 45
0.0
 46
0.0
 47
0.0
 48
0.0
 49
0.0
140
0.0
141
0.0
142
1.0
143
1.0
 70
   688
 72
     0
 73
     0
 74
     5
  7

 75
    16
147
1.0
148
0.0
149
0.0
100
AcDbLayout
  1
Layout1
 70
     1
 71
     1
 10
0.0
 20
0.0
 11
12.0
 21
9.0
 12
0.0
 22
0.0
 32
0.0
 14
1.0000000000E+20
 24
1.0000000000E+20
 34
1.0000000000E+20
 15
-1.0000000000E+20
 25
-1.0000000000E+20
 35
-1.0000000000E+20
146
0.0
 13
0.0
 23
0.0
 33
0.0
 16
1.0
 26
0.0
 36
0.0
 17
0.0
 27
1.0
 37
0.0
 76
     0
330
1B
  0
LAYOUT
  5
26
102
{ACAD_REACTORS
330
1A
102
}
330
1A
100
AcDbPlotSettings
  1

  2
none_device
  4

  6

 40
0.0
 41
0.0
 42
0.0
 43
0.0
 44
0.0
 45
0.0
 46
0.0
 47
0.0
 48
0.0
 49
0.0
140
0.0
141
0.0
142
1.0
143
1.0
 70
   688
 72
     0
 73
     0
 74
     5
  7

 75
    16
147
1.0
148
0.0
149
0.0
100
AcDbLayout
  1
Layout2
 70
     1
 71
     2
 10
0.0
 20
0.0
 11
0.0
 21
0.0
 12
0.0
 22
0.0
 32
0.0
 14
0.0
 24
0.0
 34
0.0
 15
0.0
 25
0.0
 35
0.0
146
0.0
 13
0.0
 23
0.0
 33
0.0
 16
1.0
 26
0.0
 36
0.0
 17
0.0
 27
1.0
 37
0.0
 76
     0
330
23
  0
LAYOUT
  5
22
102
{ACAD_REACTORS
330
1A
102
}
330
1A
100
AcDbPlotSettings
  1

  2
none_device
  4
Letter_(8.50_x_11.00_Inches)
  6

 40
6.35
 41
6.35
 42
6.35000508
 43
6.35000508
 44
215.9
 45
279.4
 46
0.0
 47
0.0
 48
0.0
 49
0.0
140
0.0
141
0.0
142
1.0
143
1.0
 70
  1712
 72
     0
 73
     0
 74
     0
  7

 75
     0
147
1.0
148
0.0
149
0.0
100
AcDbLayout
  1
Model
 70
     1
 71
     0
 10
0.0
 20
0.0
 11
16.0
 21
14.0
 12
0.0
 22
0.0
 32
0.0
 14
0.0
 24
0.0
 34
0.0
 15
16.0
 25
14.0
 35
0.0
146
0.0
 13
0.0
 23
0.0
 33
0.0
 16
1.0
 26
0.0
 36
0.0
 17
0.0
 27
1.0
 37
0.0
 76
     0
330
1F
331
29
  0
MLINESTYLE
  5
18
102
{ACAD_REACTORS
330
17
102
}
330
17
100
AcDbMlineStyle
  2
Standard
 70
     0
  3

 62
   256
 51
90.0
 52
90.0
 71
     2
 49
0.5
 62
   256
  6
BYLAYER
 49
-0.5
 62
   256
  6
BYLAYER
  0
ACDBPLACEHOLDER
  5
F
102
{ACAD_REACTORS
330
E
102
}
330
E
  0
SCALE
  5
48
102
{ACAD_REACTORS
330
47
102
}
330
47
100
AcDbScale
 70
     0
300
1:1
140
1.0
141
1.0
290
     1
  0
SCALE
  5
49
102
{ACAD_REACTORS
330
47
102
}
330
47
100
AcDbScale
 70
     0
300
1:2
140
1.0
141
2.0
290
     0
  0
SCALE
  5
4A
102
{ACAD_REACTORS
330
47
102
}
330
47
100
AcDbScale
 70
     0
300
1:4
140
1.0
141
4.0
290
     0
  0
SCALE
  5
4B
102
{ACAD_REACTORS
330
47
102
}
330
47
100
AcDbScale
 70
     0
300
1:5
140
1.0
141
5.0
290
     0
  0
SCALE
  5
4C
102
{ACAD_REACTORS
330
47
102
}
330
47
100
AcDbScale
 70
     0
300
1:8
140
1.0
141
8.0
290
     0
  0
SCALE
  5
4D
102
{ACAD_REACTORS
330
47
102
}
330
47
100
AcDbScale
 70
     0
300
1:10
140
1.0
141
10.0
290
     0
  0
SCALE
  5
4E
102
{ACAD_REACTORS
330
47
102
}
330
47
100
AcDbScale
 70
     0
300
1:16
140
1.0
141
16.0
290
     0
  0
SCALE
  5
4F
102
{ACAD_REACTORS
330
47
102
}
330
47
100
AcDbScale
 70
     0
300
1:20
140
1.0
141
20.0
290
     0
  0
SCALE
  5
50
102
{ACAD_REACTORS
330
47
102
}
330
47
100
AcDbScale
 70
     0
300
1:30
140
1.0
141
30.0
290
     0
  0
SCALE
  5
51
102
{ACAD_REACTORS
330
47
102
}
330
47
100
AcDbScale
 70
     0
300
1:40
140
1.0
141
40.0
290
     0
  0
SCALE
  5
52
102
{ACAD_REACTORS
330
47
102
}
330
47
100
AcDbScale
 70
     0
300
1:50
140
1.0
141
50.0
290
     0
  0
SCALE
  5
53
102
{ACAD_REACTORS
330
47
102
}
330
47
100
AcDbScale
 70
     0
300
1:100
140
1.0
141
100.0
290
     0
  0
SCALE
  5
54
102
{ACAD_REACTORS
330
47
102
}
330
47
100
AcDbScale
 70
     0
300
2:1
140
2.0
141
1.0
290
     0
  0
SCALE
  5
55
102
{ACAD_REACTORS
330
47
102
}
330
47
100
AcDbScale
 70
     0
300
4:1
140
4.0
141
1.0
290
     0
  0
SCALE
  5
56
102
{ACAD_REACTORS
330
47
102
}
330
47
100
AcDbScale
 70
     0
300
8:1
140
8.0
141
1.0
290
     0
  0
SCALE
  5
57
102
{ACAD_REACTORS
330
47
102
}
330
47
100
AcDbScale
 70
     0
300
10:1
140
10.0
141
1.0
290
     0
  0
SCALE
  5
58
102
{ACAD_REACTORS
330
47
102
}
330
47
100
AcDbScale
 70
     0
300
100:1
140
100.0
141
1.0
290
     0
  0
SCALE
  5
59
102
{ACAD_REACTORS
330
47
102
}
330
47
100
AcDbScale
 70
     0
300
1/128" = 1'-0"
140
0.0078125
141
12.0
290
     0
  0
SCALE
  5
5A
102
{ACAD_REACTORS
330
47
102
}
330
47
100
AcDbScale
 70
     0
300
1/64" = 1'-0"
140
0.015625
141
12.0
290
     0
  0
SCALE
  5
5B
102
{ACAD_REACTORS
330
47
102
}
330
47
100
AcDbScale
 70
     0
300
1/32" = 1'-0"
140
0.03125
141
12.0
290
     0
  0
SCALE
  5
5C
102
{ACAD_REACTORS
330
47
102
}
330
47
100
AcDbScale
 70
     0
300
1/16" = 1'-0"
140
0.0625
141
12.0
290
     0
  0
SCALE
  5
5D
102
{ACAD_REACTORS
330
47
102
}
330
47
100
AcDbScale
 70
     0
300
3/32" = 1'-0"
140
0.09375
141
12.0
290
     0
  0
SCALE
  5
5E
102
{ACAD_REACTORS
330
47
102
}
330
47
100
AcDbScale
 70
     0
300
1/8" = 1'-0"
140
0.125
141
12.0
290
     0
  0
SCALE
  5
5F
102
{ACAD_REACTORS
330
47
102
}
330
47
100
AcDbScale
 70
     0
300
3/16" = 1'-0"
140
0.1875
141
12.0
290
     0
  0
SCALE
  5
60
102
{ACAD_REACTORS
330
47
102
}
330
47
100
AcDbScale
 70
     0
300
1/4" = 1'-0"
140
0.25
141
12.0
290
     0
  0
SCALE
  5
61
102
{ACAD_REACTORS
330
47
102
}
330
47
100
AcDbScale
 70
     0
300
3/8" = 1'-0"
140
0.375
141
12.0
290
     0
  0
SCALE
  5
62
102
{ACAD_REACTORS
330
47
102
}
330
47
100
AcDbScale
 70
     0
300
1/2" = 1'-0"
140
0.5
141
12.0
290
     0
  0
SCALE
  5
63
102
{ACAD_REACTORS
330
47
102
}
330
47
100
AcDbScale
 70
     0
300
3/4" = 1'-0"
140
0.75
141
12.0
290
     0
  0
SCALE
  5
64
102
{ACAD_REACTORS
330
47
102
}
330
47
100
AcDbScale
 70
     0
300
1" = 1'-0"
140
1.0
141
12.0
290
     0
  0
SCALE
  5
65
102
{ACAD_REACTORS
330
47
102
}
330
47
100
AcDbScale
 70
     0
300
1-1/2" = 1'-0"
140
1.5
141
12.0
290
     0
  0
SCALE
  5
66
102
{ACAD_REACTORS
330
47
102
}
330
47
100
AcDbScale
 70
     0
300
3" = 1'-0"
140
3.0
141
12.0
290
     0
  0
SCALE
  5
67
102
{ACAD_REACTORS
330
47
102
}
330
47
100
AcDbScale
 70
     0
300
6" = 1'-0"
140
6.0
141
12.0
290
     0
  0
SCALE
  5
68
102
{ACAD_REACTORS
330
47
102
}
330
47
100
AcDbScale
 70
     0
300
1'-0" = 1'-0"
140
12.0
141
12.0
290
     0
  0
ENDSEC
  0
EOF
