999
DXF generated by OpenJsCad
  0
SECTION
  2
HEADER
  0
ENDSEC
  0
SECTION
  2
TABLES
  0
TABLE
  2
LTYPE
  70
1
  0
LTYPE
  2
CONTINUOUS
  3
Solid Line
  72
65
  73
0
  40
0.0
  0
ENDTAB
  0
TABLE
  2
LAYER
  70
1
  0
LAYER
  2
OpenJsCad
  62
7
  6
continuous
  0
ENDTAB
  0
TABLE
  2
STYLE
  70
0
  0
ENDTAB
  0
TABLE
  2
VIEW
  70
0
  0
ENDTAB
  0
ENDSEC
  0
SECTION
  2
BLOCKS
  0
ENDSEC
  0
SECTION
  2
ENTITIES
  0
LWPOLYLINE
  8
OpenJsCad
  90
666
  70
1
 10
46.08053692763587
 20
-9.398271475227961
 30
0.0
 10
46.3527882732347
 20
-8.411790879381396
 30
0.0
 10
46.44452151573172
 20
-7.392551077674678
 30
0.0
 10
45.66786974784831
 20
-6.862550696266953
 30
0.0
 10
44.76628790425499
 20
-6.323355670836924
 30
0.0
 10
43.96809695774882
 20
-5.908672952054815
 30
0.0
 10
43.28448241705655
 20
-5.603956698106627
 30
0.0
 10
42.72524605229494
 20
-5.393798047432111
 30
0.0
 10
42.14173153962988
 20
-5.213533492409253
 30
0.0
 10
41.83428692568515
 20
-5.058979391756387
 30
0.0
 10
41.6958991555555
 20
-4.89585715996749
 30
0.0
 10
41.900017954237086
 20
-2.6279115578083445
 30
0.0
 10
42.06530837514874
 20
-2.492120857905891
 30
0.0
 10
42.395408927955245
 20
-2.3949468608230324
 30
0.0
 10
43.00173360152997
 20
-2.3217697708114815
 30
0.0
 10
43.589508083918965
 20
-2.214843964862994
 30
0.0
 10
44.316545845801976
 20
-2.0370887161016764
 30
0.0
 10
45.17595399401248
 20
-1.7715926160766426
 30
0.0
 10
46.1593240358981
 20
-1.402046330929975
 30
0.0
 10
47.018129912704
 20
-1.0192398017067092
 30
0.0
 10
47.10986315520101
 20
-2.6645352591003757e-15
 30
0.0
 10
47.01812991270395
 20
1.019239801706715
 30
0.0
 10
46.15932403589984
 20
1.4020463309292082
 30
0.0
 10
45.17595399401341
 20
1.771592616076152
 30
0.0
 10
44.31654584580206
 20
2.0370887161018683
 30
0.0
 10
43.589508083919014
 20
2.214843964863216
 30
0.0
 10
43.00173360153022
 20
2.3217697708115246
 30
0.0
 10
42.395408927955216
 20
2.3949468608226674
 30
0.0
 10
42.06530837514874
 20
2.4921208579057357
 30
0.0
 10
41.90001795423714
 20
2.627911557808619
 30
0.0
 10
41.6958991555554
 20
4.89585715996775
 30
0.0
 10
41.834286925685184
 20
5.058979391756235
 30
0.0
 10
42.14173153962997
 20
5.2135334924089
 30
0.0
 10
42.72524605229469
 20
5.393798047432109
 30
0.0
 10
43.284482417056466
 20
5.603956698106837
 30
0.0
 10
43.9680969577487
 20
5.908672952054988
 30
0.0
 10
44.76628790425416
 20
6.323355670836275
 30
0.0
 10
45.66786974784674
 20
6.862550696265889
 30
0.0
 10
46.44452151573172
 20
7.3925510776746854
 30
0.0
 10
46.352788273234715
 20
8.411790879381398
 30
0.0
 10
46.080536927635805
 20
9.398271475227952
 30
0.0
 10
45.16717966941923
 20
9.621580435441743
 30
0.0
 10
44.133627751505486
 20
9.80960045863728
 30
0.0
 10
43.24062448659584
 20
9.917376676800854
 30
0.0
 10
42.4935310953976
 20
9.96245772042267
 30
0.0
 10
41.896110050868046
 20
9.962713998262746
 30
0.0
 10
41.28646299027741
 20
9.926451651378905
 30
0.0
 10
40.94431620198402
 20
9.963122292670894
 30
0.0
 10
40.75743570041999
 20
10.067217035863925
 30
0.0
 10
40.15163985051406
 20
12.262269000297788
 30
0.0
 10
40.25867707306416
 20
12.447479881225204
 30
0.0
 10
40.53358422528879
 20
12.654446589485163
 30
0.0
 10
41.075533940489116
 20
12.936004758399415
 30
0.0
 10
41.588257870719005
 20
13.242641581848583
 30
0.0
 10
42.20647725640271
 20
13.664525009860306
 30
0.0
 10
42.91779648742873
 20
14.215066103614136
 30
0.0
 10
43.708612550451186
 20
14.906579697558247
 30
0.0
 10
44.3781479825642
 20
15.566739282808335
 30
0.0
 10
44.10589663696537
 20
16.553219878654897
 30
0.0
 10
43.66187757052143
 20
17.47523497061187
 30
0.0
 10
42.723324984684254
 20
17.53186902809643
 30
0.0
 10
41.6728103997943
 20
17.53231967109167
 30
0.0
 10
40.77491387788609
 20
17.478911991062763
 30
0.0
 10
40.03177705367626
 20
17.38986988771023
 30
0.0
 10
39.443911050936805
 20
17.283448400461427
 30
0.0
 10
38.85053616147718
 20
17.13891211834821
 30
0.0
 10
38.50734001699196
 20
17.113900779265293
 30
0.0
 10
38.30487592786155
 20
17.182953875052803
 30
0.0
 10
37.31687380379789
 20
19.234561425529726
 30
0.0
 10
37.38912021436503
 20
19.435908125491046
 30
0.0
 10
37.62265416280264
 20
19.688635361062044
 30
0.0
 10
38.105620370774325
 20
20.062437632651605
 30
0.0
 10
38.555352497484094
 20
20.455697069067934
 30
0.0
 10
39.08830664843077
 20
20.98118799064009
 30
0.0
 10
39.68989177861677
 20
21.6498926156265
 30
0.0
 10
40.344524582117934
 20
22.471498962196456
 30
0.0
 10
40.8854242587753
 20
23.24059967903679
 30
0.0
 10
40.441405192331345
 20
24.16261477099373
 30
0.0
 10
39.83988954317786
 20
24.990530035369048
 30
0.0
 10
38.90630748207265
 20
24.878668924918205
 30
0.0
 10
37.872594633331126
 20
24.691535703676482
 30
0.0
 10
36.9986639874302
 20
24.47866069223521
 30
0.0
 10
36.28336875919389
 20
24.258357328374167
 30
0.0
 10
35.72395229527034
 20
24.04867855020056
 30
0.0
 10
35.16592113411945
 20
23.800513847889924
 30
0.0
 10
34.83270623990887
 20
23.714624413449627
 30
0.0
 10
34.62116592562474
 20
23.746416438515933
 30
0.0
 10
33.28271272860161
 20
25.588639220295267
 30
0.0
 10
33.317846268105626
 20
25.79965029068512
 30
0.0
 10
33.502501039501055
 20
26.09001519227124
 30
0.0
 10
33.91096080893396
 20
26.54404725396169
 30
0.0
 10
34.28324637153033
 20
27.011289621483822
 30
0.0
 10
34.71380570281243
 20
27.623498326021714
 30
0.0
 10
35.18632129108833
 20
28.388873765381632
 30
0.0
 10
35.683730398130024
 20
29.314165760578728
 30
0.0
 10
36.07860935867019
 20
30.167488079151845
 30
0.0
 10
35.477093709516716
 20
30.99540334352716
 30
0.0
 10
34.737414685546305
 20
31.702608902512903
 30
0.0
 10
33.8388092447708
 20
31.42584793225614
 30
0.0
 10
32.855122513678026
 20
31.057145462481895
 30
0.0
 10
32.033246593816166
 20
30.691645097650113
 30
0.0
 10
31.368783138735775
 20
30.347161204661273
 30
0.0
 10
30.855796319068023
 20
30.040964384017624
 30
0.0
 10
30.351044466894827
 20
29.69714747923244
 30
0.0
 10
30.038520623828948
 20
29.55314050652773
 30
0.0
 10
29.824703164148136
 20
29.54664963902864
 30
0.0
 10
28.178817881200825
 20
31.120277096118045
 30
0.0
 10
28.175709328774072
 20
31.334170467513605
 30
0.0
 10
28.305549966840225
 20
31.652840468264845
 30
0.0
 10
28.626375064662962
 20
32.17250935601462
 30
0.0
 10
28.909248498846505
 20
32.69871710050209
 30
0.0
 10
29.223574479291226
 20
33.37796669651487
 30
0.0
 10
29.55183348586272
 20
34.215413153874266
 30
0.0
 10
29.87603175847503
 20
35.21465115164008
 30
0.0
 10
30.112198268198828
 20
36.12476859051119
 30
0.0
 10
29.372519244228375
 20
36.83197414949689
 30
0.0
 10
28.518450737881224
 20
37.39573983453646
 30
0.0
 10
27.683703835677015
 20
36.96297432977755
 30
0.0
 10
26.781659723150444
 20
36.42455301221874
 30
0.0
 10
26.03825429763378
 20
35.91817477645685
 30
0.0
 10
25.445979017877946
 20
35.46058235010315
 30
0.0
 10
24.995909660937077
 20
35.06770890474454
 30
0.0
 10
24.56066025758163
 20
34.639290355698094
 30
0.0
 10
24.278872239122066
 20
34.441794347321036
 30
0.0
 10
24.069649903128305
 20
34.39722920907867
 30
0.0
 10
22.169232641489657
 20
35.65168366022231
 30
0.0
 10
22.127981908564863
 20
35.86158462367488
 30
0.0
 10
22.198835228361055
 20
36.19831740756454
 30
0.0
 10
22.421714071953836
 20
36.76692053573637
 30
0.0
 10
22.60608359280085
 20
37.335180907316186
 30
0.0
 10
22.794073526768415
 20
38.05963975389957
 30
0.0
 10
22.967525437071888
 20
38.94224101106567
 30
0.0
 10
23.108092876021836
 20
39.98330867997624
 30
0.0
 10
23.1779563489882
 20
40.920969315812776
 30
0.0
 10
22.323887842641106
 20
41.484735000852375
 30
0.0
 10
21.382880318441252
 20
41.886940918960796
 30
0.0
 10
20.6388214070772
 20
41.31208031910332
 30
0.0
 10
19.84741235309781
 20
40.621245457920814
 30
0.0
 10
19.206371083978464
 20
39.9902647643756
 30
0.0
 10
18.705320194364255
 20
39.434271201748366
 30
0.0
 10
18.332633899600655
 20
38.96734840746596
 30
0.0
 10
17.9808762190112
 20
38.468097938828556
 30
0.0
 10
17.738880923927187
 20
38.22346057898865
 30
0.0
 10
17.540978289648034
 20
38.142253530214425
 30
0.0
 10
15.447110023775654
 20
39.03721577718399
 30
0.0
 10
15.369042942850234
 20
39.236377943021104
 30
0.0
 10
15.378631660379911
 20
39.58035064131032
 30
0.0
 10
15.49640074032434
 20
40.17961263751656
 30
0.0
 10
15.57634055973506
 20
40.77166128027995
 30
0.0
 10
15.631952296069118
 20
41.51804467401802
 30
0.0
 10
15.64502222299071
 20
42.41743320037878
 30
0.0
 10
15.597440875131165
 20
43.46686976896199
 30
0.0
 10
15.498755841835157
 20
44.401936417418526
 30
0.0
 10
14.557748317635312
 20
44.804142335526926
 30
0.0
 10
13.56004653167404
 20
45.03186125755992
 30
0.0
 10
12.930590276775103
 20
44.33338205528022
 30
0.0
 10
12.275252819511328
 20
43.512337651333226
 30
0.0
 10
11.757179300629309
 20
42.777034738667886
 30
0.0
 10
11.363456989014976
 20
42.140510130342975
 30
0.0
 10
11.080132200589647
 20
41.61454526993036
 30
0.0
 10
10.823172024047516
 20
41.06050920254867
 30
0.0
 10
10.628747380237451
 20
40.776593337279444
 30
0.0
 10
10.448525201173464
 20
40.66135443933837
 30
0.0
 10
8.228504579973029
 20
41.16805965913885
 30
0.0
 10
8.116130291261738
 20
41.35008179147935
 30
0.0
 10
8.064146217253871
 20
41.69023883862341
 30
0.0
 10
8.073020338419814
 20
42.30089892923158
 30
0.0
 10
8.045961124823672
 20
42.89770691266087
 30
0.0
 10
7.96740725656096
 20
43.6420254771526
 30
0.0
 10
7.819675121895436
 20
44.529294185451434
 30
0.0
 10
7.585474290896673
 20
45.553369898913736
 30
0.0
 10
7.321412569506724
 20
46.45578874853343
 30
0.0
 10
6.323710783545474
 20
46.68350767056649
 30
0.0
 10
5.301381692135376
 20
46.729420523002325
 30
0.0
 10
4.806759335652322
 20
45.92977241457214
 30
0.0
 10
4.3085565601940745
 20
45.00490751056112
 30
0.0
 10
3.930102100718562
 20
44.18891561939796
 30
0.0
 10
3.656362926155184
 20
43.49231839002112
 30
0.0
 10
3.4715059358885334
 20
42.924216406857305
 30
0.0
 10
3.317602174895324
 20
42.33320191579936
 30
0.0
 10
3.1769971503843926
 20
42.01913283461734
 30
0.0
 10
3.0202479156579916
 20
41.873565960508095
 30
0.0
 10
0.7454282285339385
 20
41.975728230456674
 30
0.0
 10
0.6023585341378287
 20
42.13475998819881
 30
0.0
 10
0.4904724795036715
 20
42.46016845682036
 30
0.0
 10
0.3901664203352011
 20
43.062599524065526
 30
0.0
 10
0.25697787912157577
 20
43.644984948518065
 30
0.0
 10
0.04678319222239375
 20
44.36331567267332
 30
0.0
 10
-0.25700277166768937
 20
45.20994701657838
 30
0.0
 10
-0.6702956783962869
 20
46.17574723887679
 30
0.0
 10
-1.0912469268839966
 20
47.01651380532017
 30
0.0
 10
-2.1135760182940655
 20
47.06242665775598
 30
0.0
 10
-3.127673916979887
 20
46.925057763740014
 30
0.0
 10
-3.471564805533058
 20
46.04994209731709
 30
0.0
 10
-3.79662025205994
 20
45.05098261223833
 30
0.0
 10
-4.023291814408037
 20
44.1805283933597
 30
0.0
 10
-4.168249649616651
 20
43.446247751045235
 30
0.0
 10
-4.248697385956619
 20
42.85426791030495
 30
0.0
 10
-4.294598137890146
 20
42.245270687601696
 30
0.0
 10
-4.376864381923963
 20
41.91114282919296
 30
0.0
 10
-4.505102622934971
 20
41.73992661802227
 30
0.0
 10
-6.761606799510602
 20
41.43426235870339
 30
0.0
 10
-6.930773521895504
 20
41.56519233030157
 30
0.0
 10
-7.098965447299857
 20
41.86539332447214
 30
0.0
 10
-7.305227767528965
 20
42.4402327381711
 30
0.0
 10
-7.54026484705757
 20
42.98947725691666
 30
0.0
 10
-7.875344522407518
 20
43.6587324002166
 30
0.0
 10
-8.32542038468681
 20
44.43751495172419
 30
0.0
 10
-8.904521793064449
 20
45.31399806905097
 30
0.0
 10
-9.468832849163675
 20
46.06608942308746
 30
0.0
 10
-10.482930747849498
 20
45.92872052907152
 30
0.0
 10
-11.456203512944771
 20
45.61248503788502
 30
0.0
 10
-11.638309997455593
 20
44.690028751035705
 30
0.0
 10
-11.779770565543222
 20
43.64908206468623
 30
0.0
 10
-11.847373820244053
 20
42.75214263289901
 30
0.0
 10
-11.858891252002591
 20
42.003778961659016
 30
0.0
 10
-11.83234407797729
 20
41.4069479825063
 30
0.0
 10
-11.768766532916727
 20
40.79954169998002
 30
0.0
 10
-11.790049891701292
 20
40.456094208635136
 30
0.0
 10
-11.885655456416035
 20
40.26473169030717
 30
0.0
 10
-14.051318221550286
 20
39.56106520251675
 30
0.0
 10
-14.241144814275682
 20
39.659685190954264
 30
0.0
 10
-14.46023678357896
 20
39.92503000371501
 30
0.0
 10
-14.76582592418334
 20
40.453801952132025
 30
0.0
 10
-15.095157256901725
 20
40.95225239441824
 30
0.0
 10
-15.544352184232217
 20
41.550921545892244
 30
0.0
 10
-16.12625213636341
 20
42.236824593012486
 30
0.0
 10
-16.852549250638603
 20
42.99581971680404
 30
0.0
 10
-17.542082692689643
 20
43.63506302349215
 30
0.0
 10
-18.5153554577849
 20
43.31882753230564
 30
0.0
 10
-19.416521301807933
 20
42.83388951283465
 30
0.0
 10
-19.430990330026543
 20
41.89374110961789
 30
0.0
 10
-19.384309360622435
 20
40.84426410499076
 30
0.0
 10
-19.290671483445774
 20
39.949667831636816
 30
0.0
 10
-19.168378332020943
 20
39.21127415562062
 30
0.0
 10
-19.035689495646633
 20
38.628774676799615
 30
0.0
 10
-18.864677088202008
 20
38.04248187214624
 30
0.0
 10
-18.824293497073977
 20
37.70075343282659
 30
0.0
 10
-18.88419354397801
 20
37.49539515613402
 30
0.0
 10
-20.889408714486198
 20
36.41634285976834
 30
0.0
 10
-21.09379399467206
 20
36.479483137472016
 30
0.0
 10
-21.35674421171138
 20
36.701443368214356
 30
0.0
 10
-21.751838286272427
 20
37.167152685852315
 30
0.0
 10
-22.164878892172297
 20
37.5987884443377
 30
0.0
 10
-22.71375157692011
 20
38.107629884870775
 30
0.0
 10
-23.40877287565283
 20
38.67860793930632
 30
0.0
 10
-24.258921908973523
 20
39.29572034178072
 30
0.0
 10
-25.0515155647988
 20
39.80156979527227
 30
0.0
 10
-25.952681408821842
 20
39.31663177580135
 30
0.0
 10
-26.752776120064095
 20
38.67857753500021
 30
0.0
 10
-26.599142645518324
 20
37.75095415865196
 30
0.0
 10
-26.365820503388367
 20
36.726677890188455
 30
0.0
 10
-26.11395109275217
 20
35.86317783556964
 30
0.0
 10
-25.861777960653907
 20
35.15848673507676
 30
0.0
 10
-25.6272121903084
 20
34.60904076911893
 30
0.0
 10
-25.35426139996445
 20
34.06270537548335
 30
0.0
 10
-25.253508820770413
 20
33.73367942140374
 30
0.0
 10
-25.27577811307031
 20
33.52092577032882
 30
0.0
 10
-27.056096423475775
 20
32.10116929404028
 30
0.0
 10
-27.268471280048157
 20
32.12680048053272
 30
0.0
 10
-27.566828308491715
 20
32.29824214481113
 30
0.0
 10
-28.038728668368545
 20
32.68592055101423
 30
0.0
 10
-28.52220308252534
 20
33.03686849726997
 30
0.0
 10
-29.153112304988735
 20
33.43952764428726
 30
0.0
 10
-29.93891639391628
 20
33.87722900156624
 30
0.0
 10
-30.885592856846586
 20
34.33262418234619
 30
0.0
 10
-31.755772114199722
 20
34.68882136499176
 30
0.0
 10
-32.5558668254419
 20
34.05076712419057
 30
0.0
 10
-33.22917470156383
 20
33.280104250351194
 30
0.0
 10
-32.91237663053566
 20
32.39482047943842
 30
0.0
 10
-32.499912481306005
 20
31.428666029184278
 30
0.0
 10
-32.09790682730696
 20
30.624015795546246
 30
0.0
 10
-31.72395876648965
 20
29.975676622368287
 30
0.0
 10
-31.39505519903321
 20
29.476943814705166
 30
0.0
 10
-31.028938888776253
 20
28.988125501165083
 30
0.0
 10
-30.871055592311006
 20
28.68237719721311
 30
0.0
 10
-30.854978376629013
 20
28.469066249155677
 30
0.0
 10
-32.35317893158453
 20
26.754237734271697
 30
0.0
 10
-32.56671746191058
 20
26.74153602212963
 30
0.0
 10
-32.89089186137522
 20
26.85694884379151
 30
0.0
 10
-33.42443124072049
 20
27.15413603560153
 30
0.0
 10
-33.96280019765913
 20
27.41311641387406
 30
0.0
 10
-34.655468016314295
 20
27.696651471081367
 30
0.0
 10
-35.50679850545678
 20
27.987008049438966
 30
0.0
 10
-36.51957543755013
 20
28.266049232713783
 30
0.0
 10
-37.43937201911387
 20
28.461145673983058
 30
0.0
 10
-38.11267989523579
 20
27.690482800143677
 30
0.0
 10
-38.63756026709929
 20
26.811981032134888
 30
0.0
 10
-38.16777975025392
 20
25.99749061546862
 30
0.0
 10
-37.589430531057445
 20
25.12051098240954
 30
0.0
 10
-37.050209426186434
 20
24.40057269032985
 30
0.0
 10
-36.56650543501023
 20
23.82942359894799
 30
0.0
 10
-36.15383530172365
 20
23.397433632376593
 30
0.0
 10
-35.706320751006864
 20
22.98184342173024
 30
0.0
 10
-35.49638123632559
 20
22.709199769965455
 30
0.0
 10
-35.44247424760212
 20
22.502187514308904
 30
0.0
 10
-36.610403648547894
 20
20.54740296026346
 30
0.0
 10
-36.81824254856285
 20
20.496776592966132
 30
0.0
 10
-37.157815087118195
 20
20.552451108961296
 30
0.0
 10
-37.73584509128208
 20
20.749595245507027
 30
0.0
 10
-38.31180496975511
 20
20.908284213348892
 30
0.0
 10
-39.04396847098148
 20
21.063582130714153
 30
0.0
 10
-39.93346289794081
 20
21.197261630815763
 30
0.0
 10
-40.97978881528409
 20
21.29098020335915
 30
0.0
 10
-41.91963970211583
 20
21.31870534310388
 30
0.0
 10
-42.44452007397933
 20
20.440203575095097
 30
0.0
 10
-42.80410285455974
 20
19.482098682574332
 30
0.0
 10
-42.19643902424522
 20
18.76458001231117
 30
0.0
 10
-41.4707933548542
 20
18.00496204343491
 30
0.0
 10
-40.811687809094394
 20
17.392875101988196
 30
0.0
 10
-40.233774531828665
 20
16.917273294142493
 30
0.0
 10
-39.750601390341906
 20
16.565910681630957
 30
0.0
 10
-39.23607208504151
 20
16.236905985197264
 30
0.0
 10
-38.9808239808849
 20
16.006129976919336
 30
0.0
 10
-38.89081983409232
 20
15.81206995789072
 30
0.0
 10
-39.69093986910646
 20
13.680157748652919
 30
0.0
 10
-39.88639902555341
 20
13.593233899300783
 30
0.0
 10
-40.230455562409084
 20
13.587380684875997
 30
0.0
 10
-40.834397831453074
 20
13.678145391398129
 30
0.0
 10
-41.42943680706501
 20
13.731442554813169
 30
0.0
 10
-42.17756365350704
 20
13.753511929492719
 30
0.0
 10
-43.076632935522284
 20
13.726217782213213
 30
0.0
 10
-44.12287806221225
 20
13.631601551991727
 30
0.0
 10
-45.05257567349742
 20
13.491064281408201
 30
0.0
 10
-45.41215845407782
 20
12.532959388887445
 30
0.0
 10
-45.59488635694147
 20
11.526045651431618
 30
0.0
 10
-44.86887002865161
 20
10.92856036801016
 30
0.0
 10
-44.01925075794354
 20
10.310718809852151
 30
0.0
 10
-43.26144496584949
 20
9.826156196963327
 30
0.0
 10
-42.60789701073419
 20
9.461387906084413
 30
0.0
 10
-42.06975044337083
 20
9.20194573110097
 30
0.0
 10
-41.504743778715294
 20
8.970101030529294
 30
0.0
 10
-41.21239096916977
 20
8.788609996527398
 30
0.0
 10
-41.089182471641664
 20
8.613739462811415
 30
0.0
 10
-41.49577662445783
 20
6.373221010929368
 30
0.0
 10
-41.67257381922427
 20
6.25279348356178
 30
0.0
 10
-42.01005609419506
 20
6.185600665844702
 30
0.0
 10
-42.62049942666674
 20
6.167068689994159
 30
0.0
 10
-43.2154924571417
 20
6.113261034297166
 30
0.0
 10
-43.95553723639393
 20
6.001392538430056
 30
0.0
 10
-44.83528454698445
 20
5.814002000120703
 30
0.0
 10
-45.84782170379592
 20
5.534092010624155
 30
0.0
 10
-46.73748479334996
 20
5.2298093132233365
 30
0.0
 10
-46.92021269621369
 20
4.222895575767534
 30
0.0
 10
-46.920212696213646
 20
3.199536029389926
 30
0.0
 10
-46.09917863210789
 20
2.7412878014318594
 30
0.0
 10
-45.1528932225124
 20
2.285080590033031
 30
0.0
 10
-44.3207436857667
 20
1.9436165467797832
 30
0.0
 10
-43.612566621820285
 20
1.7014057258688564
 30
0.0
 10
-43.03674310204383
 20
1.5422226733872129
 30
0.0
 10
-42.43941885712424
 20
1.414989648116376
 30
0.0
 10
-42.11935780203728
 20
1.2886168595546574
 30
0.0
 10
-41.96690497626049
 20
1.1385562939888918
 30
0.0
 10
-41.96690497626041
 20
-1.1385562939891862
 30
0.0
 10
-42.11935780203729
 20
-1.28861685955453
 30
0.0
 10
-42.439418857124295
 20
-1.4149896481160424
 30
0.0
 10
-43.03674310204358
 20
-1.5422226733872617
 30
0.0
 10
-43.61256662182021
 20
-1.701405725869101
 30
0.0
 10
-44.3207436857666
 20
-1.943616546779995
 30
0.0
 10
-45.15289322251151
 20
-2.2850805900324866
 30
0.0
 10
-46.09917863210623
 20
-2.7412878014309703
 30
0.0
 10
-46.9202126962136
 20
-3.199536029389967
 30
0.0
 10
-46.920212696213596
 20
-4.222895575767557
 30
0.0
 10
-46.7374847933499
 20
-5.229809313223347
 30
0.0
 10
-45.84782170379773
 20
-5.534092010623556
 30
0.0
 10
-44.83528454698541
 20
-5.814002000120306
 30
0.0
 10
-43.955537236393994
 20
-6.001392538430262
 30
0.0
 10
-43.21549245714173
 20
-6.113261034297399
 30
0.0
 10
-42.620499426666974
 20
-6.167068689994232
 30
0.0
 10
-42.01005609419505
 20
-6.185600665844342
 30
0.0
 10
-41.672573819224276
 20
-6.252793483561633
 30
0.0
 10
-41.49577662445787
 20
-6.373221010929652
 30
0.0
 10
-41.089182471641536
 20
-8.61373946281167
 30
0.0
 10
-41.21239096916981
 20
-8.788609996527255
 30
0.0
 10
-41.50474377871543
 20
-8.970101030528957
 30
0.0
 10
-42.06975044337058
 20
-9.201945731100952
 30
0.0
 10
-42.607897010734085
 20
-9.461387906084619
 30
0.0
 10
-43.26144496584936
 20
-9.826156196963494
 30
0.0
 10
-44.01925075794277
 20
-10.31071880985144
 30
0.0
 10
-44.868870028650136
 20
-10.928560368008968
 30
0.0
 10
-45.59488635694146
 20
-11.526045651431641
 30
0.0
 10
-45.41215845407774
 20
-12.532959388887404
 30
0.0
 10
-45.05257567349737
 20
-13.491064281408189
 30
0.0
 10
-44.122878062214134
 20
-13.631601551991443
 30
0.0
 10
-43.076632935523314
 20
-13.726217782212975
 30
0.0
 10
-42.17756365350708
 20
-13.753511929492912
 30
0.0
 10
-41.429436807064995
 20
-13.731442554813382
 30
0.0
 10
-40.8343978314533
 20
-13.678145391398226
 30
0.0
 10
-40.23045556240915
 20
-13.587380684875626
 30
0.0
 10
-39.88639902555346
 20
-13.593233899300621
 30
0.0
 10
-39.69093986910644
 20
-13.680157748653189
 30
0.0
 10
-38.890819834092156
 20
-15.812069957890934
 30
0.0
 10
-38.98082398088497
 20
-16.006129976919187
 30
0.0
 10
-39.23607208504171
 20
-16.236905985196945
 30
0.0
 10
-39.75060139034167
 20
-16.56591068163088
 30
0.0
 10
-40.23377453182853
 20
-16.917273294142667
 30
0.0
 10
-40.811687809094245
 20
-17.392875101988327
 30
0.0
 10
-41.47079335485359
 20
-18.00496204343406
 30
0.0
 10
-42.19643902424399
 20
-18.764580012309718
 30
0.0
 10
-42.80410285455976
 20
-19.482098682574343
 30
0.0
 10
-42.44452007397936
 20
-20.440203575095126
 30
0.0
 10
-41.919639702115845
 20
-21.318705343103918
 30
0.0
 10
-40.97978881528598
 20
-21.290980203359236
 30
0.0
 10
-39.93346289794185
 20
-21.19726163081575
 30
0.0
 10
-39.04396847098147
 20
-21.06358213071439
 30
0.0
 10
-38.311804969755045
 20
-20.908284213349138
 30
0.0
 10
-37.73584509128227
 20
-20.749595245507198
 30
0.0
 10
-37.157815087118315
 20
-20.552451108960977
 30
0.0
 10
-36.81824254856291
 20
-20.496776592966015
 30
0.0
 10
-36.610403648547816
 20
-20.547402960263753
 30
0.0
 10
-35.4424742476019
 20
-22.502187514309117
 30
0.0
 10
-35.49638123632568
 20
-22.709199769965355
 30
0.0
 10
-35.70632075100709
 20
-22.981843421729987
 30
0.0
 10
-36.15383530172342
 20
-23.397433632376508
 30
0.0
 10
-36.56650543501005
 20
-23.829423598948168
 30
0.0
 10
-37.05020942618624
 20
-24.40057269032998
 30
0.0
 10
-37.58943053105696
 20
-25.120510982408625
 30
0.0
 10
-38.167779750252954
 20
-25.997490615467004
 30
0.0
 10
-38.63756026709934
 20
-26.811981032134938
 30
0.0
 10
-38.112679895235836
 20
-27.690482800143748
 30
0.0
 10
-37.43937201911391
 20
-28.46114567398313
 30
0.0
 10
-36.51957543755199
 20
-28.266049232714188
 30
0.0
 10
-35.50679850545782
 20
-27.987008049439122
 30
0.0
 10
-34.65546801631425
 20
-27.69665147108158
 30
0.0
 10
-33.96280019765904
 20
-27.413116413874278
 30
0.0
 10
-33.424431240720665
 20
-27.15413603560172
 30
0.0
 10
-32.890891861375415
 20
-26.856948843791205
 30
0.0
 10
-32.56671746191067
 20
-26.74153602212951
 30
0.0
 10
-32.35317893158442
 20
-26.75423773427196
 30
0.0
 10
-30.85497837662878
 20
-28.469066249155834
 30
0.0
 10
-30.871055592311116
 20
-28.682377197213015
 30
0.0
 10
-31.028938888776544
 20
-28.988125501164863
 30
0.0
 10
-31.395055199033003
 20
-29.476943814705027
 30
0.0
 10
-31.72395876648945
 20
-29.975676622368415
 30
0.0
 10
-32.09790682730677
 20
-30.62401579554633
 30
0.0
 10
-32.49991248130572
 20
-31.428666029183276
 30
0.0
 10
-32.912376630535014
 20
-32.39482047943663
 30
0.0
 10
-33.22917470156385
 20
-33.28010425035126
 30
0.0
 10
-32.55586682544195
 20
-34.0507671241906
 30
0.0
 10
-31.755772114199672
 20
-34.68882136499175
 30
0.0
 10
-30.88559285684833
 20
-34.332624182346905
 30
0.0
 10
-29.938916393917264
 20
-33.877229001566576
 30
0.0
 10
-29.15311230498864
 20
-33.43952764428745
 30
0.0
 10
-28.5222030825252
 20
-33.03686849727016
 30
0.0
 10
-28.038728668368673
 20
-32.68592055101443
 30
0.0
 10
-27.566828308491946
 20
-32.29824214481085
 30
0.0
 10
-27.268471280048253
 20
-32.12680048053261
 30
0.0
 10
-27.056096423475605
 20
-32.10116929404051
 30
0.0
 10
-25.275778113070043
 20
-33.52092577032893
 30
0.0
 10
-25.253508820770534
 20
-33.73367942140366
 30
0.0
 10
-25.354261399964763
 20
-34.06270537548317
 30
0.0
 10
-25.627212190308214
 20
-34.60904076911874
 30
0.0
 10
-25.86177796065368
 20
-35.158486735076835
 30
0.0
 10
-26.113951092751954
 20
-35.86317783556968
 30
0.0
 10
-26.365820503388253
 20
-36.72667789018741
 30
0.0
 10
-26.599142645517997
 20
-37.75095415865008
 30
0.0
 10
-26.75277612006407
 20
-38.678577535000215
 30
0.0
 10
-25.95268140882184
 20
-39.316631775801454
 30
0.0
 10
-25.051515564798766
 20
-39.801569795272364
 30
0.0
 10
-24.25892190897507
 20
-39.295720341781774
 30
0.0
 10
-23.408772875653707
 20
-38.67860793930685
 30
0.0
 10
-22.71375157691995
 20
-38.107629884870974
 30
0.0
 10
-22.16487889217209
 20
-37.598788444337885
 30
0.0
 10
-21.75183828627248
 20
-37.167152685852564
 30
0.0
 10
-21.356744211711625
 20
-36.70144336821416
 30
0.0
 10
-21.093793994672144
 20
-36.479483137471945
 30
0.0
 10
-20.889408714485956
 20
-36.41634285976856
 30
0.0
 10
-18.88419354397769
 20
-37.49539515613409
 30
0.0
 10
-18.824293497074077
 20
-37.700753432826545
 30
0.0
 10
-18.86467708820231
 20
-38.04248187214615
 30
0.0
 10
-19.03568949564645
 20
-38.628774676799424
 30
0.0
 10
-19.16837833202067
 20
-39.21127415562069
 30
0.0
 10
-19.290671483445518
 20
-39.94966783163684
 30
0.0
 10
-19.384309360622474
 20
-40.84426410498974
 30
0.0
 10
-19.430990330026514
 20
-41.89374110961601
 30
0.0
 10
-19.41652130180793
 20
-42.83388951283479
 30
0.0
 10
-18.51535545778489
 20
-43.31882753230572
 30
0.0
 10
-17.542082692689593
 20
-43.6350630234922
 30
0.0
 10
-16.85254925063995
 20
-42.99581971680535
 30
0.0
 10
-16.126252136364183
 20
-42.236824593013154
 30
0.0
 10
-15.544352184232038
 20
-41.5509215458924
 30
0.0
 10
-15.095157256901503
 20
-40.95225239441837
 30
0.0
 10
-14.765825924183362
 20
-40.453801952132274
 30
0.0
 10
-14.460236783579248
 20
-39.92503000371484
 30
0.0
 10
-14.24114481427579
 20
-39.659685190954214
 30
0.0
 10
-14.051318221550021
 20
-39.56106520251692
 30
0.0
 10
-11.885655456415723
 20
-40.26473169030719
 30
0.0
 10
-11.790049891701408
 20
-40.456094208635115
 30
0.0
 10
-11.768766532917054
 20
-40.799541699979976
 30
0.0
 10
-11.832344077977156
 20
-41.406947982506075
 30
0.0
 10
-11.858891252002326
 20
-42.00377896165902
 30
0.0
 10
-11.847373820243808
 20
-42.75214263289898
 30
0.0
 10
-11.779770565543453
 20
-43.649082064685224
 30
0.0
 10
-11.638309997455911
 20
-44.69002875103385
 30
0.0
 10
-11.456203512944729
 20
-45.612485037885065
 30
0.0
 10
-10.482930747849473
 20
-45.928720529071576
 30
0.0
 10
-9.468832849163643
 20
-46.06608942308755
 30
0.0
 10
-8.904521793065552
 20
-45.313998069052495
 30
0.0
 10
-8.325420384687467
 20
-44.43751495172499
 30
0.0
 10
-7.875344522407324
 20
-43.65873240021673
 30
0.0
 10
-7.540264847057338
 20
-42.98947725691676
 30
0.0
 10
-7.30522776752895
 20
-42.440232738171346
 30
0.0
 10
-7.098965447300178
 20
-41.86539332447203
 30
0.0
 10
-6.9307735218956275
 20
-41.565192330301535
 30
0.0
 10
-6.761606799510322
 20
-41.43426235870351
 30
0.0
 10
-4.505102622934668
 20
-41.739926618022224
 30
0.0
 10
-4.376864381924091
 20
-41.91114282919296
 30
0.0
 10
-4.2945981378904845
 20
-42.245270687601725
 30
0.0
 10
-4.248697385956536
 20
-42.854267910304706
 30
0.0
 10
-4.168249649616399
 20
-43.44624775104519
 30
0.0
 10
-4.023291814407815
 20
-44.18052839335962
 30
0.0
 10
-3.7966202520603605
 20
-45.05098261223738
 30
0.0
 10
-3.471564805533717
 20
-46.04994209731532
 30
0.0
 10
-3.1276739169798535
 20
-46.92505776374006
 30
0.0
 10
-2.113576018294081
 20
-47.062426657755985
 30
0.0
 10
-1.0912469268839873
 20
-47.016513805320166
 30
0.0
 10
-0.6702956783971316
 20
-46.17574723887849
 30
0.0
 10
-0.2570027716682225
 20
-45.20994701657929
 30
0.0
 10
0.0467831922225797
 20
-44.363315672673416
 30
0.0
 10
0.2569778791217949
 20
-43.64498494851813
 30
0.0
 10
0.3901664203352322
 20
-43.062599524065774
 30
0.0
 10
0.4904724795033077
 20
-42.46016845682031
 30
0.0
 10
0.6023585341376724
 20
-42.13475998819881
 30
0.0
 10
0.7454282285342088
 20
-41.975728230456745
 30
0.0
 10
3.020247915658255
 20
-41.87356596050801
 30
0.0
 10
3.176997150384238
 20
-42.01913283461736
 30
0.0
 10
3.3176021748949656
 20
-42.33320191579944
 30
0.0
 10
3.471505935888542
 20
-42.924216406857056
 30
0.0
 10
3.656362926155397
 20
-43.492318390021055
 30
0.0
 10
3.9301021007187398
 20
-44.188915619397854
 30
0.0
 10
4.308556560193463
 20
-45.004907510560265
 30
0.0
 10
4.8067593356513285
 20
-45.92977241457052
 30
0.0
 10
5.301381692135386
 20
-46.729420523002275
 30
0.0
 10
6.323710783545463
 20
-46.68350767056646
 30
0.0
 10
7.32141256950672
 20
-46.45578874853343
 30
0.0
 10
7.5854742908961335
 20
-45.55336989891556
 30
0.0
 10
7.819675121895063
 20
-44.52929418545243
 30
0.0
 10
7.967407256561148
 20
-43.64202547715266
 30
0.0
 10
8.045961124823885
 20
-42.8977069126609
 30
0.0
 10
8.073020338419875
 20
-42.30089892923182
 30
0.0
 10
8.064146217253493
 20
-41.69023883862343
 30
0.0
 10
8.116130291261571
 20
-41.35008179147937
 30
0.0
 10
8.228504579973295
 20
-41.168059659138876
 30
0.0
 10
10.448525201173693
 20
-40.66135443933823
 30
0.0
 10
10.628747380237291
 20
-40.7765933372795
 30
0.0
 10
10.823172024047166
 20
-41.060509202548815
 30
0.0
 10
11.0801322005896
 20
-41.61454526993012
 30
0.0
 10
11.363456989015157
 20
-42.14051013034286
 30
0.0
 10
11.757179300629453
 20
-42.77703473866775
 30
0.0
 10
12.275252819510559
 20
-43.512337651332494
 30
0.0
 10
12.930590276773826
 20
-44.333382055278804
 30
0.0
 10
13.560046531674049
 20
-45.03186125755996
 30
0.0
 10
14.557748317635332
 20
-44.8041423355269
 30
0.0
 10
15.498755841835173
 20
-44.40193641741845
 30
0.0
 10
15.597440875131001
 20
-43.466869768963875
 30
0.0
 10
15.64502222299056
 20
-42.41743320037981
 30
0.0
 10
15.631952296069352
 20
-41.518044674018036
 30
0.0
 10
15.57634055973531
 20
-40.77166128027992
 30
0.0
 10
15.496400740324486
 20
-40.179612637516776
 30
0.0
 10
15.378631660379579
 20
-39.580350641310396
 30
0.0
 10
15.369042942850113
 20
-39.23637794302115
 30
0.0
 10
15.447110023775958
 20
-39.037215777183945
 30
0.0
 10
17.54097828964828
 20
-38.14225353021424
 30
0.0
 10
17.73888092392708
 20
-38.223460578988714
 30
0.0
 10
17.980876219010923
 20
-38.468097938828755
 30
0.0
 10
18.332633899600605
 20
-38.967348407465714
 30
0.0
 10
18.705320194364457
 20
-39.43427120174821
 30
0.0
 10
19.206371083978624
 20
-39.990264764375425
 30
0.0
 10
19.847412353096967
 20
-40.62124545792022
 30
0.0
 10
20.638821407075735
 20
-41.31208031910215
 30
0.0
 10
21.38288031844129
 20
-41.88694091896077
 30
0.0
 10
22.323887842641142
 20
-41.484735000852375
 30
0.0
 10
23.17795634898824
 20
-40.92096931581276
 30
0.0
 10
23.108092876022017
 20
-39.983308679978116
 30
0.0
 10
22.96752543707193
 20
-38.942241011066706
 30
0.0
 10
22.794073526768656
 20
-38.05963975389953
 30
0.0
 10
22.606083592801102
 20
-37.3351809073161
 30
0.0
 10
22.421714071954025
 20
-36.766920535736546
 30
0.0
 10
22.198835228360746
 20
-36.19831740756466
 30
0.0
 10
22.127981908564756
 20
-35.86158462367493
 30
0.0
 10
22.16923264148996
 20
-35.651683660222204
 30
0.0
 10
24.069649903128514
 20
-34.397229209078425
 30
0.0
 10
24.278872239121974
 20
-34.441794347321114
 30
0.0
 10
24.560660257581397
 20
-34.63929035569833
 30
0.0
 10
24.99590966093699
 20
-35.0677089047443
 30
0.0
 10
25.44597901787812
 20
-35.46058235010296
 30
0.0
 10
26.038254297633912
 20
-35.918174776456645
 30
0.0
 10
26.781659723149513
 20
-36.42455301221829
 30
0.0
 10
27.683703835675367
 20
-36.96297432977665
 30
0.0
 10
28.518450737881274
 20
-37.39573983453645
 30
0.0
 10
29.372519244228386
 20
-36.831974149496844
 30
0.0
 10
30.11219826819882
 20
-36.12476859051111
 30
0.0
 10
29.876031758475538
 20
-35.2146511516419
 30
0.0
 10
29.55183348586294
 20
-34.21541315387529
 30
0.0
 10
29.22357447929145
 20
-33.377966696514804
 30
0.0
 10
28.909248498846733
 20
-32.69871710050198
 30
0.0
 10
28.626375064663176
 20
-32.17250935601477
 30
0.0
 10
28.305549966839944
 20
-31.652840468265033
 30
0.0
 10
28.175709328773973
 20
-31.334170467513687
 30
0.0
 10
28.1788178812011
 20
-31.120277096117903
 30
0.0
 10
29.824703164148296
 20
-29.546649639028374
 30
0.0
 10
30.03852062382887
 20
-29.55314050652783
 30
0.0
 10
30.351044466894635
 20
-29.69714747923272
 30
0.0
 10
30.855796319067885
 20
-30.04096438401741
 30
0.0
 10
31.368783138735907
 20
-30.347161204661052
 30
0.0
 10
32.033246593816244
 20
-30.6916450976499
 30
0.0
 10
32.85512251367701
 20
-31.057145462481632
 30
0.0
 10
33.838809244769
 20
-31.42584793225555
 30
0.0
 10
34.73741468554627
 20
-31.7026089025128
 30
0.0
 10
35.47709370951668
 20
-30.995403343527133
 30
0.0
 10
36.07860935867018
 20
-30.16748807915186
 30
0.0
 10
35.683730398130805
 20
-29.314165760580458
 30
0.0
 10
35.1863212910887
 20
-28.388873765382623
 30
0.0
 10
34.71380570281261
 20
-27.62349832602163
 30
0.0
 10
34.2832463715305
 20
-27.011289621483694
 30
0.0
 10
33.910960808934156
 20
-26.544047253961825
 30
0.0
 10
33.50250103950078
 20
-26.090015192271505
 30
0.0
 10
33.317846268105505
 20
-25.79965029068524
 30
0.0
 10
33.28271272860182
 20
-25.588639220295107
 30
0.0
 10
34.621165925624815
 20
-23.746416438515677
 30
0.0
 10
34.83270623990879
 20
-23.714624413449766
 30
0.0
 10
35.16592113411928
 20
-23.80051384789026
 30
0.0
 10
35.72395229527014
 20
-24.0486785502004
 30
0.0
 10
36.283368759193955
 20
-24.258357328373958
 30
0.0
 10
36.99866398743021
 20
-24.47866069223501
 30
0.0
 10
37.87259463333006
 20
-24.691535703676436
 30
0.0
 10
38.90630748207075
 20
-24.87866892491798
 30
0.0
 10
39.83988954317786
 20
-24.99053003536907
 30
0.0
 10
40.44140519233136
 20
-24.162614770993724
 30
0.0
 10
40.885424258775004
 20
-23.2405996790366
 30
0.0
 10
40.34452458211904
 20
-22.471498962197973
 30
0.0
 10
39.68989177861733
 20
-21.649892615627362
 30
0.0
 10
39.08830664843095
 20
-20.981187990639935
 30
0.0
 10
38.55535249748426
 20
-20.455697069067735
 30
0.0
 10
38.10562037077457
 20
-20.06243763265166
 30
0.0
 10
37.622654162802434
 20
-19.688635361062307
 30
0.0
 10
37.38912021436496
 20
-19.435908125491146
 30
0.0
 10
37.31687380379808
 20
-19.23456142552949
 30
0.0
 10
38.304875927861595
 20
-17.182953875052494
 30
0.0
 10
38.50734001699191
 20
-17.113900779265407
 30
0.0
 10
38.850536161477095
 20
-17.13891211834853
 30
0.0
 10
39.4439110509366
 20
-17.283448400461268
 30
0.0
 10
40.03177705367631
 20
-17.389869887709974
 30
0.0
 10
40.77491387788609
 20
-17.47891199106252
 30
0.0
 10
41.67281039979327
 20
-17.532319671091766
 30
0.0
 10
42.72332498468237
 20
-17.531869028096505
 30
0.0
 10
43.66187757052141
 20
-17.475234970611815
 30
0.0
 10
44.10589663696543
 20
-16.55321987865492
 30
0.0
 10
44.378147982564265
 20
-15.56673928280835
 30
0.0
 10
43.70861255045254
 20
-14.906579697559582
 30
0.0
 10
42.91779648742943
 20
-14.215066103614935
 30
0.0
 10
42.206477256402856
 20
-13.664525009860167
 30
0.0
 10
41.58825787071913
 20
-13.242641581848405
 30
0.0
 10
41.075533940489365
 20
-12.936004758399474
 30
0.0
 10
40.533584225288635
 20
-12.654446589485504
 30
0.0
 10
40.2586770730641
 20
-12.44747988122536
 30
0.0
 10
40.1516398505142
 20
-12.262269000297565
 30
0.0
 10
40.75743570041998
 20
-10.067217035863658
 30
0.0
 10
40.944316201984
 20
-9.963122292671061
 30
0.0
 10
41.286462990277364
 20
-9.926451651379281
 30
0.0
 10
41.89611005086781
 20
-9.962713998262672
 30
0.0
 10
42.493531095397586
 20
-9.962457720422455
 30
0.0
 10
43.240624486595785
 20
-9.917376676800664
 30
0.0
 10
44.133627751504484
 20
-9.809600458637608
 30
0.0
 10
45.16717966941738
 20
-9.621580435442196
 30
0.0
 10
46.08053692763587
 20
-9.398271475227961
 30
0.0
  0
LWPOLYLINE
  8
OpenJsCad
  90
31
  70
1
 10
0.10395584540887969
 20
-0.48907380036690284
 30
0.0
 10
3.061616997868383e-17
 20
-0.5
 30
0.0
 10
-0.10395584540887946
 20
-0.48907380036690284
 30
0.0
 10
-0.20336832153790005
 20
-0.4567727288213005
 30
0.0
 10
-0.2938926261462367
 20
-0.40450849718747367
 30
0.0
 10
-0.371572412738697
 20
-0.33456530317942923
 30
0.0
 10
-0.4330127018922193
 20
-0.25000000000000006
 30
0.0
 10
-0.4755282581475768
 20
-0.15450849718747364
 30
0.0
 10
-0.4972609476841367
 20
-0.05226423163382652
 30
0.0
 10
-0.49726094768413664
 20
0.05226423163382709
 30
0.0
 10
-0.47552825814757677
 20
0.15450849718747375
 30
0.0
 10
-0.43301270189221924
 20
0.2500000000000002
 30
0.0
 10
-0.371572412738697
 20
0.33456530317942923
 30
0.0
 10
-0.2938926261462365
 20
0.4045084971874737
 30
0.0
 10
-0.20336832153790013
 20
0.45677272882130043
 30
0.0
 10
-0.10395584540887956
 20
0.48907380036690284
 30
0.0
 10
2.5266077490371514e-16
 20
0.5
 30
0.0
 10
0.10395584540887963
 20
0.48907380036690284
 30
0.0
 10
0.2033683215379
 20
0.4567727288213005
 30
0.0
 10
0.2938926261462366
 20
0.40450849718747367
 30
0.0
 10
0.37157241273869723
 20
0.33456530317942895
 30
0.0
 10
0.43301270189221935
 20
0.24999999999999992
 30
0.0
 10
0.4755282581475768
 20
0.1545084971874737
 30
0.0
 10
0.4972609476841367
 20
0.052264231633826694
 30
0.0
 10
0.49726094768413664
 20
-0.0522642316338267
 30
0.0
 10
0.47552825814757677
 20
-0.1545084971874737
 30
0.0
 10
0.4330127018922193
 20
-0.25000000000000006
 30
0.0
 10
0.3715724127386971
 20
-0.3345653031794291
 30
0.0
 10
0.29389262614623657
 20
-0.4045084971874737
 30
0.0
 10
0.2033683215379001
 20
-0.45677272882130043
 30
0.0
 10
0.10395584540887969
 20
-0.48907380036690284
 30
0.0
  0
LWPOLYLINE
  8
OpenJsCad
  90
171
  70
1
 10
43.072003722995326
 20
5.463313437112664
 30
0.0
 10
42.764706323181706
 20
4.721431886800633
 30
0.0
 10
42.57724810773687
 20
3.940612225106697
 30
0.0
 10
42.91188176371842
 20
3.464799434304558
 30
0.0
 10
44.02849177157363
 20
2.427845021019545
 30
0.0
 10
44.881098784118464
 20
1.9179396107923021
 30
0.0
 10
45.286672204406585
 20
1.7792253314562818
 30
0.0
 10
45.403804503920284
 20
1.7897167775029836
 30
0.0
 10
46.59020690669368
 20
1.6146942012681862
 30
0.0
 10
47.15986315520104
 20
1.1385562939892298
 30
0.0
 10
47.159863155201016
 20
-1.138556293989159
 30
0.0
 10
46.59020690669368
 20
-1.6146942012681982
 30
0.0
 10
45.403804503920284
 20
-1.7897167775029965
 30
0.0
 10
45.28667220440657
 20
-1.7792253314562203
 30
0.0
 10
44.88109878411843
 20
-1.917939610792251
 30
0.0
 10
44.02849177157362
 20
-2.4278450210195657
 30
0.0
 10
42.91188176371841
 20
-3.464799434304574
 30
0.0
 10
42.57724810773687
 20
-3.9406122251067117
 30
0.0
 10
42.764706323181706
 20
-4.7214318868006435
 30
0.0
 10
43.072003722995326
 20
-5.463313437112674
 30
0.0
 10
43.62240377885984
 20
-5.651561343105908
 30
0.0
 10
45.13526676273237
 20
-5.834148190666112
 30
0.0
 10
46.124755205600124
 20
-5.745520505088679
 30
0.0
 10
46.53440520275607
 20
-5.619352639266823
 30
0.0
 10
46.6230005063914
 20
-5.542016242898215
 30
0.0
 10
47.6856959015314
 20
-4.9862626458368915
 30
0.0
 10
48.4264243274817
 20
-5.03663076274281
 30
0.0
 10
49.764877524504925
 20
-6.878853544522457
 30
0.0
 10
49.58388277846663
 20
-7.598892744926191
 30
0.0
 10
48.726938761584734
 20
-8.437838819133988
 30
0.0
 10
48.6260100234264
 20
-8.498199699207841
 30
0.0
 10
48.37942844162262
 20
-8.848811983720351
 30
0.0
 10
47.98936975914638
 20
-9.762483954092959
 30
0.0
 10
47.695519798130896
 20
-11.257724592012107
 30
0.0
 10
47.704471224837626
 20
-11.839357953818672
 30
0.0
 10
48.31508238871139
 20
-12.360869155211617
 30
0.0
 10
48.99975824170913
 20
-12.78043905754901
 30
0.0
 10
49.5556905835262
 20
-12.609217776954923
 30
0.0
 10
50.88694430389834
 20
-11.867695088921014
 30
0.0
 10
51.63536322338872
 20
-11.21438707108525
 30
0.0
 10
51.89261742199023
 20
-10.87152889656143
 30
0.0
 10
51.9188353350021
 20
-10.756887424716286
 30
0.0
 10
52.45191020125323
 20
-9.682636639066255
 30
0.0
 10
53.08077772236667
 20
-9.287996056890403
 30
0.0
 10
55.24644048750123
 20
-9.991662544680862
 30
0.0
 10
55.52324108513345
 20
-10.680572536887363
 30
0.0
 10
55.32307894213607
 20
-11.86299322344907
 30
0.0
 10
55.27690511286797
 20
-11.9711506250462
 30
0.0
 10
55.28350115279788
 20
-12.399738938924655
 30
0.0
 10
55.50497995948912
 20
-13.368185831328308
 30
0.0
 10
56.14613074282845
 20
-14.750581591556557
 30
0.0
 10
56.49524811146928
 20
-15.215871349148305
 30
0.0
 10
57.29577951308232
 20
-15.278874536821956
 30
0.0
 10
58.09631091469538
 20
-15.215871349148303
 30
0.0
 10
58.44542828333621
 20
-14.75058159155655
 30
0.0
 10
59.08657906667554
 20
-13.368185831328299
 30
0.0
 10
59.30805787336671
 20
-12.399738938924637
 30
0.0
 10
59.31465391329661
 20
-11.97115062504621
 30
0.0
 10
59.26848008402859
 20
-11.862993223449065
 30
0.0
 10
59.068317941031204
 20
-10.680572536887357
 30
0.0
 10
59.34511853866334
 20
-9.991662544680866
 30
0.0
 10
61.51078130379792
 20
-9.287996056890444
 30
0.0
 10
62.13964882491143
 20
-9.682636639066255
 30
0.0
 10
62.67272369116255
 20
-10.756887424716288
 30
0.0
 10
62.69894160417436
 20
-10.87152889656146
 30
0.0
 10
62.95619580277589
 20
-11.214387071085303
 30
0.0
 10
63.70461472226633
 20
-11.867695088921016
 30
0.0
 10
65.03586844263846
 20
-12.609217776954923
 30
0.0
 10
65.59180078445553
 20
-12.780439057549009
 30
0.0
 10
66.27647663745326
 20
-12.360869155211613
 30
0.0
 10
66.88708780132703
 20
-11.839357953818663
 30
0.0
 10
66.89603922803376
 20
-11.257724592012094
 30
0.0
 10
66.60218926701828
 20
-9.76248395409294
 30
0.0
 10
66.21213058454197
 20
-8.848811983720369
 30
0.0
 10
65.96554900273819
 20
-8.498199699207886
 30
0.0
 10
65.86462026457991
 20
-8.437838819133978
 30
0.0
 10
65.00767624769802
 20
-7.5988927449261805
 30
0.0
 10
64.82668150165966
 20
-6.878853544522503
 30
0.0
 10
66.16513469868292
 20
-5.036630762742881
 30
0.0
 10
66.90586312463326
 20
-4.9862626458368835
 30
0.0
 10
67.96855851977325
 20
-5.5420162428982085
 30
0.0
 10
68.05715382340854
 20
-5.619352639266881
 30
0.0
 10
68.46680382056452
 20
-5.745520505088747
 30
0.0
 10
69.45629226343229
 20
-5.834148190666101
 30
0.0
 10
70.96915524730481
 20
-5.6515613431059
 30
0.0
 10
71.51955530316933
 20
-5.463313437112662
 30
0.0
 10
71.82685270298293
 20
-4.7214318868006355
 30
0.0
 10
72.01431091842778
 20
-3.9406122251066993
 30
0.0
 10
71.67967726244623
 20
-3.4647994343045605
 30
0.0
 10
70.56306725459102
 20
-2.4278450210195466
 30
0.0
 10
69.71046024204618
 20
-1.917939610792304
 30
0.0
 10
69.30488682175806
 20
-1.7792253314562827
 30
0.0
 10
69.18775452224436
 20
-1.7897167775029845
 30
0.0
 10
68.00135211947097
 20
-1.614694201268187
 30
0.0
 10
67.43169587096361
 20
-1.1385562939892306
 30
0.0
 10
67.43169587096362
 20
1.1385562939891576
 30
0.0
 10
68.00135211947097
 20
1.614694201268197
 30
0.0
 10
69.18775452224436
 20
1.789716777502995
 30
0.0
 10
69.30488682175807
 20
1.779225331456219
 30
0.0
 10
69.71046024204622
 20
1.91793961079225
 30
0.0
 10
70.56306725459102
 20
2.4278450210195643
 30
0.0
 10
71.67967726244623
 20
3.464799434304572
 30
0.0
 10
72.01431091842778
 20
3.94061222510671
 30
0.0
 10
71.82685270298293
 20
4.721431886800641
 30
0.0
 10
71.51955530316931
 20
5.463313437112673
 30
0.0
 10
70.9691552473048
 20
5.651561343105907
 30
0.0
 10
69.45629226343227
 20
5.8341481906661095
 30
0.0
 10
68.46680382056452
 20
5.745520505088679
 30
0.0
 10
68.05715382340858
 20
5.619352639266822
 30
0.0
 10
67.96855851977324
 20
5.542016242898214
 30
0.0
 10
66.90586312463324
 20
4.98626264583689
 30
0.0
 10
66.16513469868295
 20
5.036630762742808
 30
0.0
 10
64.82668150165972
 20
6.878853544522457
 30
0.0
 10
65.00767624769802
 20
7.598892744926189
 30
0.0
 10
65.86462026457991
 20
8.437838819133987
 30
0.0
 10
65.96554900273824
 20
8.49819969920784
 30
0.0
 10
66.21213058454202
 20
8.84881198372035
 30
0.0
 10
66.60218926701828
 20
9.762483954092957
 30
0.0
 10
66.89603922803376
 20
11.257724592012107
 30
0.0
 10
66.88708780132701
 20
11.83935795381867
 30
0.0
 10
66.27647663745326
 20
12.360869155211617
 30
0.0
 10
65.59180078445551
 20
12.780439057549012
 30
0.0
 10
65.03586844263845
 20
12.609217776954923
 30
0.0
 10
63.70461472226631
 20
11.867695088921014
 30
0.0
 10
62.95619580277592
 20
11.214387071085248
 30
0.0
 10
62.698941604174415
 20
10.871528896561426
 30
0.0
 10
62.672723691162545
 20
10.756887424716286
 30
0.0
 10
62.13964882491142
 20
9.682636639066255
 30
0.0
 10
61.510781303797984
 20
9.287996056890401
 30
0.0
 10
59.34511853866342
 20
9.991662544680864
 30
0.0
 10
59.0683179410312
 20
10.680572536887363
 30
0.0
 10
59.26848008402858
 20
11.86299322344907
 30
0.0
 10
59.314653913296674
 20
11.9711506250462
 30
0.0
 10
59.30805787336677
 20
12.399738938924656
 30
0.0
 10
59.086579066675526
 20
13.368185831328308
 30
0.0
 10
58.445428283336206
 20
14.750581591556555
 30
0.0
 10
58.096310914695366
 20
15.215871349148305
 30
0.0
 10
57.29577951308232
 20
15.278874536821956
 30
0.0
 10
56.49524811146927
 20
15.215871349148305
 30
0.0
 10
56.14613074282843
 20
14.75058159155655
 30
0.0
 10
55.504979959489106
 20
13.368185831328297
 30
0.0
 10
55.283501152797946
 20
12.399738938924639
 30
0.0
 10
55.276905112868036
 20
11.971150625046208
 30
0.0
 10
55.32307894213606
 20
11.862993223449065
 30
0.0
 10
55.52324108513344
 20
10.680572536887357
 30
0.0
 10
55.2464404875013
 20
9.991662544680867
 30
0.0
 10
53.08077772236673
 20
9.287996056890446
 30
0.0
 10
52.45191020125321
 20
9.682636639066255
 30
0.0
 10
51.91883533500209
 20
10.75688742471629
 30
0.0
 10
51.89261742199029
 20
10.87152889656146
 30
0.0
 10
51.63536322338876
 20
11.214387071085305
 30
0.0
 10
50.88694430389832
 20
11.867695088921018
 30
0.0
 10
49.55569058352619
 20
12.609217776954923
 30
0.0
 10
48.99975824170912
 20
12.780439057549009
 30
0.0
 10
48.31508238871139
 20
12.360869155211613
 30
0.0
 10
47.70447122483762
 20
11.839357953818663
 30
0.0
 10
47.69551979813089
 20
11.257724592012096
 30
0.0
 10
47.98936975914637
 20
9.762483954092943
 30
0.0
 10
48.379428441622686
 20
8.848811983720372
 30
0.0
 10
48.62601002342645
 20
8.498199699207888
 30
0.0
 10
48.72693876158473
 20
8.437838819133978
 30
0.0
 10
49.58388277846663
 20
7.598892744926182
 30
0.0
 10
49.76487752450499
 20
6.878853544522503
 30
0.0
 10
48.426424327481726
 20
5.036630762742882
 30
0.0
 10
47.68569590153139
 20
4.986262645836885
 30
0.0
 10
46.62300050639139
 20
5.54201624289821
 30
0.0
 10
46.5344052027561
 20
5.619352639266883
 30
0.0
 10
46.124755205600124
 20
5.745520505088749
 30
0.0
 10
45.13526676273236
 20
5.834148190666102
 30
0.0
 10
43.622403778859834
 20
5.651561343105902
 30
0.0
 10
43.072003722995326
 20
5.463313437112664
 30
0.0
  0
LWPOLYLINE
  8
OpenJsCad
  90
31
  70
1
 10
57.04577951308232
 20
0.4330127018922193
 30
0.0
 10
57.14127101589485
 20
0.47552825814757677
 30
0.0
 10
57.243515281448495
 20
0.49726094768413664
 30
0.0
 10
57.34804374471615
 20
0.49726094768413676
 30
0.0
 10
57.450288010269794
 20
0.4755282581475769
 30
0.0
 10
57.54577951308232
 20
0.4330127018922195
 30
0.0
 10
57.630344816261754
 20
0.3715724127386973
 30
0.0
 10
57.700288010269794
 20
0.2938926261462367
 30
0.0
 10
57.75255224190362
 20
0.20336832153790008
 30
0.0
 10
57.784853313449226
 20
0.10395584540887948
 30
0.0
 10
57.79577951308232
 20
1.1102230246251565e-16
 30
0.0
 10
57.784853313449226
 20
-0.10395584540887978
 30
0.0
 10
57.75255224190362
 20
-0.2033683215379001
 30
0.0
 10
57.700288010269794
 20
-0.2938926261462365
 30
0.0
 10
57.630344816261754
 20
-0.371572412738697
 30
0.0
 10
57.54577951308232
 20
-0.43301270189221935
 30
0.0
 10
57.450288010269794
 20
-0.4755282581475768
 30
0.0
 10
57.34804374471615
 20
-0.4972609476841367
 30
0.0
 10
57.243515281448495
 20
-0.49726094768413676
 30
0.0
 10
57.14127101589485
 20
-0.4755282581475769
 30
0.0
 10
57.04577951308232
 20
-0.43301270189221935
 30
0.0
 10
56.96121420990289
 20
-0.3715724127386972
 30
0.0
 10
56.89127101589485
 20
-0.2938926261462367
 30
0.0
 10
56.839006784261024
 20
-0.20336832153790024
 30
0.0
 10
56.80670571271542
 20
-0.10395584540887984
 30
0.0
 10
56.79577951308232
 20
-1.6653345369377348e-16
 30
0.0
 10
56.80670571271542
 20
0.10395584540887959
 30
0.0
 10
56.839006784261024
 20
0.20336832153789997
 30
0.0
 10
56.89127101589485
 20
0.2938926261462365
 30
0.0
 10
56.96121420990289
 20
0.37157241273869707
 30
0.0
 10
57.04577951308232
 20
0.4330127018922193
 30
0.0
  0
ENDSEC
  0
EOF
