999
DXF generated by OpenJsCad
  0
SECTION
  2
HEADER
  0
ENDSEC
  0
SECTION
  2
TABLES
  0
TABLE
  2
LTYPE
  70
1
  0
LTYPE
  2
CONTINUOUS
  3
Solid Line
  72
65
  73
0
  40
0.0
  0
ENDTAB
  0
TABLE
  2
LAYER
  70
1
  0
LAYER
  2
OpenJsCad
  62
7
  6
continuous
  0
ENDTAB
  0
TABLE
  2
STYLE
  70
0
  0
ENDTAB
  0
TABLE
  2
VIEW
  70
0
  0
ENDTAB
  0
ENDSEC
  0
SECTION
  2
BLOCKS
  0
ENDSEC
  0
SECTION
  2
ENTITIES
  0
LWPOLYLINE
  8
OpenJsCad
  90
571
  70
1
 10
39.59845328598851
 20
-9.422254622245909
 30
0.0
 10
39.85331858694728
 20
-8.471084369981492
 30
0.0
 10
40.00736334434527
 20
-7.498484049632132
 30
0.0
 10
39.240138939112185
 20
-6.922818324905341
 30
0.0
 10
38.33161295705225
 20
-6.335477569732794
 30
0.0
 10
37.538632600320696
 20
-5.8980589093794595
 30
0.0
 10
36.87693594471671
 20
-5.591166092373533
 30
0.0
 10
36.36009086942849
 20
-5.393991056856294
 30
0.0
 10
35.804885954332796
 20
-5.225500361658252
 30
0.0
 10
35.446219897457524
 20
-5.04535168701019
 30
0.0
 10
35.286671313537056
 20
-4.853606383835872
 30
0.0
 10
35.52469439304584
 20
-2.5889680568727083
 30
0.0
 10
35.72062254779749
 20
-2.4345848644712365
 30
0.0
 10
36.10890590633938
 20
-2.3329437369131303
 30
0.0
 10
36.68700944728138
 20
-2.283568560306692
 30
0.0
 10
37.233555212647275
 20
-2.198160405884875
 30
0.0
 10
37.944598813223344
 20
-2.0355484037231784
 30
0.0
 10
38.81119509985932
 20
-1.7725582773361934
 30
0.0
 10
39.82198261890108
 20
-1.3869454999361046
 30
0.0
 10
40.69212896428594
 20
-0.9833743757948937
 30
0.0
 10
40.743665431525216
 20
7.823900491013153e-15
 30
0.0
 10
40.69212896428595
 20
0.9833743757948923
 30
0.0
 10
39.821982618909004
 20
1.3869454999324284
 30
0.0
 10
38.81119509985865
 20
1.7725582773356903
 30
0.0
 10
37.944598813223344
 20
2.035548403723172
 30
0.0
 10
37.2335552126472
 20
2.198160405884878
 30
0.0
 10
36.6870094472815
 20
2.2835685603066618
 30
0.0
 10
36.108905906339345
 20
2.3329437369127217
 30
0.0
 10
35.72062254779748
 20
2.4345848644712222
 30
0.0
 10
35.52469439304587
 20
2.5889680568726736
 30
0.0
 10
35.28667131353704
 20
4.8536063838358325
 30
0.0
 10
35.44621989745754
 20
5.045351687010177
 30
0.0
 10
35.80488595433292
 20
5.2255003616578595
 30
0.0
 10
36.36009086942839
 20
5.393991056856241
 30
0.0
 10
36.8769359447168
 20
5.591166092373553
 30
0.0
 10
37.5386326003207
 20
5.898058909379455
 30
0.0
 10
38.33161295705301
 20
6.335477569732443
 30
0.0
 10
39.2401389391052
 20
6.922818324900098
 30
0.0
 10
40.00736334434527
 20
7.498484049632129
 30
0.0
 10
39.85331858694728
 20
8.471084369981504
 30
0.0
 10
39.59845328598852
 20
9.422254622245887
 30
0.0
 10
38.66341457118612
 20
9.636093151120248
 30
0.0
 10
37.59454178002449
 20
9.803124822006302
 30
0.0
 10
36.69220397960174
 20
9.880192483938158
 30
0.0
 10
35.96288945136436
 20
9.891416746462216
 30
0.0
 10
35.41052966848522
 20
9.861325273606518
 30
0.0
 10
34.834793400484344
 20
9.789426999474527
 30
0.0
 10
34.43386258623445
 20
9.808118374940916
 30
0.0
 10
34.21011786118192
 20
9.91839217024881
 30
0.0
 10
33.506451373391485
 20
12.084054935383314
 30
0.0
 10
33.62264734776445
 20
12.304782159485763
 30
0.0
 10
33.936020675217186
 20
12.55556501969167
 30
0.0
 10
34.444061845507676
 20
12.835807381593765
 30
0.0
 10
34.908617620830654
 20
13.13613180300367
 30
0.0
 10
35.492048012439675
 20
13.573892746115497
 30
0.0
 10
36.176755392537196
 20
14.166622646009452
 30
0.0
 10
36.943312892592786
 20
14.930021769570214
 30
0.0
 10
37.574083969627914
 20
15.65262274037165
 30
0.0
 10
37.22119048267972
 20
16.571941704222095
 30
0.0
 10
36.77413518463276
 20
17.44933712871076
 30
0.0
 10
35.81506977905532
 20
17.46409729249903
 30
0.0
 10
34.7348265857769
 20
17.40524777134327
 30
0.0
 10
33.83618376334234
 20
17.29302474218141
 30
0.0
 10
33.12047285196708
 20
17.15237071093553
 30
0.0
 10
32.58643982460263
 20
17.00809475256105
 30
0.0
 10
32.038233267143795
 20
16.818065327276774
 30
0.0
 10
31.642177597648082
 20
16.752990047852002
 30
0.0
 10
31.400395020425755
 20
16.814334952059
 30
0.0
 10
30.261838726436572
 20
18.786372300525553
 30
0.0
 10
30.329603769611765
 20
19.026434606696093
 30
0.0
 10
30.5839884495001
 20
19.336891238079552
 30
0.0
 10
31.022662037991918
 20
19.71663733071819
 30
0.0
 10
31.414625196781923
 20
20.106985519688614
 30
0.0
 10
31.894290616673118
 20
20.656482335082313
 30
0.0
 10
32.44080002203504
 20
21.378618333658245
 30
0.0
 10
33.031886798990605
 20
22.28471162071709
 30
0.0
 10
33.49863682497892
 20
23.122666707739743
 30
0.0
 10
32.96231774723097
 20
23.948525664989173
 30
0.0
 10
32.34261091382981
 20
24.713799871441594
 30
0.0
 10
31.40143457780747
 20
24.5288365801591
 30
0.0
 10
30.357032793540462
 20
24.24667787342737
 30
0.0
 10
29.50135995260118
 20
23.950068838052
 30
0.0
 10
28.830532659277125
 20
23.663683769134558
 30
0.0
 10
28.338166193297965
 20
23.411528876935115
 30
0.0
 10
27.841448603529052
 20
23.111673498245832
 30
0.0
 10
27.467577612030443
 20
22.965675665906595
 30
0.0
 10
27.218324241464458
 20
22.97541061233335
 30
0.0
 10
25.694638514723113
 20
24.667635049118864
 30
0.0
 10
25.71101096914102
 20
24.9165405626311
 30
0.0
 10
25.89528917028072
 20
25.273102520664445
 30
0.0
 10
26.245423036167335
 20
25.735755617567396
 30
0.0
 10
26.547662907537333
 20
26.1990674851419
 30
0.0
 10
26.9025996751714
 20
26.836284525206505
 30
0.0
 10
27.28702602234033
 20
27.65626581413367
 30
0.0
 10
27.67680874769387
 20
28.665452640128134
 30
0.0
 10
27.959138506784548
 20
29.582139185114496
 30
0.0
 10
27.26283355547891
 20
30.27844413642014
 30
0.0
 10
26.497559349026478
 20
30.898150969821295
 30
0.0
 10
25.615406004708554
 20
30.521548006849432
 30
0.0
 10
24.652490999021225
 20
30.02841180397359
 30
0.0
 10
23.877185148700104
 20
29.560380000518688
 30
0.0
 10
23.28055984513201
 20
29.1407802956694
 30
0.0
 10
22.851378717737873
 20
28.79176684840754
 30
0.0
 10
22.42785903784722
 20
28.395190635227706
 30
0.0
 10
22.092512680706264
 20
28.174651055822558
 30
0.0
 10
21.84668208514072
 20
28.132350580596757
 30
0.0
 10
20.004459303361124
 20
29.470803777619953
 30
0.0
 10
19.96872361419993
 20
29.717674133152222
 30
0.0
 10
20.074841494936262
 20
30.104757949295298
 30
0.0
 10
20.321133108149745
 20
30.630097890072026
 30
0.0
 10
20.520440359413055
 20
31.146124484420604
 30
0.0
 10
20.73513603486881
 20
31.843212306798684
 30
0.0
 10
20.940678047791188
 20
32.72520176904419
 30
0.0
 10
21.11212134605972
 20
33.793375827062654
 30
0.0
 10
21.197691673012017
 20
34.74873022924673
 30
0.0
 10
20.371832715762597
 20
35.28504930699469
 30
0.0
 10
19.494437291273933
 20
35.732104605041634
 30
0.0
 10
18.70986127284851
 20
35.18032132700378
 30
0.0
 10
17.870517052068234
 20
34.49776004637956
 30
0.0
 10
17.20946277835454
 20
33.87876071052186
 30
0.0
 10
16.713114853234178
 20
33.34428489030541
 30
0.0
 10
16.36587633913172
 20
32.9136664503788
 30
0.0
 10
16.034064411403453
 20
32.437701686208186
 30
0.0
 10
15.75189893359757
 20
32.15225899762345
 30
0.0
 10
15.520235089684762
 20
32.059771834492665
 30
0.0
 10
13.439989228396364
 20
32.985956964432596
 30
0.0
 10
13.35370721675128
 20
33.22000274283275
 30
0.0
 10
13.377026916485983
 20
33.62069099688587
 30
0.0
 10
13.508712151690617
 20
34.18575790526371
 30
0.0
 10
13.59637609958473
 20
34.73194638804301
 30
0.0
 10
13.661447451620603
 20
35.45843890989815
 30
0.0
 10
13.679121958031715
 20
36.363889373706876
 30
0.0
 10
13.624732934404683
 20
37.4443663317461
 30
0.0
 10
13.509803995318798
 20
38.39663501945342
 30
0.0
 10
12.59048503146836
 20
38.749528506401646
 30
0.0
 10
11.639314779203973
 20
39.00439380736038
 30
0.0
 10
10.98660582348968
 20
38.30154579125673
 30
0.0
 10
10.307515757684987
 20
37.45939063613981
 30
0.0
 10
9.789604304430352
 20
36.71647700914467
 30
0.0
 10
9.41522654382708
 20
36.09048423160406
 30
0.0
 10
9.165106632317835
 20
35.597080891174016
 30
0.0
 10
8.939504230203958
 20
35.062529520139215
 30
0.0
 10
8.722851617093445
 20
34.724658937572016
 30
0.0
 10
8.515479346458822
 20
34.586027219367715
 30
0.0
 10
6.288127131927069
 20
35.05946554771667
 30
0.0
 10
6.155069735734009
 20
35.27045782539237
 30
0.0
 10
6.09457207168834
 20
35.667238517937854
 30
0.0
 10
6.105895652209819
 20
36.24733625852884
 30
0.0
 10
6.078084961553466
 20
36.79981557213827
 30
0.0
 10
5.990688059838502
 20
37.5239615841675
 30
0.0
 10
5.8197225989964885
 20
38.41330051943762
 30
0.0
 10
5.541878314793888
 20
39.45885834972763
 30
0.0
 10
5.23147305579811
 20
40.366422611813235
 30
0.0
 10
4.258872735448735
 20
40.520467369211254
 30
0.0
 10
3.2754983596538487
 20
40.5720038364505
 30
0.0
 10
2.7831829800604653
 20
39.74880891322374
 30
0.0
 10
2.2940265637426918
 20
38.78386610500153
 30
0.0
 10
1.9418931466692273
 20
37.94950707726372
 30
0.0
 10
1.7058476551852149
 20
37.25935623062409
 30
0.0
 10
1.5637777866106357
 20
36.72473208327932
 30
0.0
 10
1.4542448176439615
 20
36.15495656535662
 30
0.0
 10
1.3125738280363293
 20
35.779424654548095
 30
0.0
 10
1.1385562939891791
 20
35.60070725258459
 30
0.0
 10
-1.1385562939891494
 20
35.60070725258457
 30
0.0
 10
-1.3125738280363222
 20
35.77942465454811
 30
0.0
 10
-1.4542448176435658
 20
36.154956565356706
 30
0.0
 10
-1.5637777866106006
 20
36.724732083279214
 30
0.0
 10
-1.7058476551852322
 20
37.259356230624164
 30
0.0
 10
-1.9418931466692282
 20
37.949507077263725
 30
0.0
 10
-2.294026563742268
 20
38.78386610500224
 30
0.0
 10
-2.783182980055987
 20
39.748808913216244
 30
0.0
 10
-3.275498359653854
 20
40.57200383645049
 30
0.0
 10
-4.258872735448748
 20
40.520467369211254
 30
0.0
 10
-5.231473055798106
 20
40.36642261181325
 30
0.0
 10
-5.541878314791059
 20
39.4588583497359
 30
0.0
 10
-5.819722598995916
 20
38.41330051943701
 30
0.0
 10
-5.990688059838494
 20
37.52396158416751
 30
0.0
 10
-6.078084961553458
 20
36.7998155721382
 30
0.0
 10
-6.105895652209797
 20
36.24733625852897
 30
0.0
 10
-6.094572071687926
 20
35.66723851793786
 30
0.0
 10
-6.155069735733991
 20
35.27045782539237
 30
0.0
 10
-6.288127131927033
 20
35.059465547716705
 30
0.0
 10
-8.515479346458777
 20
34.58602721936771
 30
0.0
 10
-8.722851617093431
 20
34.72465893757204
 30
0.0
 10
-8.93950423020358
 20
35.062529520139385
 30
0.0
 10
-9.16510663231777
 20
35.597080891173924
 30
0.0
 10
-9.415226543827103
 20
36.09048423160414
 30
0.0
 10
-9.789604304430345
 20
36.716477009144675
 30
0.0
 10
-10.307515757684712
 20
37.459390636140604
 30
0.0
 10
-10.986605823483734
 20
38.301545791250334
 30
0.0
 10
-11.639314779203968
 20
39.00439380736039
 30
0.0
 10
-12.590485031468365
 20
38.749528506401646
 30
0.0
 10
-13.509803995318785
 20
38.39663501945343
 30
0.0
 10
-13.624732934403626
 20
37.44436633175477
 30
0.0
 10
-13.67912195803102
 20
36.36388937370639
 30
0.0
 10
-13.661447451620587
 20
35.458438909898156
 30
0.0
 10
-13.596376099584697
 20
34.731946388042935
 30
0.0
 10
-13.508712151690615
 20
34.18575790526384
 30
0.0
 10
-13.377026916485574
 20
33.62069099688596
 30
0.0
 10
-13.353707216751255
 20
33.220002742832754
 30
0.0
 10
-13.43998922839633
 20
32.98595696443263
 30
0.0
 10
-15.520235089684713
 20
32.059771834492665
 30
0.0
 10
-15.751898933597552
 20
32.15225899762346
 30
0.0
 10
-16.034064411403115
 20
32.437701686208435
 30
0.0
 10
-16.365876339131635
 20
32.91366645037873
 30
0.0
 10
-16.713114853234217
 20
33.34428489030549
 30
0.0
 10
-17.20946277835453
 20
33.878760710521874
 30
0.0
 10
-17.870517052068127
 20
34.49776004638039
 30
0.0
 10
-18.70986127284136
 20
35.18032132699876
 30
0.0
 10
-19.49443729127392
 20
35.732104605041634
 30
0.0
 10
-20.37183271576261
 20
35.28504930699469
 30
0.0
 10
-21.197691673012017
 20
34.748730229246746
 30
0.0
 10
-21.112121346060494
 20
33.79337582707135
 30
0.0
 10
-20.940678047790417
 20
32.72520176904387
 30
0.0
 10
-20.735136034868802
 20
31.84321230679869
 30
0.0
 10
-20.52044035941302
 20
31.14612448442054
 30
0.0
 10
-20.321133108149777
 20
30.630097890072143
 30
0.0
 10
-20.074841494935892
 20
30.10475794929547
 30
0.0
 10
-19.968723614199916
 20
29.71767413315223
 30
0.0
 10
-20.004459303361106
 20
29.47080377761999
 30
0.0
 10
-21.846682085140674
 20
28.13235058059677
 30
0.0
 10
-22.092512680706257
 20
28.17465105582258
 30
0.0
 10
-22.427859037846936
 20
28.395190635228012
 30
0.0
 10
-22.85137871773777
 20
28.79176684840748
 30
0.0
 10
-23.280559845132068
 20
29.14078029566946
 30
0.0
 10
-23.8771851487001
 20
29.560380000518702
 30
0.0
 10
-24.652490999021296
 20
30.028411803974436
 30
0.0
 10
-25.61540600470052
 20
30.521548006846007
 30
0.0
 10
-26.497559349026474
 20
30.898150969821298
 30
0.0
 10
-27.262833555478917
 20
30.27844413642014
 30
0.0
 10
-27.959138506784548
 20
29.582139185114507
 30
0.0
 10
-27.67680874769643
 20
28.66545264013649
 30
0.0
 10
-27.2870260223395
 20
27.65626581413352
 30
0.0
 10
-26.902599675171388
 20
26.836284525206516
 30
0.0
 10
-26.547662907537276
 20
26.199067485141846
 30
0.0
 10
-26.245423036167377
 20
25.735755617567506
 30
0.0
 10
-25.89528917028038
 20
25.273102520664697
 30
0.0
 10
-25.711010969141
 20
24.916540562631113
 30
0.0
 10
-25.6946385147231
 20
24.66763504911891
 30
0.0
 10
-27.21832424146441
 20
22.975410612333366
 30
0.0
 10
-27.467577612030436
 20
22.965675665906616
 30
0.0
 10
-27.84144860352884
 20
23.11167349824619
 30
0.0
 10
-28.33816619329785
 20
23.411528876935083
 30
0.0
 10
-28.830532659277182
 20
23.663683769134607
 30
0.0
 10
-29.501359952601174
 20
23.950068838052008
 30
0.0
 10
-30.3570327935407
 20
24.246677873428172
 30
0.0
 10
-31.40143457779889
 20
24.52883658015742
 30
0.0
 10
-32.342610913829795
 20
24.713799871441594
 30
0.0
 10
-32.96231774723096
 20
23.948525664989162
 30
0.0
 10
-33.49863682497891
 20
23.12266670773975
 30
0.0
 10
-33.03188679899484
 20
22.28471162072472
 30
0.0
 10
-32.440800022034196
 20
21.378618333658263
 30
0.0
 10
-31.894290616673104
 20
20.65648233508232
 30
0.0
 10
-31.41462519678185
 20
20.106985519688568
 30
0.0
 10
-31.02266203799198
 20
19.71663733071828
 30
0.0
 10
-30.583988449499827
 20
19.33689123807986
 30
0.0
 10
-30.329603769611744
 20
19.026434606696107
 30
0.0
 10
-30.26183872643656
 20
18.786372300525596
 30
0.0
 10
-31.400395020425712
 20
16.814334952059024
 30
0.0
 10
-31.64217759764808
 20
16.75299004785202
 30
0.0
 10
-32.03823326714365
 20
16.818065327277164
 30
0.0
 10
-32.58643982460251
 20
17.008094752561036
 30
0.0
 10
-33.12047285196714
 20
17.152370710935564
 30
0.0
 10
-33.83618376334233
 20
17.29302474218142
 30
0.0
 10
-34.7348265857773
 20
17.405247771344005
 30
0.0
 10
-35.81506977904658
 20
17.46409729249917
 30
0.0
 10
-36.774135184632755
 20
17.449337128710763
 30
0.0
 10
-37.221190482679724
 20
16.57194170422208
 30
0.0
 10
-37.574083969627914
 20
15.652622740371653
 30
0.0
 10
-36.94331289259853
 20
14.930021769576795
 30
0.0
 10
-36.17675539253638
 20
14.16662264600964
 30
0.0
 10
-35.492048012439675
 20
13.573892746115503
 30
0.0
 10
-34.90861762083059
 20
13.136131803003638
 30
0.0
 10
-34.44406184550776
 20
12.835807381593838
 30
0.0
 10
-33.93602067521698
 20
12.555565019692027
 30
0.0
 10
-33.622647347764435
 20
12.304782159485773
 30
0.0
 10
-33.50645137339149
 20
12.084054935383355
 30
0.0
 10
-34.2101178611819
 20
9.918392170248838
 30
0.0
 10
-34.433862586234454
 20
9.808118374940932
 30
0.0
 10
-34.8347934004843
 20
9.789426999474934
 30
0.0
 10
-35.41052966848511
 20
9.861325273606523
 30
0.0
 10
-35.96288945136444
 20
9.89141674646223
 30
0.0
 10
-36.69220397960175
 20
9.880192483938163
 30
0.0
 10
-37.59454178002504
 20
9.803124822006932
 30
0.0
 10
-38.663414571177604
 20
9.636093151122198
 30
0.0
 10
-39.59845328598852
 20
9.422254622245887
 30
0.0
 10
-39.85331858694728
 20
8.471084369981497
 30
0.0
 10
-40.00736334434527
 20
7.498484049632137
 30
0.0
 10
-39.240138939112185
 20
6.922818324905346
 30
0.0
 10
-38.33161295705225
 20
6.335477569732799
 30
0.0
 10
-37.538632600320696
 20
5.898058909379464
 30
0.0
 10
-36.87693594471671
 20
5.591166092373538
 30
0.0
 10
-36.36009086942849
 20
5.393991056856298
 30
0.0
 10
-35.804885954332796
 20
5.2255003616582565
 30
0.0
 10
-35.446219897457524
 20
5.045351687010195
 30
0.0
 10
-35.286671313537056
 20
4.853606383835876
 30
0.0
 10
-35.52469439304584
 20
2.5889680568727127
 30
0.0
 10
-35.72062254779749
 20
2.434584864471241
 30
0.0
 10
-36.10890590633938
 20
2.3329437369131347
 30
0.0
 10
-36.68700944728138
 20
2.2835685603066964
 30
0.0
 10
-37.233555212647275
 20
2.1981604058848796
 30
0.0
 10
-37.944598813223344
 20
2.035548403723183
 30
0.0
 10
-38.81119509985932
 20
1.772558277336198
 30
0.0
 10
-39.82198261890108
 20
1.3869454999361095
 30
0.0
 10
-40.69212896428594
 20
0.9833743757948987
 30
0.0
 10
-40.74366543152521
 20
-1.4929327848614153e-14
 30
0.0
 10
-40.69212896428594
 20
-0.9833743757948985
 30
0.0
 10
-39.821982618909004
 20
-1.3869454999324364
 30
0.0
 10
-38.81119509985865
 20
-1.7725582773356974
 30
0.0
 10
-37.944598813223344
 20
-2.0355484037231792
 30
0.0
 10
-37.2335552126472
 20
-2.198160405884885
 30
0.0
 10
-36.6870094472815
 20
-2.283568560306668
 30
0.0
 10
-36.108905906339345
 20
-2.332943736912728
 30
0.0
 10
-35.72062254779748
 20
-2.4345848644712285
 30
0.0
 10
-35.52469439304586
 20
-2.5889680568726807
 30
0.0
 10
-35.286671313537035
 20
-4.853606383835839
 30
0.0
 10
-35.44621989745753
 20
-5.045351687010183
 30
0.0
 10
-35.804885954332924
 20
-5.225500361657867
 30
0.0
 10
-36.36009086942838
 20
-5.393991056856248
 30
0.0
 10
-36.87693594471679
 20
-5.59116609237356
 30
0.0
 10
-37.538632600320696
 20
-5.898058909379462
 30
0.0
 10
-38.33161295705301
 20
-6.335477569732448
 30
0.0
 10
-39.2401389391052
 20
-6.922818324900105
 30
0.0
 10
-40.007363344345265
 20
-7.498484049632137
 30
0.0
 10
-39.85331858694728
 20
-8.471084369981504
 30
0.0
 10
-39.59845328598852
 20
-9.422254622245887
 30
0.0
 10
-38.66341457118612
 20
-9.636093151120248
 30
0.0
 10
-37.59454178002449
 20
-9.803124822006302
 30
0.0
 10
-36.69220397960174
 20
-9.880192483938158
 30
0.0
 10
-35.96288945136436
 20
-9.891416746462216
 30
0.0
 10
-35.41052966848522
 20
-9.861325273606518
 30
0.0
 10
-34.834793400484344
 20
-9.789426999474527
 30
0.0
 10
-34.43386258623445
 20
-9.808118374940916
 30
0.0
 10
-34.21011786118192
 20
-9.91839217024881
 30
0.0
 10
-33.506451373391485
 20
-12.084054935383314
 30
0.0
 10
-33.62264734776445
 20
-12.304782159485763
 30
0.0
 10
-33.936020675217186
 20
-12.55556501969167
 30
0.0
 10
-34.444061845507676
 20
-12.835807381593765
 30
0.0
 10
-34.908617620830654
 20
-13.13613180300367
 30
0.0
 10
-35.492048012439675
 20
-13.573892746115497
 30
0.0
 10
-36.176755392537196
 20
-14.166622646009452
 30
0.0
 10
-36.943312892592786
 20
-14.930021769570214
 30
0.0
 10
-37.574083969627914
 20
-15.65262274037165
 30
0.0
 10
-37.22119048267972
 20
-16.571941704222095
 30
0.0
 10
-36.77413518463276
 20
-17.449337128710752
 30
0.0
 10
-35.81506977905532
 20
-17.464097292499023
 30
0.0
 10
-34.7348265857769
 20
-17.405247771343262
 30
0.0
 10
-33.83618376334234
 20
-17.2930247421814
 30
0.0
 10
-33.12047285196708
 20
-17.152370710935525
 30
0.0
 10
-32.58643982460263
 20
-17.008094752561046
 30
0.0
 10
-32.038233267143795
 20
-16.81806532727677
 30
0.0
 10
-31.642177597648082
 20
-16.752990047851995
 30
0.0
 10
-31.400395020425755
 20
-16.814334952058996
 30
0.0
 10
-30.261838726436572
 20
-18.78637230052555
 30
0.0
 10
-30.329603769611765
 20
-19.02643460669609
 30
0.0
 10
-30.5839884495001
 20
-19.336891238079545
 30
0.0
 10
-31.022662037991918
 20
-19.716637330718186
 30
0.0
 10
-31.414625196781923
 20
-20.10698551968861
 30
0.0
 10
-31.894290616673118
 20
-20.656482335082313
 30
0.0
 10
-32.44080002203504
 20
-21.378618333658242
 30
0.0
 10
-33.031886798990605
 20
-22.284711620717083
 30
0.0
 10
-33.49863682497892
 20
-23.12266670773974
 30
0.0
 10
-32.962317747230976
 20
-23.94852566498916
 30
0.0
 10
-32.342610913829816
 20
-24.713799871441584
 30
0.0
 10
-31.401434577807475
 20
-24.528836580159094
 30
0.0
 10
-30.357032793540473
 20
-24.246677873427362
 30
0.0
 10
-29.50135995260119
 20
-23.950068838051994
 30
0.0
 10
-28.830532659277132
 20
-23.663683769134547
 30
0.0
 10
-28.338166193297976
 20
-23.411528876935108
 30
0.0
 10
-27.84144860352906
 20
-23.11167349824582
 30
0.0
 10
-27.467577612030453
 20
-22.965675665906588
 30
0.0
 10
-27.21832424146446
 20
-22.975410612333338
 30
0.0
 10
-25.694638514723124
 20
-24.667635049118857
 30
0.0
 10
-25.71101096914103
 20
-24.91654056263109
 30
0.0
 10
-25.895289170280723
 20
-25.273102520664438
 30
0.0
 10
-26.24542303616734
 20
-25.73575561756739
 30
0.0
 10
-26.54766290753734
 20
-26.199067485141892
 30
0.0
 10
-26.90259967517141
 20
-26.836284525206494
 30
0.0
 10
-27.28702602234034
 20
-27.65626581413366
 30
0.0
 10
-27.67680874769388
 20
-28.665452640128127
 30
0.0
 10
-27.959138506784555
 20
-29.582139185114485
 30
0.0
 10
-27.262833555478924
 20
-30.27844413642014
 30
0.0
 10
-26.497559349026492
 20
-30.898150969821288
 30
0.0
 10
-25.615406004708568
 20
-30.52154800684942
 30
0.0
 10
-24.65249099902124
 20
-30.02841180397359
 30
0.0
 10
-23.877185148700118
 20
-29.560380000518688
 30
0.0
 10
-23.28055984513202
 20
-29.140780295669394
 30
0.0
 10
-22.851378717737887
 20
-28.791766848407534
 30
0.0
 10
-22.42785903784723
 20
-28.395190635227703
 30
0.0
 10
-22.092512680706275
 20
-28.17465105582255
 30
0.0
 10
-21.846682085140735
 20
-28.13235058059675
 30
0.0
 10
-20.004459303361134
 20
-29.470803777619945
 30
0.0
 10
-19.96872361419994
 20
-29.71767413315222
 30
0.0
 10
-20.074841494936276
 20
-30.10475794929529
 30
0.0
 10
-20.32113310814976
 20
-30.63009789007202
 30
0.0
 10
-20.52044035941307
 20
-31.146124484420604
 30
0.0
 10
-20.735136034868823
 20
-31.843212306798677
 30
0.0
 10
-20.940678047791202
 20
-32.72520176904418
 30
0.0
 10
-21.112121346059734
 20
-33.79337582706265
 30
0.0
 10
-21.19769167301203
 20
-34.74873022924673
 30
0.0
 10
-20.371832715762604
 20
-35.28504930699469
 30
0.0
 10
-19.494437291273936
 20
-35.73210460504163
 30
0.0
 10
-18.709861272848514
 20
-35.18032132700378
 30
0.0
 10
-17.870517052068237
 20
-34.49776004637956
 30
0.0
 10
-17.209462778354546
 20
-33.87876071052186
 30
0.0
 10
-16.713114853234185
 20
-33.34428489030541
 30
0.0
 10
-16.365876339131724
 20
-32.9136664503788
 30
0.0
 10
-16.03406441140346
 20
-32.437701686208186
 30
0.0
 10
-15.751898933597573
 20
-32.15225899762345
 30
0.0
 10
-15.520235089684766
 20
-32.059771834492665
 30
0.0
 10
-13.43998922839637
 20
-32.985956964432596
 30
0.0
 10
-13.353707216751285
 20
-33.22000274283275
 30
0.0
 10
-13.377026916485987
 20
-33.62069099688587
 30
0.0
 10
-13.508712151690622
 20
-34.18575790526371
 30
0.0
 10
-13.596376099584733
 20
-34.73194638804301
 30
0.0
 10
-13.661447451620607
 20
-35.45843890989815
 30
0.0
 10
-13.679121958031718
 20
-36.363889373706876
 30
0.0
 10
-13.624732934404687
 20
-37.4443663317461
 30
0.0
 10
-13.509803995318803
 20
-38.39663501945342
 30
0.0
 10
-12.590485031468356
 20
-38.74952850640165
 30
0.0
 10
-11.63931477920397
 20
-39.00439380736039
 30
0.0
 10
-10.986605823489679
 20
-38.301545791256736
 30
0.0
 10
-10.307515757684984
 20
-37.459390636139815
 30
0.0
 10
-9.78960430443035
 20
-36.71647700914467
 30
0.0
 10
-9.415226543827076
 20
-36.09048423160406
 30
0.0
 10
-9.165106632317832
 20
-35.59708089117402
 30
0.0
 10
-8.939504230203957
 20
-35.06252952013922
 30
0.0
 10
-8.722851617093442
 20
-34.72465893757202
 30
0.0
 10
-8.515479346458818
 20
-34.586027219367715
 30
0.0
 10
-6.288127131927066
 20
-35.05946554771668
 30
0.0
 10
-6.155069735734006
 20
-35.27045782539237
 30
0.0
 10
-6.0945720716883365
 20
-35.667238517937854
 30
0.0
 10
-6.105895652209815
 20
-36.24733625852885
 30
0.0
 10
-6.078084961553462
 20
-36.79981557213828
 30
0.0
 10
-5.990688059838498
 20
-37.52396158416751
 30
0.0
 10
-5.819722598996485
 20
-38.41330051943763
 30
0.0
 10
-5.541878314793885
 20
-39.458858349727635
 30
0.0
 10
-5.231473055798107
 20
-40.36642261181324
 30
0.0
 10
-4.258872735448722
 20
-40.520467369211254
 30
0.0
 10
-3.2754983596538363
 20
-40.5720038364505
 30
0.0
 10
-2.783182980060453
 20
-39.74880891322374
 30
0.0
 10
-2.2940265637426793
 20
-38.78386610500153
 30
0.0
 10
-1.9418931466692153
 20
-37.949507077263725
 30
0.0
 10
-1.7058476551852029
 20
-37.25935623062409
 30
0.0
 10
-1.5637777866106242
 20
-36.72473208327933
 30
0.0
 10
-1.45424481764395
 20
-36.15495656535663
 30
0.0
 10
-1.3125738280363182
 20
-35.779424654548095
 30
0.0
 10
-1.138556293989168
 20
-35.60070725258459
 30
0.0
 10
1.1385562939891605
 20
-35.60070725258457
 30
0.0
 10
1.3125738280363337
 20
-35.77942465454811
 30
0.0
 10
1.4542448176435774
 20
-36.154956565356706
 30
0.0
 10
1.5637777866106122
 20
-36.724732083279214
 30
0.0
 10
1.7058476551852442
 20
-37.259356230624164
 30
0.0
 10
1.9418931466692406
 20
-37.949507077263725
 30
0.0
 10
2.2940265637422805
 20
-38.78386610500224
 30
0.0
 10
2.7831829800560004
 20
-39.748808913216244
 30
0.0
 10
3.2754983596538674
 20
-40.57200383645049
 30
0.0
 10
4.258872735448745
 20
-40.520467369211254
 30
0.0
 10
5.231473055798102
 20
-40.36642261181325
 30
0.0
 10
5.541878314791053
 20
-39.4588583497359
 30
0.0
 10
5.819722598995912
 20
-38.41330051943701
 30
0.0
 10
5.990688059838488
 20
-37.5239615841675
 30
0.0
 10
6.078084961553454
 20
-36.7998155721382
 30
0.0
 10
6.105895652209793
 20
-36.24733625852897
 30
0.0
 10
6.094572071687923
 20
-35.66723851793786
 30
0.0
 10
6.155069735733986
 20
-35.27045782539237
 30
0.0
 10
6.2881271319270295
 20
-35.059465547716705
 30
0.0
 10
8.515479346458774
 20
-34.58602721936771
 30
0.0
 10
8.722851617093427
 20
-34.72465893757204
 30
0.0
 10
8.939504230203575
 20
-35.062529520139385
 30
0.0
 10
9.165106632317766
 20
-35.597080891173924
 30
0.0
 10
9.4152265438271
 20
-36.09048423160414
 30
0.0
 10
9.78960430443034
 20
-36.716477009144675
 30
0.0
 10
10.307515757684707
 20
-37.459390636140604
 30
0.0
 10
10.98660582348373
 20
-38.301545791250334
 30
0.0
 10
11.639314779203962
 20
-39.00439380736039
 30
0.0
 10
12.590485031468377
 20
-38.74952850640164
 30
0.0
 10
13.5098039953188
 20
-38.396635019453434
 30
0.0
 10
13.624732934403637
 20
-37.44436633175478
 30
0.0
 10
13.67912195803103
 20
-36.36388937370639
 30
0.0
 10
13.6614474516206
 20
-35.45843890989815
 30
0.0
 10
13.596376099584708
 20
-34.731946388042935
 30
0.0
 10
13.508712151690625
 20
-34.185757905263834
 30
0.0
 10
13.377026916485585
 20
-33.62069099688596
 30
0.0
 10
13.353707216751268
 20
-33.22000274283275
 30
0.0
 10
13.439989228396342
 20
-32.98595696443263
 30
0.0
 10
15.520235089684723
 20
-32.059771834492665
 30
0.0
 10
15.751898933597563
 20
-32.15225899762346
 30
0.0
 10
16.034064411403126
 20
-32.43770168620843
 30
0.0
 10
16.365876339131646
 20
-32.91366645037872
 30
0.0
 10
16.713114853234227
 20
-33.34428489030548
 30
0.0
 10
17.209462778354542
 20
-33.87876071052187
 30
0.0
 10
17.870517052068138
 20
-34.49776004638039
 30
0.0
 10
18.70986127284137
 20
-35.18032132699876
 30
0.0
 10
19.494437291273933
 20
-35.73210460504163
 30
0.0
 10
20.37183271576259
 20
-35.2850493069947
 30
0.0
 10
21.197691673011995
 20
-34.74873022924675
 30
0.0
 10
21.112121346060476
 20
-33.793375827071365
 30
0.0
 10
20.9406780477904
 20
-32.725201769043885
 30
0.0
 10
20.735136034868788
 20
-31.8432123067987
 30
0.0
 10
20.520440359412998
 20
-31.14612448442055
 30
0.0
 10
20.32113310814976
 20
-30.630097890072154
 30
0.0
 10
20.074841494935875
 20
-30.104757949295482
 30
0.0
 10
19.9687236141999
 20
-29.71767413315224
 30
0.0
 10
20.004459303361088
 20
-29.470803777620002
 30
0.0
 10
21.84668208514066
 20
-28.13235058059678
 30
0.0
 10
22.092512680706236
 20
-28.174651055822586
 30
0.0
 10
22.42785903784692
 20
-28.395190635228026
 30
0.0
 10
22.851378717737752
 20
-28.79176684840749
 30
0.0
 10
23.28055984513205
 20
-29.140780295669476
 30
0.0
 10
23.877185148700086
 20
-29.560380000518713
 30
0.0
 10
24.652490999021282
 20
-30.028411803974446
 30
0.0
 10
25.615406004700503
 20
-30.52154800684602
 30
0.0
 10
26.497559349026456
 20
-30.89815096982131
 30
0.0
 10
27.262833555478917
 20
-30.27844413642015
 30
0.0
 10
27.959138506784548
 20
-29.58213918511451
 30
0.0
 10
27.676808747696427
 20
-28.665452640136493
 30
0.0
 10
27.2870260223395
 20
-27.65626581413352
 30
0.0
 10
26.902599675171388
 20
-26.83628452520652
 30
0.0
 10
26.547662907537276
 20
-26.199067485141853
 30
0.0
 10
26.245423036167377
 20
-25.735755617567506
 30
0.0
 10
25.89528917028038
 20
-25.2731025206647
 30
0.0
 10
25.711010969140997
 20
-24.916540562631116
 30
0.0
 10
25.694638514723096
 20
-24.667635049118914
 30
0.0
 10
27.21832424146441
 20
-22.97541061233337
 30
0.0
 10
27.467577612030436
 20
-22.965675665906623
 30
0.0
 10
27.841448603528836
 20
-23.111673498246194
 30
0.0
 10
28.33816619329785
 20
-23.411528876935087
 30
0.0
 10
28.830532659277182
 20
-23.66368376913461
 30
0.0
 10
29.501359952601174
 20
-23.95006883805201
 30
0.0
 10
30.3570327935407
 20
-24.246677873428172
 30
0.0
 10
31.40143457779889
 20
-24.528836580157424
 30
0.0
 10
32.342610913829795
 20
-24.713799871441598
 30
0.0
 10
32.96231774723098
 20
-23.948525664989155
 30
0.0
 10
33.49863682497892
 20
-23.122666707739743
 30
0.0
 10
33.031886798994854
 20
-22.284711620724714
 30
0.0
 10
32.44080002203421
 20
-21.378618333658256
 30
0.0
 10
31.894290616673114
 20
-20.656482335082313
 30
0.0
 10
31.414625196781856
 20
-20.106985519688557
 30
0.0
 10
31.022662037991992
 20
-19.716637330718275
 30
0.0
 10
30.583988449499834
 20
-19.336891238079854
 30
0.0
 10
30.32960376961175
 20
-19.026434606696096
 30
0.0
 10
30.26183872643657
 20
-18.78637230052559
 30
0.0
 10
31.40039502042572
 20
-16.814334952059017
 30
0.0
 10
31.642177597648086
 20
-16.752990047852013
 30
0.0
 10
32.03823326714367
 20
-16.818065327277157
 30
0.0
 10
32.586439824602515
 20
-17.00809475256103
 30
0.0
 10
33.12047285196716
 20
-17.152370710935553
 30
0.0
 10
33.83618376334235
 20
-17.29302474218141
 30
0.0
 10
34.734826585777306
 20
-17.405247771343998
 30
0.0
 10
35.81506977904659
 20
-17.464097292499158
 30
0.0
 10
36.77413518463276
 20
-17.449337128710752
 30
0.0
 10
37.22119048267971
 20
-16.571941704222102
 30
0.0
 10
37.57408396962791
 20
-15.652622740371674
 30
0.0
 10
36.94331289259853
 20
-14.930021769576816
 30
0.0
 10
36.17675539253638
 20
-14.166622646009662
 30
0.0
 10
35.492048012439675
 20
-13.573892746115524
 30
0.0
 10
34.908617620830576
 20
-13.136131803003655
 30
0.0
 10
34.44406184550776
 20
-12.835807381593858
 30
0.0
 10
33.93602067521698
 20
-12.555565019692047
 30
0.0
 10
33.622647347764435
 20
-12.304782159485793
 30
0.0
 10
33.506451373391485
 20
-12.084054935383373
 30
0.0
 10
34.210117861181885
 20
-9.918392170248858
 30
0.0
 10
34.43386258623445
 20
-9.808118374940952
 30
0.0
 10
34.834793400484294
 20
-9.789426999474953
 30
0.0
 10
35.410529668485104
 20
-9.861325273606544
 30
0.0
 10
35.96288945136443
 20
-9.89141674646225
 30
0.0
 10
36.69220397960174
 20
-9.880192483938185
 30
0.0
 10
37.59454178002504
 20
-9.803124822006954
 30
0.0
 10
38.663414571177604
 20
-9.63609315112222
 30
0.0
 10
39.59845328598851
 20
-9.422254622245909
 30
0.0
  0
LWPOLYLINE
  8
OpenJsCad
  90
267
  70
1
 10
36.41802558732904
 20
5.364886739357355
 30
0.0
 10
36.161471631451356
 20
4.533159242313301
 30
0.0
 10
36.03174572228998
 20
3.672484071236581
 30
0.0
 10
36.55870613090762
 20
3.152902958556174
 30
0.0
 10
37.63721711245756
 20
2.3686117727216995
 30
0.0
 10
38.48499022859052
 20
1.928169717789309
 30
0.0
 10
39.03111792433502
 20
1.7413830450166592
 30
0.0
 10
39.22692043358033
 20
1.7057633613878087
 30
0.0
 10
39.56261864236152
 20
1.6955721597361744
 30
0.0
 10
40.396620324260894
 20
1.4929757918753896
 30
0.0
 10
40.793665431525206
 20
1.1385562939891765
 30
0.0
 10
40.79366543152519
 20
-1.1385562939891543
 30
0.0
 10
40.396620324260915
 20
-1.4929757918755457
 30
0.0
 10
39.56261864236153
 20
-1.6955721597360376
 30
0.0
 10
39.22692043358032
 20
-1.705763361387818
 30
0.0
 10
39.031117924335
 20
-1.7413830450166397
 30
0.0
 10
38.484990228590505
 20
-1.928169717789288
 30
0.0
 10
37.63721711245772
 20
-2.3686117727221006
 30
0.0
 10
36.55870613090596
 20
-3.152902958557801
 30
0.0
 10
36.03174572228998
 20
-3.6724840712365743
 30
0.0
 10
36.161471631451356
 20
-4.53315924231329
 30
0.0
 10
36.41802558732904
 20
-5.364886739357361
 30
0.0
 10
37.11823830605529
 20
-5.604373593774574
 30
0.0
 10
38.43023431638947
 20
-5.843047158227469
 30
0.0
 10
39.38515214672858
 20
-5.87203676828541
 30
0.0
 10
39.95823989849358
 20
-5.803369818727365
 30
0.0
 10
40.150106665099855
 20
-5.750506519921536
 30
0.0
 10
40.45698209690103
 20
-5.614034481295124
 30
0.0
 10
41.29629491768969
 20
-5.434707733314965
 30
0.0
 10
41.80779705544685
 20
-5.581757251349879
 30
0.0
 10
42.79579917951054
 20
-7.633364801827069
 30
0.0
 10
42.59185075567156
 20
-8.12495715133847
 30
0.0
 10
41.928344474120905
 20
-8.66934993970372
 30
0.0
 10
41.6303126356772
 20
-8.82418588915955
 30
0.0
 10
41.46935547210905
 20
-8.941233640033609
 30
0.0
 10
41.05835512034391
 20
-9.346478543806116
 30
0.0
 10
40.485638581322505
 20
-10.111138092966588
 30
0.0
 10
39.854224955520834
 20
-11.285708412129846
 30
0.0
 10
39.60488782868463
 20
-11.982474371460736
 30
0.0
 10
40.09519979559177
 20
-12.701629943450088
 30
0.0
 10
40.68721995911914
 20
-13.339675935203587
 30
0.0
 10
41.421999271464855
 20
-13.251635222726755
 30
0.0
 10
42.707623410161474
 20
-12.897418939219
 30
0.0
 10
43.58055276710943
 20
-12.509214356596281
 30
0.0
 10
44.06709351719785
 20
-12.19869411621238
 30
0.0
 10
44.217022974947234
 20
-12.06781805962618
 30
0.0
 10
44.43429518691998
 20
-11.811712741691398
 30
0.0
 10
45.1126829489445
 20
-11.285980739606
 30
0.0
 10
45.63733284564966
 20
-11.196535317298812
 30
0.0
 10
47.41765115605536
 20
-12.616291793587461
 30
0.0
 10
47.44719390224627
 20
-13.147691100918626
 30
0.0
 10
47.08559857747598
 20
-13.926056641513494
 30
0.0
 10
46.884261970094194
 20
-14.194870180045342
 30
0.0
 10
46.79002969245795
 20
-14.37016325560757
 30
0.0
 10
46.59556034492776
 20
-14.913602667185208
 30
0.0
 10
46.41133391747835
 20
-15.851029508928162
 30
0.0
 10
46.35207685979672
 20
-17.18324090454907
 30
0.0
 10
46.42974729062938
 20
-17.919188667012886
 30
0.0
 10
47.18353301695468
 20
-18.354387059018094
 30
0.0
 10
47.993762534094316
 20
-18.67237871169368
 30
0.0
 10
48.61757638577254
 20
-18.274247975177317
 30
0.0
 10
49.622195025017376
 20
-17.397298722835252
 30
0.0
 10
50.24024154365465
 20
-16.66878862613707
 30
0.0
 10
50.54386992948075
 20
-16.177917436816173
 30
0.0
 10
50.62216671050186
 20
-15.994950230546003
 30
0.0
 10
50.70680227639616
 20
-15.669936432445432
 30
0.0
 10
51.089901963507685
 20
-14.901926846947688
 30
0.0
 10
51.523786272709664
 20
-14.593702247162454
 30
0.0
 10
53.74380689391032
 20
-15.100407466963086
 30
0.0
 10
54.00098950693
 20
-15.566363582112261
 30
0.0
 10
54.01292352768646
 20
-16.42453703359504
 30
0.0
 10
53.948159335689994
 20
-16.754086343114974
 30
0.0
 10
53.93931580225456
 20
-16.952905799921787
 30
0.0
 10
53.99989449824772
 20
-17.52690487899459
 30
0.0
 10
54.240646485715516
 20
-18.451430130527104
 30
0.0
 10
54.76528258316788
 20
-19.677421797202392
 30
0.0
 10
55.154576990277675
 20
-20.306787882636183
 30
0.0
 10
56.022539968347154
 20
-20.371832715762604
 30
0.0
 10
56.89050294641663
 20
-20.306787882636186
 30
0.0
 10
57.279797353527655
 20
-19.67742179720041
 30
0.0
 10
57.80443345097923
 20
-18.451430130527164
 30
0.0
 10
58.04518543844658
 20
-17.52690487899459
 30
0.0
 10
58.10576413443973
 20
-16.95290579992177
 30
0.0
 10
58.09692060100433
 20
-16.754086343114956
 30
0.0
 10
58.032156409007726
 20
-16.42453703359507
 30
0.0
 10
58.04409042976448
 20
-15.566363582112249
 30
0.0
 10
58.301273042783976
 20
-15.100407466963079
 30
0.0
 10
60.521293663984636
 20
-14.593702247162472
 30
0.0
 10
60.95517797318678
 20
-14.901926846947633
 30
0.0
 10
61.33827766029802
 20
-15.66993643244546
 30
0.0
 10
61.42291322619247
 20
-15.994950230546014
 30
0.0
 10
61.50121000721356
 20
-16.177917436816198
 30
0.0
 10
61.80483839303965
 20
-16.66878862613708
 30
0.0
 10
62.4228849116773
 20
-17.397298722835014
 30
0.0
 10
63.427503550923745
 20
-18.27424797517857
 30
0.0
 10
64.05131740259999
 20
-18.672378711693685
 30
0.0
 10
64.86154691973964
 20
-18.3543870590181
 30
0.0
 10
65.61533264606494
 20
-17.919188667012886
 30
0.0
 10
65.69300307689785
 20
-17.183240904546754
 30
0.0
 10
65.63374601921639
 20
-15.85102950892803
 30
0.0
 10
65.44951959176655
 20
-14.91360266718521
 30
0.0
 10
65.25505024423634
 20
-14.370163255607565
 30
0.0
 10
65.16081796660013
 20
-14.194870180045323
 30
0.0
 10
64.95948135921824
 20
-13.92605664151358
 30
0.0
 10
64.59788603444818
 20
-13.147691100918545
 30
0.0
 10
64.62742878063894
 20
-12.616291793587465
 30
0.0
 10
66.40774709104466
 20
-11.196535317298837
 30
0.0
 10
66.93239698774993
 20
-11.285980739605886
 30
0.0
 10
67.61078474977424
 20
-11.811712741691474
 30
0.0
 10
67.82805696174711
 20
-12.067818059626184
 30
0.0
 10
67.97798641949647
 20
-12.198694116212401
 30
0.0
 10
68.46452716958488
 20
-12.509214356596296
 30
0.0
 10
69.33745652653307
 20
-12.897418939218628
 30
0.0
 10
70.62308066523177
 20
-13.25163522272703
 30
0.0
 10
71.35785997757517
 20
-13.339675935203587
 30
0.0
 10
71.94988014110254
 20
-12.7016299434501
 30
0.0
 10
72.44019210800968
 20
-11.982474371460745
 30
0.0
 10
72.19085498117269
 20
-11.285708412127661
 30
0.0
 10
71.55944135537212
 20
-10.111138092966296
 30
0.0
 10
70.98672481635039
 20
-9.346478543806134
 30
0.0
 10
70.57572446458525
 20
-8.941233640033621
 30
0.0
 10
70.41476730101711
 20
-8.824185889159537
 30
0.0
 10
70.11673546257336
 20
-8.669349939703846
 30
0.0
 10
69.45322918102285
 20
-8.124957151338341
 30
0.0
 10
69.24928075718375
 20
-7.633364801827085
 30
0.0
 10
70.23728288124747
 20
-5.5817572513499085
 30
0.0
 10
70.74878501900467
 20
-5.434707733314818
 30
0.0
 10
71.58809783979322
 20
-5.6140344812952465
 30
0.0
 10
71.89497327159448
 20
-5.7505065199215375
 30
0.0
 10
72.08684003820075
 20
-5.80336981872739
 30
0.0
 10
72.65992778996574
 20
-5.872036768285433
 30
0.0
 10
73.61484562030488
 20
-5.843047158227044
 30
0.0
 10
74.92684163064122
 20
-5.60437359377383
 30
0.0
 10
75.62705434936528
 20
-5.36488673935737
 30
0.0
 10
75.88360830524297
 20
-4.533159242313303
 30
0.0
 10
76.01333421440434
 20
-3.6724840712365827
 30
0.0
 10
75.4863738057867
 20
-3.152902958556176
 30
0.0
 10
74.40786282423676
 20
-2.3686117727217013
 30
0.0
 10
73.5600897081038
 20
-1.9281697177893107
 30
0.0
 10
73.0139620123593
 20
-1.741383045016661
 30
0.0
 10
72.81815950311399
 20
-1.7057633613878105
 30
0.0
 10
72.48246129433281
 20
-1.6955721597361761
 30
0.0
 10
71.64845961243343
 20
-1.4929757918753914
 30
0.0
 10
71.25141450516912
 20
-1.1385562939891782
 30
0.0
 10
71.25141450516912
 20
1.1385562939891525
 30
0.0
 10
71.64845961243341
 20
1.4929757918755442
 30
0.0
 10
72.4824612943328
 20
1.6955721597360356
 30
0.0
 10
72.818159503114
 20
1.7057633613878158
 30
0.0
 10
73.01396201235931
 20
1.7413830450166374
 30
0.0
 10
73.56008970810382
 20
1.9281697177892858
 30
0.0
 10
74.4078628242366
 20
2.3686117727220983
 30
0.0
 10
75.48637380578836
 20
3.1529029585577986
 30
0.0
 10
76.01333421440434
 20
3.672484071236572
 30
0.0
 10
75.88360830524297
 20
4.533159242313288
 30
0.0
 10
75.62705434936528
 20
5.3648867393573605
 30
0.0
 10
74.92684163063903
 20
5.6043735937745724
 30
0.0
 10
73.61484562030485
 20
5.843047158227467
 30
0.0
 10
72.65992778996574
 20
5.872036768285408
 30
0.0
 10
72.08684003820073
 20
5.803369818727363
 30
0.0
 10
71.89497327159447
 20
5.750506519921534
 30
0.0
 10
71.58809783979329
 20
5.614034481295121
 30
0.0
 10
70.74878501900463
 20
5.434707733314963
 30
0.0
 10
70.23728288124747
 20
5.581757251349877
 30
0.0
 10
69.24928075718378
 20
7.633364801827067
 30
0.0
 10
69.45322918102276
 20
8.124957151338469
 30
0.0
 10
70.11673546257342
 20
8.669349939703718
 30
0.0
 10
70.41476730101712
 20
8.824185889159548
 30
0.0
 10
70.57572446458526
 20
8.941233640033605
 30
0.0
 10
70.9867248163504
 20
9.346478543806114
 30
0.0
 10
71.55944135537182
 20
10.111138092966584
 30
0.0
 10
72.19085498117349
 20
11.285708412129843
 30
0.0
 10
72.44019210800968
 20
11.982474371460736
 30
0.0
 10
71.94988014110254
 20
12.7016299434501
 30
0.0
 10
71.35785997757517
 20
13.339675935203601
 30
0.0
 10
70.62308066522945
 20
13.251635222726765
 30
0.0
 10
69.33745652653283
 20
12.897418939219012
 30
0.0
 10
68.46452716958488
 20
12.509214356596289
 30
0.0
 10
67.97798641949646
 20
12.198694116212389
 30
0.0
 10
67.82805696174708
 20
12.067818059626187
 30
0.0
 10
67.61078474977433
 20
11.811712741691405
 30
0.0
 10
66.93239698774981
 20
11.285980739606009
 30
0.0
 10
66.40774709104466
 20
11.196535317298821
 30
0.0
 10
64.62742878063895
 20
12.616291793587468
 30
0.0
 10
64.59788603444804
 20
13.147691100918633
 30
0.0
 10
64.95948135921833
 20
13.926056641513497
 30
0.0
 10
65.16081796660012
 20
14.19487018004535
 30
0.0
 10
65.25505024423636
 20
14.370163255607576
 30
0.0
 10
65.44951959176655
 20
14.913602667185213
 30
0.0
 10
65.63374601921596
 20
15.851029508928168
 30
0.0
 10
65.6930030768976
 20
17.183240904549077
 30
0.0
 10
65.61533264606493
 20
17.919188667012893
 30
0.0
 10
64.86154691973962
 20
18.3543870590181
 30
0.0
 10
64.05131740259999
 20
18.672378711693685
 30
0.0
 10
63.42750355092177
 20
18.27424797517732
 30
0.0
 10
62.42288491167693
 20
17.397298722835256
 30
0.0
 10
61.80483839303966
 20
16.66878862613707
 30
0.0
 10
61.50121000721356
 20
16.177917436816177
 30
0.0
 10
61.42291322619245
 20
15.994950230546003
 30
0.0
 10
61.33827766029815
 20
15.669936432445436
 30
0.0
 10
60.95517797318662
 20
14.90192684694769
 30
0.0
 10
60.52129366398465
 20
14.593702247162458
 30
0.0
 10
58.30127304278399
 20
15.100407466963087
 30
0.0
 10
58.04409042976431
 20
15.566363582112263
 30
0.0
 10
58.03215640900785
 20
16.424537033595037
 30
0.0
 10
58.096920601004314
 20
16.754086343114977
 30
0.0
 10
58.105764134439745
 20
16.952905799921783
 30
0.0
 10
58.04518543844659
 20
17.526904878994593
 30
0.0
 10
57.8044334509788
 20
18.451430130527104
 30
0.0
 10
57.279797353526426
 20
19.677421797202385
 30
0.0
 10
56.890502946416625
 20
20.306787882636183
 30
0.0
 10
56.022539968347154
 20
20.371832715762608
 30
0.0
 10
55.154576990277675
 20
20.306787882636186
 30
0.0
 10
54.76528258316665
 20
19.67742179720041
 30
0.0
 10
54.240646485715075
 20
18.45143013052716
 30
0.0
 10
53.99989449824773
 20
17.526904878994586
 30
0.0
 10
53.939315802254576
 20
16.952905799921773
 30
0.0
 10
53.94815933568998
 20
16.754086343114956
 30
0.0
 10
54.01292352768658
 20
16.42453703359507
 30
0.0
 10
54.000989506929834
 20
15.566363582112247
 30
0.0
 10
53.74380689391034
 20
15.100407466963079
 30
0.0
 10
51.52378627270967
 20
14.593702247162469
 30
0.0
 10
51.08990196350753
 20
14.90192684694763
 30
0.0
 10
50.70680227639629
 20
15.669936432445454
 30
0.0
 10
50.62216671050184
 20
15.994950230546015
 30
0.0
 10
50.543869929480756
 20
16.177917436816195
 30
0.0
 10
50.240241543654655
 20
16.668788626137076
 30
0.0
 10
49.62219502501701
 20
17.397298722835018
 30
0.0
 10
48.61757638577056
 20
18.274247975178564
 30
0.0
 10
47.993762534094316
 20
18.67237871169368
 30
0.0
 10
47.18353301695469
 20
18.354387059018105
 30
0.0
 10
46.42974729062939
 20
17.919188667012893
 30
0.0
 10
46.35207685979648
 20
17.18324090454676
 30
0.0
 10
46.41133391747795
 20
15.851029508928033
 30
0.0
 10
46.59556034492779
 20
14.913602667185215
 30
0.0
 10
46.79002969245798
 20
14.370163255607572
 30
0.0
 10
46.8842619700942
 20
14.194870180045328
 30
0.0
 10
47.08559857747609
 20
13.926056641513584
 30
0.0
 10
47.44719390224614
 20
13.147691100918548
 30
0.0
 10
47.41765115605539
 20
12.616291793587468
 30
0.0
 10
45.637332845649674
 20
11.196535317298842
 30
0.0
 10
45.112682948944396
 20
11.285980739605892
 30
0.0
 10
44.434295186920096
 20
11.811712741691482
 30
0.0
 10
44.21702297494722
 20
12.067818059626191
 30
0.0
 10
44.06709351719785
 20
12.198694116212407
 30
0.0
 10
43.58055276710944
 20
12.509214356596303
 30
0.0
 10
42.70762341016126
 20
12.897418939218634
 30
0.0
 10
41.42199927146255
 20
13.251635222727039
 30
0.0
 10
40.68721995911915
 20
13.339675935203594
 30
0.0
 10
40.09519979559177
 20
12.701629943450087
 30
0.0
 10
39.604887828684625
 20
11.982474371460732
 30
0.0
 10
39.854224955521616
 20
11.28570841212765
 30
0.0
 10
40.48563858132219
 20
10.111138092966284
 30
0.0
 10
41.05835512034392
 20
9.346478543806121
 30
0.0
 10
41.46935547210907
 20
8.941233640033609
 30
0.0
 10
41.63031263567721
 20
8.824185889159526
 30
0.0
 10
41.928344474120955
 20
8.669349939703835
 30
0.0
 10
42.59185075567147
 20
8.124957151338332
 30
0.0
 10
42.79579917951055
 20
7.633364801827076
 30
0.0
 10
41.80779705544685
 20
5.581757251349896
 30
0.0
 10
41.29629491768964
 20
5.434707733314806
 30
0.0
 10
40.45698209690109
 20
5.614034481295235
 30
0.0
 10
40.150106665099834
 20
5.750506519921525
 30
0.0
 10
39.958239898493574
 20
5.803369818727379
 30
0.0
 10
39.38515214672858
 20
5.872036768285421
 30
0.0
 10
38.430234316389445
 20
5.84304715822703
 30
0.0
 10
37.118238306053094
 20
5.604373593773814
 30
0.0
 10
36.41802558732904
 20
5.364886739357355
 30
0.0
  0
ENDSEC
  0
EOF
