999
DXF generated by OpenJsCad
  0
SECTION
  2
HEADER
  0
ENDSEC
  0
SECTION
  2
TABLES
  0
TABLE
  2
LTYPE
  70
1
  0
LTYPE
  2
CONTINUOUS
  3
Solid Line
  72
65
  73
0
  40
0.0
  0
ENDTAB
  0
TABLE
  2
LAYER
  70
1
  0
LAYER
  2
OpenJsCad
  62
7
  6
continuous
  0
ENDTAB
  0
TABLE
  2
STYLE
  70
0
  0
ENDTAB
  0
TABLE
  2
VIEW
  70
0
  0
ENDTAB
  0
ENDSEC
  0
SECTION
  2
BLOCKS
  0
ENDSEC
  0
SECTION
  2
ENTITIES
  0
LWPOLYLINE
  8
OpenJsCad
  90
381
  70
1
 10
26.280794545155107
 20
-9.523883451586096
 30
0.0
 10
26.640300848151124
 20
-8.6559584591345
 30
0.0
 10
26.85960765010154
 20
-7.74247988739117
 30
0.0
 10
26.27070284635001
 20
-7.135165080233106
 30
0.0
 10
25.356220508541686
 20
-6.371034733203745
 30
0.0
 10
24.586432704391544
 20
-5.8541151922644525
 30
0.0
 10
24.000595778963696
 20
-5.544169757986571
 30
0.0
 10
23.63098394965083
 20
-5.395723708360466
 30
0.0
 10
23.17568411102707
 20
-5.2661851615271535
 30
0.0
 10
22.637821596318798
 20
-4.996843000825778
 30
0.0
 10
22.408655494354424
 20
-4.701930900309027
 30
0.0
 10
22.764874383891094
 20
-2.452853346940511
 30
0.0
 10
23.073957149384828
 20
-2.2431914920514777
 30
0.0
 10
23.668726103827414
 20
-2.153240532685363
 30
0.0
 10
24.14177159461666
 20
-2.170737441279176
 30
0.0
 10
24.539165685466823
 20
-2.1437731950436536
 30
0.0
 10
25.192108117402064
 20
-2.0300311359673224
 30
0.0
 10
26.08395674757863
 20
-1.7762889517015832
 30
0.0
 10
27.189810397138167
 20
-1.3321483892987869
 30
0.0
 10
27.93756274457033
 20
-0.9365392769371835
 30
0.0
 10
28.011269984173577
 20
-6.116123309172532e-17
 30
0.0
 10
27.93756274457033
 20
0.936539276937184
 30
0.0
 10
27.18981039713753
 20
1.332148389299128
 30
0.0
 10
26.083956747578398
 20
1.776288951701775
 30
0.0
 10
25.19210811740213
 20
2.030031135967422
 30
0.0
 10
24.53916568546687
 20
2.143773195043757
 30
0.0
 10
24.141771594616802
 20
2.170737441279251
 30
0.0
 10
23.668726103827417
 20
2.153240532685565
 30
0.0
 10
23.07395714938482
 20
2.243191492051523
 30
0.0
 10
22.764874383891154
 20
2.4528533469406164
 30
0.0
 10
22.40865549435433
 20
4.701930900309109
 30
0.0
 10
22.637821596318787
 20
4.996843000825823
 30
0.0
 10
23.175684111027003
 20
5.2661851615273445
 30
0.0
 10
23.63098394965067
 20
5.395723708360494
 30
0.0
 10
24.00059577896362
 20
5.544169757986656
 30
0.0
 10
24.58643270439145
 20
5.854115192264526
 30
0.0
 10
25.356220508541846
 20
6.371034733204
 30
0.0
 10
26.27070284635051
 20
7.135165080233627
 30
0.0
 10
26.85960765010154
 20
7.742479887391169
 30
0.0
 10
26.640300848151124
 20
8.655958459134501
 30
0.0
 10
26.280794545155114
 20
9.52388345158609
 30
0.0
 10
25.44738986370472
 20
9.669061892863164
 30
0.0
 10
24.25841356254907
 20
9.749737097881868
 30
0.0
 10
23.331804464143122
 20
9.71546387255219
 30
0.0
 10
22.6756710802557
 20
9.621868691197067
 30
0.0
 10
22.289394430288276
 20
9.524711685749468
 30
0.0
 10
21.844908275873465
 20
9.361892041050062
 30
0.0
 10
21.251453010956368
 20
9.263646772452677
 30
0.0
 10
20.892708756526186
 20
9.36753521855753
 30
0.0
 10
19.858921274746674
 20
11.396457390757543
 30
0.0
 10
19.985738338427453
 20
11.747751685729936
 30
0.0
 10
20.41404468295316
 20
12.17011996046022
 30
0.0
 10
20.807030948946252
 20
12.434013827208174
 30
0.0
 10
21.112680335631794
 20
12.689410746603121
 30
0.0
 10
21.574065954525462
 20
13.16521993745859
 30
0.0
 10
22.146440738952442
 20
13.894717148814422
 30
0.0
 10
22.78003586221242
 20
14.904038878094434
 30
0.0
 10
23.15244701695013
 20
15.663611175312264
 30
0.0
 10
22.66159345122129
 20
16.464611394680045
 30
0.0
 10
22.051479066597466
 20
17.178963557195875
 30
0.0
 10
21.214001508021703
 20
17.059500250038198
 30
0.0
 10
20.058287839711646
 20
16.768813046508523
 30
0.0
 10
19.187621227693203
 20
16.449879313674398
 30
0.0
 10
18.59252379901862
 20
16.158108640354822
 30
0.0
 10
18.255176039780327
 20
15.946340787850007
 30
0.0
 10
17.882758623451352
 20
15.654136328299233
 30
0.0
 10
17.34870858423581
 20
15.377311763143853
 30
0.0
 10
16.97541922801093
 20
15.365257475526354
 30
0.0
 10
15.365257475526228
 20
16.97541922801094
 30
0.0
 10
15.377311763143814
 20
17.348708584235837
 30
0.0
 10
15.654136328299064
 20
17.882758623451465
 30
0.0
 10
15.946340787849858
 20
18.255176039780256
 30
0.0
 10
16.158108640354712
 20
18.592523799018643
 30
0.0
 10
16.449879313674277
 20
19.187621227693203
 30
0.0
 10
16.768813046508505
 20
20.058287839711944
 30
0.0
 10
17.0595002500383
 20
21.214001508022417
 30
0.0
 10
17.17896355719588
 20
22.051479066597462
 30
0.0
 10
16.46461139468005
 20
22.66159345122129
 30
0.0
 10
15.663611175312262
 20
23.152447016950127
 30
0.0
 10
14.904038878093784
 20
22.7800358622121
 30
0.0
 10
13.894717148814129
 20
22.146440738952364
 30
0.0
 10
13.165219937458549
 20
21.574065954525576
 30
0.0
 10
12.689410746603064
 20
21.112680335631886
 30
0.0
 10
12.434013827208195
 20
20.80703094894641
 30
0.0
 10
12.170119960460056
 20
20.414044682953282
 30
0.0
 10
11.747751685729895
 20
19.98573833842747
 30
0.0
 10
11.396457390757496
 20
19.858921274746784
 30
0.0
 10
9.367535218557409
 20
20.892708756526158
 30
0.0
 10
9.263646772452635
 20
21.251453010956382
 30
0.0
 10
9.361892041049868
 20
21.84490827587352
 30
0.0
 10
9.52471168574935
 20
22.289394430288162
 30
0.0
 10
9.621868691196953
 20
22.675671080255682
 30
0.0
 10
9.715463872552077
 20
23.331804464143083
 30
0.0
 10
9.749737097881754
 20
24.258413562549343
 30
0.0
 10
9.669061892863036
 20
25.447389863705432
 30
0.0
 10
9.523883451586089
 20
26.280794545155107
 30
0.0
 10
8.655958459134501
 20
26.640300848151124
 30
0.0
 10
7.7424798873911715
 20
26.85960765010154
 30
0.0
 10
7.135165080233108
 20
26.27070284635001
 30
0.0
 10
6.3710347332037465
 20
25.356220508541686
 30
0.0
 10
5.854115192264454
 20
24.586432704391544
 30
0.0
 10
5.544169757986573
 20
24.000595778963696
 30
0.0
 10
5.395723708360467
 20
23.63098394965083
 30
0.0
 10
5.266185161527155
 20
23.17568411102707
 30
0.0
 10
4.99684300082578
 20
22.637821596318798
 30
0.0
 10
4.701930900309029
 20
22.408655494354424
 30
0.0
 10
2.4528533469405125
 20
22.764874383891094
 30
0.0
 10
2.243191492051479
 20
23.073957149384828
 30
0.0
 10
2.1532405326853645
 20
23.668726103827414
 30
0.0
 10
2.170737441279177
 20
24.14177159461666
 30
0.0
 10
2.143773195043655
 20
24.539165685466823
 30
0.0
 10
2.0300311359673238
 20
25.192108117402064
 30
0.0
 10
1.7762889517015847
 20
26.08395674757863
 30
0.0
 10
1.3321483892987884
 20
27.189810397138167
 30
0.0
 10
0.9365392769371852
 20
27.93756274457033
 30
0.0
 10
1.8375180724919756e-15
 20
28.01126998417358
 30
0.0
 10
-0.9365392769371813
 20
27.937562744570332
 30
0.0
 10
-1.3321483892991253
 20
27.18981039713753
 30
0.0
 10
-1.7762889517017733
 20
26.0839567475784
 30
0.0
 10
-2.0300311359674192
 20
25.19210811740213
 30
0.0
 10
-2.1437731950437553
 20
24.53916568546687
 30
0.0
 10
-2.170737441279249
 20
24.141771594616806
 30
0.0
 10
-2.153240532685563
 20
23.668726103827417
 30
0.0
 10
-2.2431914920515212
 20
23.073957149384825
 30
0.0
 10
-2.4528533469406146
 20
22.764874383891158
 30
0.0
 10
-4.701930900309106
 20
22.40865549435433
 30
0.0
 10
-4.996843000825821
 20
22.63782159631879
 30
0.0
 10
-5.266185161527344
 20
23.175684111027007
 30
0.0
 10
-5.395723708360491
 20
23.63098394965067
 30
0.0
 10
-5.544169757986655
 20
24.00059577896362
 30
0.0
 10
-5.8541151922645245
 20
24.586432704391452
 30
0.0
 10
-6.371034733203998
 20
25.35622050854185
 30
0.0
 10
-7.135165080233627
 20
26.270702846350513
 30
0.0
 10
-7.742479887391169
 20
26.859607650101545
 30
0.0
 10
-8.655958459134498
 20
26.640300848151124
 30
0.0
 10
-9.523883451586087
 20
26.28079454515511
 30
0.0
 10
-9.66906189286316
 20
25.44738986370472
 30
0.0
 10
-9.749737097881866
 20
24.25841356254907
 30
0.0
 10
-9.71546387255219
 20
23.331804464143122
 30
0.0
 10
-9.621868691197063
 20
22.675671080255697
 30
0.0
 10
-9.524711685749464
 20
22.289394430288276
 30
0.0
 10
-9.36189204105006
 20
21.844908275873465
 30
0.0
 10
-9.263646772452676
 20
21.251453010956368
 30
0.0
 10
-9.367535218557526
 20
20.892708756526186
 30
0.0
 10
-11.396457390757542
 20
19.858921274746674
 30
0.0
 10
-11.747751685729932
 20
19.985738338427453
 30
0.0
 10
-12.170119960460216
 20
20.41404468295316
 30
0.0
 10
-12.43401382720817
 20
20.807030948946252
 30
0.0
 10
-12.68941074660312
 20
21.112680335631794
 30
0.0
 10
-13.165219937458588
 20
21.574065954525462
 30
0.0
 10
-13.894717148814419
 20
22.146440738952442
 30
0.0
 10
-14.90403887809443
 20
22.78003586221242
 30
0.0
 10
-15.66361117531226
 20
23.15244701695013
 30
0.0
 10
-16.464611394680045
 20
22.661593451221293
 30
0.0
 10
-17.17896355719587
 20
22.051479066597466
 30
0.0
 10
-17.059500250038198
 20
21.214001508021703
 30
0.0
 10
-16.76881304650852
 20
20.05828783971165
 30
0.0
 10
-16.449879313674394
 20
19.187621227693207
 30
0.0
 10
-16.15810864035482
 20
18.592523799018622
 30
0.0
 10
-15.946340787850001
 20
18.25517603978033
 30
0.0
 10
-15.654136328299229
 20
17.882758623451355
 30
0.0
 10
-15.377311763143847
 20
17.34870858423581
 30
0.0
 10
-15.365257475526349
 20
16.97541922801093
 30
0.0
 10
-16.975419228010935
 20
15.36525747552623
 30
0.0
 10
-17.348708584235833
 20
15.377311763143817
 30
0.0
 10
-17.882758623451465
 20
15.654136328299066
 30
0.0
 10
-18.255176039780252
 20
15.94634078784986
 30
0.0
 10
-18.59252379901864
 20
16.158108640354715
 30
0.0
 10
-19.187621227693203
 20
16.44987931367428
 30
0.0
 10
-20.05828783971194
 20
16.768813046508505
 30
0.0
 10
-21.214001508022413
 20
17.059500250038305
 30
0.0
 10
-22.05147906659746
 20
17.178963557195882
 30
0.0
 10
-22.661593451221286
 20
16.46461139468005
 30
0.0
 10
-23.152447016950127
 20
15.663611175312264
 30
0.0
 10
-22.7800358622121
 20
14.904038878093786
 30
0.0
 10
-22.146440738952364
 20
13.89471714881413
 30
0.0
 10
-21.574065954525572
 20
13.16521993745855
 30
0.0
 10
-21.112680335631886
 20
12.689410746603066
 30
0.0
 10
-20.80703094894641
 20
12.434013827208197
 30
0.0
 10
-20.414044682953282
 20
12.170119960460058
 30
0.0
 10
-19.98573833842747
 20
11.747751685729897
 30
0.0
 10
-19.85892127474678
 20
11.396457390757496
 30
0.0
 10
-20.892708756526158
 20
9.36753521855741
 30
0.0
 10
-21.251453010956382
 20
9.263646772452637
 30
0.0
 10
-21.84490827587352
 20
9.36189204104987
 30
0.0
 10
-22.289394430288162
 20
9.524711685749352
 30
0.0
 10
-22.675671080255682
 20
9.621868691196953
 30
0.0
 10
-23.331804464143083
 20
9.715463872552077
 30
0.0
 10
-24.258413562549343
 20
9.749737097881757
 30
0.0
 10
-25.447389863705432
 20
9.669061892863038
 30
0.0
 10
-26.280794545155107
 20
9.523883451586093
 30
0.0
 10
-26.640300848151124
 20
8.655958459134503
 30
0.0
 10
-26.85960765010154
 20
7.742479887391173
 30
0.0
 10
-26.27070284635001
 20
7.13516508023311
 30
0.0
 10
-25.356220508541686
 20
6.371034733203747
 30
0.0
 10
-24.586432704391544
 20
5.854115192264455
 30
0.0
 10
-24.000595778963696
 20
5.544169757986574
 30
0.0
 10
-23.63098394965083
 20
5.395723708360468
 30
0.0
 10
-23.17568411102707
 20
5.266185161527156
 30
0.0
 10
-22.637821596318798
 20
4.9968430008257805
 30
0.0
 10
-22.408655494354424
 20
4.70193090030903
 30
0.0
 10
-22.764874383891094
 20
2.452853346940514
 30
0.0
 10
-23.073957149384828
 20
2.2431914920514804
 30
0.0
 10
-23.668726103827414
 20
2.1532405326853663
 30
0.0
 10
-24.14177159461666
 20
2.170737441279179
 30
0.0
 10
-24.539165685466823
 20
2.1437731950436567
 30
0.0
 10
-25.192108117402064
 20
2.0300311359673255
 30
0.0
 10
-26.08395674757863
 20
1.7762889517015863
 30
0.0
 10
-27.189810397138167
 20
1.3321483892987902
 30
0.0
 10
-27.93756274457033
 20
0.936539276937187
 30
0.0
 10
-28.01126998417358
 20
-8.820622963909527e-15
 30
0.0
 10
-27.937562744570332
 20
-0.9365392769371929
 30
0.0
 10
-27.18981039713753
 20
-1.3321483892991368
 30
0.0
 10
-26.083956747578398
 20
-1.776288951701784
 30
0.0
 10
-25.192108117402135
 20
-2.03003113596743
 30
0.0
 10
-24.53916568546687
 20
-2.143773195043765
 30
0.0
 10
-24.141771594616806
 20
-2.170737441279258
 30
0.0
 10
-23.66872610382742
 20
-2.153240532685573
 30
0.0
 10
-23.07395714938482
 20
-2.24319149205153
 30
0.0
 10
-22.764874383891158
 20
-2.4528533469406244
 30
0.0
 10
-22.40865549435433
 20
-4.701930900309116
 30
0.0
 10
-22.637821596318787
 20
-4.99684300082583
 30
0.0
 10
-23.175684111027007
 20
-5.266185161527353
 30
0.0
 10
-23.630983949650673
 20
-5.395723708360501
 30
0.0
 10
-24.00059577896362
 20
-5.544169757986665
 30
0.0
 10
-24.58643270439145
 20
-5.854115192264534
 30
0.0
 10
-25.356220508541846
 20
-6.371034733204007
 30
0.0
 10
-26.27070284635051
 20
-7.135165080233637
 30
0.0
 10
-26.85960765010154
 20
-7.7424798873911795
 30
0.0
 10
-26.640300848151124
 20
-8.655958459134498
 30
0.0
 10
-26.28079454515511
 20
-9.523883451586087
 30
0.0
 10
-25.44738986370472
 20
-9.66906189286316
 30
0.0
 10
-24.25841356254907
 20
-9.749737097881866
 30
0.0
 10
-23.331804464143122
 20
-9.71546387255219
 30
0.0
 10
-22.675671080255697
 20
-9.621868691197063
 30
0.0
 10
-22.289394430288276
 20
-9.524711685749464
 30
0.0
 10
-21.844908275873465
 20
-9.36189204105006
 30
0.0
 10
-21.251453010956368
 20
-9.263646772452676
 30
0.0
 10
-20.892708756526186
 20
-9.367535218557526
 30
0.0
 10
-19.858921274746674
 20
-11.396457390757542
 30
0.0
 10
-19.985738338427453
 20
-11.747751685729932
 30
0.0
 10
-20.41404468295316
 20
-12.170119960460216
 30
0.0
 10
-20.807030948946252
 20
-12.43401382720817
 30
0.0
 10
-21.112680335631794
 20
-12.68941074660312
 30
0.0
 10
-21.574065954525462
 20
-13.165219937458588
 30
0.0
 10
-22.146440738952442
 20
-13.894717148814419
 30
0.0
 10
-22.78003586221242
 20
-14.90403887809443
 30
0.0
 10
-23.15244701695013
 20
-15.66361117531226
 30
0.0
 10
-22.661593451221293
 20
-16.464611394680045
 30
0.0
 10
-22.051479066597466
 20
-17.17896355719587
 30
0.0
 10
-21.214001508021703
 20
-17.059500250038198
 30
0.0
 10
-20.05828783971165
 20
-16.76881304650852
 30
0.0
 10
-19.187621227693207
 20
-16.449879313674394
 30
0.0
 10
-18.592523799018622
 20
-16.15810864035482
 30
0.0
 10
-18.25517603978033
 20
-15.946340787850001
 30
0.0
 10
-17.882758623451355
 20
-15.654136328299229
 30
0.0
 10
-17.34870858423581
 20
-15.377311763143847
 30
0.0
 10
-16.97541922801093
 20
-15.365257475526349
 30
0.0
 10
-15.36525747552623
 20
-16.975419228010935
 30
0.0
 10
-15.377311763143817
 20
-17.348708584235833
 30
0.0
 10
-15.654136328299066
 20
-17.882758623451465
 30
0.0
 10
-15.94634078784986
 20
-18.255176039780252
 30
0.0
 10
-16.158108640354715
 20
-18.59252379901864
 30
0.0
 10
-16.44987931367428
 20
-19.187621227693203
 30
0.0
 10
-16.768813046508505
 20
-20.05828783971194
 30
0.0
 10
-17.059500250038305
 20
-21.214001508022413
 30
0.0
 10
-17.178963557195882
 20
-22.05147906659746
 30
0.0
 10
-16.46461139468005
 20
-22.661593451221286
 30
0.0
 10
-15.663611175312264
 20
-23.152447016950127
 30
0.0
 10
-14.904038878093786
 20
-22.7800358622121
 30
0.0
 10
-13.894717148814133
 20
-22.146440738952364
 30
0.0
 10
-13.16521993745855
 20
-21.574065954525572
 30
0.0
 10
-12.689410746603068
 20
-21.112680335631886
 30
0.0
 10
-12.434013827208199
 20
-20.80703094894641
 30
0.0
 10
-12.170119960460058
 20
-20.414044682953282
 30
0.0
 10
-11.747751685729897
 20
-19.98573833842747
 30
0.0
 10
-11.396457390757496
 20
-19.85892127474678
 30
0.0
 10
-9.367535218557412
 20
-20.892708756526158
 30
0.0
 10
-9.263646772452638
 20
-21.251453010956382
 30
0.0
 10
-9.361892041049872
 20
-21.84490827587352
 30
0.0
 10
-9.524711685749352
 20
-22.289394430288162
 30
0.0
 10
-9.621868691196955
 20
-22.675671080255682
 30
0.0
 10
-9.715463872552078
 20
-23.331804464143083
 30
0.0
 10
-9.749737097881757
 20
-24.258413562549343
 30
0.0
 10
-9.66906189286304
 20
-25.447389863705432
 30
0.0
 10
-9.523883451586093
 20
-26.280794545155107
 30
0.0
 10
-8.655958459134505
 20
-26.640300848151124
 30
0.0
 10
-7.742479887391175
 20
-26.85960765010154
 30
0.0
 10
-7.135165080233111
 20
-26.27070284635001
 30
0.0
 10
-6.371034733203749
 20
-25.356220508541686
 30
0.0
 10
-5.854115192264457
 20
-24.586432704391544
 30
0.0
 10
-5.544169757986576
 20
-24.000595778963696
 30
0.0
 10
-5.39572370836047
 20
-23.63098394965083
 30
0.0
 10
-5.266185161527158
 20
-23.17568411102707
 30
0.0
 10
-4.996843000825782
 20
-22.637821596318798
 30
0.0
 10
-4.701930900309032
 20
-22.408655494354424
 30
0.0
 10
-2.452853346940515
 20
-22.764874383891094
 30
0.0
 10
-2.243191492051482
 20
-23.073957149384828
 30
0.0
 10
-2.1532405326853676
 20
-23.668726103827414
 30
0.0
 10
-2.1707374412791802
 20
-24.14177159461666
 30
0.0
 10
-2.143773195043658
 20
-24.539165685466823
 30
0.0
 10
-2.030031135967327
 20
-25.192108117402064
 30
0.0
 10
-1.776288951701588
 20
-26.08395674757863
 30
0.0
 10
-1.3321483892987918
 20
-27.189810397138167
 30
0.0
 10
-0.9365392769371886
 20
-27.93756274457033
 30
0.0
 10
-5.3902317512924765e-15
 20
-28.01126998417358
 30
0.0
 10
0.9365392769371778
 20
-27.937562744570332
 30
0.0
 10
1.3321483892991217
 20
-27.189810397137528
 30
0.0
 10
1.7762889517017697
 20
-26.0839567475784
 30
0.0
 10
2.0300311359674166
 20
-25.19210811740213
 30
0.0
 10
2.1437731950437526
 20
-24.53916568546687
 30
0.0
 10
2.1707374412792464
 20
-24.141771594616806
 30
0.0
 10
2.1532405326855604
 20
-23.668726103827417
 30
0.0
 10
2.2431914920515186
 20
-23.073957149384825
 30
0.0
 10
2.452853346940612
 20
-22.764874383891158
 30
0.0
 10
4.7019309003091045
 20
-22.40865549435433
 30
0.0
 10
4.996843000825819
 20
-22.63782159631879
 30
0.0
 10
5.266185161527341
 20
-23.175684111027007
 30
0.0
 10
5.395723708360489
 20
-23.63098394965067
 30
0.0
 10
5.544169757986651
 20
-24.00059577896362
 30
0.0
 10
5.854115192264522
 20
-24.586432704391452
 30
0.0
 10
6.371034733203994
 20
-25.35622050854185
 30
0.0
 10
7.135165080233623
 20
-26.270702846350513
 30
0.0
 10
7.742479887391165
 20
-26.859607650101545
 30
0.0
 10
8.655958459134494
 20
-26.640300848151128
 30
0.0
 10
9.523883451586082
 20
-26.280794545155114
 30
0.0
 10
9.669061892863159
 20
-25.44738986370472
 30
0.0
 10
9.74973709788186
 20
-24.258413562549073
 30
0.0
 10
9.715463872552185
 20
-23.331804464143122
 30
0.0
 10
9.62186869119706
 20
-22.675671080255697
 30
0.0
 10
9.52471168574946
 20
-22.289394430288276
 30
0.0
 10
9.361892041050059
 20
-21.844908275873465
 30
0.0
 10
9.263646772452672
 20
-21.251453010956368
 30
0.0
 10
9.367535218557524
 20
-20.892708756526186
 30
0.0
 10
11.396457390757538
 20
-19.858921274746674
 30
0.0
 10
11.747751685729929
 20
-19.985738338427456
 30
0.0
 10
12.170119960460214
 20
-20.41404468295316
 30
0.0
 10
12.434013827208169
 20
-20.807030948946252
 30
0.0
 10
12.689410746603116
 20
-21.112680335631794
 30
0.0
 10
13.165219937458584
 20
-21.574065954525466
 30
0.0
 10
13.894717148814413
 20
-22.146440738952442
 30
0.0
 10
14.90403887809443
 20
-22.78003586221242
 30
0.0
 10
15.663611175312257
 20
-23.15244701695013
 30
0.0
 10
16.46461139468004
 20
-22.661593451221293
 30
0.0
 10
17.17896355719587
 20
-22.05147906659747
 30
0.0
 10
17.059500250038198
 20
-21.214001508021706
 30
0.0
 10
16.76881304650852
 20
-20.05828783971165
 30
0.0
 10
16.449879313674394
 20
-19.187621227693207
 30
0.0
 10
16.15810864035482
 20
-18.592523799018622
 30
0.0
 10
15.946340787850001
 20
-18.25517603978033
 30
0.0
 10
15.654136328299227
 20
-17.88275862345136
 30
0.0
 10
15.377311763143847
 20
-17.348708584235812
 30
0.0
 10
15.365257475526349
 20
-16.975419228010935
 30
0.0
 10
16.975419228010935
 20
-15.365257475526233
 30
0.0
 10
17.348708584235833
 20
-15.377311763143819
 30
0.0
 10
17.882758623451465
 20
-15.654136328299069
 30
0.0
 10
18.255176039780252
 20
-15.946340787849863
 30
0.0
 10
18.59252379901864
 20
-16.158108640354715
 30
0.0
 10
19.187621227693203
 20
-16.44987931367428
 30
0.0
 10
20.05828783971194
 20
-16.76881304650851
 30
0.0
 10
21.214001508022413
 20
-17.059500250038305
 30
0.0
 10
22.05147906659746
 20
-17.178963557195882
 30
0.0
 10
22.661593451221286
 20
-16.464611394680052
 30
0.0
 10
23.152447016950127
 20
-15.663611175312266
 30
0.0
 10
22.7800358622121
 20
-14.904038878093788
 30
0.0
 10
22.146440738952364
 20
-13.894717148814134
 30
0.0
 10
21.574065954525572
 20
-13.165219937458554
 30
0.0
 10
21.112680335631886
 20
-12.689410746603068
 30
0.0
 10
20.80703094894641
 20
-12.434013827208199
 30
0.0
 10
20.41404468295328
 20
-12.17011996046006
 30
0.0
 10
19.98573833842747
 20
-11.747751685729899
 30
0.0
 10
19.85892127474678
 20
-11.396457390757499
 30
0.0
 10
20.892708756526158
 20
-9.367535218557412
 30
0.0
 10
21.251453010956382
 20
-9.263646772452638
 30
0.0
 10
21.84490827587352
 20
-9.361892041049874
 30
0.0
 10
22.28939443028816
 20
-9.524711685749354
 30
0.0
 10
22.675671080255682
 20
-9.621868691196957
 30
0.0
 10
23.331804464143083
 20
-9.71546387255208
 30
0.0
 10
24.258413562549343
 20
-9.749737097881761
 30
0.0
 10
25.447389863705432
 20
-9.669061892863041
 30
0.0
 10
26.280794545155107
 20
-9.523883451586096
 30
0.0
  0
LWPOLYLINE
  8
OpenJsCad
  90
381
  70
1
 10
23.482483822726138
 20
5.295406606814999
 30
0.0
 10
23.26317702077572
 20
4.381928035071661
 30
0.0
 10
23.18946978117247
 20
3.4453887581344773
 30
0.0
 10
23.86612915652711
 20
2.9376760119681666
 30
0.0
 10
24.888889021319116
 20
2.326009932816135
 30
0.0
 10
25.730063492066225
 20
1.9358758725413265
 30
0.0
 10
26.357173941004337
 20
1.7213914669144867
 30
0.0
 10
26.74545731372329
 20
1.6325930632824739
 30
0.0
 10
27.215415949082782
 20
1.5758739376055857
 30
0.0
 10
27.788790880525426
 20
1.3939880606037174
 30
0.0
 10
28.0612699841735
 20
1.1385562939890534
 30
0.0
 10
28.06126998417358
 20
-1.1385562939891627
 30
0.0
 10
27.788790880525426
 20
-1.3939880606037778
 30
0.0
 10
27.215415949082818
 20
-1.5758739376058002
 30
0.0
 10
26.745457313723442
 20
-1.6325930632825414
 30
0.0
 10
26.3571739410044
 20
-1.7213914669145978
 30
0.0
 10
25.730063492066307
 20
-1.9358758725414305
 30
0.0
 10
24.88888902131892
 20
-2.326009932816378
 30
0.0
 10
23.866129156526533
 20
-2.9376760119686205
 30
0.0
 10
23.18946978117247
 20
-3.445388758134495
 30
0.0
 10
23.263177020775725
 20
-4.381928035071678
 30
0.0
 10
23.482483822726138
 20
-5.295406606815009
 30
0.0
 10
24.28291699779554
 20
-5.569170876074866
 30
0.0
 10
25.4446346451518
 20
-5.834849707063757
 30
0.0
 10
26.36519716160638
 20
-5.945952040621593
 30
0.0
 10
27.027893966872853
 20
-5.956151046164712
 30
0.0
 10
27.424613614461933
 20
-5.920617185772166
 30
0.0
 10
27.88909801075
 20
-5.829335074866393
 30
0.0
 10
28.490615802609184
 20
-5.825136225446732
 30
0.0
 10
28.828691586475095
 20
-5.983865597915082
 30
0.0
 10
29.532358074265556
 20
-8.149528363049463
 30
0.0
 10
29.35214780397385
 20
-8.476659082796406
 30
0.0
 10
28.863041666175487
 20
-8.826825429305575
 30
0.0
 10
28.433611617367976
 20
-9.02599372835831
 30
0.0
 10
28.091772401370136
 20
-9.23043218957259
 30
0.0
 10
27.56163424883789
 20
-9.628206767259655
 30
0.0
 10
26.88218784180192
 20
-10.259183514208125
 30
0.0
 10
26.098500621126703
 20
-11.156962703968045
 30
0.0
 10
25.611851179710044
 20
-11.848925466002747
 30
0.0
 10
25.97135748270606
 20
-12.716850458454338
 30
0.0
 10
26.462211048434895
 20
-13.517850677822125
 30
0.0
 10
27.3080660470974
 20
-13.530868516072548
 30
0.0
 10
28.495024459531884
 20
-13.424553603827846
 30
0.0
 10
29.40486394864716
 20
-13.24574874016459
 30
0.0
 10
30.03827772966237
 20
-13.05066399590078
 30
0.0
 10
30.404599968907238
 20
-12.894276173317863
 30
0.0
 10
30.818143157162126
 20
-12.663928154844747
 30
0.0
 10
31.38892305694977
 20
-12.474055591639857
 30
0.0
 10
31.759502307796232
 20
-12.520545033052123
 30
0.0
 10
33.09795550481944
 20
-14.362767814831571
 30
0.0
 10
33.027654304739116
 20
-14.729575653608268
 30
0.0
 10
32.670694077155545
 20
-15.21374574787587
 30
0.0
 10
32.32382822009227
 20
-15.535867239506178
 30
0.0
 10
32.061894765011374
 20
-15.835933897312511
 30
0.0
 10
31.680622524944525
 20
-16.37806169993735
 30
0.0
 10
31.22941312992213
 20
-17.188116733294528
 30
0.0
 10
30.761511318793712
 20
-18.28412815137299
 30
0.0
 10
30.512508449326354
 20
-19.092606792940515
 30
0.0
 10
31.122622833950185
 20
-19.806958955456338
 30
0.0
 10
31.83697499646601
 20
-20.41707334008017
 30
0.0
 10
32.645453638034226
 20
-20.168070470612598
 30
0.0
 10
33.7414650561123
 20
-19.700168659484362
 30
0.0
 10
34.55152008946919
 20
-19.248959264462115
 30
0.0
 10
35.093647892094054
 20
-18.867687024395252
 30
0.0
 10
35.393714549900295
 20
-18.605753569314416
 30
0.0
 10
35.7158360415308
 20
-18.258887712251124
 30
0.0
 10
36.20000613579829
 20
-17.90192748466744
 30
0.0
 10
36.56681397457498
 20
-17.831626284587202
 30
0.0
 10
38.409036756354524
 20
-19.170079481610276
 30
0.0
 10
38.45552619776671
 20
-19.54065873245677
 30
0.0
 10
38.26565363456196
 20
-20.11143863224448
 30
0.0
 10
38.03530561608879
 20
-20.524981820499185
 30
0.0
 10
37.87891779350586
 20
-20.891304059744154
 30
0.0
 10
37.683833049242054
 20
-21.52471784075934
 30
0.0
 10
37.505028185578745
 20
-22.434557329874927
 30
0.0
 10
37.39871327333399
 20
-23.62151574230984
 30
0.0
 10
37.4117311115844
 20
-24.467370740971628
 30
0.0
 10
38.21273133095219
 20
-24.958224306700462
 30
0.0
 10
39.08065632340378
 20
-25.317730609696476
 30
0.0
 10
39.772619085439075
 20
-24.831081168279404
 30
0.0
 10
40.67039827519868
 20
-24.04739394760448
 30
0.0
 10
41.30137502214693
 20
-23.367947540568736
 30
0.0
 10
41.69914959983401
 20
-22.83780938803646
 30
0.0
 10
41.90358806104822
 20
-22.495970172038703
 30
0.0
 10
42.102756360101125
 20
-22.06654012323113
 30
0.0
 10
42.45292270661016
 20
-21.57743398543268
 30
0.0
 10
42.78005342635713
 20
-21.397223715141063
 30
0.0
 10
44.945716191491556
 20
-22.100890202931378
 30
0.0
 10
45.10444556395984
 20
-22.438965986797346
 30
0.0
 10
45.10024671454033
 20
-23.04048377865654
 30
0.0
 10
45.00896460363446
 20
-23.504968174944455
 30
0.0
 10
44.97343074324192
 20
-23.90168782253363
 30
0.0
 10
44.98362974878504
 20
-24.56438462780008
 30
0.0
 10
45.09473208234292
 20
-25.48494714425497
 30
0.0
 10
45.360410913331904
 20
-26.64666479161166
 30
0.0
 10
45.63417518259152
 20
-27.447097966680374
 30
0.0
 10
46.547653754334846
 20
-27.66640476863079
 30
0.0
 10
47.484193031272035
 20
-27.740112008234043
 30
0.0
 10
47.99190577743835
 20
-27.063452632879404
 30
0.0
 10
48.60357185659038
 20
-26.040692768087396
 30
0.0
 10
48.99370591686518
 20
-25.199518297340287
 30
0.0
 10
49.20819032249202
 20
-24.572407848402175
 30
0.0
 10
49.296988726124034
 20
-24.184124475683223
 30
0.0
 10
49.35370785180093
 20
-23.71416584032373
 30
0.0
 10
49.535593728802795
 20
-23.140790908881087
 30
0.0
 10
49.79102549541746
 20
-22.868311805233013
 30
0.0
 10
52.068138083395674
 20
-22.86831180523293
 30
0.0
 10
52.32356985001029
 20
-23.140790908881087
 30
0.0
 10
52.50545572701231
 20
-23.714165840323695
 30
0.0
 10
52.562174852689054
 20
-24.18412447568307
 30
0.0
 10
52.65097325632111
 20
-24.57240784840211
 30
0.0
 10
52.86545766194794
 20
-25.199518297340205
 30
0.0
 10
53.25559172222289
 20
-26.04069276808759
 30
0.0
 10
53.86725780137513
 20
-27.06345263287998
 30
0.0
 10
54.374970547541004
 20
-27.740112008234043
 30
0.0
 10
55.31150982447819
 20
-27.66640476863079
 30
0.0
 10
56.22498839622152
 20
-27.447097966680378
 30
0.0
 10
56.498752665481376
 20
-26.646664791610974
 30
0.0
 10
56.764431496470266
 20
-25.484947144254715
 30
0.0
 10
56.875533830028104
 20
-24.564384627800134
 30
0.0
 10
56.885732835571226
 20
-23.90168782253366
 30
0.0
 10
56.85019897517868
 20
-23.504968174944583
 30
0.0
 10
56.758916864272905
 20
-23.04048377865651
 30
0.0
 10
56.75471801485324
 20
-22.43896598679733
 30
0.0
 10
56.9134473873216
 20
-22.10089020293142
 30
0.0
 10
59.07911015245597
 20
-21.397223715140957
 30
0.0
 10
59.406240872202915
 20
-21.577433985432663
 30
0.0
 10
59.756407218712084
 20
-22.06654012323103
 30
0.0
 10
59.95557551776482
 20
-22.495970172038536
 30
0.0
 10
60.1600139789791
 20
-22.837809388036376
 30
0.0
 10
60.55778855666617
 20
-23.367947540568625
 30
0.0
 10
61.18876530361464
 20
-24.047393947604597
 30
0.0
 10
62.08654449337456
 20
-24.831081168279812
 30
0.0
 10
62.77850725540926
 20
-25.317730609696472
 30
0.0
 10
63.646432247860844
 20
-24.95822430670045
 30
0.0
 10
64.44743246722864
 20
-24.467370740971617
 30
0.0
 10
64.46045030547906
 20
-23.62151574230911
 30
0.0
 10
64.35413539323436
 20
-22.43455732987463
 30
0.0
 10
64.1753305295711
 20
-21.52471784075935
 30
0.0
 10
63.98024578530729
 20
-20.89130405974414
 30
0.0
 10
63.823857962724375
 20
-20.524981820499278
 30
0.0
 10
63.59350994425126
 20
-20.111438632244386
 30
0.0
 10
63.403637381046366
 20
-19.54065873245674
 30
0.0
 10
63.45012682245863
 20
-19.17007948161028
 30
0.0
 10
65.29234960423808
 20
-17.831626284587074
 30
0.0
 10
65.65915744301478
 20
-17.901927484667397
 30
0.0
 10
66.14332753728237
 20
-18.258887712250967
 30
0.0
 10
66.46544902891269
 20
-18.60575356931425
 30
0.0
 10
66.76551568671903
 20
-18.867687024395142
 30
0.0
 10
67.30764348934386
 20
-19.248959264461988
 30
0.0
 10
68.11769852270103
 20
-19.700168659484383
 30
0.0
 10
69.2137099407795
 20
-20.1680704706128
 30
0.0
 10
70.02218858234703
 20
-20.41707334008016
 30
0.0
 10
70.73654074486285
 20
-19.80695895545633
 30
0.0
 10
71.34665512948668
 20
-19.092606792940504
 30
0.0
 10
71.09765226001912
 20
-18.28412815137229
 30
0.0
 10
70.62975044889087
 20
-17.18811673329422
 30
0.0
 10
70.17854105386863
 20
-16.378061699937323
 30
0.0
 10
69.79726881380176
 20
-15.835933897312465
 30
0.0
 10
69.53533535872091
 20
-15.535867239506217
 30
0.0
 10
69.18846950165764
 20
-15.213745747875718
 30
0.0
 10
68.83150927407394
 20
-14.729575653608224
 30
0.0
 10
68.76120807399371
 20
-14.362767814831534
 30
0.0
 10
70.09966127101679
 20
-12.520545033051992
 30
0.0
 10
70.47024052186327
 20
-12.474055591639807
 30
0.0
 10
71.04102042165098
 20
-12.663928154844553
 30
0.0
 10
71.4545636099057
 20
-12.894276173317719
 30
0.0
 10
71.82088584915067
 20
-13.050663995900656
 30
0.0
 10
72.45429963016585
 20
-13.245748740164464
 30
0.0
 10
73.36413911928143
 20
-13.424553603827768
 30
0.0
 10
74.55109753171635
 20
-13.530868516072527
 30
0.0
 10
75.39695253037814
 20
-13.517850677822116
 30
0.0
 10
75.88780609610697
 20
-12.716850458454322
 30
0.0
 10
76.24731239910298
 20
-11.848925466002735
 30
0.0
 10
75.76066295768592
 20
-11.156962703967437
 30
0.0
 10
74.97697573701099
 20
-10.259183514207837
 30
0.0
 10
74.29752932997525
 20
-9.628206767259584
 30
0.0
 10
73.76739117744297
 20
-9.230432189572507
 30
0.0
 10
73.42555196144522
 20
-9.025993728358296
 30
0.0
 10
72.99612191263765
 20
-8.826825429305385
 30
0.0
 10
72.50701577483919
 20
-8.476659082796353
 30
0.0
 10
72.32680550454756
 20
-8.149528363049384
 30
0.0
 10
73.0304719923379
 20
-5.983865597914956
 30
0.0
 10
73.36854777620385
 20
-5.825136225446675
 30
0.0
 10
73.97006556806306
 20
-5.829335074866179
 30
0.0
 10
74.43454996435096
 20
-5.920617185772056
 30
0.0
 10
74.83126961194014
 20
-5.956151046164589
 30
0.0
 10
75.4939664172066
 20
-5.945952040621469
 30
0.0
 10
76.41452893366149
 20
-5.834849707063591
 30
0.0
 10
77.57624658101817
 20
-5.5691708760746135
 30
0.0
 10
78.37667975608689
 20
-5.295406606814995
 30
0.0
 10
78.59598655803731
 20
-4.381928035071665
 30
0.0
 10
78.66969379764055
 20
-3.445388758134481
 30
0.0
 10
77.99303442228592
 20
-2.93767601196817
 30
0.0
 10
76.97027455749391
 20
-2.3260099328161377
 30
0.0
 10
76.1291000867468
 20
-1.9358758725413292
 30
0.0
 10
75.50198963780869
 20
-1.7213914669144885
 30
0.0
 10
75.11370626508973
 20
-1.6325930632824766
 30
0.0
 10
74.64374762973024
 20
-1.5758739376055884
 30
0.0
 10
74.0703726982876
 20
-1.39398806060372
 30
0.0
 10
73.79789359463953
 20
-1.1385562939890561
 30
0.0
 10
73.79789359463945
 20
1.13855629398916
 30
0.0
 10
74.0703726982876
 20
1.3939880606037756
 30
0.0
 10
74.6437476297302
 20
1.575873937605797
 30
0.0
 10
75.11370626508958
 20
1.6325930632825387
 30
0.0
 10
75.50198963780862
 20
1.7213914669145947
 30
0.0
 10
76.12910008674672
 20
1.9358758725414273
 30
0.0
 10
76.97027455749411
 20
2.326009932816375
 30
0.0
 10
77.99303442228648
 20
2.937676011968617
 30
0.0
 10
78.66969379764055
 20
3.4453887581344915
 30
0.0
 10
78.59598655803731
 20
4.381928035071688
 30
0.0
 10
78.37667975608689
 20
5.2954066068150185
 30
0.0
 10
77.57624658101749
 20
5.569170876074875
 30
0.0
 10
76.41452893366122
 20
5.834849707063766
 30
0.0
 10
75.49396641720665
 20
5.945952040621601
 30
0.0
 10
74.83126961194017
 20
5.95615104616472
 30
0.0
 10
74.43454996435109
 20
5.9206171857721746
 30
0.0
 10
73.97006556806302
 20
5.8293350748664015
 30
0.0
 10
73.36854777620384
 20
5.825136225446739
 30
0.0
 10
73.03047199233794
 20
5.98386559791509
 30
0.0
 10
72.32680550454747
 20
8.14952836304947
 30
0.0
 10
72.50701577483918
 20
8.476659082796413
 30
0.0
 10
72.99612191263753
 20
8.826825429305584
 30
0.0
 10
73.42555196144505
 20
9.02599372835832
 30
0.0
 10
73.76739117744289
 20
9.2304321895726
 30
0.0
 10
74.29752932997513
 20
9.628206767259663
 30
0.0
 10
74.9769757370111
 20
10.259183514208132
 30
0.0
 10
75.76066295768632
 20
11.156962703968054
 30
0.0
 10
76.24731239910298
 20
11.848925466002758
 30
0.0
 10
75.88780609610697
 20
12.716850458454335
 30
0.0
 10
75.39695253037813
 20
13.517850677822121
 30
0.0
 10
74.55109753171563
 20
13.530868516072545
 30
0.0
 10
73.36413911928113
 20
13.424553603827844
 30
0.0
 10
72.45429963016586
 20
13.24574874016459
 30
0.0
 10
71.82088584915066
 20
13.050663995900777
 30
0.0
 10
71.45456360990579
 20
12.89427617331786
 30
0.0
 10
71.0410204216509
 20
12.663928154844745
 30
0.0
 10
70.47024052186325
 20
12.474055591639857
 30
0.0
 10
70.0996612710168
 20
12.52054503305212
 30
0.0
 10
68.76120807399359
 20
14.36276781483157
 30
0.0
 10
68.83150927407391
 20
14.729575653608265
 30
0.0
 10
69.18846950165748
 20
15.213745747875867
 30
0.0
 10
69.53533535872076
 20
15.535867239506175
 30
0.0
 10
69.79726881380165
 20
15.83593389731251
 30
0.0
 10
70.1785410538685
 20
16.378061699937348
 30
0.0
 10
70.62975044889089
 20
17.188116733294525
 30
0.0
 10
71.09765226001932
 20
18.284128151372986
 30
0.0
 10
71.34665512948668
 20
19.09260679294051
 30
0.0
 10
70.73654074486285
 20
19.806958955456338
 30
0.0
 10
70.02218858234701
 20
20.417073340080165
 30
0.0
 10
69.2137099407788
 20
20.168070470612598
 30
0.0
 10
68.11769852270073
 20
19.70016865948436
 30
0.0
 10
67.30764348934383
 20
19.248959264462115
 30
0.0
 10
66.76551568671897
 20
18.867687024395252
 30
0.0
 10
66.46544902891273
 20
18.60575356931441
 30
0.0
 10
66.14332753728223
 20
18.25888771225112
 30
0.0
 10
65.65915744301473
 20
17.901927484667432
 30
0.0
 10
65.29234960423804
 20
17.8316262845872
 30
0.0
 10
63.4501268224585
 20
19.170079481610273
 30
0.0
 10
63.40363738104632
 20
19.540658732456766
 30
0.0
 10
63.59350994425107
 20
20.11143863224448
 30
0.0
 10
63.82385796272423
 20
20.524981820499185
 30
0.0
 10
63.98024578530717
 20
20.89130405974415
 30
0.0
 10
64.17533052957097
 20
21.52471784075934
 30
0.0
 10
64.35413539323429
 20
22.434557329874924
 30
0.0
 10
64.46045030547904
 20
23.621515742309835
 30
0.0
 10
64.44743246722862
 20
24.467370740971624
 30
0.0
 10
63.64643224786084
 20
24.95822430670046
 30
0.0
 10
62.778507255409245
 20
25.317730609696476
 30
0.0
 10
62.08654449337395
 20
24.831081168279404
 30
0.0
 10
61.188765303614346
 20
24.04739394760448
 30
0.0
 10
60.5577885566661
 20
23.367947540568732
 30
0.0
 10
60.16001397897902
 20
22.83780938803646
 30
0.0
 10
59.955575517764814
 20
22.495970172038703
 30
0.0
 10
59.7564072187119
 20
22.06654012323113
 30
0.0
 10
59.406240872202865
 20
21.57743398543268
 30
0.0
 10
59.0791101524559
 20
21.39722371514106
 30
0.0
 10
56.91344738732147
 20
22.100890202931378
 30
0.0
 10
56.75471801485319
 20
22.438965986797346
 30
0.0
 10
56.75891686427269
 20
23.040483778656544
 30
0.0
 10
56.85019897517857
 20
23.50496817494446
 30
0.0
 10
56.885732835571105
 20
23.90168782253363
 30
0.0
 10
56.87553383002798
 20
24.56438462780008
 30
0.0
 10
56.7644314964701
 20
25.484947144254974
 30
0.0
 10
56.49875266548113
 20
26.64666479161166
 30
0.0
 10
56.224988396221505
 20
27.447097966680374
 30
0.0
 10
55.31150982447818
 20
27.66640476863079
 30
0.0
 10
54.374970547541
 20
27.740112008234043
 30
0.0
 10
53.867257801374684
 20
27.063452632879404
 30
0.0
 10
53.255591722222654
 20
26.040692768087396
 30
0.0
 10
52.86545766194784
 20
25.199518297340287
 30
0.0
 10
52.650973256321
 20
24.572407848402175
 30
0.0
 10
52.56217485268899
 20
24.184124475683223
 30
0.0
 10
52.505455727012105
 20
23.71416584032373
 30
0.0
 10
52.32356985001024
 20
23.140790908881087
 30
0.0
 10
52.06813808339557
 20
22.868311805233013
 30
0.0
 10
49.79102549541735
 20
22.86831180523293
 30
0.0
 10
49.53559372880274
 20
23.140790908881087
 30
0.0
 10
49.35370785180071
 20
23.714165840323695
 30
0.0
 10
49.29698872612398
 20
24.18412447568307
 30
0.0
 10
49.208190322491916
 20
24.57240784840211
 30
0.0
 10
48.99370591686509
 20
25.199518297340205
 30
0.0
 10
48.603571856590136
 20
26.04069276808759
 30
0.0
 10
47.9919057774379
 20
27.06345263287998
 30
0.0
 10
47.48419303127202
 20
27.740112008234043
 30
0.0
 10
46.54765375433484
 20
27.66640476863079
 30
0.0
 10
45.634175182591505
 20
27.44709796668038
 30
0.0
 10
45.36041091333165
 20
26.64666479161097
 30
0.0
 10
45.09473208234276
 20
25.484947144254715
 30
0.0
 10
44.98362974878492
 20
24.564384627800134
 30
0.0
 10
44.973430743241806
 20
23.90168782253366
 30
0.0
 10
45.00896460363435
 20
23.504968174944583
 30
0.0
 10
45.10024671454012
 20
23.04048377865651
 30
0.0
 10
45.104445563959786
 20
22.438965986797335
 30
0.0
 10
44.945716191491435
 20
22.10089020293142
 30
0.0
 10
42.78005342635706
 20
21.397223715140957
 30
0.0
 10
42.45292270661011
 20
21.577433985432663
 30
0.0
 10
42.10275636010094
 20
22.06654012323103
 30
0.0
 10
41.90358806104821
 20
22.495970172038536
 30
0.0
 10
41.69914959983393
 20
22.837809388036376
 30
0.0
 10
41.30137502214686
 20
23.367947540568625
 30
0.0
 10
40.670398275198394
 20
24.047393947604597
 30
0.0
 10
39.77261908543847
 20
24.831081168279812
 30
0.0
 10
39.08065632340377
 20
25.317730609696472
 30
0.0
 10
38.21273133095218
 20
24.958224306700455
 30
0.0
 10
37.411731111584395
 20
24.46737074097162
 30
0.0
 10
37.39871327333397
 20
23.62151574230911
 30
0.0
 10
37.505028185578674
 20
22.434557329874632
 30
0.0
 10
37.683833049241926
 20
21.52471784075935
 30
0.0
 10
37.878917793505735
 20
20.89130405974414
 30
0.0
 10
38.03530561608866
 20
20.524981820499278
 30
0.0
 10
38.26565363456177
 20
20.111438632244386
 30
0.0
 10
38.45552619776666
 20
19.54065873245674
 30
0.0
 10
38.409036756354396
 20
19.17007948161028
 30
0.0
 10
36.56681397457495
 20
17.831626284587074
 30
0.0
 10
36.20000613579825
 20
17.9019274846674
 30
0.0
 10
35.71583604153065
 20
18.258887712250967
 30
0.0
 10
35.39371454990034
 20
18.60575356931425
 30
0.0
 10
35.093647892094005
 20
18.867687024395142
 30
0.0
 10
34.551520089469165
 20
19.24895926446199
 30
0.0
 10
33.74146505611199
 20
19.700168659484383
 30
0.0
 10
32.64545363803353
 20
20.1680704706128
 30
0.0
 10
31.836974996466004
 20
20.41707334008016
 30
0.0
 10
31.122622833950178
 20
19.80695895545633
 30
0.0
 10
30.512508449326347
 20
19.092606792940508
 30
0.0
 10
30.761511318793914
 20
18.284128151372293
 30
0.0
 10
31.229413129922154
 20
17.18811673329422
 30
0.0
 10
31.680622524944397
 20
16.378061699937323
 30
0.0
 10
32.06189476501126
 20
15.835933897312465
 30
0.0
 10
32.3238282200921
 20
15.535867239506217
 30
0.0
 10
32.67069407715539
 20
15.213745747875722
 30
0.0
 10
33.02765430473908
 20
14.729575653608228
 30
0.0
 10
33.09795550481931
 20
14.362767814831537
 30
0.0
 10
31.75950230779624
 20
12.520545033051995
 30
0.0
 10
31.388923056949746
 20
12.47405559163981
 30
0.0
 10
30.818143157162034
 20
12.663928154844557
 30
0.0
 10
30.404599968907327
 20
12.894276173317722
 30
0.0
 10
30.03827772966236
 20
13.050663995900656
 30
0.0
 10
29.404863948647172
 20
13.245748740164464
 30
0.0
 10
28.49502445953159
 20
13.424553603827771
 30
0.0
 10
27.308066047096677
 20
13.530868516072527
 30
0.0
 10
26.462211048434888
 20
13.517850677822116
 30
0.0
 10
25.971357482706054
 20
12.716850458454326
 30
0.0
 10
25.611851179710033
 20
11.848925466002736
 30
0.0
 10
26.09850062112711
 20
11.156962703967439
 30
0.0
 10
26.882187841802033
 20
10.259183514207841
 30
0.0
 10
27.56163424883778
 20
9.628206767259588
 30
0.0
 10
28.09177240137005
 20
9.23043218957251
 30
0.0
 10
28.43361161736781
 20
9.025993728358298
 30
0.0
 10
28.863041666175388
 20
8.826825429305387
 30
0.0
 10
29.352147803973832
 20
8.476659082796354
 30
0.0
 10
29.53235807426545
 20
8.149528363049388
 30
0.0
 10
28.828691586475134
 20
5.983865597914958
 30
0.0
 10
28.490615802609167
 20
5.825136225446677
 30
0.0
 10
27.88909801074997
 20
5.829335074866183
 30
0.0
 10
27.424613614462057
 20
5.920617185772059
 30
0.0
 10
27.02789396687288
 20
5.956151046164592
 30
0.0
 10
26.36519716160643
 20
5.9459520406214725
 30
0.0
 10
25.444634645151538
 20
5.8348497070635945
 30
0.0
 10
24.282916997794853
 20
5.569170876074617
 30
0.0
 10
23.482483822726138
 20
5.295406606814999
 30
0.0
  0
ENDSEC
  0
EOF
