999
DXF generated by OpenJsCad
  0
SECTION
  2
HEADER
  0
ENDSEC
  0
SECTION
  2
TABLES
  0
TABLE
  2
LTYPE
  70
1
  0
LTYPE
  2
CONTINUOUS
  3
Solid Line
  72
65
  73
0
  40
0.0
  0
ENDTAB
  0
TABLE
  2
LAYER
  70
1
  0
LAYER
  2
OpenJsCad
  62
7
  6
continuous
  0
ENDTAB
  0
TABLE
  2
STYLE
  70
0
  0
ENDTAB
  0
TABLE
  2
VIEW
  70
0
  0
ENDTAB
  0
ENDSEC
  0
SECTION
  2
BLOCKS
  0
ENDSEC
  0
SECTION
  2
ENTITIES
  0
LWPOLYLINE
  8
OpenJsCad
  90
357
  70
1
 10
6.510958708543094
 20
-9.377435924405514
 30
0.0
 10
7.144666843190677
 20
-8.959128847174906
 30
0.0
 10
7.69349941462349
 20
-8.434391180036188
 30
0.0
 10
7.725693868810373
 20
-8.1293402582301
 30
0.0
 10
7.3761516617877705
 20
-6.350712448302963
 30
0.0
 10
6.8780223301917465
 20
-5.424080674630886
 30
0.0
 10
6.670507669853601
 20
-5.219471948144514
 30
0.0
 10
5.678511960341879
 20
-4.704102186509566
 30
0.0
 10
5.196696450516193
 20
-3.766299260592857
 30
0.0
 10
6.184698574579882
 20
-1.7146917101156887
 30
0.0
 10
7.218309483165881
 20
-1.5066796839764438
 30
0.0
 10
8.239740996292305
 20
-1.9609253695801698
 30
0.0
 10
8.529093814704051
 20
-1.9955954097706377
 30
0.0
 10
9.542200209132899
 20
-1.811294762189635
 30
0.0
 10
9.200480699681767
 20
-1.9281697177892867
 30
0.0
 10
8.352707583548973
 20
-2.3686117727221006
 30
0.0
 10
7.274196601997218
 20
-3.152902958557801
 30
0.0
 10
6.747236193381244
 20
-3.6724840712365743
 30
0.0
 10
6.876962102542613
 20
-4.53315924231329
 30
0.0
 10
7.133516058420295
 20
-5.364886739357361
 30
0.0
 10
7.8337287771465505
 20
-5.604373593774574
 30
0.0
 10
9.145724787480734
 20
-5.843047158227469
 30
0.0
 10
10.100642617819837
 20
-5.87203676828541
 30
0.0
 10
10.673730369584838
 20
-5.803369818727365
 30
0.0
 10
10.865597136191115
 20
-5.750506519921536
 30
0.0
 10
11.172472567992287
 20
-5.614034481295124
 30
0.0
 10
12.01178538878095
 20
-5.434707733314965
 30
0.0
 10
12.523287526538107
 20
-5.581757251349879
 30
0.0
 10
13.511289650601794
 20
-7.633364801827069
 30
0.0
 10
13.30734122676282
 20
-8.12495715133847
 30
0.0
 10
12.643834945212163
 20
-8.66934993970372
 30
0.0
 10
12.345803106768455
 20
-8.82418588915955
 30
0.0
 10
12.18484594320031
 20
-8.941233640033609
 30
0.0
 10
11.773845591435169
 20
-9.346478543806116
 30
0.0
 10
11.201129052413766
 20
-10.111138092966588
 30
0.0
 10
10.569715426612095
 20
-11.285708412129846
 30
0.0
 10
10.32037829977589
 20
-11.982474371460736
 30
0.0
 10
10.810690266683023
 20
-12.701629943450088
 30
0.0
 10
11.402710430210398
 20
-13.339675935203587
 30
0.0
 10
12.137489742556111
 20
-13.251635222726755
 30
0.0
 10
13.42311388125273
 20
-12.897418939219
 30
0.0
 10
14.296043238200687
 20
-12.509214356596281
 30
0.0
 10
14.782583988289101
 20
-12.19869411621238
 30
0.0
 10
14.932513446038492
 20
-12.06781805962618
 30
0.0
 10
15.149785658011238
 20
-11.811712741691398
 30
0.0
 10
15.82817342003576
 20
-11.285980739606
 30
0.0
 10
16.352823316740917
 20
-11.196535317298812
 30
0.0
 10
18.13314162714662
 20
-12.616291793587461
 30
0.0
 10
18.162684373337527
 20
-13.147691100918626
 30
0.0
 10
17.801089048567235
 20
-13.926056641513494
 30
0.0
 10
17.59975244118545
 20
-14.194870180045342
 30
0.0
 10
17.505520163549207
 20
-14.37016325560757
 30
0.0
 10
17.31105081601902
 20
-14.913602667185208
 30
0.0
 10
17.12682438856961
 20
-15.851029508928162
 30
0.0
 10
17.067567330887975
 20
-17.18324090454907
 30
0.0
 10
17.145237761720637
 20
-17.919188667012886
 30
0.0
 10
17.899023488045934
 20
-18.354387059018094
 30
0.0
 10
18.709253005185577
 20
-18.67237871169368
 30
0.0
 10
19.33306685686379
 20
-18.274247975177317
 30
0.0
 10
20.337685496108637
 20
-17.397298722835252
 30
0.0
 10
20.955732014745905
 20
-16.66878862613707
 30
0.0
 10
21.259360400572007
 20
-16.177917436816173
 30
0.0
 10
21.337657181593116
 20
-15.994950230546003
 30
0.0
 10
21.422292747487422
 20
-15.669936432445432
 30
0.0
 10
21.805392434598943
 20
-14.901926846947688
 30
0.0
 10
22.239276743800918
 20
-14.593702247162454
 30
0.0
 10
24.45929736500158
 20
-15.100407466963086
 30
0.0
 10
24.71647997802126
 20
-15.566363582112261
 30
0.0
 10
24.728413998777718
 20
-16.42453703359504
 30
0.0
 10
24.663649806781255
 20
-16.754086343114974
 30
0.0
 10
24.654806273345823
 20
-16.952905799921787
 30
0.0
 10
24.715384969338974
 20
-17.52690487899459
 30
0.0
 10
24.95613695680677
 20
-18.451430130527104
 30
0.0
 10
25.48077305425914
 20
-19.677421797202392
 30
0.0
 10
25.870067461368937
 20
-20.306787882636183
 30
0.0
 10
26.73803043943841
 20
-20.371832715762604
 30
0.0
 10
27.605993417507893
 20
-20.306787882636186
 30
0.0
 10
27.995287824618913
 20
-19.67742179720041
 30
0.0
 10
28.51992392207049
 20
-18.451430130527164
 30
0.0
 10
28.760675909537838
 20
-17.52690487899459
 30
0.0
 10
28.82125460553099
 20
-16.95290579992177
 30
0.0
 10
28.812411072095585
 20
-16.754086343114956
 30
0.0
 10
28.747646880098984
 20
-16.42453703359507
 30
0.0
 10
28.759580900855735
 20
-15.566363582112249
 30
0.0
 10
29.016763513875233
 20
-15.100407466963079
 30
0.0
 10
31.236784135075897
 20
-14.593702247162472
 30
0.0
 10
31.67066844427804
 20
-14.901926846947633
 30
0.0
 10
32.053768131389276
 20
-15.66993643244546
 30
0.0
 10
32.13840369728373
 20
-15.994950230546014
 30
0.0
 10
32.216700478304816
 20
-16.177917436816198
 30
0.0
 10
32.52032886413091
 20
-16.66878862613708
 30
0.0
 10
33.13837538276856
 20
-17.397298722835014
 30
0.0
 10
34.142994022015
 20
-18.27424797517857
 30
0.0
 10
34.76680787369125
 20
-18.672378711693685
 30
0.0
 10
35.577037390830895
 20
-18.3543870590181
 30
0.0
 10
36.3308231171562
 20
-17.919188667012886
 30
0.0
 10
36.40849354798911
 20
-17.183240904546754
 30
0.0
 10
36.34923649030764
 20
-15.85102950892803
 30
0.0
 10
36.1650100628578
 20
-14.91360266718521
 30
0.0
 10
35.9705407153276
 20
-14.370163255607565
 30
0.0
 10
35.87630843769139
 20
-14.194870180045323
 30
0.0
 10
35.6749718303095
 20
-13.92605664151358
 30
0.0
 10
35.313376505539445
 20
-13.147691100918545
 30
0.0
 10
35.342919251730194
 20
-12.616291793587465
 30
0.0
 10
37.12323756213591
 20
-11.196535317298837
 30
0.0
 10
37.64788745884118
 20
-11.285980739605886
 30
0.0
 10
38.32627522086549
 20
-11.811712741691474
 30
0.0
 10
38.543547432838366
 20
-12.067818059626184
 30
0.0
 10
38.69347689058773
 20
-12.198694116212401
 30
0.0
 10
39.18001764067614
 20
-12.509214356596296
 30
0.0
 10
40.05294699762433
 20
-12.897418939218628
 30
0.0
 10
41.33857113632303
 20
-13.25163522272703
 30
0.0
 10
42.07335044866644
 20
-13.339675935203587
 30
0.0
 10
42.665370612193804
 20
-12.7016299434501
 30
0.0
 10
43.15568257910094
 20
-11.982474371460745
 30
0.0
 10
42.906345452263956
 20
-11.285708412127661
 30
0.0
 10
42.27493182646338
 20
-10.111138092966296
 30
0.0
 10
41.70221528744165
 20
-9.346478543806134
 30
0.0
 10
41.2912149356765
 20
-8.941233640033621
 30
0.0
 10
41.130257772108365
 20
-8.824185889159537
 30
0.0
 10
40.83222593366462
 20
-8.669349939703846
 30
0.0
 10
40.168719652114106
 20
-8.124957151338341
 30
0.0
 10
39.96477122827502
 20
-7.633364801827085
 30
0.0
 10
40.95277335233873
 20
-5.5817572513499085
 30
0.0
 10
41.46427549009593
 20
-5.434707733314818
 30
0.0
 10
42.303588310884486
 20
-5.6140344812952465
 30
0.0
 10
42.61046374268574
 20
-5.7505065199215375
 30
0.0
 10
42.802330509292005
 20
-5.80336981872739
 30
0.0
 10
43.37541826105699
 20
-5.872036768285433
 30
0.0
 10
44.330336091396134
 20
-5.843047158227044
 30
0.0
 10
45.64233210173248
 20
-5.60437359377383
 30
0.0
 10
46.34254482045654
 20
-5.36488673935737
 30
0.0
 10
46.59909877633422
 20
-4.533159242313303
 30
0.0
 10
46.728824685495596
 20
-3.6724840712365827
 30
0.0
 10
46.201864276877956
 20
-3.152902958556176
 30
0.0
 10
45.123353295328016
 20
-2.3686117727217013
 30
0.0
 10
44.27558017919506
 20
-1.9281697177893107
 30
0.0
 10
43.72945248345056
 20
-1.741383045016661
 30
0.0
 10
43.53364997420525
 20
-1.7057633613878105
 30
0.0
 10
43.19795176542406
 20
-1.6955721597361761
 30
0.0
 10
42.363950083524685
 20
-1.4929757918753914
 30
0.0
 10
41.96690497626037
 20
-1.1385562939891782
 30
0.0
 10
41.96690497626039
 20
1.1385562939891525
 30
0.0
 10
42.363950083524664
 20
1.4929757918755442
 30
0.0
 10
43.19795176542405
 20
1.6955721597360356
 30
0.0
 10
43.53364997420526
 20
1.7057633613878158
 30
0.0
 10
43.72945248345058
 20
1.7413830450166374
 30
0.0
 10
44.275580179195074
 20
1.9281697177892858
 30
0.0
 10
45.12335329532786
 20
2.3686117727220983
 30
0.0
 10
46.20186427687962
 20
3.1529029585577986
 30
0.0
 10
46.728824685495596
 20
3.672484071236572
 30
0.0
 10
46.59909877633422
 20
4.533159242313288
 30
0.0
 10
46.34254482045654
 20
5.3648867393573605
 30
0.0
 10
45.64233210173029
 20
5.6043735937745724
 30
0.0
 10
44.330336091396106
 20
5.843047158227467
 30
0.0
 10
43.375418261057
 20
5.872036768285408
 30
0.0
 10
42.802330509292
 20
5.803369818727363
 30
0.0
 10
42.610463742685724
 20
5.750506519921534
 30
0.0
 10
42.30358831088455
 20
5.614034481295121
 30
0.0
 10
41.464275490095886
 20
5.434707733314963
 30
0.0
 10
40.952773352338724
 20
5.581757251349877
 30
0.0
 10
39.96477122827504
 20
7.633364801827067
 30
0.0
 10
40.16871965211402
 20
8.124957151338469
 30
0.0
 10
40.832225933664674
 20
8.669349939703718
 30
0.0
 10
41.13025777210838
 20
8.824185889159548
 30
0.0
 10
41.29121493567653
 20
8.941233640033605
 30
0.0
 10
41.70221528744167
 20
9.346478543806114
 30
0.0
 10
42.274931826463074
 20
10.111138092966584
 30
0.0
 10
42.906345452264745
 20
11.285708412129843
 30
0.0
 10
43.15568257910095
 20
11.982474371460736
 30
0.0
 10
42.6653706121938
 20
12.7016299434501
 30
0.0
 10
42.07335044866643
 20
13.339675935203601
 30
0.0
 10
41.33857113632071
 20
13.251635222726765
 30
0.0
 10
40.05294699762409
 20
12.897418939219012
 30
0.0
 10
39.18001764067614
 20
12.509214356596289
 30
0.0
 10
38.693476890587725
 20
12.198694116212389
 30
0.0
 10
38.54354743283834
 20
12.067818059626187
 30
0.0
 10
38.32627522086559
 20
11.811712741691405
 30
0.0
 10
37.64788745884107
 20
11.285980739606009
 30
0.0
 10
37.12323756213591
 20
11.196535317298821
 30
0.0
 10
35.34291925173021
 20
12.616291793587468
 30
0.0
 10
35.313376505539296
 20
13.147691100918633
 30
0.0
 10
35.67497183030959
 20
13.926056641513497
 30
0.0
 10
35.87630843769138
 20
14.19487018004535
 30
0.0
 10
35.970540715327616
 20
14.370163255607576
 30
0.0
 10
36.1650100628578
 20
14.913602667185213
 30
0.0
 10
36.34923649030721
 20
15.851029508928168
 30
0.0
 10
36.40849354798885
 20
17.183240904549077
 30
0.0
 10
36.330823117156186
 20
17.919188667012893
 30
0.0
 10
35.57703739083089
 20
18.3543870590181
 30
0.0
 10
34.76680787369125
 20
18.672378711693685
 30
0.0
 10
34.14299402201303
 20
18.27424797517732
 30
0.0
 10
33.13837538276819
 20
17.397298722835256
 30
0.0
 10
32.52032886413092
 20
16.66878862613707
 30
0.0
 10
32.216700478304816
 20
16.177917436816177
 30
0.0
 10
32.13840369728371
 20
15.994950230546003
 30
0.0
 10
32.053768131389404
 20
15.669936432445436
 30
0.0
 10
31.670668444277883
 20
14.90192684694769
 30
0.0
 10
31.236784135075908
 20
14.593702247162458
 30
0.0
 10
29.016763513875247
 20
15.100407466963087
 30
0.0
 10
28.759580900855568
 20
15.566363582112263
 30
0.0
 10
28.747646880099104
 20
16.424537033595037
 30
0.0
 10
28.812411072095568
 20
16.754086343114977
 30
0.0
 10
28.821254605531
 20
16.952905799921783
 30
0.0
 10
28.76067590953785
 20
17.526904878994593
 30
0.0
 10
28.519923922070053
 20
18.451430130527104
 30
0.0
 10
27.995287824617684
 20
19.677421797202385
 30
0.0
 10
27.605993417507886
 20
20.306787882636183
 30
0.0
 10
26.73803043943841
 20
20.371832715762608
 30
0.0
 10
25.87006746136893
 20
20.306787882636186
 30
0.0
 10
25.48077305425791
 20
19.67742179720041
 30
0.0
 10
24.956136956806333
 20
18.45143013052716
 30
0.0
 10
24.715384969338984
 20
17.526904878994586
 30
0.0
 10
24.654806273345834
 20
16.952905799921773
 30
0.0
 10
24.663649806781237
 20
16.754086343114956
 30
0.0
 10
24.72841399877784
 20
16.42453703359507
 30
0.0
 10
24.71647997802109
 20
15.566363582112247
 30
0.0
 10
24.459297365001593
 20
15.100407466963079
 30
0.0
 10
22.23927674380093
 20
14.593702247162469
 30
0.0
 10
21.805392434598787
 20
14.90192684694763
 30
0.0
 10
21.422292747487546
 20
15.669936432445454
 30
0.0
 10
21.337657181593094
 20
15.994950230546015
 30
0.0
 10
21.259360400572014
 20
16.177917436816195
 30
0.0
 10
20.955732014745912
 20
16.668788626137076
 30
0.0
 10
20.337685496108264
 20
17.397298722835018
 30
0.0
 10
19.333066856861823
 20
18.274247975178564
 30
0.0
 10
18.70925300518557
 20
18.67237871169368
 30
0.0
 10
17.89902348804595
 20
18.354387059018105
 30
0.0
 10
17.145237761720647
 20
17.919188667012893
 30
0.0
 10
17.06756733088774
 20
17.18324090454676
 30
0.0
 10
17.126824388569208
 20
15.851029508928033
 30
0.0
 10
17.311050816019048
 20
14.913602667185215
 30
0.0
 10
17.50552016354924
 20
14.370163255607572
 30
0.0
 10
17.599752441185455
 20
14.194870180045328
 30
0.0
 10
17.801089048567345
 20
13.926056641513584
 30
0.0
 10
18.1626843733374
 20
13.147691100918548
 30
0.0
 10
18.13314162714665
 20
12.616291793587468
 30
0.0
 10
16.35282331674093
 20
11.196535317298842
 30
0.0
 10
15.828173420035656
 20
11.285980739605892
 30
0.0
 10
15.14978565801135
 20
11.811712741691482
 30
0.0
 10
14.932513446038477
 20
12.067818059626191
 30
0.0
 10
14.782583988289108
 20
12.198694116212407
 30
0.0
 10
14.2960432382007
 20
12.509214356596303
 30
0.0
 10
13.423113881252517
 20
12.897418939218634
 30
0.0
 10
12.13748974255381
 20
13.251635222727039
 30
0.0
 10
11.402710430210407
 20
13.339675935203594
 30
0.0
 10
10.810690266683029
 20
12.701629943450087
 30
0.0
 10
10.320378299775882
 20
11.982474371460732
 30
0.0
 10
10.569715426612877
 20
11.28570841212765
 30
0.0
 10
11.20112905241345
 20
10.111138092966284
 30
0.0
 10
11.773845591435178
 20
9.346478543806121
 30
0.0
 10
12.18484594320033
 20
8.941233640033609
 30
0.0
 10
12.345803106768464
 20
8.824185889159526
 30
0.0
 10
12.643834945212213
 20
8.669349939703835
 30
0.0
 10
13.30734122676273
 20
8.124957151338332
 30
0.0
 10
13.511289650601812
 20
7.633364801827076
 30
0.0
 10
12.523287526538104
 20
5.581757251349896
 30
0.0
 10
12.0117853887809
 20
5.434707733314806
 30
0.0
 10
11.17247256799235
 20
5.614034481295235
 30
0.0
 10
10.865597136191093
 20
5.750506519921525
 30
0.0
 10
10.673730369584831
 20
5.803369818727379
 30
0.0
 10
10.100642617819837
 20
5.872036768285421
 30
0.0
 10
9.145724787480699
 20
5.84304715822703
 30
0.0
 10
7.833728777144351
 20
5.604373593773814
 30
0.0
 10
7.133516058420295
 20
5.364886739357355
 30
0.0
 10
6.876962102542613
 20
4.533159242313301
 30
0.0
 10
6.747236193381244
 20
3.672484071236581
 30
0.0
 10
7.274196601998877
 20
3.152902958556174
 30
0.0
 10
8.35270758354882
 20
2.3686117727216995
 30
0.0
 10
9.200480699681773
 20
1.928169717789309
 30
0.0
 10
9.542200209133073
 20
1.8112947621895987
 30
0.0
 10
8.529093814704055
 20
1.995595409770629
 30
0.0
 10
8.239740996292305
 20
1.960925369580163
 30
0.0
 10
7.218309483165882
 20
1.506679683976445
 30
0.0
 10
6.184698574579883
 20
1.7146917101156887
 30
0.0
 10
5.196696450516193
 20
3.7662992605928562
 30
0.0
 10
5.678511960341879
 20
4.704102186509566
 30
0.0
 10
6.670507669853608
 20
5.219471948144509
 30
0.0
 10
6.878022330191753
 20
5.424080674630878
 30
0.0
 10
7.376151661787764
 20
6.350712448302943
 30
0.0
 10
7.72569386881037
 20
8.1293402582301
 30
0.0
 10
7.693499414623487
 20
8.434391180036192
 30
0.0
 10
7.144666843190678
 20
8.959128847174904
 30
0.0
 10
6.5109587085430904
 20
9.377435924405514
 30
0.0
 10
6.206392110223661
 20
9.340942980385238
 30
0.0
 10
4.550138671306691
 20
8.604382604847608
 30
0.0
 10
3.7575836949370145
 20
7.912547447887061
 30
0.0
 10
3.604281292437545
 20
7.6647058884231125
 30
0.0
 10
3.3225727384863455
 20
6.582901021763671
 30
0.0
 10
2.5154965271254133
 20
5.904484849770545
 30
0.0
 10
0.29547590592476763
 20
6.411190069571158
 30
0.0
 10
-0.13732088915386842
 20
7.372599164356614
 30
0.0
 10
0.07824601445607009
 20
8.469500431091847
 30
0.0
 10
0.047659744958349036
 20
8.759313379953422
 30
0.0
 10
-0.36623159009683887
 20
9.726512034698743
 30
0.0
 10
-1.5388828060932658
 20
11.108751437392291
 30
0.0
 10
-1.7974541343790904
 20
11.273776938341815
 30
0.0
 10
-2.5499020738012272
 20
11.17185093950389
 30
0.0
 10
-3.2720582754269936
 20
10.937208165838937
 30
0.0
 10
-3.4334211109429686
 20
10.67633543232817
 30
0.0
 10
-3.8902121490673616
 20
8.92218646823599
 30
0.0
 10
-3.8434635878562795
 20
7.871189871191235
 30
0.0
 10
-3.7452757385622544
 20
7.596806541776628
 30
0.0
 10
-3.075129046405718
 20
6.702063623453727
 30
0.0
 10
-3.047925712032371
 20
5.648080468006974
 30
0.0
 10
-4.828244022438065
 20
4.228323991718347
 30
0.0
 10
-5.849748308281098
 20
4.489378597827573
 30
0.0
 10
-6.572936485754704
 20
5.341822343103319
 30
0.0
 10
-6.818591600310313
 20
5.4986044527405475
 30
0.0
 10
-7.832834984875538
 20
5.778049674278871
 30
0.0
 10
-9.644649340520175
 20
5.723046206965182
 30
0.0
 10
-9.934888058811847
 20
5.623778718936405
 30
0.0
 10
-10.324342720697679
 20
4.971941410158268
 30
0.0
 10
-10.591148640175504
 20
4.261039580007769
 30
0.0
 10
-10.48779820654251
 20
3.972229546174095
 30
0.0
 10
-9.401153875327587
 20
2.5214019416066553
 30
0.0
 10
-8.550304396624552
 20
1.9026657784759244
 30
0.0
 10
-8.27456374872255
 20
1.8083569225597675
 30
0.0
 10
-7.157195938153421
 20
1.7744356194999087
 30
0.0
 10
-6.316197723675818
 20
1.1385562939891574
 30
0.0
 10
-6.316197723675817
 20
-1.1385562939891556
 30
0.0
 10
-7.1571959381534205
 20
-1.7744356194999091
 30
0.0
 10
-8.274563748722553
 20
-1.8083569225597595
 30
0.0
 10
-8.550304396624554
 20
-1.9026657784759147
 30
0.0
 10
-9.401153875327573
 20
-2.521401941606636
 30
0.0
 10
-10.48779820654251
 20
-3.9722295461740957
 30
0.0
 10
-10.591148640175502
 20
-4.261039580007773
 30
0.0
 10
-10.324342720697677
 20
-4.971941410158276
 30
0.0
 10
-9.934888058811842
 20
-5.623778718936415
 30
0.0
 10
-9.64464934052017
 20
-5.723046206965191
 30
0.0
 10
-7.832834984875557
 20
-5.778049674278878
 30
0.0
 10
-6.818591600310316
 20
-5.498604452740545
 30
0.0
 10
-6.572936485754704
 20
-5.341822343103315
 30
0.0
 10
-5.849748308281095
 20
-4.489378597827577
 30
0.0
 10
-4.8282440224380645
 20
-4.228323991718351
 30
0.0
 10
-3.0479257120323666
 20
-5.648080468006974
 30
0.0
 10
-3.075129046405712
 20
-6.702063623453729
 30
0.0
 10
-3.7452757385622566
 20
-7.596806541776628
 30
0.0
 10
-3.8434635878562826
 20
-7.871189871191233
 30
0.0
 10
-3.8902121490673602
 20
-8.92218646823597
 30
0.0
 10
-3.43342111094296
 20
-10.676335432328173
 30
0.0
 10
-3.272058275426983
 20
-10.93720816583894
 30
0.0
 10
-2.5499020738012312
 20
-11.17185093950389
 30
0.0
 10
-1.7974541343790886
 20
-11.273776938341815
 30
0.0
 10
-1.5388828060932653
 20
-11.108751437392291
 30
0.0
 10
-0.3662315900968543
 20
-9.72651203469876
 30
0.0
 10
0.04765974495833856
 20
-8.759313379953422
 30
0.0
 10
0.07824601445606179
 20
-8.469500431091845
 30
0.0
 10
-0.13732088915386864
 20
-7.372599164356614
 30
0.0
 10
0.2954759059247664
 20
-6.41119006957116
 30
0.0
 10
2.5154965271254115
 20
-5.904484849770545
 30
0.0
 10
3.3225727384863455
 20
-6.582901021763671
 30
0.0
 10
3.604281292437538
 20
-7.664705888423118
 30
0.0
 10
3.7575836949370047
 20
-7.912547447887066
 30
0.0
 10
4.55013867130667
 20
-8.604382604847597
 30
0.0
 10
6.206392110223662
 20
-9.34094298038524
 30
0.0
 10
6.510958708543094
 20
-9.377435924405514
 30
0.0
  0
LWPOLYLINE
  8
OpenJsCad
  90
18
  70
1
 10
9.583932948847686
 20
-1.797021324571011
 30
0.0
 10
11.172665485064886
 20
-0.9716299437000684
 30
0.0
 10
11.391090985626851
 20
-0.7562631670621851
 30
0.0
 10
11.459155902616466
 20
-1.8650748984663756e-16
 30
0.0
 10
11.39109098562685
 20
0.7562631670621902
 30
0.0
 10
11.172665485064886
 20
0.9716299437000717
 30
0.0
 10
9.58393294884757
 20
1.7970213245710744
 30
0.0
 10
9.746608395426277
 20
1.7413830450166574
 30
0.0
 10
9.942410904671586
 20
1.7057633613878087
 30
0.0
 10
10.278109113452778
 20
1.6955721597361744
 30
0.0
 10
11.112110795352153
 20
1.4929757918753896
 30
0.0
 10
11.509155902616461
 20
1.1385562939891765
 30
0.0
 10
11.509155902616449
 20
-1.1385562939891543
 30
0.0
 10
11.112110795352173
 20
-1.4929757918755457
 30
0.0
 10
10.278109113452782
 20
-1.6955721597360376
 30
0.0
 10
9.942410904671572
 20
-1.705763361387818
 30
0.0
 10
9.746608395426257
 20
-1.7413830450166397
 30
0.0
 10
9.583932948847686
 20
-1.797021324571011
 30
0.0
  0
LWPOLYLINE
  8
OpenJsCad
  90
31
  70
1
 10
0.41582338163551874
 20
-1.9562952014676114
 30
0.0
 10
1.2246467991473532e-16
 20
-2
 30
0.0
 10
-0.41582338163551785
 20
-1.9562952014676114
 30
0.0
 10
-0.8134732861516002
 20
-1.827090915285202
 30
0.0
 10
-1.1755705045849467
 20
-1.6180339887498947
 30
0.0
 10
-1.486289650954788
 20
-1.338261212717717
 30
0.0
 10
-1.7320508075688772
 20
-1.0000000000000002
 30
0.0
 10
-1.9021130325903073
 20
-0.6180339887498946
 30
0.0
 10
-1.9890437907365468
 20
-0.20905692653530608
 30
0.0
 10
-1.9890437907365466
 20
0.20905692653530836
 30
0.0
 10
-1.902113032590307
 20
0.618033988749895
 30
0.0
 10
-1.732050807568877
 20
1.0000000000000009
 30
0.0
 10
-1.486289650954788
 20
1.338261212717717
 30
0.0
 10
-1.175570504584946
 20
1.618033988749895
 30
0.0
 10
-0.8134732861516005
 20
1.8270909152852017
 30
0.0
 10
-0.41582338163551824
 20
1.9562952014676114
 30
0.0
 10
1.0106430996148606e-15
 20
2
 30
0.0
 10
0.4158233816355185
 20
1.9562952014676114
 30
0.0
 10
0.8134732861516
 20
1.827090915285202
 30
0.0
 10
1.1755705045849465
 20
1.6180339887498947
 30
0.0
 10
1.486289650954789
 20
1.3382612127177158
 30
0.0
 10
1.7320508075688774
 20
0.9999999999999997
 30
0.0
 10
1.9021130325903073
 20
0.6180339887498948
 30
0.0
 10
1.9890437907365468
 20
0.20905692653530678
 30
0.0
 10
1.9890437907365466
 20
-0.2090569265353068
 30
0.0
 10
1.902113032590307
 20
-0.6180339887498948
 30
0.0
 10
1.7320508075688772
 20
-1.0000000000000002
 30
0.0
 10
1.4862896509547885
 20
-1.3382612127177165
 30
0.0
 10
1.1755705045849463
 20
-1.618033988749895
 30
0.0
 10
0.8134732861516004
 20
-1.8270909152852017
 30
0.0
 10
0.41582338163551874
 20
-1.9562952014676114
 30
0.0
  0
LWPOLYLINE
  8
OpenJsCad
  90
31
  70
1
 10
25.897315982819286
 20
1.8147173891357298
 30
0.0
 10
26.29298857152579
 20
1.9498558243636472
 30
0.0
 10
26.70811162540789
 20
1.9997762036205466
 30
0.0
 10
27.124542275029526
 20
1.9622967667883453
 30
0.0
 10
27.524080502746266
 20
1.8390555451029011
 30
0.0
 10
27.889264570809765
 20
1.6354387713288627
 30
0.0
 10
28.20413418309807
 20
1.3603454755418387
 30
0.0
 10
28.45492802664215
 20
1.0257985548118118
 30
0.0
 10
28.63068520703675
 20
0.646419314908919
 30
0.0
 10
28.723724292122093
 20
0.23878844908048702
 30
0.0
 10
28.729979027428897
 20
-0.17927861780686738
 30
0.0
 10
28.6491760510107
 20
-0.5895103488218096
 30
0.0
 10
28.484846840672677
 20
-0.9739776488087353
 30
0.0
 10
28.24417337144564
 20
-1.3158774518794254
 30
0.0
 10
27.937674228814245
 20
-1.6002670960224128
 30
0.0
 10
27.57874489605755
 20
-1.81471738913573
 30
0.0
 10
27.183072307351047
 20
-1.9498558243636475
 30
0.0
 10
26.767949253468945
 20
-1.9997762036205469
 30
0.0
 10
26.35151860384731
 20
-1.9622967667883453
 30
0.0
 10
25.95198037613057
 20
-1.839055545102901
 30
0.0
 10
25.586796308067072
 20
-1.635438771328862
 30
0.0
 10
25.271926695778767
 20
-1.3603454755418383
 30
0.0
 10
25.021132852234686
 20
-1.025798554811812
 30
0.0
 10
24.845375671840088
 20
-0.6464193149089197
 30
0.0
 10
24.752336586754744
 20
-0.23878844908048852
 30
0.0
 10
24.74608185144794
 20
0.17927861780686716
 30
0.0
 10
24.826884827866138
 20
0.589510348821809
 30
0.0
 10
24.99121403820416
 20
0.9739776488087346
 30
0.0
 10
25.231887507431196
 20
1.3158774518794254
 30
0.0
 10
25.53838665006259
 20
1.6002670960224128
 30
0.0
 10
25.897315982819286
 20
1.8147173891357298
 30
0.0
  0
ENDSEC
  0
EOF
